<?xml version="1.0" encoding="UTF-8"?>
<svg id="Calque_1" data-name="Calque 1" xmlns="http://www.w3.org/2000/svg" xmlns:xlink="http://www.w3.org/1999/xlink" viewBox="0 0 576.18 575.6">
  <defs>
    <style>
      .cls-1 {
        fill: none;
      }

      .cls-2 {
        fill: #a85d37;
      }

      .cls-3 {
        fill: #741f12;
      }

      .cls-4 {
        fill: #722015;
      }

      .cls-5 {
        fill: #c05d34;
      }

      .cls-6 {
        fill: #6d2211;
      }

      .cls-7 {
        fill: #d1a47f;
      }

      .cls-8 {
        fill: #213655;
      }

      .cls-9 {
        fill: #be5e35;
      }

      .cls-10 {
        fill: #728393;
      }

      .cls-11 {
        fill: #aa6039;
      }

      .cls-12 {
        fill: #546778;
      }

      .cls-13 {
        fill: #a85d38;
      }

      .cls-14 {
        fill: #bf5a2e;
      }

      .cls-15 {
        fill: #1e3252;
      }

      .cls-16 {
        fill: #554033;
      }

      .cls-17 {
        fill: #bd5a30;
      }

      .cls-18 {
        fill: #556877;
      }

      .cls-19 {
        fill: #6f7f8c;
      }

      .cls-20 {
        fill: #d3a784;
      }

      .cls-21 {
        fill: #92a4b2;
      }

      .cls-22 {
        fill: #a65d39;
      }

      .cls-23 {
        fill: #e4b48a;
      }

      .cls-24 {
        fill: #4ec67f;
      }

      .cls-25 {
        fill: #5c4539;
      }

      .cls-26 {
        fill: #93290c;
      }

      .cls-27 {
        fill: #be5c32;
      }

      .cls-28 {
        fill: #243652;
      }

      .cls-29 {
        fill: #e2b28b;
      }

      .cls-30 {
        fill: #5a4237;
      }

      .cls-31 {
        fill: #594137;
      }

      .cls-32 {
        fill: #c08b65;
      }

      .cls-33 {
        fill: #544034;
      }

      .cls-34 {
        fill: #574035;
      }

      .cls-35 {
        fill: #bf8b66;
      }

      .cls-36 {
        fill: #623a17;
      }

      .cls-37 {
        fill: #cee5f2;
      }

      .cls-38 {
        fill: #553e35;
      }

      .cls-39 {
        fill: #544036;
      }

      .cls-40 {
        fill: #90a2b1;
      }

      .cls-41 {
        fill: #546878;
      }

      .cls-42 {
        fill: #c25f34;
      }

      .cls-43 {
        fill: #ca7e4e;
      }

      .cls-44 {
        fill: #be5c33;
      }

      .cls-45 {
        fill: #a56748;
      }

      .cls-46 {
        fill: #9f3c24;
      }

      .cls-47 {
        fill: #c28d68;
      }

      .cls-48 {
        fill: #59443a;
      }

      .cls-49 {
        fill: #d99966;
      }

      .cls-50 {
        fill: #738495;
      }

      .cls-51 {
        fill: #e4b38a;
      }

      .cls-52 {
        fill: #a75e39;
      }

      .cls-53 {
        fill: #cfe9f7;
      }

      .cls-54 {
        fill: #aa5f3b;
      }

      .cls-55 {
        fill: #a95f39;
      }

      .cls-56 {
        fill: #594238;
      }

      .cls-57 {
        fill: #ccf2db;
      }

      .cls-58 {
        fill: #39261f;
      }

      .cls-59 {
        fill: #524035;
      }

      .cls-60 {
        fill: #e3b289;
      }

      .cls-61 {
        fill: #9e4632;
      }

      .cls-62 {
        fill: #ca7d4d;
      }

      .cls-63 {
        fill: #ba5a33;
      }

      .cls-64 {
        fill: #523e34;
      }

      .cls-65 {
        fill: #c08a65;
      }

      .cls-66 {
        fill: #546677;
      }

      .cls-67 {
        fill: #a86a4a;
      }

      .cls-68 {
        fill: #bd5c34;
      }

      .cls-69 {
        fill: #526576;
      }

      .cls-70 {
        fill: #bb5932;
      }

      .cls-71 {
        fill: #38200e;
      }

      .cls-72 {
        fill: #564036;
      }

      .cls-73 {
        fill: #ca7e4d;
      }

      .cls-74 {
        fill: #263450;
      }

      .cls-75 {
        fill: #d6ecf9;
      }

      .cls-76 {
        fill: #6a201a;
      }

      .cls-77 {
        fill: #a95f3b;
      }

      .cls-78 {
        fill: #c18d69;
      }

      .cls-79 {
        fill: #1e3458;
      }

      .cls-80 {
        fill: #be5b31;
      }

      .cls-81 {
        fill: #1d3355;
      }

      .cls-82 {
        fill: #ed9885;
      }

      .cls-83 {
        clip-path: url(#clippath);
      }

      .cls-84 {
        fill: #553f35;
      }

      .cls-85 {
        fill: #35241c;
      }

      .cls-86 {
        fill: #9f3c23;
      }

      .cls-87 {
        fill: #78ffaf;
      }

      .cls-88 {
        fill: #9c3b24;
      }

      .cls-89 {
        fill: #da9766;
      }
    </style>
    <clipPath id="clippath">
      <circle class="cls-1" cx="288.09" cy="287.8" r="287.8"/>
    </clipPath>
  </defs>
  <g class="cls-83">
    <path class="cls-57" d="M490.76,468.67c1.78-23.29.53-47.95-7.75-70.96-4.8-13.34-13.38-24.58-25.4-31.92-20.59-12.58-40.66-11.16-58.53-19.97-2.06-1.02-3.69-2.51-5.91-3.38-3.56-1.39-18.87-7.25-19.72-9.75-.56-.58-1.09-1.17-1.54-1.82s-.86-1.28-1.07-1.97c-8.36-27.51-9.99-60.65-8.51-89.3.04-.72.29-1.43.55-2.16s.64-1.44,1.03-2.14c.24-5.13,5.03-3.74,7.69-12.38,3.31-10.75,13.3-39.42-.8-44.33l-.94-2.77c8.55-35.4.45-77.09-30.33-99.18-3.92-27.92-19.29-48.07-49.42-48.04-28.33.02-43.1,18.48-47.58,44.69-34.49,20.21-45.22,63.07-36.65,100.35l-.54,3.44c.12.9-.28,1.7-1.33,2.21-7.02,3.37-6.75,15.43-5.32,22.15,1.63,7.64,3.6,15,6.26,22.34,2.25,6.21,7.62,10.29,13.99,12.23l4.28,17.95c1.93,8.09,6.5,14.58,12.07,21.04.74,10.06.51,20.21-.41,30.3-.78,8.5-4.94,14.71-11.64,19.46-2.98,2.11-5.9,2.75-9.18,4.2l-33.9,14.96c-2.44,1.08-4.27,2.86-6.94,3.77-18.43,6.28-33.34,7.29-49.63,15.35-26.02,12.88-34.42,39.09-37.41,65.69-.83,3.23-.69,6.5-.69,9.81-.61,8.72-.58,17.89,0,26.63,0,3.81-.05,7.62-.3,11.99C-6.46,378.62-14.3,230.35,65.42,121.89c37.25-50.69,91.18-87.12,152.33-102.78,32.75-8.39,66.7-11.02,100.45-7.32,54.85,6,106.59,27.6,148.36,62.91,81.24,68.67,116.59,178.24,90.55,281.48-11.39,45.18-34.2,86.74-65.99,120.87-.88-3.16-.04-5.78-.36-8.38Z"/>
    <g>
      <g>
        <path class="cls-21" d="M85.11,348.49c.14.34.29.88.07,1.01-16.61,9.62-34.03,19.28-52.25,26.09-15.56,7-24.55,17.98-27.32,35.01-.64,7.96-1.85,15.78-3.64,23.47l-.86,1.05c-1.35-1.64-3.39-2.94-4.29-5.12-.13-.75-.04-1.94.1-2.63,2.35-11.9,1.53-21.28,7.21-33.64,6.63-14.4,17.94-22.09,32.74-26.89,6.22-2.02,11.65-4.79,17.39-7.94l28.09-15.45c.72-.28,1.07-.38,1.8-.17.28.08,2.28,4.96.97,5.21Z"/>
        <path class="cls-40" d="M278.27,430.08c-1.21,1.83-2.75,3.4-4.19,5.05-1.21-.87-1.86-2.19-1.95-3.96l-.99-6.02c-1.1-22.28-7.45-39.98-28.96-49.53-18.32-6.87-35.75-16.44-52.36-26.07l-.04-1.07c-.83-1.12.19-5.53,1.79-5.46l29.32,16.08c5.76,3.16,11.22,5.84,17.46,7.89,4.67,1.54,9.05,3.34,13.37,5.78,14.61,8.28,21.96,22.77,24.13,39.09l2.42,18.23Z"/>
        <path class="cls-10" d="M274.08,435.13c-8.28,9.5-17.65,18.28-27.86,25.64l-.97-.05-4.52-16.42,6.96-14.62c1.61-4.3-5.71,3.78-5.8,4.75-1.23,1.78-2.42,2.16-3.58,1.14-2.05-6.19-3.42-12.45-4.1-18.77.01-.14,0-.28,0-.42-.19-15.75-7.55-30.46-19.86-40.67-9.06-7.51-18.87-13.51-29.13-19.35l4.55-7.88,29.93,16.42c5.21,2.86,10.17,5.15,15.76,7.14,4.56,1.63,8.91,3.31,13.1,5.75,13.6,7.93,20.58,21.34,22.33,36.74.81,7.1,1.17,14.02,3.17,20.6Z"/>
        <path class="cls-10" d="M41.08,415.37c-.57.76-.13,1.99-.47,2.74-.87,5.76-2.18,11.44-3.94,17.04-1.23,1.33-2.61.89-4.14-1.32-10.99-14.38-2.03,3.04.48,7.41.45.97.86,1.97.96,3.05.21,2.39-3.27,13.87-4.6,16.12-.16.27-.76.12-1.15-.08-9.86-7.33-19.29-15.73-27.09-25.21,1.53-6.67,2.33-13.42,3.03-20.44,1.55-15.45,8.32-28.72,21.93-36.7,8.56-5.02,16.49-6.17,27.11-11.99l31.93-17.5c.97,2.75,3.06,5.16,4.49,7.92-10.56,5.97-20.5,11.98-29.55,19.68-11.19,9.53-18.06,22.54-19.25,37.13-.07.84.15,1.59.28,2.15Z"/>
        <path class="cls-69" d="M203.05,484.63l2.42-12.81c-14.84,3.26-29.35-.44-43.26-5.03-1.07-.35-1.05-1.76-.77-2.36.42-.9,1.54-1.15,2.62-.95,8.68,1.59,17.15,2.63,25.85,1.63,13.44-1.54,24.84-8.46,31.94-19.9.66-1.07,1.36-2.08,2.29-2.66l-1.24,7.33-4.03,27.79c-4.97,3.16-10.57,4.81-15.82,6.96Z"/>
        <path class="cls-69" d="M71.84,484.63c-5.13-2.14-10.65-3.71-15.61-7l-3.43-21.28c-.75-4.68-.61-9.57-2.12-13.86.78.37,1.15,1.2,1.7,2.02,3.82,5.66,8.24,10.67,14.11,14.26,14.46,8.83,29.01,7.26,44.8,4.73,1.15-.18,2.05.21,2.21,1.21.13.76-.07,1.9-1.13,2.23-15.34,4.71-26.75,7.94-42.94,4.95l2.41,12.76Z"/>
        <path class="cls-41" d="M28.21,460.33c1.06-.08,4.95-14.4,4.84-15.99-.06-3.28-9.11-15.33-6.17-16.71,2.73-1.28,4.97,5.37,8.73,7.84,2.08-6.01,2.58-12.02,4.99-17.36,1.1,7.83,2.12,15.69,4.7,23.39,1.32,2.79,1.72,5.56,1.13,8.59-1.3,6.68-2.59,13.33-4.31,19.86-5.31-2.83-9.55-6.37-13.92-9.63Z"/>
        <path class="cls-18" d="M246.22,460.76c-4.27,3.08-8.36,6.48-13.44,9.32-1.79-7.18-3.42-14.33-4.52-21.61-.3-2.02.14-3.84.86-5.63,2.92-8.54,4.36-17.27,5.09-26.06l5.07,18.84c3.4-2.27,6.29-9.83,8.97-7.77.5.39.72,1.29.29,2.17l-6.93,14.3,4.61,16.44Z"/>
        <g>
          <path class="cls-79" d="M284.82,432.9c-35.97,44.99-90.54,71.07-148.18,70.82-57.63-.26-111.97-26.83-147.53-72.14,1.57-.77,1.09-2.85,1.6-4.3,1.01-.55,2.93-.96,4.16-1.53,1.18-.54,1.66.93,2.04,1.62l.81.79c-.05,2.06,1.03,3.89,3.21,5.48l.17,1.48,2.52,1.57c7.32,8.08,15.26,15.52,23.8,22.3l.77,1.34,1.12.13.69.08c3.53,2.83,7.23,5.43,11.09,7.8.91,1.56,1.12,1.48.61-.25,1.41-6.17,2.78-12.39,3.91-18.61.3-1.65.22-3.48-.22-5.09-2.33-7.06-4.93-15.56-5.2-23.08l.41-3.18c-1.15-.51-1.13-2.56.06-2.74.12-.02.26-.02.41,0-.24-1.26,1.68-1.85,2.61-1.26.26.17.45.42.49.78,1.24-.74,1.65.5,1.94,1.69.72,7.9,2.11,15.81,4.67,23.37l-.11,2.52c.11.24.23.49.36.73,1.75,3.74,2.62,7.89,2.59,12.44l3.43,21.28c4.07,2.51,8.6,4.58,13.58,6.23.1.04.21.07.31.11l.89,1.35,3.19.3c27.55,10.33,58.25,13.5,87.46,9.52,13.43-1.83,24.38-5.28,37.11-9.44,1.11-.36,2.29-.39,3.45-.38l.99-1.38c.09-.03.18-.06.28-.09,4.76-1.61,9.33-3.63,13.72-6.04l4.67-31.49,1.45-3.07-.16-2.13c2.56-7.86,4.22-15.91,4.97-24.15.33-1.23.81-2.16,2.08-1.45,1.31-1.85,2.93-.47,3.18,1.53.41.08.4.22,0,.42.52,6.15-.12,12.29-1.92,18.43-1.32,4-2.39,7.93-3.21,11.8.95,7.09,2.32,14.15,4.12,21.17-.51,1.79-.31,1.87.6.25,3.65-2.32,7.19-4.81,10.6-7.47l1.82-.2c2.12-2.74,4.71-5.14,7.79-7.2,6.48-5.63,12.69-11.53,18.62-17.71l1.45-.73c.04-2.01,2.23-4.67,4.19-5.05,1.3-1.97-.42-2.36,1.56-4.42,3.94,3.04,1.1,4.42,4.99,7.24Z"/>
          <path class="cls-53" d="M50.86,474.79c-1.75-.29-2.74-1.34-4.45-2.23.75-3.44,1.33-6.63,2.48-10.13l1.96,12.36Z"/>
          <path class="cls-37" d="M228.62,472.47c-1.54,1.07-2.76,1.87-4.48,2.5l1.84-12.36,2.64,9.86Z"/>
        </g>
        <g>
          <path class="cls-50" d="M188.61,341.33c.22.62.46,1.31.29,1.98-2.46,9.81-12.34,19.66-19.77,26.01-.9,3.98,7.04-3.9,7.95-4.8,1.85-2.2,3.85-4.21,6-6.04,23,11.73,45.65,26.81,48.65,54.34.03.31-.07.65-.19.99s-.3.69-.5,1.03c-1.02.53-1.25,1.59-1.4,2.88-.99,8.62-2.33,17.03-5.5,24.84-10.89,23.12-37.5,27.21-60.52,21.79-1.17-.53-1.89,1.32-1.21,1.56,13.28,4.66,27.95,7.93,41.99,5.21,1.21-.26,1.51.32,1.89,1.28.21.53-1.82,10.62-2.1,11.11l-1.15,1.12c-27.41,11.22-57.91,14.58-87.57,11-15.2-1.84-29.89-5.25-43.64-11l-1.15-1.12-2.05-10.82c.17-1.14.52-1.8,1.78-1.55,14.1,2.74,28.23-.69,41.61-5.06.83-.27.92-1.86-.34-1.71-23.19,5.13-49.83,1.67-61.03-21.88-2.76-7.81-4.61-15.83-5.28-24.38-.1-1.28-.34-2.48-1.22-3.2-.22-.3-.41-.6-.56-.93s-.25-.62-.23-.91c1.8-27.19,26.02-43.34,48.49-54.55,3.99,4.42,8.33,8.42,13.01,12,1.04.1,1.36-.75.55-1.51-5.5-4.28-10.03-9.12-13.92-14.89-1.69-2.51-5.4-8.67-5.57-11.47-.03-.56.27-1.06.58-1.5l4.67-2.37c5.16,19.75,28.53,35.24,46.3,43.06,17.93-7.91,40.77-23.04,46.3-43.01,1.91.68,3.24,1.84,4.82,2.52Z"/>
          <g>
            <path class="cls-12" d="M191.57,343.02c-.77,1.68-.88,3.88-1.79,5.46l.53.91-3.82,6.61c10.65,6.16,21.28,12.64,30.52,20.81,5.71,5.04,10.51,11.81,13.58,18.76,1.99,4.5,5.07,14.25,4.49,18.98-.08.69-.43,1.29-.87,1.82-.68-1.13-1.87-1.69-3.18-1.53-1.44-14.29-7.64-27.06-18.95-36.48-8.96-7.46-18.71-13.59-29.03-19.12-2.05,2.45-13.23,15.55-15.04,11.29-.26-.62-.08-1.37.57-1.95l3.91-3.46c7.39-6.52,13.12-14.58,16.11-23.79,1.07.46,1.97,1.14,2.96,1.69Z"/>
            <path class="cls-66" d="M44.17,414.9c-1.06-.18-2.13.02-3.09.47-1.28.16-1.25-1.08-1.19-2.2,1.48-28.2,25.93-45.33,49.07-57.1l-.6-.04c-.38-.29-3.78-6-3.76-6.37.03-.45.2-.85.52-1.18l-1.58-4.45c-.2-.56-.7-.68-1.19-.59l4.16-2.32c1.2,5.53,4.26,10.48,7.69,15.24,3.29,4.57,7.32,8.2,11.64,11.76.79.65,1.22,1.66.79,2.44-.27.5-1.43,1.23-2.2.71-4.8-3.25-8.74-7.3-12.65-12-9.72,5.04-18.64,10.86-27.27,17.57-12.05,9.38-19.56,23-20.35,38.05Z"/>
          </g>
        </g>
      </g>
      <g>
        <g>
          <path class="cls-58" d="M187.07,244.42c-.59.08-2.66,5.26-1.02,5.41.22.62.03,1.32-.57,2.11l-1.21,10.27-.99.54c-.93-1.32-2.51-1.75-4.08-1.86.38-2.64-.32-19.76-1.25-21.31l-4.35-7.21c-1.6-2.66,3.41-14.53-7.39-19.29,1.38,3.98,2.8,7.48,1.51,11.5-2.81-4.12-5.51-7.89-10.14-9.49,4.15,4.81,6.12,11.17,3.97,17.09-1.93-4.39-3.14-8.29-6.57-11.39-11.27-10.17-13.16-2.15-27.04-5.89l-12.62-3.41c-2.98-.8-5.66.78-8.04,2.25-9.17,5.65-4.3,16.1-5.99,18.96l-4.23,7.15c-3.25,5.5-1.44,13.53-1.29,20.62-1,1.24-2.88.95-4.19,1.79l-.98-.42-1.25-10.06c-.58-.8-.73-1.54-.45-2.23,1.85-.06.24-4.9-1.02-5.62-1.36-10.42-3.14-20.76-3.12-31.47-1.29.6-1.58,1.66-2.57,2.45-.99-6.09.5-13.49,6.73-17.25-2-1.89-4.28-1.14-6.57-1.19,2.4-4.34,6.7-6.12,11.26-6.09-.22-7.18,3.39-13.68,9.59-17.56-.29,2.96-1.64,5.55-.66,8.56,6.71-11.5,20.73-16.91,33.15-17.51-1.7,2.5-3.57,3.93-4.04,6.61,9.12-3.92,14.47-6.22,24.72-3.18-1.33,1.06-2.7,1.3-3.56,2.89,3.22,1.73,6.82,3.16,10.39,2.28.86-.21.34-2.07.39-3,8.7,1.63,10.06,14.25,15.38,13.28,1.57-.29.94-3.08,1.29-4.29,4.88,3.96,6.61,10.19,5.88,16.33,5.89,4.11,7.54,11.83,7.01,18.51-1.26-1.03-1.74-2.17-3.34-2.4.91,10.84-1.23,23.06-2.73,33.54Z"/>
          <g>
            <path class="cls-34" d="M128.9,200.13c-1.83-4.05-.9-8.31.69-13.05-6.41,1.62-10.81,7.15-12.72,13.96-2.01-6.67,1.07-13.27,6.41-17.07,6.74-4.79,12.04-3.96,18.78-8.59.07,3.17-1.61,5.28-3.06,7.75,3.7.48,7.05-1.17,10.35-2.99-.2,2.46-1.74,4.21-3.67,5.53-7.23,4.95-12.55,2.29-16.79,14.47Z"/>
            <path class="cls-38" d="M154.12,194.15c-5.12,2.48-9.6,1.98-15.09,6.96,2.96-12.02,13.49-5.66,19.65-17.91,1.78,4.42-.53,8.99-4.56,10.95Z"/>
            <path class="cls-30" d="M163.84,201.26l-6.8,2.56c2.1-6.93,9.75-4.91,11.25-15.47,1.99,3.28,1.85,7.27-.39,10.36-.89,1.23-2.45,1.95-4.05,2.55Z"/>
            <path class="cls-38" d="M93.54,211.94c1.26-2.77,3.62-4.34,6.58-5.49-1.92-2.29-4.49-2.36-7.3-2.98,4.59-2.89,10.29-.62,12.39,4.4-4.34.34-7.59,1.98-11.67,4.07Z"/>
            <path class="cls-31" d="M167.96,206.12c3.99-4.4,6.32-2.98,9.5-10.39,1.57,3.13.81,7.06-1.99,9.14-2.09,1.55-4.76,1.78-7.51,1.25Z"/>
            <path class="cls-72" d="M106.02,197.97c-1.3-3.22-1.14-6.99.23-10.44,1.29-2.94,3.98-4.96,7.21-4.44-3.9,4.31-6.62,8.76-7.44,14.88Z"/>
            <path class="cls-84" d="M175.57,210.11c2.1-3.11,5.15-4.92,8.15-7.01.27,4.38-3.52,7.69-8.15,7.01Z"/>
            <path class="cls-56" d="M115.46,187c-1.62-2.58-.03-10.44,4.67-11.17-2.05,3.48-2.82,7-4.67,11.17Z"/>
          </g>
        </g>
        <g>
          <path class="cls-36" d="M179.21,260.88l-1.93,13.32-1.16.49c-3.04,3.93-5.92,7.94-8.64,12.04-3.17,9.73-6.48,19.38-9.96,28.94-2.89,4.22-8.21,8.39-13.29,8.8-4.25.34-8.45.24-12.7.05-6.99-.31-10.54-5.2-14.19-8.7l-9.92-29.33c-3.34-4.37-6.42-8.86-9.25-13.48l-.67-.17c-.56-4.35-1.64-8.42-1.72-12.4l-.95-.94c-1.15-6.76-.82-13.2,1-19.32l4.81-8.3c-1.08-10.36,1.19-19.99,13.19-21.54,6.07,1.48,12.16,2.97,18.27,4.46,4.1.24,8.2.12,12.28-.35,7.99.67,14.28,7.51,16.99,14.75.78-5.03-1.38-9.48-4.21-13.5-.24-.81.06-1.03.83-1.17,2.62-.48,7.83,5.53,9.29,7.67.03-2.76-.52-5.45-1.66-8.07-.13-1.07,0-1.63,1.1-1.68,3.55-.13,8.14,7.78,7.58,11.28v7.88s4.47,7.53,4.47,7.53c1.23,6.99,1.7,14.06,1.41,21.22l-.97.51Z"/>
          <path class="cls-71" d="M177.28,274.2l-2.04,17.07c-.53,4.4-2.16,8.2-5.15,11.46l-9.62,10.49c-.92,1-2.01,1.8-2.94,2.45-.49-.73-.24-1.5.08-2.44l8.89-26.48c1.04-3.11,8.55-10.98,10.17-14.9.64,1.06-.12,1.99.62,2.35Z"/>
          <path class="cls-71" d="M117.34,315.83c-4.94-4.75-9.33-9.58-13.71-14.69-2.19-2.56-3.24-5.82-3.67-9.16l-2.46-19.12c.35-.23.3-.63.75-1.41,1,3.56,9.28,12.52,10.06,14.83l9.35,27.88c.23.67-.14,1.31-.32,1.68Z"/>
          <g>
            <path class="cls-15" d="M290.43,425.52c-1.81,2.51-3.68,4.97-5.61,7.38-1.18.6-2.18-.1-2.99-2.1-.26-1.48-.85-2.74-1.78-3.75-.15,2.04-.74,3.05-1.78,3.03l-.95-.18c-.97-8.76-2.31-17.54-4.03-26.35-5.71-21.08-19.49-31.58-40.06-37.46-14.2-6.92-28.08-14.25-41.61-22l-.04-1.07c-.22.19-.48.28-.75.31-.71.07-1.5-.36-1.92-.98-.21-.3-.33-.66-.29-1.02l-1,.54-3.2-1.81c-5.31,15.92-18.98,27.25-32.98,35.62-2.28,1.37-12.15,7.04-13.94,7-2.08-.04-11.85-5.74-14.3-7.22-13.84-8.35-27.39-19.57-32.65-35.35-1.62,1.23-2.96,1.56-4.02,1.01,0,.54-.22,1-.58,1.37-.43.44-1.03.75-1.67.92-.36.1-.73.15-1.08.15-.3,0-.59-.04-.84-.12.14.34.29.88.07,1.01-13.12,7.59-26.59,14.71-40.44,21.49-20.18,5.85-34.15,15.9-40.11,36.64-1.62,7.76-2.87,15.59-3.77,23.49l-1.17,1.28c-.66.17-1.19-.11-1.61-.84l-3.8,1.38c-.08,2.93-.88,4.15-2.4,3.68-1.77-2.26-3.49-4.56-5.16-6.9l5.87,1.83c.04-4.52-2.8-1.95-1.48-7.01l1.04-.18,2.57,3.09,1.89-13.74c3.36-25.36,21.33-42.34,45.47-48.54l6.37-2.89,51.75-28.34c.67-8,.92-16.38.74-25.15-3.76-6.39-4.43-13.87-4.87-21.04-4.71.03-9-4.3-10.45-8.71-2.14-6.56-7.52-23.08-.71-28.71,1.5-1.24,3.91-2.18,5.75-1.38,1.43-1.15,2.46,1.92,2.66,3.24.23,1.54.07,3.69-1.64,2.38l-.64.67c-.95-.17-1.82-.32-2.4.56-2.04,3.05,1.75,17.88,3.36,21.5.63,1.41,1.4,2.8,2.8,3.58l-1.28-12.85.84-.76c-.16-1.64,2.81-2.12,4.19-1.79l.97,1.2,1.46,9.7s-.24.5-.71,1.5h.61c0,.06.02.11.03.17,1.17,7.44,2.33,14.92,3.48,22.44,1.88,4.5,4.84,8.52,8.88,12.06,2.84,2.51,5.12,5.28,6.84,8.32l1.14-.17c6.06,7.32,10.46,8.19,19.88,8.12,8.12-.06,12.93-1.34,17.96-8l1.2-.1c.08-.4.22-.79.42-1.16.39-.71,1.01-1.34,1.86-1.92l10.36-11.34c2.12-2.57,3.46-5.67,4.01-8.95l2.12-17.55.99-.56c.04-1.13-.15-1.96-.56-2.5-.09-1,1.42-10.27,1.84-10.61.17-.13.4-.18.65-.21.22-.42.57-.66.98-.74,1.31-.27,3.21.97,3.11,2.48v.12s.85.51.85.51l-1.41,12.4c.44.34,1.29-.61,1.71-1.1,2.57-2.95,6.51-19.87,4.73-23.31-.54-1.04-1.28-1.06-2.33-.73l-.8-.68c-1.04.59-1.17.51-1.49-.54-.34-1.12.75-5.81,2.51-4.86.42-1.46,2.24-.85,3.41-.42,3.31,1.22,4.92,4.17,5.51,7.53,1.14,6.52-2.1,19.39-5.02,25.04-1.8,3.47-5.36,5.51-9,6.52l-1.47,9.51c-.29,3.74-1.52,7.36-3.68,10.86l.7,25.39c18.77,10.58,37.72,20.85,56.85,30.79,22.29,6.05,40.83,19.85,45.51,43.62.06.31-.01.65-.11,1-.09.37-.25.71-.42,1.06.1,1.01.05,1.67-.64,1.57-.18-.02-.4-.1-.67-.23-.83,1.23-.52,13.33,1.2,8.06-.18-2.01.28-2.7,1.39-2.07l1.18,2.3,1.27,7.57c.96-1.74,2.02-2.56,3.2-2.45.66,2.27,1.71,4.4,4.15,5.44Z"/>
            <g>
              <path class="cls-79" d="M279.36,405.32c.45,2.46,1.02,4.82,1.27,7.34-1.15.4.38,1.28-1.17,3.99-.26.45-1.8.89-2.07.1-1.05-3.13-1.27-14.13,1.65-10.51.39-.15.17-.61.32-.91Z"/>
              <g>
                <path class="cls-36" d="M103.55,320.05c.21-2.84,1.42-2.46,3.64,1.13,2.22,2.24,4.21,4.67,5.97,7.27l12.94,33.31c.72,1.12,2.31.91,1.76-.65l-7.01-19.72c-1.66-4.1-1.18-5.45,1.44-4.05,9.7,8.11,21.73,7.57,31.22-.57,1-.47,1.46.04,1.86.97l-8.1,23c-1.22,1.81,1.34,2.17,1.72,1.24,4.36-10.61,8.25-21.43,11.95-32.3l9.24-11.36,1.13.06.73,13.72,7.67,4.45c-4.49,18.4-26.09,32.97-42.21,40.39-15.7-7.22-38.62-22.8-42.1-40.54l7.45-4.25.72-12.1Z"/>
                <path class="cls-71" d="M171.3,318.38l-9.55,11.69c-3.77,10.94-7.41,21.55-11.85,32.11-.5,1.2-2.08,1.35-2.98.98-1.09-.44-.84-1.83-.43-3l8.16-23.13c-11.5,9.32-22.4,9.67-34.11.07,2.28,8.11,5.32,15.59,8.11,23.44.45,1.26.27,2.58-1.04,2.77-.91.13-1.95-.18-2.38-1.29l-12.11-31.55c-1.79-4.66-6.61-7.58-8.82-11.91-.64.8-.34,1.16-.74,1.47l.46-11.18,13.59,14.04c7.09,7.33,16.84,6.81,26.73,6.23,4.55-.27,8.65-2.38,11.99-5.37,5.23-4.68,9.64-9.76,14.52-14.89.65,3.48.29,6.51.45,9.51Z"/>
                <path class="cls-36" d="M183.29,262.74l1.24-10.61c.13-1.13.74-1.85,1.53-2.3,9.2-3.78,1.78,19.32.59,22.66-.84,2.35-2.52,4.29-5.01,4.77l1.65-14.52Z"/>
                <path class="cls-36" d="M88.91,249.54c.63.56,1.27,1.4,1.37,2.15l1.31,10.55,1.65,15.01c-2.65-.5-4.18-2.72-5.08-5.21-1.29-3.58-6.75-21.87-1.66-22.8.59-.11,1.94-.13,2.42.3Z"/>
              </g>
            </g>
          </g>
        </g>
      </g>
    </g>
    <g>
      <g>
        <path class="cls-75" d="M414.04,352.83c-.12,2.68-.97,4.48-1.31,6.5-2.11,12.7-5.59,25.17-10.54,37.24l-6.8,16.59c-2.3-4.85-3.47-9.66-4.57-14.72-.13-.55-1.05-.47-1.36-.34-1.56.67-1.1,4.82-.78,6.01,1.21,4.59,2.42,9.16,4.04,13.82,2.25,6.49-4.23,11.86,3.33,33.57l1.65,4.75c-5.05-2.5-9.23-5.22-13.42-8.04-6.76-4.55-13.15-9.57-19.21-15.24-1.11-1.04-2.22-1.85-2.83-3.09-1.29-.23-1.48-1.4-1.53-2.71l-.6-15.48c-.39-10.24.73-20.26,4.2-29.85,4.95-13.69,15.42-20.06,29.22-22.81,7.1-1.41,13.76-3.32,20.5-6.21Z"/>
        <path class="cls-75" d="M540.18,459.16c-7.39,3.73-14.86,6.47-22.5,8.8-31.1,9.51-62.23,8.99-93.29-.31-7.14-2.14-14.01-5.1-20.88-8.37-6.48-12.22-9.28-25.06-6.16-38.45,1.06-4.53,2.59-8.76,4.41-13.04,4.65-10.92,8.84-21.86,11.71-33.61,1.91-7.85,3.4-15.36,4.87-23.28l8.71-4.04c.35,1.53-.22,2.65-.23,3.78-.23,12.58.21,25.95,6.24,37.67,4.2,8.14,10.6,14.51,18.97,18.34,9.94,4.55,20.94,5.43,31.54,2.82,12.67-3.12,22.66-11.52,27.93-23.42,2.82-6.36,4.13-12.88,4.77-19.83.48-5.29.29-10.4.34-15.54.02-1.21-.55-2.35-.23-3.82l8.78,4.15c1.97,10.45,3.93,20.37,6.79,30.47,2.44,8.65,5.9,16.59,9.11,24.73,2.65,4.43,3.99,10.03,5.19,14.98,3.04,12.58,0,26.42-6.07,37.97Z"/>
        <path class="cls-75" d="M583.29,416.14l-.51,12.52-2.8,2.51c-6.08,6.46-13.48,12.12-20.94,16.97-4.23,2.74-8.26,5.75-13.19,8.11,4.41-10.8,6.53-21.08,4.7-32.61-.48-2.2-.26-4.3.43-6.44,1.75-5.41,4.57-12.96,3.93-18.19-.22-.29-.48-.79-.82-.89-.3-.08-1.12-.19-1.26.34-1.26,5.13-2.36,10.1-4.51,14.96l-8.98-21.8c-4.41-10.7-6.87-21.88-8.83-33.08-.31-1.78-1.14-3.42-.96-5.68,6.85,3.02,13.67,4.88,20.86,6.3,10.54,2.08,20.26,6.78,25.84,16.22,6.87,11.63,7.59,27.6,7.06,40.76Z"/>
        <path class="cls-75" d="M429.49,341.87l-14.15,6.41c-15.25,6.89-21.78,5.77-34.15,10.68-9.08,3.6-15.91,10.51-19.66,19.6-3.17,7.67-5.02,15.69-5,24.01l.06,22.13c-.27-.31-.54-.61-.8-.92v-24.01c2.15-21.19,9.71-38.43,31.83-43.84,14.36-2.79,28.02-8.24,40.9-14.47l.97.42Z"/>
        <path class="cls-75" d="M545.87,333.76c-5.67.8-10.4-1.53-14.79-5.54-.39,6.08,1.94,11.89,5.25,17.16-7.03-.8-12.75-5.01-15.55-11.65-2.14,2.93-3.93,5.78-6.51,7.9-.25.2-.64.49-1.07.83-.17.13-.34.28-.52.43-.22.18-.43.38-.63.56-.05.04-.09.07-.12.12-.38.37-.66.72-.75.99-.04.11-.04.21,0,.29.29.17.7.34.98.65.06.06.11.12.16.2.07.12.13.26.16.42,0,.03.03.05.03.08.15,1.62.25,3.2.29,4.76.09,2.12.09,4.21.07,6.28l-.02,6.79c0,.2-.05.36-.15.41-.04.02-.1.04-.16.02-.81,15.99-7.23,31.72-22.82,38.82-3.87,1.77-7.79,2.68-11.77,3.31h-.01c-.16.02-.33.05-.49.09h-.01c-2.33.34-4.62.39-6.95.32h-.07c-9.93-.27-19.63-3.71-26.97-10.8-9.07-8.78-12.4-22.46-12.74-34.44-.05-1.46-.71-7.51-.29-9.72.06-.29.14-.52.25-.65,0-.01.01-.01.01-.02h0c-.01-.55-.05-2.42.14-4,.02-.15.04-.28.06-.43.09-.56.21-1.07.38-1.42.09-.18.17-.33.28-.43.11-.1.23-.16.38-.16.12-.75-.21-1.28-.7-1.71-.11-.11-.25-.22-.38-.32-.45-.36-.97-.68-1.35-1.06-2.42-2.44-4.63-5.01-6.6-8.11-2.92,6.95-8.68,10.45-15.23,11.65,3.19-5.38,5.36-10.78,4.96-16.85-3.85,4.08-9.1,5.73-14.52,5.14,6.97-6.26,8.24-14.32,6.47-22.82-.99-4.84-1.77-9.53-1.8-14.25-1.84,4.41-1.84,8.81-2.04,13.75-3.2-4.2-4.8-9.13-5.4-14.48-1.22-10.67,2.53-18.56,6.79-27.8,2.57-5.56,4.28-11.11,5.61-17.12,1.87-8.48,3.73-16.63,6.4-24.88,2.25-6.94,5.19-13.32,9.4-19.17,5.44-7.6,11.62-11.35,20.24-13.24,2.99-2.36,5-6,8.7-7.9,6.09-3.11,12.34-4.49,19.3-4.46,12.2.05,23.91,3.98,33.98,10.92,9.76,6.73,16.94,15.67,21.53,26.61,5.34,12.7,8.4,31.44,12.14,40.21l4.97,11.66c4.87,11.45,5.51,27.32-2.05,38.01-.71-3.47.01-6.51-1.09-9.78-.98,12.8-6.92,23.68,4.64,34.81Z"/>
        <path class="cls-75" d="M587.88,414.13l-.1,8.27s.06-.07.1-.11v1.2c-.29.36-.61.71-.92,1.07l.31-17.64c.16-9.03-1.33-17.8-4.38-26.3-5.31-14.77-16.3-21.93-31.3-25-7.94-1.63-15.33-3.77-22.79-7.09-5.04-2.26-10.03-4.26-14.51-6.89l1.89.16c12.64,6.63,25.96,11.43,40,14.1,23.54,6.48,30.02,23.94,31.84,46.85l-.14,11.38Z"/>
        <g>
          <path class="cls-74" d="M586.96,424.57l.31-17.64c.16-9.03-1.33-17.8-4.38-26.3-5.31-14.77-16.3-21.93-31.3-25-7.94-1.63-15.33-3.77-22.79-7.09-5.04-2.26-10.03-4.26-14.51-6.89-.1.07-.22.17-.36.28-.07.05-.15.11-.22.17-.15.11-.32.25-.49.38-.17.13-.34.28-.52.43-.22.18-.43.38-.63.56-.05.04-.09.07-.12.12-.11.11-.22.22-.31.32-.06.07-.12.15-.17.22-.04.04-.06.07-.09.11-.04.04-.06.07-.07.11-.01.01-.01.02-.01.02-.02.04-.05.07-.06.11s-.02.07-.04.1c-.04.11-.04.21,0,.29.29.17.7.34.98.65.06.05.11.12.16.2.05.07.09.15.11.23.04.06.05.12.05.2.01.01.01.02.01.04.01.01.01.02.01.04.15,1.62.25,3.2.29,4.76.09,2.12.09,4.21.07,6.28l-.02,6.79s0,.06-.01.09c.01.04,0,.06-.01.09,0,.06-.01.11-.05.15-.01.02-.05.06-.07.09-.04.02-.1.04-.16.02-.81,15.99-7.23,31.72-22.82,38.82-3.87,1.77-7.79,2.68-11.77,3.31h-.01c-.18.05-.33.07-.49.09h-.01c-2.33.34-4.62.39-6.95.32h-.07c-9.93-.27-19.63-3.71-26.97-10.8-9.07-8.78-12.4-22.46-12.74-34.44-.04-1.22-.5-5.6-.42-8.31,0-.09,0-.18.01-.27.02-.54.07-1.02.16-1.35.01-.06.04-.11.05-.16t.01-.02c.02-.06.05-.1.07-.15.01-.04.02-.05.05-.07h.01v-.04s.01-.01.01-.02h0c-.01-.33-.02-1.12,0-2.03,0-.12,0-.25.01-.38.02-.53.06-1.08.12-1.6.02-.15.04-.28.06-.43.09-.56.21-1.07.38-1.42.09-.18.17-.33.28-.43.11-.1.25-.16.38-.16.12-.75-.21-1.28-.7-1.71-.11-.11-.25-.22-.38-.32-.45-.36-.97-.68-1.35-1.06h-.01l-14.15,6.41c-15.25,6.89-21.78,5.77-34.15,10.68-9.08,3.6-15.91,10.51-19.66,19.6-3.17,7.67-5.02,15.69-5,24.01l.06,22.13c-.27-.31-.54-.61-.8-.92v8.47c.58.6,1.18,1.2,1.78,1.79,28.13,27.51,64.94,43.78,103.9,46.26,47.74,3.03,94.11-14.86,126.4-47.16v-9.65c-.29.36-.61.71-.92,1.07ZM384.29,448.22c-6.76-4.55-13.15-9.57-19.21-15.24-1.1-1.04-2.22-1.84-2.82-3.08-.32-.06-.58-.17-.79-.33-.07-.07-.14-.14-.2-.21-.25-.31-.37-.69-.45-1.13-.01-.11-.02-.22-.05-.33-.01-.12-.01-.23-.02-.36-.01-.11-.02-.23-.02-.36l-.59-15.48c-.39-10.24.72-20.27,4.2-29.86,4.95-13.69,15.42-20.06,29.21-22.81,7.09-1.41,13.76-3.31,20.5-6.21-.12,2.69-.97,4.49-1.31,6.51-2.1,12.7-5.58,25.18-10.53,37.24l-6.8,16.58c-1.64-3.49-2.71-6.95-3.6-10.49-.34-1.4-.65-2.8-.97-4.22-.01-.04-.02-.07-.05-.11-.04-.07-.09-.12-.15-.17-.04-.02-.07-.05-.12-.06-.06-.02-.14-.05-.21-.06-.31-.06-.66,0-.83.07-.11.05-.21.11-.29.18-.17.16-.32.37-.43.61-.09.18-.16.41-.21.65-.04.15-.06.29-.09.44-.04.2-.06.41-.06.63-.01.21-.02.43-.02.64,0,1.17.17,2.32.32,2.86.15.58.31,1.14.45,1.72.31,1.15.61,2.3.93,3.44.32,1.15.65,2.3.98,3.45.52,1.73,1.07,3.46,1.67,5.2,2.25,6.49-4.23,11.86,3.33,33.58l1.66,4.74c-5.06-2.49-9.23-5.22-13.42-8.03ZM545.4,446c-.16.6-.33,1.19-.52,1.79-.1.34-.21.68-.33,1.02-.09.28-.18.55-.28.83-.14.43-.28.86-.44,1.28-.2.56-.42,1.13-.64,1.69-.25.61-.49,1.2-.75,1.8-.26.6-.53,1.19-.8,1.77-.45,1.01-.95,2-1.46,2.98-7.39,3.72-14.85,6.47-22.49,8.8-31.1,9.5-62.22,8.98-93.29-.32h-.01c-7.13-2.14-14.01-5.09-20.88-8.37-6.48-12.21-9.28-25.06-6.16-38.44.26-1.13.55-2.25.88-3.35.23-.79.48-1.57.74-2.36.02-.1.06-.2.09-.29.26-.75.52-1.47.79-2.22.29-.81.61-1.61.93-2.41s.65-1.61.99-2.41c4.64-10.92,8.84-21.86,11.71-33.61,1.91-7.84,3.4-15.36,4.87-23.27l8.7-4.05c.36,1.53-.22,2.65-.23,3.78-.22,12.57.21,25.95,6.25,37.66.27.53.55,1.06.85,1.57.27.47.54.93.83,1.4.52.83,1.06,1.66,1.63,2.44l.48.66c.53.71,1.08,1.41,1.67,2.09.42.49.85.97,1.29,1.44.32.34.64.66.97.98.05.07.12.14.2.2.16.16.32.31.48.45,1.03.99,2.12,1.91,3.27,2.77.53.39,1.07.77,1.61,1.14.36.25.72.49,1.09.71.25.16.49.31.74.44.69.43,1.4.82,2.12,1.19.17.1.34.18.52.26.06.05.12.07.2.11.33.17.69.33,1.03.49,9.94,4.54,20.94,5.43,31.55,2.81,1.82-.44,3.58-1.01,5.28-1.67.38-.15.76-.29,1.13-.45.41-.17.82-.36,1.23-.54.17-.07.34-.16.52-.25.27-.12.54-.26.81-.39.36-.17.7-.36,1.04-.54.23-.14.47-.26.7-.39.33-.18.65-.37.97-.56.31-.18.61-.37.91-.56.47-.29.93-.61,1.39-.92.52-.37,1.02-.74,1.51-1.12.22-.17.44-.33.65-.52.34-.27.68-.55,1.01-.85.75-.64,1.47-1.3,2.16-2,.22-.22.44-.44.66-.68.71-.75,1.4-1.52,2.05-2.32.28-.34.55-.68.81-1.03.21-.27.42-.54.6-.81,1.36-1.85,2.57-3.83,3.62-5.94.2-.38.38-.76.56-1.15,0-.02.01-.04.02-.06.11-.21.21-.43.31-.65.17-.39.34-.8.5-1.2.23-.56.45-1.14.66-1.71.02-.07.05-.14.07-.21.21-.56.41-1.13.59-1.69.38-1.14.71-2.3,1.01-3.45.11-.43.22-.86.32-1.29.15-.59.27-1.17.38-1.76.15-.71.28-1.42.41-2.14.07-.43.15-.87.21-1.31.14-.9.26-1.82.37-2.72.09-.79.17-1.57.25-2.36.48-5.28.29-10.4.33-15.54.01-1.2-.54-2.34-.22-3.82l8.78,4.16c1.96,10.45,3.93,20.36,6.79,30.47,2.44,8.64,5.89,16.58,9.11,24.72,1.33,2.21,2.32,4.73,3.14,7.29.82,2.58,1.46,5.2,2.05,7.68.31,1.25.54,2.52.72,3.79-.01.01,0,.02,0,.04.14.86.23,1.72.29,2.59.11,1.36.17,2.73.16,4.1-.01,1.13-.05,2.25-.14,3.38-.04.53-.07,1.06-.14,1.58-.12,1.26-.29,2.53-.52,3.78-.1.59-.21,1.18-.34,1.77-.09.47-.2.95-.31,1.41-.06.27-.12.54-.2.81-.12.53-.26,1.04-.41,1.56ZM583.29,416.14l-.52,12.52-2.5,2.23-.29.27c-6.09,6.47-13.49,12.13-20.94,16.96-4.23,2.74-8.26,5.76-13.2,8.11,4.42-10.8,6.53-21.08,4.7-32.61-.48-2.2-.26-4.3.43-6.43,1.67-5.14,4.3-12.23,4-17.39-.02-.27-.05-.54-.07-.8-.22-.28-.48-.79-.82-.88-.31-.09-1.13-.2-1.26.33-1.25,5.13-2.36,10.1-4.5,14.96l-8.97-21.8c-.34-.83-.68-1.68-.99-2.52-.17-.42-.33-.85-.48-1.28-.15-.42-.31-.83-.45-1.26-.31-.86-.6-1.72-.88-2.59-.14-.39-.26-.79-.38-1.18-.23-.74-.45-1.47-.68-2.22-.21-.68-.39-1.34-.59-2.01-.04-.14-.07-.28-.12-.43-.18-.68-.36-1.35-.54-2.03-.43-1.66-.83-3.33-1.23-5.01-.31-1.33-.59-2.66-.87-4-.15-.75-.31-1.51-.45-2.26-.41-2.1-.79-4.2-1.15-6.3v-.02h0s-.01-.06-.02-.09c-.01-.01-.01-.02-.01-.02v-.04c-.02-.15-.06-.28-.1-.43-.09-.39-.21-.8-.31-1.2-.11-.39-.22-.8-.32-1.22-.09-.39-.16-.8-.2-1.23-.02-.26-.04-.53-.04-.8,0-.21.01-.42.02-.64,6.85,3.02,13.66,4.87,20.85,6.31.72.15,1.46.29,2.17.47.55.14,1.09.27,1.63.42,1.35.36,2.69.76,3.98,1.23.59.21,1.18.43,1.76.68.6.23,1.2.49,1.79.77.59.26,1.18.55,1.76.85.49.26.97.53,1.45.8.18.11.37.21.54.32.63.38,1.24.77,1.84,1.19.36.25.71.5,1.07.77.52.38,1.02.79,1.51,1.2.37.32.74.65,1.09.98.74.69,1.45,1.42,2.11,2.2.29.33.58.68.86,1.03.42.52.81,1.04,1.19,1.6.38.56.75,1.13,1.09,1.72,6.87,11.62,7.6,27.59,7.06,40.76Z"/>
          <g>
            <g>
              <g>
                <path class="cls-8" d="M414.04,352.83c-.12,2.68-.97,4.48-1.31,6.5-2.11,12.7-5.59,25.17-10.54,37.24l-6.8,16.59c-2.3-4.85-3.47-9.66-4.57-14.72-.13-.55-1.05-.47-1.36-.34-1.56.67-1.1,4.82-.78,6.01,1.21,4.59,2.42,9.16,4.04,13.82,2.25,6.49-4.23,11.86,3.33,33.57l1.65,4.75c-5.05-2.5-9.23-5.22-13.42-8.04-6.76-4.55-13.15-9.57-19.21-15.24-1.11-1.04-2.22-1.85-2.83-3.09-1.29-.23-1.48-1.4-1.53-2.71l-.6-15.48c-.39-10.24.73-20.26,4.2-29.85,4.95-13.69,15.42-20.06,29.22-22.81,7.1-1.41,13.76-3.32,20.5-6.21Z"/>
                <path class="cls-8" d="M429.49,341.87l-14.15,6.41c-15.25,6.89-21.78,5.77-34.15,10.68-9.08,3.6-15.91,10.51-19.66,19.6-3.17,7.67-5.02,15.69-5,24.01l.06,22.13c-.27-.31-.54-.61-.8-.92v-24.01c2.15-21.19,9.71-38.43,31.83-43.84,14.36-2.79,28.02-8.24,40.9-14.47l.97.42Z"/>
                <path class="cls-8" d="M430.72,361.8c-.05-1.67-.91-9.31-.04-10.4-.03.23-.06.75-.09,1.39-.04.47-.06.94-.07,1.42,0,.08,0,.16,0,.23-.02.95,0,1.9.05,2.85.05.04.09.08.13.13.03.03.06.06.08.1.11.14.21.32.3.51.55,1.25.61,3.35-.36,3.76Z"/>
                <path class="cls-8" d="M431.93,344.96c-.25,1.96-.41,3.94-.47,5.97l-.78.46c-.03-.99-.13-6.44,1.25-6.44Z"/>
                <path class="cls-8" d="M432.13,344.84c-.06.04-.12.07-.2.11.12-.75-.21-1.28-.7-1.71-.11-.11-.25-.22-.38-.32-.45-.36-.97-.68-1.35-1.06,1.35-.75,4.12,1.94,2.63,2.97Z"/>
                <path class="cls-8" d="M470.43,407.04c-9.93-.28-19.63-3.71-26.96-10.81-9.07-8.78-12.4-22.45-12.75-34.44l.84,1.3c.33,22.35,13.72,42.12,37.46,43.09l1.4.86Z"/>
                <path class="cls-8" d="M477.46,406.71c-2.33.34-4.61.39-6.96.33h-.08c.37-.16.75-.29,1.13-.41h0c.29-.09.57-.17.87-.23,1.05-.23,2.17-.34,3.36-.3.06,0,.13,0,.19,0,.09.12.19.22.3.3.16.12.31.21.5.26h.03c.19.05.4.07.63.05Z"/>
                <path class="cls-8" d="M512.56,364.49c-.81,16-7.23,31.72-22.82,38.83-3.86,1.76-7.8,2.67-11.77,3.31l1.18-1.01c20.19-2.75,31.62-20.52,32.54-39.81l.87-1.33Z"/>
                <path class="cls-8" d="M512.9,357.27l-.03,6.79c0,.27-.1.48-.3.43.13-.45.23-1.1.17-1.67v-.08c-.03-.35-.13-.65-.3-.88t0-.02c-.06-.08-.13-.15-.21-.2h0s-.08-.06-.12-.08c-.03-.18-.04-.39-.06-.62-.1-1.2-.08-3.04.65-3.56.08-.03.14-.07.22-.1Z"/>
                <path class="cls-8" d="M512.9,357.27l-.52-.91c-.03-4.1-.42-7.94-1.18-11.49.46.25,1.25.56,1.33,1.35.36,3.81.4,7.43.38,11.04Z"/>
                <path class="cls-8" d="M511.19,344.88c-1.81-.65,1.96-4.2,3.09-3.25-.82.67-3.39,2.52-3.09,3.25Z"/>
                <path class="cls-8" d="M540.18,459.16c-7.39,3.73-14.86,6.47-22.5,8.8-31.1,9.51-62.23,8.99-93.29-.31-7.14-2.14-14.01-5.1-20.88-8.37-6.48-12.22-9.28-25.06-6.16-38.45,1.06-4.53,2.59-8.76,4.41-13.04,4.65-10.92,8.84-21.86,11.71-33.61,1.91-7.85,3.4-15.36,4.87-23.28l8.71-4.04c.35,1.53-.22,2.65-.23,3.78-.23,12.58.21,25.95,6.24,37.67,4.2,8.14,10.6,14.51,18.97,18.34,9.94,4.55,20.94,5.43,31.54,2.82,12.67-3.12,22.66-11.52,27.93-23.42,2.82-6.36,4.13-12.88,4.77-19.83.48-5.29.29-10.4.34-15.54.02-1.21-.55-2.35-.23-3.82l8.78,4.15c1.97,10.45,3.93,20.37,6.79,30.47,2.44,8.65,5.9,16.59,9.11,24.73,2.65,4.43,3.99,10.03,5.19,14.98,3.04,12.58,0,26.42-6.07,37.97Z"/>
                <path class="cls-8" d="M583.29,416.14l-.51,12.52-2.8,2.51c-6.08,6.46-13.48,12.12-20.94,16.97-4.23,2.74-8.26,5.75-13.19,8.11,4.41-10.8,6.53-21.08,4.7-32.61-.48-2.2-.26-4.3.43-6.44,1.75-5.41,4.57-12.96,3.93-18.19-.22-.29-.48-.79-.82-.89-.3-.08-1.12-.19-1.26.34-1.26,5.13-2.36,10.1-4.51,14.96l-8.98-21.8c-4.41-10.7-6.87-21.88-8.83-33.08-.31-1.78-1.14-3.42-.96-5.68,6.85,3.02,13.67,4.88,20.86,6.3,10.54,2.08,20.26,6.78,25.84,16.22,6.87,11.63,7.59,27.6,7.06,40.76Z"/>
                <path class="cls-8" d="M587.88,414.13l-.1,8.27s.06-.07.1-.11v1.2c-.29.36-.61.71-.92,1.07l.31-17.64c.16-9.03-1.33-17.8-4.38-26.3-5.31-14.77-16.3-21.93-31.3-25-7.94-1.63-15.33-3.77-22.79-7.09-5.04-2.26-10.03-4.26-14.51-6.89l1.89.16c12.64,6.63,25.96,11.43,40,14.1,23.54,6.48,30.02,23.94,31.84,46.85l-.14,11.38Z"/>
                <g>
                  <g>
                    <path class="cls-62" d="M412.73,359.33c-2.11,12.7-5.59,25.17-10.54,37.24l-6.8,16.59c-2.3-4.85-3.47-9.66-4.57-14.72-.13-.55-1.05-.47-1.36-.34-1.56.67-1.1,4.82-.78,6.01-.13,1.13-.08,2.31.14,3.53-.92,13.25-1.96,26.42-3.12,39.52-.11,1.03-.39,1.69-1.42,1.05-6.76-4.55-13.15-9.57-19.21-15.24-1.11-1.04-2.22-1.85-2.83-3.09-.25-.11-.42-.32-.5-.58-.66-2.18-.18-11.65-.02-14.38,1.34-22.31,3.28-43.27,28.13-50.97,7.13-1.7,14.14-3.82,21.02-6.34,1.43-.76,2.04-.19,1.85,1.71Z"/>
                    <path class="cls-43" d="M579.97,431.17c-6.08,6.46-13.48,12.12-20.94,16.97l-.81-.21-3.32-40.74c.31-2.83.31-5.55,0-8.18-.22-.29-.48-.79-.82-.89-.3-.08-1.12-.19-1.26.34-1.26,5.13-2.36,10.1-4.51,14.96l-8.98-21.8c-4.41-10.7-6.87-21.88-8.83-33.08-.27-1.33.13-1.8,1.21-1.46,7.05,2.78,14.29,4.99,21.72,6.66,27.71,8.5,28.6,36.11,28.48,60.95.41,2.86.32,4.42-1.94,6.48Z"/>
                    <path class="cls-89" d="M414.04,352.83c-.12,2.68-.97,4.48-1.31,6.5-.2-.38-.19-.82-.64-1.34-6.54,2.64-12.97,4.4-19.79,6.13-26.51,6.7-29.43,29.9-29.84,53.53l-.22,12.24c-1.29-.23-1.48-1.4-1.53-2.71l-.6-15.48c-.39-10.24.73-20.26,4.2-29.85,4.95-13.69,15.42-20.06,29.22-22.81,7.1-1.41,13.76-3.32,20.5-6.21Z"/>
                    <path class="cls-49" d="M583.29,416.14l-.51,12.52-2.8,2.51c2.39-4.21,1.11-1.22,1.13-7.58.05-13.87-.13-26.78-5.5-39.63-4.81-11.5-13.33-17.27-25.12-20.21-6.36-1.58-12.49-3.11-18.51-5.72-.4-.18-.9-.43-1.21-.1-.13.13-.18.35-.27.6-.31-1.78-1.14-3.42-.96-5.68,6.85,3.02,13.67,4.88,20.86,6.3,10.54,2.08,20.26,6.78,25.84,16.22,6.87,11.63,7.59,27.6,7.06,40.76Z"/>
                    <path class="cls-54" d="M545.84,456.24c4.41-10.8,6.53-21.08,4.7-32.61-.48-2.2-.26-4.3.43-6.44,1.75-5.41,4.57-12.96,3.93-18.19.2.27.61.52.54,1.14-.39,3.02.18,5.71.43,8.73l3.17,39.26c-4.23,2.74-8.26,5.75-13.19,8.11Z"/>
                    <path class="cls-77" d="M397.71,456.25c-5.05-2.5-9.23-5.22-13.42-8.04.73-.32.6-1.14.68-1.97l1.16-12.89,2.13-28.76c.03-.41.06-.72.43-.49,1.21,4.59,2.42,9.16,4.04,13.82,2.25,6.49-4.23,11.86,3.33,33.57l1.65,4.75Z"/>
                  </g>
                  <g>
                    <path class="cls-6" d="M540.18,459.16c-7.39,3.73-14.86,6.47-22.5,8.8-5.18.42-10.37.02-15.58-1.21-16.35-4.18-32.75-6.25-49.32-2.35-7.75,2.03-15.61,3.32-23.56,3.87-1.69-.37-3.3-.57-4.82-.62-7.14-2.14-14.01-5.1-20.88-8.37-6.48-12.22-9.28-25.06-6.16-38.45.31,9.84,5.4,20.75,13.77,26.79,14.57,10.52,31.42,6.96,47.83,3.36,19.73-4.3,28.91,2.16,46.77,3.49,18.46,1.38,33.97-7.38,39.09-25.41.78-2.74,1.53-5.24,1.43-7.88,3.04,12.58,0,26.42-6.07,37.97Z"/>
                    <path class="cls-26" d="M517.69,467.96c-31.1,9.51-62.23,8.99-93.29-.31.32-.9,1.33-.12,2.08-.11,6.99.08,13.66-1.12,20.5-2.7,18.9-4.35,30.65-4.58,49.67-.04,7.16,1.7,14.06,2.52,21.04,3.16Z"/>
                    <g>
                      <path class="cls-26" d="M536.14,445.47c-10.79,10.46-24.41,10.9-38.44,8.84-7.32-1.62-14.68-2.9-22.08-3.85-8.45-.23-16.85.81-25.2,3.12-15.29,2.67-30.37,3.65-42.66-7.7-6.45-5.97-11.58-16.16-10.41-25.05,1.06-4.53,2.59-8.76,4.41-13.04,3.27-6.49,6.54-13.47,9.83-20.94,3.75-11.02,6.46-22.32,8.13-33.9l3.54-1.84c1.43-.96,2.62-1.12,3.55-.48-.23,12.58.21,25.95,6.24,37.67,4.2,8.14,10.6,14.51,18.97,18.34,9.94,4.55,20.94,5.43,31.54,2.82,12.67-3.12,22.66-11.52,27.93-23.42,2.82-6.36,4.13-12.88,4.77-19.83.48-5.29.29-10.4.34-15.54.2-.25.5-.62.73-.55,1.14.33,5.79,2.28,6.29,3.02l3.67,18.42c2.98,12.12,7.57,23.66,13.76,34.65,2.65,4.43,3.99,10.03,5.19,14.98,1.04,8.56-4.01,18.36-10.11,24.27Z"/>
                      <g>
                        <path class="cls-61" d="M426.82,350.64c-2.23.53-4.16,1.77-6.49,2.71-2.22,13.74-4.86,28.78-11.27,41.11l-6.77,13.01c-.1.19-.1.51-.3.65-.09.06-.26-.14-.23-.33,4.65-10.92,8.84-21.86,11.71-33.61,1.91-7.85,3.4-15.36,4.87-23.28l8.71-4.04c.35,1.53-.22,2.65-.23,3.78Z"/>
                        <path class="cls-61" d="M541.06,406.22c-3.28-5.46-6.71-11.08-9.26-17.39-2.97-7.38-4.94-14.8-6.43-22.58l-2.46-12.9-6.31-2.65c.02-1.21-.55-2.35-.23-3.82l8.78,4.15c1.97,10.45,3.93,20.37,6.79,30.47,2.44,8.65,5.9,16.59,9.11,24.73Z"/>
                      </g>
                    </g>
                  </g>
                </g>
              </g>
              <g>
                <path class="cls-73" d="M507.79,278.78c.14.35.26.71.34,1.07s.13.7.08,1.02c-1.03,5.98-2.22,12.65-4.46,18.22-2.98,7.42-15.26,18.66-22.07,22.81-9.52,5.8-18.16,1.9-26.03-4.61-6.02-4.98-14.78-13.06-16.84-20.7-2.69-9.95-4.84-20.22-6.06-30.46l.25-1.72c-.21-1.25-.2-2.56.14-3.44,3.25-6.26,6.1-12.77,8.54-19.54,5.14-11.48,11.69-20.47,25.45-18.42,18.82,2.82,26.47,20.54,32.72,36.42,2.88,5.32,5.52,10.66,7.92,16.02l.03,3.32Z"/>
                <path class="cls-74" d="M432.98,264.42c1.73,10.3,3.55,20.57,6.25,30.84,1.14,4.31,3.11,7.8,6.14,10.99,5.21,5.48,10.38,10.82,16.85,14.9s15.35,3.25,21.52-1.59c5.81-4.56,10.93-9.35,15.7-14.91,2.25-2.63,3.65-5.57,4.64-8.9,1.66-5.57,2.59-11.09,3.7-16.96-.09-3.35.23-7.28,1.04-10.55.14-.56.54-1,.93-1.4,1.44-1.2,3.43,2.41,3.23,4.41.17.27.33.54.44.83s.21.56.17.8c-.54,3.4-1.12,6.79-1.91,10.14,1.63-.82,2.49-2.63,3.03-4.31l.9-.29c.7-.1,1.55.1,1.79,1.05.29,1.16.59,2.73-.07,3.86-2.6,4.51-7.19,4.44-7.66,6.07-1.11,3.85-1.93,7.66-3.36,11.48-1.23,3.29-3.75,5.61-5.61,8.57-1.57,2.5-.95,14.93-.43,18.57.23,1.59,2.95,8.94-.83,8.03-2.62-2.58-3.49-10.49-3.55-14l-.8-.91-.02-5.4c-3.49,3.28-7.19,6.29-11.1,9.02-13.19,8.43-26.1.97-35.7-9.25v5.83s-.81,1.11-.81,1.11c-.13,4.5-.76,10.41-3.67,13.92-1.16.2-2.41-1.47-1.97-2.86,1.57-5.06,2.31-10.04,2.05-15.43-.15-3.06.18-6.11-.99-8.98-5.84-6.45-6.8-10.7-8.72-19.01-.33-1.44-1.4-1.74-2.66-2.21-3.04-1.13-5.57-3.75-6.39-6.9-.18-.69.1-4.82,2.04-4.14l.88.17c.71,2.23,1.66,4.57,3.61,6l-2-11.95.53-2.14c-.1-.84,1.47-5.97,2.79-4.48Z"/>
                <path class="cls-11" d="M509.76,266.83c-.33,4.26-1.24,8.11-1.97,11.95.12-2.18-3.82-9.66-5.14-12.06-2.9-5.26-5.26-10.52-7.54-16.1-2.22-5.44-4.67-10.51-8.34-15.11-1.34-1.67-2.89-2.95-4.47-4.36-3.57-3.2-7.62-5.47-12.35-6.69-3.9-1-8.09-1.63-12.02-.29-4.83,1.65-8.48,5.26-11.26,9.44-5.47,8.2-6.59,16.77-12.31,26.23-.35.58-.56,1.16-1.22,1.15,1.57-4.05,2.76-7.81,3.58-11.95,2.4-12.15,5.92-23.48,19.06-27.6,5.92,1.33,11.59,1.13,17.44-.23,4.14-.97,8.22-1.17,12.26.07,5.46,1.65,7.37,5.21,9.23,10.56l5.25,15.11c2.06,5.95,4.85,11.32,8.57,16.43.81,1.11,1.42,2.18,1.25,3.48Z"/>
                <path class="cls-67" d="M430.19,268.89c.59,5.09,1.55,10.05,2.65,15.46-3.31-.77-4.93-5-5.67-7.54-.57-1.96,1.86-6.69,3.02-7.92Z"/>
                <path class="cls-45" d="M515.62,278.42c-.67,2.6-2.16,5.21-5.05,6.05.97-4.61,2-8.87,2.42-13.22.3-.26.15-.63.5-1.24l1.84,2.77c.96,1.45.74,3.93.29,5.65Z"/>
                <path class="cls-13" d="M495.91,322.03c-3.23,5.34-7.07,10.54-12.1,14.43-6.14,4.75-13.85,4.95-20.24.72-7.06-4.67-9.98-9.79-15.47-15.33-.19.34-.43.46-.62.57.08-2.82.08-5.55-.04-8.82,3.55,3.32,6.85,6.37,10.66,9.24,7.96,6.01,18.26,6.27,26.47.57,4.04-2.8,7.45-6.1,11.26-9.38.32,2.9.05,5.44.09,7.99Z"/>
                <g>
                  <path class="cls-43" d="M487.39,364.3c7.93-1.02,15.91-2.13,23.92-3.32.26-.03.5-.04.71-.04.33,0,.56.04.62.17.1.21.12.91.08,1.64v.08c-.03.68-.1,1.38-.17,1.67-.81,16-7.23,31.72-22.82,38.83-3.86,1.76-7.8,2.67-11.77,3.31l-1.13.03h-.03l-1.02.02c0-.19,0-.39.02-.58.11-3.18,1.02-6.28,2.74-9.27-2.7,2.63-4.92,6.02-6.1,9.57-.04.09-.07.19-.1.29l-1.91.35c-9.93-.28-19.63-3.71-26.96-10.81-9.07-8.78-12.4-22.45-12.75-34.44l1.53-.6c7.97,1,15.91,2.01,23.8,3.05l3.62,1.47c-1.14-1.79-3.39-3.49-5.51-3.84-7.42-.89-14.83-2-22.23-3.33-.3-.12-.58-.29-.86-.5-.18-.12-.34-.24-.51-.38-.13-.11-.12-1.67-.06-3.22,0-.08,0-.16,0-.23.02-.5.04-.98.07-1.42.03-.65.07-1.17.09-1.39-.03-.99-.13-6.44,1.25-6.44.07-.04.13-.08.19-.11.65-.29,1.34-.04,2.05.42,5.18,3.4,11.08,5.14,17.23,5.88-1.64-2.26-8.76-13.39-7.6-14.79l-.18-1.07c2.36-3.57,2.82-7.96,3.03-12.13l.82-.73c.2-.81.33-1.24.82-1.12.18.04.4.15.7.35l8.96,9.89c15.06,14.53,26.44,7.25,36.53-8.72l1.43-.81.81.44c-.04,4.61.97,8.84,3.03,12.7l-.29.86c1.69,1.65-5.69,12.8-7.37,14.88,7.35.02,13.02-3.54,19.1-6.03.46.25,1.25.56,1.33,1.35.36,3.81.4,7.43.38,11.04-.08.03-.14.07-.22.1-3.49,1.65-7.29,2.63-11.43,2.91-4.73.24-9.2.98-13.38,2.22-2.48,1.32-5.55,4.13-.48,1.8Z"/>
                  <path class="cls-52" d="M461.37,367.51c-2.9-1.45-5.54-2.93-8.69-3.15-8.38-.6-14-1.52-21.95-2.56-.05-1.67-.91-9.31-.04-10.4.05,1.9.13,3.77.02,6.03v.08s.06,0,.08.02c7.24,1.32,14.37,2.5,21.82,3.26,4.11.41,7.56,2.79,8.77,6.72Z"/>
                  <path class="cls-22" d="M512.9,357.27l-.03,6.79c0,.27-.1.48-.3.43.04-.78-.06-1.61-.13-2.63t0-.02c0-.08,0-.16-.02-.23-.07,0-.13.02-.19.03h0c-6.9,1.03-13.43,2.31-20.34,2.67-3.47.18-6.54,1.36-9.3,3.1,1.5-4.51,5.19-6.35,9.52-6.77,7.12-.7,14.02-1.8,20.81-3.36Z"/>
                  <path class="cls-55" d="M476.3,406.4c.71.27,1.22.17,1.66.23-.17.03-.34.05-.5.08h0c-2.33.34-4.61.39-6.96.33.29,0,.58-.04.84-.15.02,0,.03-.02.04-.03.1-.05.15-.13.18-.23h0c.06-.23,0-.53.12-.81,2.11-4.95,5.19-9.38,9.44-12.23-2.37,4.4-4.34,8.24-4.82,12.81Z"/>
                  <path class="cls-2" d="M473.78,371.32c-3.39,1.8-5.58-1.09-7.28-3.76,4.82.68,5.27,2.16,10.61-.68-.4,1.98-1.7,3.57-3.33,4.44Z"/>
                </g>
              </g>
            </g>
            <g>
              <path class="cls-76" d="M545.87,333.76c-5.67.8-10.4-1.53-14.79-5.54-.39,6.08,1.94,11.89,5.25,17.16-7.03-.8-12.75-5.01-15.55-11.65-2.14,2.93-3.93,5.78-6.51,7.9-.25.2-.64.49-1.07.83-.17.13-.34.28-.52.43-.22.18-.43.38-.63.56-.05.04-.09.07-.12.12-.38.37-.66.72-.75.99-.04.11-.04.21,0,.29h-.01s-.61,1.13-.61,1.13c-3.12,1.76-14.94,6.64-18.01,5.67-.97-.31-.98-.71-.77-1.67,3.29-4.12,5.67-8.59,7.13-13.39l.54-.58s.01,0,.01-.01c.76-.52,1.15-1.13,1.18-1.9-1.3-6.33-2.05-12.62-1.68-19.15.31-5.18,1.49-7.27,4.96-11.29,2.33-4.62,4.04-9.56,5.14-14.85,1.06-1.06,2.37-1.87,3.93-2.43,3.24-1.68,5.52-5.11,2.63-7.99h-.01s-.66-.59-.66-.59c.64-2.48.18-5.13-1.96-6.58l-.79-.39c-.12-1.78-1.03-3.06-2.43-4.01,0-.01-.01-.01-.01-.01,0,0-.01,0-.01-.01-.6-.32-1.01-.98-1.22-1.98-3.68-5.14-6.92-10.74-9.05-16.79l-6.11-17.53c-3.35-7.61-7.77-10.18-16.47-9.17-3.5.77-7.05,1.35-10.61,1.56h-.07c-1.8.11-3.62.11-5.43-.02h-.06c-1.64-.11-3.3-.33-4.93-.69-9.76,3.04-14.23,10.9-16.78,20.2l-2.96,12.47c-.05.11-.09.26-.11.37t-.01.02s-.01.01-.01.02-.01.02-.01.04c-.7,2.04-1.62,3.92-2.8,5.65.91.48.8,3.03-.14,3.45-.49.41-.86.9-1.13,1.51-.29,1.44-.85,2.43-1.67,2.97-.01.04-.02.09-.04.12-.44,1.84-1.1,3.62-1.95,5.38-.09,1.07-.43,1.88-1.03,2.42-3.09,3.81-.05,7.6,3.54,9.81,2.14.53,3.55,1.61,4.23,3.23,1.37,7.01,3.5,13.62,8.63,18.82,2.16,8.14,1.28,17.38-1.03,25.47.36.77.77,1.5,1.26,2.21h.01s.65.49.65.49c1.77,4.74,4.2,9.19,7.27,13.39.14,1.06.11,1.42-1.01,1.61-1.62.26-7.01-1.35-8.87-1.99-3.53-1.22-6.84-3.06-9.92-4.9.12-.75-.21-1.28-.7-1.71-.11-.11-.25-.22-.38-.32-.45-.36-.97-.68-1.35-1.06-2.42-2.44-4.63-5.01-6.6-8.11-2.92,6.95-8.68,10.45-15.23,11.65,3.19-5.38,5.36-10.78,4.96-16.85-3.85,4.08-9.1,5.73-14.52,5.14,6.97-6.26,8.24-14.32,6.47-22.82-.99-4.84-1.77-9.53-1.8-14.25-1.84,4.41-1.84,8.81-2.04,13.75-3.2-4.2-4.8-9.13-5.4-14.48-1.22-10.67,2.53-18.56,6.79-27.8,2.57-5.56,4.28-11.11,5.61-17.12,1.87-8.48,3.73-16.63,6.4-24.88,2.25-6.94,5.19-13.32,9.4-19.17,5.44-7.6,11.62-11.35,20.24-13.24,2.99-2.36,5-6,8.7-7.9,6.09-3.11,12.34-4.49,19.3-4.46,12.2.05,23.91,3.98,33.98,10.92,9.76,6.73,16.94,15.67,21.53,26.61,5.34,12.7,8.4,31.44,12.14,40.21l4.97,11.66c4.87,11.45,5.51,27.32-2.05,38.01-.71-3.47.01-6.51-1.09-9.78-.98,12.8-6.92,23.68,4.64,34.81Z"/>
              <path class="cls-88" d="M513.97,323.21c.52.82.43,1.58.05,2.41,2.03-3.18,3.86-6.48,5.49-9.89l1.32-.84c-.03-.55-.66,10.63-.82,11.14-2.93,9.47-10.65,16.85-20.25,19.89,2.14-4.47,4.29-8.34,5.97-12.78,2.81-7.43,5.16-14.86,7.29-22.57.22-.79-.56-1.84.66-2.04.27,5.65-.51,10.98-1.5,16.25.5-.35.52-1.08.91-1.5.2-.22.45-.49.89-.07Z"/>
              <path class="cls-63" d="M523.14,293.47c-.05,3.93.97,7.19.43,11.1-.49,3.53-1.7,6.74-2.74,9.93-.04.11,0,.28,0,.4-2.76,5.39-5.28,10.87-9.49,15.46.95-2.51,1.92-4.75,2.64-7.14.65-2.18,1.79-4.25,2.73-6.45s1.49-4.59,2.25-6.98c2.09-6.56,3.01-13.21,2.83-19.9.68,1.25,1.37,2.44,1.36,3.6Z"/>
              <g>
                <path class="cls-46" d="M498.62,192.27c.89.68,1.37,1.33,1.43,1.95,1.21.94,2.3,2,3.27,3.18.5.88,1.12,2.05-.29,2.26-3.64-1.58-7.39-2.62-11.27-3.12,4.87,2.79,9.54,6.01,13.31,10.2.64,1.25.12,1.33-1.25,1.48-3.13-1.36-6.2-2.25-9.2-2.69,1.03,1.1,5.09,5.62,4.9,6.87-.17,1.07-.31,1.72-1.4,1.27-3.88-2.66-7.97-5.13-12.59-6.19,7.5,4.59,12.15,11.98,15.45,19.92-.45-2.34-1.1-4.65-1.94-6.91-.26-3.09,2.25-1.18,3.73.31l2.67,2.67c-.69-4.22-2.24-8.19-4.65-11.92-.21-.42.15-.71.57-.97l.88-.28c4.39,5.39,8.09,11.3,11.1,17.74-1.47-5.66-4.09-10.4-7.58-14.94l.37-1,1.23-.23,4.7,3.39c-1.61-4.44-4.02-8.47-7.22-12.09-.06-.97-.05-1.46.96-1.5,2.71-.12,9.83,6.3,11.68,8.6,1.06,1.63,2.05,2.75,2.97,3.37,1.94,3.63,4.03,7.13,5.36,11.44,2.61,8.41,5,16.72,6.77,25.1-5.4-5.93-8.12-12.41-12.08-19.22.34,8.24,8.74,21.11,13.33,27.55,1.23,1.72,2.34,3.3,2.89,5.2-1.75-.12-3.37-1.07-4.84-2.84l-3.94-3.84c9.32,10.57,17.88,21.7,15.89,36.82-1.98-4.22-3.62-8.8-8.27-11.59,2.25,5.79,3.1,11.57,2.06,17.64l-2.03,11.83c-1.01,5.91-.26,11.43,1.81,17.11-4.89-2.79-6.73-7.59-8.24-12.69-2.38,7.32-2.57,15,0,22.55-6.73-3.58-8-16.8-7.95-23.42,0-.44-.06-.82-.39-.79l-.4-1.31c2.72-6.26,2.75-12.22,2.02-18.8-.02-.38.35-.69.7-.91,3.02,5.1,3.02,14.85,2.44,21.01-.03.34-.03.7.17.79.84.39.37-2.57,1.04-4.61,3.76-11.55,1.68-20.31-1.7-31.99l8.37,4.44c-3.28-3.88-6.98-7.08-10.95-10.37-15.06-12.48-17.76-22.87-23.79-40.53-1.54-4.51-3.41-8.65-6.13-12.47-6.54-9.81-18.32-14.63-29.32-8.34,2.08-4.18,6.3-5.93,10.56-7.3-9.08-.64-17.26,3.94-19.7,13.46-3.56-11.96,3.04-21.81,14.74-24.6-.54-.73-1.35-.02-2.16.08-9.63,1.22-15.92,6.74-17.09,16.77-1.99-3.67-3.26-7.89-2.3-12.15.93-4.15,4.19-7.18,7.96-9.05,13.65-6.75,30.67-3.24,43.34,3.65Z"/>
                <g>
                  <path class="cls-14" d="M520.46,213.65c.03.43-.31.55-.64.22-4.57-4.51-7.3-8.95-14.68-11.62l4.44,5.91c1.99,2.66,3.04,5.84,3.92,9.3-2.53-1.86-4.68-3.99-7.35-5.35l-.84.44-3.67-2.77-.27.79c.16.87.57,1.85,1.16,2.72,2.52,3.69,3.71,7.81,3.87,12.29-2.25-2.1-4.1-4.6-6.93-6.38,1.51,4.71,3.09,8.82,2.96,13.58-4.29-10.07-7.5-18.39-17.34-24.66-.72-.46-1.25-1.08-1.3-1.87,5.72,1.02,10.35,3.6,15.21,7.1-.99-3.65-3.95-5.89-6.43-9.04,4.37.1,8.11,2.15,12.44,3.44-4.62-5.03-9.85-8.69-16.01-11.67,3.9-1.29,10.28,1.24,14.38,3-1.03-2.4-3.1-3.37-4.58-5.01.39-.16,1.04-.39.85-.61-.23-.27-2.35-1.17-1.03-1.2,9.16,4.98,16.91,12.16,21.84,21.37Z"/>
                  <path class="cls-68" d="M536.73,263.71c5.58,8.99,8.27,19.32,7.4,30.23.25.87-.42.81-.3-.09.42-6.36-1.01-12.53-3.64-18.53-4.24-9.64-11.56-13.86-15.81-22.74,4.44,3.81,7.65,8,12.35,11.13Z"/>
                  <path class="cls-42" d="M528.9,271.82c-1.48-.35-2.83-1.11-4.17-2.21-7.56-6.18-12.36-15.09-13.67-24.65,3.96,6.85,7.07,13.56,11.85,19.47l5.99,7.4Z"/>
                  <path class="cls-4" d="M506.15,212.11c1.17,2.4,3.75,4.87,4.96,7.69,2.02,4.67,3.82,9.38,4.48,14.65-2.44-5.45-10.28-20.64-14.22-23.88-.8-.66-.9-2.15-2.01-2.71,2.74.67,4.8,3.24,6.79,4.25Z"/>
                  <path class="cls-27" d="M532.35,318.85c-.75-3.06-.54-6.03-.34-9.14.41-6.21.36-11.96-1.33-18.25,4.8,6.38,5.76,14.68,3.26,22.17-.56,1.77-.49,3.48-1.6,5.22Z"/>
                  <path class="cls-70" d="M464.81,188.81c-4.86,2.3-9.16,5.36-13.12,9.56,1.4-5.95,6.77-10.13,13.12-9.56Z"/>
                </g>
              </g>
              <g>
                <path class="cls-86" d="M423.62,310.52l1.05,1.19c.88,4.01,2.36,7.88,4.45,11.4-1.92-5.09-3.1-10.29-3.55-15.6l.42-.96c.3.05.76.05.77-.24.03-3.35-1.31-.74.35-6.46.26-.9-1.21-2.43.5-2.85-.38,6.08,2.6,13.39,4.81,19.02l4.45,14.67c1.59,5.24,4.41,9.64,6.67,14.94-6.11-1.61-10.83-5.53-14.82-10.07-3.68-4.18-5.01-9.37-6.91-14.88-.42,6.84-1.22,13.18-6.91,17.88,2.12-8.69,1.66-13.23-.16-21.71-1.84,4.69-3.35,9.26-8.2,11.83,4.03-8.97,2.02-15.48.53-24.57-1.61-9.84.19-19.52,4.27-28.5.56-1.23,1.3-2.21,1.34-3.42-2.09,2.18-3.1,4.82-4.8,7.14-3.19,4.35-5.43,9.02-7.66,13.73-.39,0-.69-.12-.71-.43-.26-5.14,1.59-9.41,3.81-13.98,2.62-4.74,5.1-9.6,7.42-14.59-1.27,2.11-2.26,2.67-2.97,1.68l5.79-10.89c1.98-3.72,3.53-7.38,4.32-11.56.16-.87,1.05-1.66.37-2.69-1.54,4.33-3.58,8.41-6.86,12.06.63-5.63,2.27-10.58,3.53-15.62,2.75-5.02,6.26-9.3,10.55-12.83.98-.29,1.26-.24,1.14.88-1.68,6.67-2.89,13.41-3.3,20.26,1.06-4.28,2.52-8.47,4.35-12.54,2.78-5.31,4.56-3.76,2.38.78.35.8.7,1.59,1.03,2.37.34,1.01.96.44,1.86-1.69l3.47-4.9c3.2-3.1,2.81-3.22-1.19-.34l-.76-.67c-.33-1.26.1-2.53,1.28-3.81,4.36-5.02,2.61-4.42-1.52-1.24-2.05,1.58-3.77,3.54-5.34,5.58-.42.21-1.2.54-1.51.45-1-.31,1.38-6.76,1.88-8.06,2.47-4.98,2.04-4.66-1.66-1.58-1.21,1.01-2.31,2.14-3.41,3.27-.46.19-1.21.47-1.57.34-1.2-.43,3.21-8.6,3.96-9.79-1.75,1.72-3.01,3.83-4.19,5.96-.62.67-1.12.66-1.51-.18,2.32-4.93,4.8-9.77,8.75-13.91,3.66-3.84,7.97-6.93,13.45-7.49.09,1.82.11,3.49,0,5.29-5.55.57-10.06,3.92-12.36,8.92,3.84-3.01,7.7-5.67,12.77-5.95,1,2.29,1.72,4.57,2.45,7.06-2.53.09-8.86,3.59-8.93,6.1l5.99-2.43c2.88-1.17,6.19-.31,8.02,2.4-6.12,2.67-10.4,7.11-13.17,13.06-5.14,11.01-3.11,18.14-11.43,34.51-1.08,2.12-1.84,4.15-2.78,6.4-5.18,12.3-5.56,25.96-.92,38.49.77-.26.84-.82.93-1.26Z"/>
                <g>
                  <path class="cls-17" d="M434.44,228.39l.39,1.01c-1.18,1.92-2.14,3.94-2.86,6.06l-.92.53c-.87-.18-1.67-1.05-1.8-2.03-.22-1.63,1.3-2.56,1.21-4.24-2.82,3.9-4.15,8.06-5.42,12.43l-2.24,7.74c-.15.52.08,1.54-.68,1.42.58-9.98,1.09-16.94,3.96-26.93-3.98,3.32-6.71,7.37-9.66,11.47-.45.62-.76,1.31-1.52,1.21,1.52-6.12,3.27-12.03,5.96-17.73.32,0,.83-.07,1.05-.52,1.81-3.68,4.44-6.73,7.95-8.88-2.81,4.18-5.28,8.35-6.96,13.25,2.98-3.17,5.79-5.93,9.81-7.51-2.39,4.39-4,8.9-5.07,13.54,3.43-4.63,7.33-8.58,13.33-10-2.58,3.06-4.94,5.8-6.54,9.19Z"/>
                  <path class="cls-44" d="M400.2,293.07c.07,1.17-.71,2.46-1.03,3.6-1.2-13.51,2.92-20.27,8.58-30.92.75.83,4.4-5.55,5.74-6.56-1.93,5.19-4,10.1-6.9,14.94-2.21,3.69-8.01,15.3-6.4,18.93Z"/>
                  <path class="cls-9" d="M425.99,306.56c.84,7.75,3.21,14.65,6.1,22.02-4.42-5.04-7.25-11.45-8.47-18.06-1.03-5.62.29-11.08.98-16.31l1.39,12.35Z"/>
                  <path class="cls-80" d="M412.1,309.26c-.57-.93-1.38-1.58-1.58-2.8-.37-2.38-1.06-4.87-.56-7.3l1.06-5.14c.53-2.58,1.14-5.06,3.26-7.03-.47,5.58-1.53,10.82-.97,16.39l.99,9.88c-1-1.34-1.41-2.73-2.2-4.01Z"/>
                  <path class="cls-5" d="M414.24,279.39l4.36-9.99c2.35-5.38,4.3-10.72,7.08-16.05.33,3.68-.84,7.02-1.92,10.48-1.87,6.01-4.98,11.25-9.51,15.55Z"/>
                  <path class="cls-3" d="M431.05,235.98c.47-2.81,2.21-5.1,3.39-7.6.67.04,1.15-.48,1.73-.95,1.69-1.36,3.72-1.74,5.53-2.44l-3.37,3.45c-4.19,4.29-6.75,9.61-8.98,15.09.1-2.78,1.29-5.07,1.7-7.55Z"/>
                </g>
              </g>
            </g>
          </g>
        </g>
      </g>
      <g id="xBbnet.tif">
        <g>
          <path class="cls-82" d="M535.14,407.11c-.51,6.96-3.71,12.33-8.7,17.01-.92-.58-1.93-1.8-2.59-2.68-1.38-1.85-2.57-3.81-3.6-5.88-.29-.59-.52-1.13-.77-1.81l-.63-1.98.66.03c.35.03,1.02.09,1.36.16l1,.22.6.14h0c.07.7.26,1.37.57,2l.23.46c.68,1.52,1.51,2.91,2.57,4.21,2.66-2.72,4.89-6.14,5.76-9.84l1.2-.56c.84-.39,1.59-.88,2.34-1.47Z"/>
          <path class="cls-82" d="M530.71,403.61c-.14,1.72-1.06,3.69-1.79,5.2l-.42.83c-.13.25-.27.5-.4.75t0,0l-1.72,2.85c-.36.54-.75,1.06-1.17,1.55l.04-.86c.02-.55-.34-1.05-.88-1.19h0c-1.09-.26-1.9-.45-2.48-.58-1.23-.28-2.49-.43-3.75-.42-.89.01-1.77.1-2.65.26,1.17,3.75,3.11,7.47,5.94,10.15l-.05,1.4c-.04.94.07,1.83.22,2.79-5.85-4.05-9.03-9.68-10.83-16.43.57-.3,1.13-.48,1.75-.62,1.42-.33,2.86-.47,4.29-.54l.4-.03c1.13-.04,2.24-.03,3.38.01.78.06,1.51.12,2.3.28,0,0,1.01.15,2.33.47.52-.88.98-1.81,1.35-2.79-3.68-.94-7.8-1.16-11.4-.08l-1.27-.88c-.7-.49-1.45-.83-2.26-1.17,6.29-3.03,12.53-2.96,19.1-.96Z"/>
          <path class="cls-82" d="M515.16,408.1c-1.5.08-2.88.3-4.31.72l-.22-2.79c.96.12,1.84.43,2.69.88.64.36,1.22.73,1.85,1.2Z"/>
          <path class="cls-82" d="M532.37,407.35c-.67.41-1.31.74-2.05,1.06.65-1.32,1.18-2.62,1.52-4.08l2.54,1.2c-.58.75-1.23,1.32-2.01,1.83Z"/>
          <path class="cls-82" d="M522.79,424.89c.14.55.29,1.05.53,1.6l2.17-1.65c-1.12-1.06-2.02-2.2-2.86-3.45-.06.87-.06,1.69.02,2.53l.14.97Z"/>
        </g>
      </g>
    </g>
    <g>
      <path class="cls-28" d="M85.52,465.17c-.54.05-.48-3.66-.42-5.19l-.3-20.06c0-.74.17-1.43.72-1.38v26.63Z"/>
      <g>
        <path class="cls-81" d="M570.12,230.61c-11.39-56.73-39.91-109.33-81.28-149.72C403.54-2.4,273.75-23.08,165.94,26.84,72.09,70.29,9.72,161.81,1.24,264.78c-6.68,81.23,22.09,163.51,78.83,221.45,2.32,2.37,3.9,5.13,6.88,6.95,2.06,1.26,4.2,5.45,6.66,6.24.44.34,1.25,1.14,1.66,1.56,5.16,5.32,16.39,14.1,22.94,18.72l7.32,5.17c3.25,2.3,7.29,6.27,11.3,7.36.72.84,2.32,1.5,3.28,2.11,38.82,24.27,84.15,37.87,130.42,40.73,56.36,3.49,113.88-9.6,161.85-38.57,2.53-1.52,5.72-2.26,7.71-4.62l12.7-8.4c.93-.09,1.62-1.19,2.31-1.66,46.53-31.9,82.45-79.46,102.38-132.48,19.12-50.88,23.33-105.45,12.63-158.72ZM419.74,512.08l-1.64.54-7.2,22.61.58,1.44-2.82.34c-12.3,5.28-24.82,10.03-37.54,14.25-1.76.65-3.27,1.76-4.73,2.9l-5.68.22c-47.36,12.8-97.55,12.73-144.92,0l-8.33-.89-1.83-1.53c-13.77-4.77-27.2-10.37-40.29-16.8-.39-2.7-1.49-4.29-3.3-4.78l.71-2.67c-5.52-17.76-9.54-35.64-6.24-54.28,0,0-.34-.9-1.03-2.7,2.59-7.82,5.04-15.7,7.34-23.64,9.72-26.95,18.67-54.91,20.96-83.84.12-1.59-.35-3.16-.82-4.66l1.52-1.63c-.79-4.9.56-7.51,4.02-7.85v-1.64c1.83.87,4.94.25,4.91-2.03,2.27,1.12,7.33-1.38,8.33-3.62.59,1.05,1.11.81,1.54-.71,1.52.95,3.45.73,3.4-1.35,1.37.46,2.77.14,4.2-.97.34,48.72,23.34,92.34,77.53,92.53,53.74.18,76.58-44.62,77.04-92.49,1.8,1.26,3.17,1.42,4.1.47.21,1.95,2.44,3.85,3.93,1.98.9,2.83,6.59,5.11,9.38,4.27.38,2.41,2.77,3.04,4.54,1.94l.32,1.72c3.52.16,4.9,2.84,4.17,8.06l1.39,1.24c-.48,1.49-.98,3.05-.85,4.64,1.35,17.84,6.02,38.15,11.29,55.27,6.63,18.44,12.56,37.5,17.53,56.02l-1.03,2.52.84,9.23c-.48,3.88-.2,7.39.87,10.53,1.39.71.46,2.67.65,4.19.51,4.08.92,9.36-2.82,11.19ZM492.4,465.26c2.34-44.94-4.59-97.19-55.11-109.73-10.41-2.43-20.72-5.15-30.94-8.15-10.75-4.76-21.25-9.77-31.49-15.05l-1.42.36-.83-1.07-16.87-6.45c-10.04-5.41-12.33-13.52-13.5-24.16-.53-4.92-1-21.18-.22-25.66,5.03-5.58,9.59-11.82,11.63-19.16l4.88-19.06c1.03-.88,2.41-1.18,4.15-.92l1.22-.9c3.12-2.85,6.32-5.84,8.29-9.92,3.72-7.68,7.84-26.45,7.27-34.84-.22-3.28-.94-6.79-2.97-9.46-1.28-1.69-3.92-4.48-5.7-2.49-1.57-.57-2.66.74-3.23,2.11-.22.53-.43,4.16.28,4.15,2.86,3.73,2.52,7.41,2.03,11.92-.93,8.63-4.49,22.53-9.19,28.25l2.03-11.28-1.27-.85c.29-3.21.37-6.4.24-9.57-3.85-1.74-5.84.23-5.96,5.9l-.52.17c-1.61,3.35-2.41,5.02-2.41,5.02l-4.72,23.57c-2.44,24.42-20.56,42.41-39.15,56.89-10.52,8.19-30.65,8.05-41.36.26-15.09-10.97-32.9-28.7-37.37-47.23l-7.77-36.78-1.5-.34s-.07.02-.11.03c.03.39.02.67-.02.84-.31,1.16-.98-.5.02-.84-.22-3.11-2.79-12.05-6.45-6.86.12,2.77.2,5.52.22,8.22l-1.21,1.24c.84,4.06,1.47,7.91,1.87,11.54-6.18-10.1-10.06-25.13-8.71-37.01.82-1.19.89-2.22.22-3.08,4.1.21,1.95-8.43-1.43-7.78-3.9,1.37-6.32,4.17-7.68,8.14-3.77,10.95,2.64,31.21,6.85,41.05,2.13,5.01,8.31,9.64,13.53,10.65,1.01,5.76,2.29,11.55,3.83,17.39,1.98,8.03,6.57,15.18,12.16,21.16,1.42,8.79.37,23.85-1,32.84-1.08,7.07-7.01,13.66-13.2,16.83-15.9,6.38-31.45,13.41-46.64,21.09-10.84,3.32-21.78,6.32-32.82,8.98-36.81,11.25-50.87,33.75-55.28,71.05l-.29,2.86c0,2.48,0,5.63,0,9.43-.61,8.75.72,18.33.72,26.63,0,2.91-.36,4.51-1.51,7.74-.22.73-5.27-5.1-6.78-6.88C-20.96,351.01-6.08,176.1,108.17,77.79,217.73-16.47,384.96-9.39,485.76,94.56c101.41,104.58,105.08,271.61,6.33,379.32"/>
        <path class="cls-81" d="M419.74,512.08c2.15-4.77,2.87-9.89,2.17-15.38,1.39.71.46,2.67.65,4.19.51,4.08.92,9.36-2.82,11.19Z"/>
        <g>
          <path class="cls-58" d="M370.81,178.59c-.18,1.08-2.4,2.01-1.97,3.34.56,1.79-.58,1.99-.98,2.92l.83,1.54c-3.43,6.03-5.01,12.71-4.73,20.01.11,3.11-.72,5.26-2.5,6.48-1.56-2.16.34-4.89-.04-7.79-.18-1.35-3.45-1.23-4.12-.15-1.15,1.88-.69,4.08-1.55,5.8-.58-.7-.38-1.14-.52-1.38,1.93-9.48,1.48-21.67.47-31.81-1.07-10.76-5.87-12.94-8.34-25.37-1.78-8.92-6.79-16.37-13.85-21.83-8.75-6.76-19.05-8.89-29.89-6.4-30.01,6.89-38.31-8.64-58.48,4.6-8.21,5.39-14.15,13.27-16.17,23.06-2.57,12.46-7.68,15.75-8.61,27.08-.85,10.26-1.63,21.62.58,32.07l-.57,1.38c-1.03-2.11-.14-9.23-4.48-8.04-2.78.76.74,7.05-1.28,8.07l-1.71-1.83-1.2-13.33c-1.4-4.2-3.04-8.26-4.92-12.17,2.32-4.3-.82-5.66-1.42-7.78-4.97-17.55-4.72-35.66-.5-53.73,5.03-21.55,17.57-39.65,36.63-50.84,3.59-19.05,11.08-35.17,30.24-42.09,11.97-4.32,24.83-4.22,36.88-.12,20.96,7.13,28.85,25.36,32.12,45.69,5.17,4.43,10.41,8.23,14.67,13.5,14.01,17.33,20.37,43.93,19.02,65.95-.49,8.11-2.33,15.59-3.59,23.17Z"/>
          <g>
            <path class="cls-16" d="M275,112.19c-2.81-7.12-1.16-13.8,1.16-20.82-9.94,3.33-17,10.88-19.31,21.37-2.74-7.85.02-17.1,6.15-23.02,10.64-10.27,22.02-8.32,32.04-16.23.31,5.21-2.46,8.28-4.36,12.25,5.49.13,10.06-1.87,15.37-4.63.36,3.65-2.4,6.17-5.12,8.14-10.35,7.5-19.95,3.53-25.91,22.94Z"/>
            <path class="cls-19" d="M309.58,62.21c-13.93-2.97-26.89-2.75-40.77-.51,3.97-11.15,19.52-12.17,28.74-9.64,5.23,1.43,9.68,4.99,12.02,10.16Z"/>
            <path class="cls-64" d="M312.61,102.76c-8.6,3.33-14.83,3.69-22.18,10.37,4.41-18.5,21.08-8.74,29.93-27.58,3,7.15-.98,14.59-7.75,17.21Z"/>
            <path class="cls-33" d="M318.22,117.59c-.38-3.03,1.65-4.66,3.57-6.23l9.23-7.55c3.06-2.5,2.94-6.84,4.24-10.9,3.24,5.68,2.95,13.24-2.02,17.96-3.02,2.87-11.05,3.59-15.02,6.73Z"/>
            <path class="cls-39" d="M221.5,129.58c1.31-4.88,5.87-6.33,9.84-8.32-3.01-3.59-7.2-3.62-11.31-4.71,7.85-4.44,15.01-.18,19.33,6.56-6.88,1.42-12.51,2.45-17.86,6.47Z"/>
            <path class="cls-25" d="M334.24,120.59c7.49-6.88,11.1-6.1,15.15-16.4,1.73,5.38,1.53,11.47-3.06,14.83-3.42,2.5-8.11,2.26-12.09,1.56Z"/>
            <path class="cls-59" d="M240.16,108.54c-2.17-6.12-1.65-11.81.82-17.15,1.9-4.09,5.99-6.8,10.76-6.19-6.39,7.15-10.68,14.45-11.59,23.34Z"/>
            <path class="cls-48" d="M261.37,75c-3.35,5.65-4.39,11.2-6.9,17.17-2.29-6.66.04-13.58,5.37-17.57.69-.52,1.44-.75,1.53.41Z"/>
          </g>
        </g>
        <g>
          <path class="cls-28" d="M220.79,211.66c-.31,1.16-.98-.5.02-.84.03.39.02.67-.02.84Z"/>
          <g>
            <path class="cls-81" d="M452.81,523.46c-.79,1.36-11.16,8.31-12.7,8.4,1.33-1.56,10.87-8.38,12.7-8.4Z"/>
            <g>
              <g>
                <path class="cls-29" d="M442.37,518.4c-1.14.64-1.85.42-1.92-.86-2.01-24.77-3.76-49.48-5.27-74.15.29-2.77,1.08-4.94.46-7.54-.79-1.24-4.52-1.64-4.97.13l-5.64,22.35c-2.77-9.92-5.66-19.33-9.2-29.23-8.76-24.49-14.22-49.25-16.27-75.63,16.45,6.52,31.58,6.96,47.07,14.14,14.47,6.28,24.5,17.49,30.06,32.38,5.72,16.17,8.29,33.08,7.92,50.43l-.72,33.95c-12.9,12.93-26.61,24.36-41.53,34.02Z"/>
                <path class="cls-51" d="M140.87,444.12c-.98,24.84-2.72,49.67-5.23,74.48-.61.5-1.21.4-1.82-.18-14.87-10.09-28.48-21.04-41.28-33.9l-.76-31.29c-.42-17.14,1.53-33.67,6.71-49.95,3.82-12.02,10.67-22.37,20.74-29.86,18.95-13.17,37.27-11.65,57.53-20.31-2.13,21.83-5.49,42.51-12.08,63.08l-13.48,42.12c-2.32-7.24-3.58-14.47-5.34-21.94-.32-1.35-2.27-1.49-3.13-1.42-.7.06-2.41.44-2.32,1.69.17,2.41-.11,5.33.47,7.48Z"/>
                <path class="cls-78" d="M442.37,518.4c-7.19,4.66-13.59,9.41-21.41,13.37.7-3.86,1.82-7.26,2.89-10.84,4.78-15.97,6.15-32.1,3.94-48.76l7.4-28.77c.97.23,1.24,1.64,1.34,2.96l5.32,71.15c.04.54.34.75.52.89Z"/>
                <path class="cls-47" d="M133.82,518.42c.26.1.68-.13.73-.77l5.31-70.25c.11-1.39.64-2.33,1.01-3.27l7.73,28.73c-1.84,13.76-1.51,27.06,1.76,40.36,1.56,6.34,3.76,12.04,4.9,18.41-7.92-4.38-14.88-8.44-21.45-13.21Z"/>
              </g>
              <g>
                <g>
                  <path class="cls-87" d="M393.28,358.49l-5.69-2.51c-.19-2.66-.98-5.29-.66-8.38.02-.27.19-.24.47-.13,1.2,1.01,4.34.44,5.12,2.58.98,2.68.45,5.8.75,8.44Z"/>
                  <path class="cls-87" d="M188.67,355.96c-2.1.33-3.77,1.78-5.7,2.61.34-2.73-.23-5.87.95-8.75.74-1.8,3.57-1.35,4.58-2.37,1.96-1,.18,8.18.17,8.51Z"/>
                </g>
                <g>
                  <path class="cls-23" d="M355.79,357.24c-.6.34-1.29.3-2.07-.13l-30.13,4.45c-8.11.14-14.17,2.96-18.19,8.47,2.71-1.24,5.47-2.4,8.34-3.25,3.82-1.14,38.82-6.6,40.59-5.56.49.29.47,1.06.33,1.71-2.97,19.77-13.56,40.87-30.89,51.02-16.6,9.72-35.86,11.51-54.39,6.93-16.06-3.96-29.02-13.71-37.32-28.02-5.46-9.4-9.06-19.53-10.68-30.01l.35-1.88c14.32,1.14,28.51,3.16,42.57,6.07,9.8,5.38,7.64,2.91.96-2.51-14.28-3.56-28.77-6.05-43.46-7.46l-1.48-1.09c-1.13-7.33-1.44-13.97-1.6-21.27,19.62-9.04,23.45-20.12,23.76-40.54,2.19-.81,2.78.61,1.76,4.27,8.49,13.72,23.22,29.08,39.9,30.91,21.16,2.32,36.06-14.26,47.73-30.09-.4-1.65-1.1-12.99.74-12.69.37.06.7.3,1.03.59.1,23.05,1.02,37.15,23.72,47.38.29,7.65-.2,15.33-1.57,22.7Z"/>
                  <path class="cls-65" d="M333.64,287.16c-1.41-1.36-.51,11.2-.55,12.64-5.95,7.58-11.85,14.63-19.01,21.06-14.86,13.36-36.55,13.48-51.73.3-7.38-6.4-13.65-13.86-19.25-21.97-.88-1.28,1.37-4.52-.61-5.03l.17-10.57c14.76,14.38,23.78,25.73,46.08,25.56,20.34-.15,28.62-10.23,42.28-23.09.63-.59,1.54-1.08,1.9-.72.59.59.72,1.17.72,1.81Z"/>
                  <path class="cls-32" d="M221.39,362.85l-1.06-6.87c1.98-.72,4.06-.08,6.37.28,12.23,1.91,24.23,3.01,36.32,5.91,4.81,1.15,8.43,5.4,10.38,9.76-3.76,1.46-4.75-3.76-17.18-5.36l-32.8-4.22c-.93-.12-1.73-.25-2.02.51Z"/>
                  <path class="cls-35" d="M355.79,357.24c-.42,2.25.16,4.24-1.12,5.68-.3-.49-.83-.42-1.56-.33l-29.99,3.64c-7.39.9-13.5,3.09-20.43,6.74,1.32-4.78,4.77-8.66,9.03-10.24,8.25-3.06,33.45-4.92,43.29-7.35.31.91.49,1.38.8,1.86Z"/>
                  <path class="cls-20" d="M214.59,212.18l2.83,15.7c-3.68-1.36-5.56-4.54-6.65-7.81-2.54-7.63-9.82-29.62-4.01-35.22,1.95-1.71,6.46,11.78,6.51,12.83.28,5.1.46,9.76,1.31,14.5Z"/>
                  <path class="cls-7" d="M361.44,212.88c.42-2.37.97-4.74,1.18-7.42l.73-9.3c.32-4.11,2.92-7.72,4.49-11.32,6.6.18,2.77,17.05,1.49,21.62-1.79,6.39-4.14,20.43-10.58,21.4l2.68-14.99Z"/>
                </g>
              </g>
            </g>
          </g>
        </g>
        <g>
          <path class="cls-60" d="M355.21,209.37c-2.64,13.27-4.96,26.23-8.15,39.36-1.6,6.6-3.98,12.49-8.13,17.87-8.16,10.56-17.35,19.99-27.73,28.29-7.2,5.76-15.4,7.63-24.38,7.43-8.04-.18-15.03-2.18-21.56-7.14-9.41-7.15-17.26-15.69-25.05-24.65-5.73-6.6-9.57-13.75-11.38-22.34l-7.91-37.42c-1.24-3.48-2.32-6.94-2.72-10.61-1.56-14.3,1.05-29.56,7.51-42.14,2.82-13,6.72-22.11,17.85-30.1,7.89-5.67,14.61-6.8,23.92-5.93,14.09,3.07,27.61,3.06,41.86-.33,22.29-1.67,37.9,15.78,41.07,36.55,6.6,12.26,8.28,24.82,7.48,39.06-.25,4.41-.75,8.14-2.68,12.09Z"/>
          <path class="cls-85" d="M363.92,235.3c-1.49,32.57-.35,66.14,9.54,97.38-.36.45-1.21.31-1.92,0-10.62-4.68-17.3-4.46-23.63-12.12-2.68-3.24-5.17-6.65-5.81-11.05-.57-3.9-1.4-7.79-1.41-11.77l-.05-23.03c5.43-5.84,9.95-12.07,11.93-19.8l4.58-17.97c.56-2.18,3.87-2.45,5.58-1.87.26-.88,0-1.63.96-1.97.08.86.06,1.52.24,2.2Z"/>
          <g>
            <path class="cls-87" d="M369.56,339.28c.21,29.54-9.24,65.32-35.32,83.11-20.34,13.88-45.67,17.08-69.21,10.56-12.17-3.37-22.81-8.7-31.67-17.56-19.81-19.81-26.38-48.84-26.68-75.66,1.56-1.11,3.18-2.46,5.68-2.79.18,37.92,12.73,77.93,52.75,89.54,22.07,6.4,45.74,3.93,65.08-8.78,25.26-16.61,33.68-52.05,33.87-80.6,2.06.12,3.81,1.32,5.49,2.18Z"/>
            <path class="cls-87" d="M382.87,345.54l.24,7.61c-.27.49-.62.93-1.14,1.16-.38.17-7.02-2.9-7.7-3.31l-.6-1.5-.17-8.23c3.07,1.55,6.42,2.52,9.38,4.27Z"/>
            <path class="cls-87" d="M201.75,341.8c1.31-.88.82,6.4.64,7.48-3.28,1.14-5.91,3.17-9,3.8.31-2.52.1-5.15.03-7.67,2.68-1.38,5.34-2.92,8.33-3.61Z"/>
            <path class="cls-87" d="M366.38,554.15c-52.23,15.35-106.8,14.8-158.92-.67,12.8-.5,25.38-2.43,38.3-5.74,33.05-8.46,53.93-7.42,86.73.36,10.47,2.48,20.48,4.54,31.26,5.27,1.13.08,2.24-.18,2.62.79Z"/>
            <g>
              <path class="cls-24" d="M373.49,341.26c2.04,1.34,2.44,7.15.17,8.23.3.62.57,1.25.75,1.9s.32,1.25.27,1.86c-.82,10.52-3.72,21.16-6.64,31.25l18.92,9.44c-2.18-12.15-3.78-24.43-4.85-36.74-.06-.65.1-1.32.27-2.01s.44-1.38.73-2.05c-2.13-.88-2.41-6.76-.24-7.61,1.4.83,3.17.8,4.53,1.93,1.1,1.8,2.28,7.32.19,8.51,1.96,6,3.06,12.35,3.32,19.05,4.56,31.25,14.12,58.51,26.85,87.13,1.34,4.98,2.49,9.07,3.47,12.28,1.22,7.34,1.72,14.88.68,22.28.72,5.52,0,10.64-2.17,15.38l-6.93,21.89c-.35,1.11-.57,2.1-1.33,2.69-14.51,7.15-29.59,12.93-45.09,17.48-1.94-.19-3.99-.08-6.14.33-12.76-1.6-25.38-4.01-37.86-7.21-29.28-7.24-58.21-3.77-87.06,4.28-9.33,2.39-18.62,3.04-27.87,1.93-14.74-4.38-29.06-9.95-43.03-17.36-.77-2.02-1.87-3.94-2.38-5.75-6.51-23.39-10.41-34.12-6.56-59.66.85-.42.4,1.3.41,1.21.28-3.92,1.92-9.15,3.38-12.87,15.4-31.78,25.39-65.34,27.89-100.59l1.51-2.5-1.26-1.01c.21-2.59.57-5.09,1.09-7.51,1.38-1.38,3.29-1.19,4.92-2.03,2.24,1.32,2.34,6.47-.03,7.67.27.78.5,1.57.65,2.38s.28,1.57.19,2.32c-1.47,12.1-3.03,24.19-4.86,36.24l18.94-9.37c-3.7-10.95-6.12-22.37-6.52-33.96l1-1.63c-.1-2.71.07-5.37.51-7.97.69-1.16,2.44-.85,3.4-1.36l1.45,2.7c.75,50.18,26.45,92.51,80.77,92.36,53.51-.15,79.04-44.44,79.24-93.08l1.41-2.43,3.93,1.98Z"/>
              <g>
                <path class="cls-87" d="M393.28,358.49c2.59,22.37,6.3,44.39,13.94,65.98,4.34,12.28,8.39,24.05,11.72,36.59,1.24,4.67,1.57,9.02,2.29,13.37-.33,1.11-1.07.02-.62-.77-8.98-25-19.95-45.78-26.24-72.03-3.65-15.24-5.69-30.4-6.78-45.65,1.43-1.91,5.39.36,5.69,2.51Z"/>
                <path class="cls-87" d="M203.29,341.09c-.89,14.86,1.62,29.72,6.77,44.26l-22.82,11.28c2.89-14.97,4.35-29.2,6.15-43.54l.56-1.58,7.14-3.29c-.17-2.37.04-4.5.65-6.4.45-.1,1.03-.71,1.54-.71Z"/>
                <path class="cls-87" d="M188.67,355.96c-.17,6.9-1.31,13.67-2.29,20.94-4.26,31.67-11.99,51.99-24.96,80.75-2.23,4.95-4.25,9.57-5.36,14.51-.7-.71-.45-1.18-.58-1.44,3.15-20.9,12.42-39.81,18.24-60.93,4.71-17.07,7.08-34.04,9.24-51.22.42-2.26,4.36-5.05,5.7-2.61Z"/>
                <path class="cls-81" d="M419.74,512.08l2.17-15.38c1.39.71.46,2.67.65,4.19.51,4.08.92,9.36-2.82,11.19Z"/>
                <path class="cls-87" d="M383.11,353.14c1.45,14.38,2.68,28.65,5.96,43.42l-22.79-11.37c3.97-11.89,6.26-23.67,7.38-35.7,3.56.32,6.45,3.1,9.45,3.65Z"/>
                <path class="cls-87" d="M364.49,534.86c-33.2,3.81-53.82-16.86-107.99-5.31-8.57,1.83-16.48,3.9-25.21,5.02-15.6,2.01-31.12,0-44.64-7.9-15.84-9.26-26.4-24.11-31.11-41.64,4.96-14.72,10.99-28.06,16.81-42.27,5.57-13.29,10.41-26.15,13.76-40.41l25.61-13.05c11.23,28.15,31.25,44.17,60.87,49.39,22.24,3.92,45.12-.06,63.85-12.75,13.3-9.01,22.24-21.93,28.33-36.64l25.34,13.23,6.88,22.44,7.76,20.14c5.32,13.81,11.27,26.86,15.95,40.91-8.54,26.41-28.01,45.61-56.22,48.84Z"/>
              </g>
            </g>
          </g>
        </g>
      </g>
    </g>
  </g>
  <path class="cls-24" d="M359.09,466.91c2-.07,3.96-.06,5.97.02,1.39.1,2.67.21,4.06.49l-3.66,5.16c-3.12-.47-6.28-.44-9.38.13,2.07,6.62,5.49,13.19,10.49,17.92l-.1,2.47c-.06,1.65.13,3.23.39,4.93-10.33-7.15-15.95-17.09-19.13-29.01,1-.53,1.99-.85,3.08-1.1,2.51-.58,5.05-.82,7.57-.96l.71-.04Z"/>
  <path class="cls-24" d="M379.06,468.53c-1.67,3.15-3.52,6.36-5.82,9.11l-.95-2.25-1.44-3.65c1.97-2.55,3.6-5.34,4.75-8.41-6.5-1.67-13.77-2.05-20.13-.13l-2.25-1.56c-1.24-.86-2.55-1.47-4-2.06,11.11-5.35,22.12-5.22,33.72-1.7-.25,3.04-1.86,6.52-3.16,9.19l-.74,1.47Z"/>
  <path class="cls-24" d="M369.8,477.57c1.21,2.69,2.66,5.14,4.53,7.43,4.69-4.81,8.64-10.85,10.18-17.37l2.12-.99c1.48-.7,2.81-1.56,4.14-2.6-.91,12.3-6.55,21.76-15.37,30.04-1.63-1.03-3.41-3.19-4.57-4.74-2.44-3.27-4.54-6.73-6.35-10.38-.52-1.05-.92-2-1.36-3.19.79.06,1.45.17,2.18.3l.87.16,3.43.7.2.65Z"/>
  <path class="cls-24" d="M355.49,465.8c-2.65.15-5.09.53-7.61,1.27l-.4-4.93c1.7.2,3.25.77,4.75,1.55,1.12.64,2.16,1.29,3.26,2.11Z"/>
  <path class="cls-24" d="M385.88,464.47c-1.18.72-2.31,1.31-3.62,1.87,1.15-2.32,2.08-4.63,2.68-7.21l4.49,2.12c-1.02,1.32-2.18,2.34-3.55,3.23Z"/>
  <path class="cls-24" d="M368.96,495.44c.25.97.51,1.86.93,2.83l3.84-2.92c-1.98-1.88-3.57-3.88-5.04-6.08-.11,1.53-.1,2.98.03,4.47l.25,1.71Z"/>
</svg>