<?xml version="1.0" encoding="UTF-8"?>
<svg id="Calque_2" data-name="Calque 2" xmlns="http://www.w3.org/2000/svg" viewBox="0 0 2451.93 349.98">
  <defs>
    <style>
      .cls-1 {
        fill: #e7eff7;
      }

      .cls-2 {
        fill: #fff;
      }

      .cls-3 {
        fill: #1edd88;
      }
    </style>
  </defs>
  <g id="Calque_1-2" data-name="Calque 1">
    <g>
      <g>
        <path class="cls-2" d="M0,1.93h21.23v115.8h34.93v19.3H0V1.93Z"/>
        <path class="cls-2" d="M66.39,1.93h57.9v19.3h-36.67v35.71h29.14v19.3h-29.14v41.5h36.67v19.3h-57.9V1.93Z"/>
        <path class="cls-2" d="M162.51,137.04v-19.3c2.06.52,4.37.77,6.95.77,4.25,0,7.4-1.06,9.46-3.18,2.06-2.12,3.09-5.37,3.09-9.75V1.93h21.23v103.07c0,11.07-2.54,19.3-7.62,24.7-5.08,5.4-12.83,8.11-23.26,8.11-3.86,0-7.14-.26-9.84-.77Z"/>
        <path class="cls-2" d="M218.48,1.93h57.9v19.3h-36.67v35.71h29.14v19.3h-29.14v41.5h36.67v19.3h-57.9V1.93Z"/>
        <path class="cls-2" d="M295.87,130.18c-5.4-5.85-8.11-14.25-8.11-25.19V1.93h21.23v104.61c0,4.63.93,7.98,2.8,10.04,1.86,2.06,4.54,3.09,8.01,3.09s6.14-1.03,8.01-3.09c1.86-2.06,2.8-5.4,2.8-10.04V1.93h20.46v103.07c0,10.94-2.7,19.33-8.11,25.19-5.4,5.86-13.25,8.78-23.55,8.78s-18.14-2.93-23.55-8.78Z"/>
        <path class="cls-2" d="M413.41,1.93h28.76l22,135.1h-21.23l-3.86-26.83v.39h-24.13l-3.86,26.44h-19.69L413.41,1.93ZM436.57,92.26l-9.46-66.78h-.39l-9.26,66.78h19.11Z"/>
        <path class="cls-2" d="M463.4,1.93h21.42l13.9,104.8h.39l13.9-104.8h19.49l-20.46,135.1h-28.18L463.4,1.93Z"/>
        <path class="cls-2" d="M553.72,1.93h28.76l22,135.1h-21.23l-3.86-26.83v.39h-24.13l-3.86,26.44h-19.69L553.72,1.93ZM576.88,92.26l-9.46-66.78h-.39l-9.26,66.78h19.11Z"/>
        <path class="cls-2" d="M614.71,1.93h26.63l20.65,80.87h.39V1.93h18.92v135.1h-21.81l-25.48-98.63h-.39v98.63h-18.92V1.93Z"/>
        <path class="cls-2" d="M713.72,21.23h-22.2V1.93h65.62v19.3h-22.2v115.8h-21.23V21.23Z"/>
        <path class="cls-2" d="M814.85,21.23h-22.2V1.93h65.62v19.3h-22.2v115.8h-21.23V21.23Z"/>
        <path class="cls-2" d="M874.49,130.09c-5.53-5.92-8.3-14.28-8.3-25.09V33.97c0-10.81,2.77-19.17,8.3-25.09,5.53-5.92,13.51-8.88,23.93-8.88s18.4,2.96,23.93,8.88c5.53,5.92,8.3,14.28,8.3,25.09v71.03c0,10.81-2.77,19.17-8.3,25.09-5.53,5.92-13.51,8.88-23.93,8.88s-18.4-2.96-23.93-8.88ZM909.43,106.35V32.62c0-8.88-3.67-13.32-11-13.32s-11,4.44-11,13.32v73.73c0,8.88,3.67,13.32,11,13.32s11-4.44,11-13.32Z"/>
        <path class="cls-2" d="M952.27,130.18c-5.4-5.85-8.11-14.25-8.11-25.19V1.93h21.23v104.61c0,4.63.93,7.98,2.8,10.04,1.86,2.06,4.54,3.09,8.01,3.09s6.14-1.03,8.01-3.09c1.86-2.06,2.8-5.4,2.8-10.04V1.93h20.46v103.07c0,10.94-2.7,19.33-8.11,25.19-5.4,5.86-13.25,8.78-23.55,8.78s-18.14-2.93-23.55-8.78Z"/>
        <path class="cls-2" d="M1039.12,21.23h-22.2V1.93h65.62v19.3h-22.2v115.8h-21.23V21.23Z"/>
        <path class="cls-2" d="M1078.69,116.58h20.46v20.46h-20.46v-20.46Z"/>
        <path class="cls-3" d="M424.49,211.21h-25.61v-22.27h75.72v22.27h-25.61v133.62h-24.5v-133.62Z"/>
        <path class="cls-3" d="M493.31,336.81c-6.38-6.83-9.58-16.48-9.58-28.95v-81.95c0-12.47,3.19-22.12,9.58-28.95,6.38-6.83,15.59-10.24,27.62-10.24s21.23,3.42,27.62,10.24c6.38,6.83,9.58,16.48,9.58,28.95v81.95c0,12.47-3.19,22.12-9.58,28.95-6.39,6.83-15.59,10.24-27.62,10.24s-21.23-3.41-27.62-10.24ZM533.62,309.42v-85.07c0-10.24-4.23-15.37-12.69-15.37s-12.69,5.12-12.69,15.37v85.07c0,10.24,4.23,15.37,12.69,15.37s12.69-5.12,12.69-15.37Z"/>
        <path class="cls-3" d="M583.06,336.92c-6.24-6.75-9.35-16.44-9.35-29.06v-118.92h24.5v120.7c0,5.34,1.08,9.21,3.23,11.58,2.15,2.38,5.23,3.56,9.24,3.56s7.09-1.19,9.24-3.56c2.15-2.37,3.23-6.24,3.23-11.58v-120.7h23.61v118.92c0,12.62-3.12,22.31-9.35,29.06-6.24,6.76-15.29,10.13-27.17,10.13s-20.93-3.38-27.17-10.13Z"/>
        <path class="cls-3" d="M658.55,344.83v-22.27c2.37.6,5.04.89,8.02.89,4.9,0,8.54-1.22,10.91-3.67,2.37-2.45,3.56-6.2,3.56-11.25v-119.59h24.5v118.92c0,12.77-2.93,22.27-8.8,28.51-5.87,6.24-14.81,9.35-26.83,9.35-4.45,0-8.24-.3-11.36-.89Z"/>
        <path class="cls-3" d="M730.93,336.81c-6.38-6.83-9.58-16.48-9.58-28.95v-81.95c0-12.47,3.19-22.12,9.58-28.95,6.38-6.83,15.59-10.24,27.62-10.24s21.23,3.42,27.62,10.24c6.38,6.83,9.58,16.48,9.58,28.95v81.95c0,12.47-3.19,22.12-9.58,28.95-6.39,6.83-15.59,10.24-27.62,10.24s-21.23-3.41-27.62-10.24ZM771.24,309.42v-85.07c0-10.24-4.23-15.37-12.69-15.37s-12.69,5.12-12.69,15.37v85.07c0,10.24,4.23,15.37,12.69,15.37s12.69-5.12,12.69-15.37Z"/>
        <path class="cls-3" d="M820.67,336.92c-6.24-6.75-9.35-16.44-9.35-29.06v-118.92h24.5v120.7c0,5.34,1.08,9.21,3.23,11.58,2.15,2.38,5.23,3.56,9.24,3.56s7.09-1.19,9.24-3.56c2.15-2.37,3.23-6.24,3.23-11.58v-120.7h23.61v118.92c0,12.62-3.12,22.31-9.35,29.06-6.24,6.76-15.29,10.13-27.17,10.13s-20.93-3.38-27.17-10.13Z"/>
        <path class="cls-3" d="M901.74,188.94h36.3c12.62,0,21.83,2.93,27.62,8.8,5.79,5.87,8.69,14.89,8.69,27.06v9.58c0,16.18-5.34,26.43-16.04,30.73v.45c5.94,1.78,10.13,5.42,12.58,10.91,2.45,5.49,3.67,12.84,3.67,22.05v27.39c0,4.45.15,8.06.45,10.8.3,2.75,1.04,5.46,2.23,8.13h-24.94c-.89-2.52-1.49-4.9-1.78-7.13-.3-2.23-.45-6.24-.45-12.03v-28.51c0-7.13-1.15-12.1-3.45-14.92-2.3-2.82-6.27-4.23-11.91-4.23h-8.46v66.81h-24.5v-155.89ZM935.14,255.75c4.9,0,8.57-1.26,11.02-3.79,2.45-2.52,3.67-6.75,3.67-12.69v-12.03c0-5.64-1-9.72-3.01-12.25-2-2.52-5.16-3.79-9.46-3.79h-11.13v44.54h8.91Z"/>
        <path class="cls-3" d="M996.38,336.92c-6.09-6.75-9.13-16.44-9.13-29.06v-8.91h23.16v10.69c0,10.1,4.23,15.14,12.69,15.14,4.16,0,7.31-1.23,9.46-3.67,2.15-2.45,3.23-6.42,3.23-11.91,0-6.53-1.49-12.28-4.45-17.26-2.97-4.97-8.46-10.95-16.48-17.93-10.1-8.91-17.15-16.96-21.16-24.16-4.01-7.2-6.01-15.33-6.01-24.39,0-12.32,3.12-21.86,9.35-28.62,6.24-6.75,15.29-10.13,27.17-10.13s20.6,3.38,26.61,10.13c6.01,6.76,9.02,16.44,9.02,29.06v6.46h-23.16v-8.02c0-5.34-1.04-9.24-3.12-11.69-2.08-2.45-5.12-3.67-9.13-3.67-8.17,0-12.25,4.98-12.25,14.92,0,5.64,1.52,10.91,4.57,15.81,3.04,4.9,8.57,10.84,16.59,17.82,10.24,8.91,17.29,17,21.16,24.27,3.86,7.28,5.79,15.81,5.79,25.61,0,12.77-3.16,22.57-9.46,29.4-6.31,6.83-15.48,10.24-27.5,10.24s-20.86-3.38-26.95-10.13Z"/>
        <path class="cls-3" d="M1074.33,321.22h23.61v23.61h-23.61v-23.61Z"/>
      </g>
      <rect class="cls-3" x="1184.16" y="0" width="10" height="347.05"/>
      <g>
        <path class="cls-3" d="M1281.02,7.29h4.95v27h8.15v4.5h-13.1V7.29Z"/>
        <path class="cls-3" d="M1300.5,7.29h6.71l5.13,31.5h-4.95l-.9-6.25v.09h-5.62l-.9,6.17h-4.59l5.13-31.5ZM1305.9,28.35l-2.21-15.57h-.09l-2.16,15.57h4.46Z"/>
        <path class="cls-3" d="M1321.92,7.29h7.33c2.55,0,4.41.59,5.58,1.78,1.17,1.19,1.75,3.01,1.75,5.47v1.94c0,3.27-1.08,5.34-3.24,6.21v.09c1.2.36,2.05,1.1,2.54,2.21.5,1.11.74,2.6.74,4.46v5.53c0,.9.03,1.63.09,2.18.06.56.21,1.1.45,1.64h-5.04c-.18-.51-.3-.99-.36-1.44-.06-.45-.09-1.26-.09-2.43v-5.76c0-1.44-.23-2.44-.7-3.02-.46-.57-1.27-.85-2.41-.85h-1.71v13.5h-4.95V7.29ZM1328.67,20.79c.99,0,1.73-.25,2.23-.77.5-.51.74-1.36.74-2.56v-2.43c0-1.14-.2-1.96-.61-2.48-.4-.51-1.04-.77-1.91-.77h-2.25v9h1.8Z"/>
        <path class="cls-3" d="M1340.05,7.29h13.5v4.5h-8.55v8.33h6.79v4.5h-6.79v9.67h8.55v4.5h-13.5V7.29ZM1347.25,0h5.4l-4.82,5.17h-3.74L1347.25,0Z"/>
        <path class="cls-3" d="M1360.21,7.29h6.71l5.13,31.5h-4.95l-.9-6.25v.09h-5.62l-.9,6.17h-4.59l5.13-31.5ZM1365.61,28.35l-2.21-15.57h-.09l-2.16,15.57h4.46Z"/>
        <path class="cls-3" d="M1375.9,37.22c-1.25-1.35-1.87-3.25-1.87-5.71V14.58c0-2.46.62-4.37,1.87-5.71,1.24-1.35,3.05-2.03,5.42-2.03s4.18.68,5.42,2.03c1.25,1.35,1.87,3.26,1.87,5.71v3.33h-4.68v-3.65c0-1.95-.83-2.93-2.47-2.93s-2.47.98-2.47,2.93v17.59c0,1.92.82,2.88,2.47,2.88s2.47-.96,2.47-2.88v-4.81h4.68v4.46c0,2.46-.62,4.37-1.87,5.71-1.25,1.35-3.05,2.03-5.42,2.03s-4.18-.68-5.42-2.03Z"/>
        <path class="cls-3" d="M1395.45,11.79h-5.17v-4.5h15.3v4.5h-5.17v27h-4.95V11.79Z"/>
        <path class="cls-3" d="M1407.96,7.29h4.95v31.5h-4.95V7.29Z"/>
        <path class="cls-3" d="M1415.29,7.29h5l3.24,24.44h.09l3.24-24.44h4.54l-4.77,31.5h-6.57l-4.77-31.5Z"/>
        <path class="cls-3" d="M1433.79,7.29h4.95v31.5h-4.95V7.29Z"/>
        <path class="cls-3" d="M1446.3,11.79h-5.17v-4.5h15.3v4.5h-5.17v27h-4.95V11.79Z"/>
        <path class="cls-3" d="M1458.81,7.29h13.5v4.5h-8.55v8.33h6.79v4.5h-6.79v9.67h8.55v4.5h-13.5V7.29ZM1466.01,0h5.4l-4.82,5.17h-3.74L1466.01,0Z"/>
        <path class="cls-3" d="M1475.37,34.02h4.77v4.77h-4.77v-4.77Z"/>
        <path class="cls-1" d="M1492.58,37.22c-1.25-1.35-1.87-3.25-1.87-5.71V14.58c0-2.46.62-4.37,1.87-5.71,1.24-1.35,3.05-2.03,5.42-2.03s4.18.68,5.42,2.03c1.25,1.35,1.87,3.26,1.87,5.71v3.33h-4.68v-3.65c0-1.95-.83-2.93-2.47-2.93s-2.47.98-2.47,2.93v17.59c0,1.92.82,2.88,2.47,2.88s2.47-.96,2.47-2.88v-4.81h4.68v4.46c0,2.46-.62,4.37-1.87,5.71-1.25,1.35-3.05,2.03-5.42,2.03s-4.18-.68-5.42-2.03Z"/>
        <path class="cls-1" d="M1508.26,7.29h4.95v12.83h5.31V7.29h4.95v31.5h-4.95v-14.17h-5.31v14.17h-4.95V7.29Z"/>
        <path class="cls-1" d="M1530.98,7.29h6.71l5.13,31.5h-4.95l-.9-6.25v.09h-5.62l-.9,6.17h-4.59l5.13-31.5ZM1536.38,28.35l-2.21-15.57h-.09l-2.16,15.57h4.46Z"/>
        <path class="cls-1" d="M1555.55,38.7c-.93.36-2.03.54-3.29.54-2.43,0-4.29-.69-5.58-2.07-1.29-1.38-1.93-3.33-1.93-5.85V14.76c0-2.52.64-4.47,1.93-5.85s3.15-2.07,5.58-2.07,4.29.69,5.58,2.07c1.29,1.38,1.93,3.33,1.93,5.85v16.56c0,2.1-.46,3.83-1.39,5.18.18.3.41.5.67.58.27.09.66.13,1.17.13h.77v4.5h-1.31c-2.25,0-3.63-1.01-4.14-3.01ZM1554.83,31.64V14.45c0-2.07-.86-3.1-2.57-3.1s-2.57,1.04-2.57,3.1v17.19c0,2.07.86,3.1,2.57,3.1s2.57-1.04,2.57-3.1Z"/>
        <path class="cls-1" d="M1564.82,37.19c-1.26-1.36-1.89-3.32-1.89-5.87V7.29h4.95v24.39c0,1.08.22,1.86.65,2.34.43.48,1.06.72,1.87.72s1.43-.24,1.87-.72c.43-.48.65-1.26.65-2.34V7.29h4.77v24.03c0,2.55-.63,4.51-1.89,5.87-1.26,1.37-3.09,2.05-5.49,2.05s-4.23-.68-5.49-2.05Z"/>
        <path class="cls-1" d="M1581.2,7.29h13.5v4.5h-8.55v8.33h6.79v4.5h-6.79v9.67h8.55v4.5h-13.5V7.29Z"/>
        <path class="cls-1" d="M1604.74,7.29h7.07l3.15,22.54h.09l3.15-22.54h7.07v31.5h-4.68V14.94h-.09l-3.6,23.85h-4.14l-3.6-23.85h-.09v23.85h-4.32V7.29Z"/>
        <path class="cls-1" d="M1628.95,7.29h4.95v31.5h-4.95V7.29Z"/>
        <path class="cls-1" d="M1637.59,7.29h6.21l4.82,18.85h.09V7.29h4.41v31.5h-5.08l-5.94-23h-.09v23h-4.41V7.29Z"/>
        <path class="cls-1" d="M1658.51,37.19c-1.26-1.36-1.89-3.32-1.89-5.87V7.29h4.95v24.39c0,1.08.22,1.86.65,2.34.43.48,1.06.72,1.87.72s1.43-.24,1.87-.72c.43-.48.65-1.26.65-2.34V7.29h4.77v24.03c0,2.55-.63,4.51-1.89,5.87-1.26,1.37-3.09,2.05-5.49,2.05s-4.23-.68-5.49-2.05Z"/>
        <path class="cls-1" d="M1678.76,11.79h-5.17v-4.5h15.3v4.5h-5.17v27h-4.95V11.79Z"/>
        <path class="cls-1" d="M1691.27,7.29h13.5v4.5h-8.55v8.33h6.79v4.5h-6.79v9.67h8.55v4.5h-13.5V7.29Z"/>
        <path class="cls-1" d="M1716.36,37.22c-1.25-1.35-1.87-3.25-1.87-5.71V14.58c0-2.46.62-4.37,1.87-5.71,1.24-1.35,3.05-2.03,5.42-2.03s4.18.68,5.42,2.03c1.25,1.35,1.87,3.26,1.87,5.71v3.33h-4.68v-3.65c0-1.95-.83-2.93-2.47-2.93s-2.47.98-2.47,2.93v17.59c0,1.92.82,2.88,2.47,2.88s2.47-.96,2.47-2.88v-4.81h4.68v4.46c0,2.46-.62,4.37-1.87,5.71-1.25,1.35-3.05,2.03-5.42,2.03s-4.18-.68-5.42-2.03Z"/>
        <path class="cls-1" d="M1733.7,37.17c-1.29-1.38-1.93-3.33-1.93-5.85V14.76c0-2.52.64-4.47,1.93-5.85s3.15-2.07,5.58-2.07,4.29.69,5.58,2.07c1.29,1.38,1.93,3.33,1.93,5.85v16.56c0,2.52-.65,4.47-1.93,5.85-1.29,1.38-3.15,2.07-5.58,2.07s-4.29-.69-5.58-2.07ZM1741.85,31.64V14.45c0-2.07-.86-3.1-2.57-3.1s-2.57,1.04-2.57,3.1v17.19c0,2.07.86,3.1,2.57,3.1s2.57-1.04,2.57-3.1Z"/>
        <path class="cls-1" d="M1750.13,7.29h7.07l3.15,22.54h.09l3.15-22.54h7.07v31.5h-4.68V14.94h-.09l-3.6,23.85h-4.14l-3.6-23.85h-.09v23.85h-4.32V7.29Z"/>
        <path class="cls-1" d="M1774.34,7.29h7.29c2.46,0,4.3.66,5.54,1.98,1.23,1.32,1.84,3.26,1.84,5.81v3.1c0,2.55-.62,4.48-1.84,5.8-1.23,1.32-3.08,1.98-5.54,1.98h-2.34v12.83h-4.95V7.29ZM1781.63,21.47c.81,0,1.42-.22,1.82-.67.41-.45.61-1.21.61-2.29v-3.73c0-1.08-.2-1.85-.61-2.3-.4-.45-1.01-.67-1.82-.67h-2.34v9.67h2.34Z"/>
        <path class="cls-1" d="M1795.67,11.79h-5.17v-4.5h15.3v4.5h-5.17v27h-4.95V11.79Z"/>
        <path class="cls-1" d="M1808.18,7.29h13.5v4.5h-8.55v8.33h6.79v4.5h-6.79v9.67h8.55v4.5h-13.5V7.29Z"/>
        <path class="cls-1" d="M1842.15,38.7c-.93.36-2.03.54-3.29.54-2.43,0-4.29-.69-5.58-2.07-1.29-1.38-1.93-3.33-1.93-5.85V14.76c0-2.52.64-4.47,1.93-5.85s3.15-2.07,5.58-2.07,4.29.69,5.58,2.07c1.29,1.38,1.93,3.33,1.93,5.85v16.56c0,2.1-.46,3.83-1.39,5.18.18.3.41.5.67.58.27.09.66.13,1.17.13h.77v4.5h-1.31c-2.25,0-3.63-1.01-4.14-3.01ZM1841.43,31.64V14.45c0-2.07-.86-3.1-2.57-3.1s-2.57,1.04-2.57,3.1v17.19c0,2.07.86,3.1,2.57,3.1s2.57-1.04,2.57-3.1Z"/>
        <path class="cls-1" d="M1851.42,37.19c-1.26-1.36-1.89-3.32-1.89-5.87V7.29h4.95v24.39c0,1.08.22,1.86.65,2.34.43.48,1.06.72,1.87.72s1.43-.24,1.87-.72c.43-.48.65-1.26.65-2.34V7.29h4.77v24.03c0,2.55-.63,4.51-1.89,5.87-1.26,1.37-3.09,2.05-5.49,2.05s-4.23-.68-5.49-2.05Z"/>
        <path class="cls-1" d="M1871.54,7.29h6.71l5.13,31.5h-4.95l-.9-6.25v.09h-5.62l-.9,6.17h-4.59l5.13-31.5ZM1876.94,28.35l-2.21-15.57h-.09l-2.16,15.57h4.46Z"/>
        <path class="cls-1" d="M1885.75,7.29h6.21l4.82,18.85h.09V7.29h4.41v31.5h-5.08l-5.94-23h-.09v23h-4.41V7.29Z"/>
        <path class="cls-1" d="M1904.97,7.29h7.56c2.46,0,4.3.66,5.54,1.98,1.23,1.32,1.84,3.26,1.84,5.81v15.93c0,2.55-.62,4.49-1.84,5.81-1.23,1.32-3.08,1.98-5.54,1.98h-7.56V7.29ZM1912.44,34.29c.81,0,1.43-.24,1.87-.72.43-.48.65-1.26.65-2.34V14.85c0-1.08-.22-1.86-.65-2.34-.44-.48-1.06-.72-1.87-.72h-2.52v22.5h2.52Z"/>
        <path class="cls-1" d="M1930.44,7.29h4.95v27h8.15v4.5h-13.1V7.29Z"/>
        <path class="cls-1" d="M1945.92,7.29h13.5v4.5h-8.55v8.33h6.79v4.5h-6.79v9.67h8.55v4.5h-13.5V7.29Z"/>
        <path class="cls-1" d="M1971,37.22c-1.25-1.35-1.87-3.25-1.87-5.71V14.58c0-2.46.62-4.37,1.87-5.71,1.24-1.35,3.05-2.03,5.42-2.03s4.18.68,5.42,2.03c1.25,1.35,1.87,3.26,1.87,5.71v3.33h-4.68v-3.65c0-1.95-.83-2.93-2.47-2.93s-2.47.98-2.47,2.93v17.59c0,1.92.82,2.88,2.47,2.88s2.47-.96,2.47-2.88v-4.81h4.68v4.46c0,2.46-.62,4.37-1.87,5.71-1.25,1.35-3.05,2.03-5.42,2.03s-4.18-.68-5.42-2.03Z"/>
        <path class="cls-1" d="M1988.35,37.17c-1.29-1.38-1.93-3.33-1.93-5.85V14.76c0-2.52.64-4.47,1.93-5.85s3.15-2.07,5.58-2.07,4.29.69,5.58,2.07c1.29,1.38,1.93,3.33,1.93,5.85v16.56c0,2.52-.65,4.47-1.93,5.85-1.29,1.38-3.15,2.07-5.58,2.07s-4.29-.69-5.58-2.07ZM1996.5,31.64V14.45c0-2.07-.86-3.1-2.57-3.1s-2.57,1.04-2.57,3.1v17.19c0,2.07.86,3.1,2.57,3.1s2.57-1.04,2.57-3.1Z"/>
        <path class="cls-1" d="M2006.49,37.19c-1.26-1.36-1.89-3.32-1.89-5.87V7.29h4.95v24.39c0,1.08.22,1.86.65,2.34.43.48,1.06.72,1.87.72s1.43-.24,1.87-.72c.43-.48.65-1.26.65-2.34V7.29h4.77v24.03c0,2.55-.63,4.51-1.89,5.87-1.26,1.37-3.09,2.05-5.49,2.05s-4.23-.68-5.49-2.05Z"/>
        <path class="cls-1" d="M2022.87,7.29h7.29c2.46,0,4.3.66,5.54,1.98,1.23,1.32,1.84,3.26,1.84,5.81v3.1c0,2.55-.62,4.48-1.84,5.8-1.23,1.32-3.08,1.98-5.54,1.98h-2.34v12.83h-4.95V7.29ZM2030.16,21.47c.81,0,1.42-.22,1.82-.67.41-.45.61-1.21.61-2.29v-3.73c0-1.08-.2-1.85-.61-2.3-.4-.45-1.01-.67-1.82-.67h-2.34v9.67h2.34Z"/>
        <path class="cls-1" d="M2047.44,7.29h7.56c2.46,0,4.3.66,5.54,1.98,1.23,1.32,1.84,3.26,1.84,5.81v15.93c0,2.55-.62,4.49-1.84,5.81-1.23,1.32-3.08,1.98-5.54,1.98h-7.56V7.29ZM2054.91,34.29c.81,0,1.43-.24,1.87-.72.43-.48.65-1.26.65-2.34V14.85c0-1.08-.22-1.86-.65-2.34-.44-.48-1.06-.72-1.87-.72h-2.52v22.5h2.52Z"/>
        <path class="cls-1" d="M2065.3,7.29h5.04l-1.21,10.17h-2.66l-1.17-10.17Z"/>
        <path class="cls-1" d="M2073.89,7.29h13.5v4.5h-8.55v8.33h6.79v4.5h-6.79v9.67h8.55v4.5h-13.5V7.29Z"/>
        <path class="cls-1" d="M2090.23,7.29h6.21l4.82,18.85h.09V7.29h4.41v31.5h-5.08l-5.94-23h-.09v23h-4.41V7.29Z"/>
        <path class="cls-1" d="M2108.14,7.29h5l3.24,24.44h.09l3.24-24.44h4.54l-4.77,31.5h-6.57l-4.77-31.5Z"/>
        <path class="cls-1" d="M2128.12,37.17c-1.29-1.38-1.93-3.33-1.93-5.85V14.76c0-2.52.64-4.47,1.93-5.85s3.15-2.07,5.58-2.07,4.29.69,5.58,2.07c1.29,1.38,1.93,3.33,1.93,5.85v16.56c0,2.52-.65,4.47-1.93,5.85-1.29,1.38-3.15,2.07-5.58,2.07s-4.29-.69-5.58-2.07ZM2136.26,31.64V14.45c0-2.07-.86-3.1-2.57-3.1s-2.57,1.04-2.57,3.1v17.19c0,2.07.86,3.1,2.57,3.1s2.57-1.04,2.57-3.1Z"/>
        <path class="cls-1" d="M2144.54,7.29h4.95v31.5h-4.95V7.29Z"/>
        <path class="cls-1" d="M2164.21,7.29h6.71l5.13,31.5h-4.95l-.9-6.25v.09h-5.62l-.9,6.17h-4.59l5.13-31.5ZM2169.61,28.35l-2.21-15.57h-.09l-2.16,15.57h4.46Z"/>
        <path class="cls-1" d="M2178.43,7.29h7.29c2.46,0,4.3.66,5.54,1.98,1.23,1.32,1.84,3.26,1.84,5.81v3.1c0,2.55-.62,4.48-1.84,5.8-1.23,1.32-3.08,1.98-5.54,1.98h-2.34v12.83h-4.95V7.29ZM2185.72,21.47c.81,0,1.42-.22,1.82-.67.41-.45.61-1.21.61-2.29v-3.73c0-1.08-.2-1.85-.61-2.3-.4-.45-1.01-.67-1.82-.67h-2.34v9.67h2.34Z"/>
        <path class="cls-1" d="M2195.8,7.29h7.29c2.46,0,4.3.66,5.54,1.98,1.23,1.32,1.84,3.26,1.84,5.81v3.1c0,2.55-.62,4.48-1.84,5.8-1.23,1.32-3.08,1.98-5.54,1.98h-2.34v12.83h-4.95V7.29ZM2203.09,21.47c.81,0,1.42-.22,1.82-.67.41-.45.61-1.21.61-2.29v-3.73c0-1.08-.2-1.85-.61-2.3-.4-.45-1.01-.67-1.82-.67h-2.34v9.67h2.34Z"/>
        <path class="cls-1" d="M2213.17,7.29h7.33c2.55,0,4.41.59,5.58,1.78,1.17,1.19,1.75,3.01,1.75,5.47v1.94c0,3.27-1.08,5.34-3.24,6.21v.09c1.2.36,2.05,1.1,2.54,2.21.5,1.11.74,2.6.74,4.46v5.53c0,.9.03,1.63.09,2.18.06.56.21,1.1.45,1.64h-5.04c-.18-.51-.3-.99-.36-1.44-.06-.45-.09-1.26-.09-2.43v-5.76c0-1.44-.23-2.44-.7-3.02-.46-.57-1.27-.85-2.41-.85h-1.71v13.5h-4.95V7.29ZM2219.92,20.79c.99,0,1.73-.25,2.23-.77.5-.51.74-1.36.74-2.56v-2.43c0-1.14-.2-1.96-.61-2.48-.4-.51-1.04-.77-1.91-.77h-2.25v9h1.8Z"/>
        <path class="cls-1" d="M2232.88,37.17c-1.29-1.38-1.93-3.33-1.93-5.85V14.76c0-2.52.64-4.47,1.93-5.85s3.15-2.07,5.58-2.07,4.29.69,5.58,2.07c1.29,1.38,1.93,3.33,1.93,5.85v16.56c0,2.52-.65,4.47-1.93,5.85-1.29,1.38-3.15,2.07-5.58,2.07s-4.29-.69-5.58-2.07ZM2241.02,31.64V14.45c0-2.07-.86-3.1-2.57-3.1s-2.57,1.04-2.57,3.1v17.19c0,2.07.86,3.1,2.57,3.1s2.57-1.04,2.57-3.1Z"/>
        <path class="cls-1" d="M2250.85,37.22c-1.25-1.35-1.87-3.25-1.87-5.71V14.58c0-2.46.62-4.37,1.87-5.71,1.24-1.35,3.05-2.03,5.42-2.03s4.18.68,5.42,2.03c1.25,1.35,1.87,3.26,1.87,5.71v3.33h-4.68v-3.65c0-1.95-.83-2.93-2.47-2.93s-2.47.98-2.47,2.93v17.59c0,1.92.82,2.88,2.47,2.88s2.47-.96,2.47-2.88v-4.81h4.68v4.46c0,2.46-.62,4.37-1.87,5.71-1.25,1.35-3.05,2.03-5.42,2.03s-4.18-.68-5.42-2.03Z"/>
        <path class="cls-1" d="M2266.53,7.29h4.95v12.83h5.31V7.29h4.95v31.5h-4.95v-14.17h-5.31v14.17h-4.95V7.29Z"/>
        <path class="cls-1" d="M2285.43,7.29h13.5v4.5h-8.55v8.33h6.79v4.5h-6.79v9.67h8.55v4.5h-13.5V7.29Z"/>
        <path class="cls-1" d="M2301.99,34.02h4.77v4.77h-4.77v-4.77Z"/>
      </g>
      <g>
        <path class="cls-3" d="M1281.02,315.56h4.95v27h8.15v4.5h-13.1v-31.5Z"/>
        <path class="cls-3" d="M1300.5,315.56h6.71l5.13,31.5h-4.95l-.9-6.25v.09h-5.62l-.9,6.17h-4.59l5.13-31.5ZM1305.9,336.62l-2.21-15.57h-.09l-2.16,15.57h4.46Z"/>
        <path class="cls-3" d="M1322.91,345.46c-1.23-1.36-1.84-3.32-1.84-5.87v-1.8h4.68v2.16c0,2.04.86,3.06,2.57,3.06.84,0,1.48-.25,1.91-.74.43-.5.65-1.3.65-2.41,0-1.32-.3-2.48-.9-3.49-.6-1-1.71-2.21-3.33-3.62-2.04-1.8-3.46-3.43-4.28-4.88-.81-1.46-1.21-3.1-1.21-4.93,0-2.49.63-4.42,1.89-5.78,1.26-1.36,3.09-2.05,5.49-2.05s4.16.68,5.38,2.05c1.21,1.37,1.82,3.32,1.82,5.87v1.3h-4.68v-1.62c0-1.08-.21-1.87-.63-2.36s-1.03-.74-1.84-.74c-1.65,0-2.47,1.01-2.47,3.02,0,1.14.31,2.21.92,3.19.62.99,1.73,2.19,3.35,3.6,2.07,1.8,3.5,3.44,4.28,4.91.78,1.47,1.17,3.19,1.17,5.17,0,2.58-.64,4.56-1.91,5.94-1.28,1.38-3.13,2.07-5.56,2.07s-4.22-.68-5.45-2.05Z"/>
        <path class="cls-3" d="M1338.66,315.56h4.95v31.5h-4.95v-31.5Z"/>
        <path class="cls-3" d="M1347.3,315.56h7.07l3.15,22.54h.09l3.15-22.54h7.07v31.5h-4.68v-23.85h-.09l-3.6,23.85h-4.14l-3.6-23.85h-.09v23.85h-4.32v-31.5Z"/>
        <path class="cls-3" d="M1371.51,315.56h7.29c2.46,0,4.3.66,5.54,1.98,1.23,1.32,1.84,3.26,1.84,5.81v3.1c0,2.55-.62,4.48-1.84,5.8-1.23,1.32-3.08,1.98-5.54,1.98h-2.34v12.83h-4.95v-31.5ZM1378.8,329.73c.81,0,1.42-.22,1.82-.67.41-.45.61-1.21.61-2.29v-3.73c0-1.08-.2-1.85-.61-2.3-.4-.45-1.01-.67-1.82-.67h-2.34v9.67h2.34Z"/>
        <path class="cls-3" d="M1388.88,315.56h4.95v27h8.15v4.5h-13.1v-31.5Z"/>
        <path class="cls-3" d="M1404.36,315.56h4.95v31.5h-4.95v-31.5Z"/>
        <path class="cls-3" d="M1414.55,345.48c-1.25-1.35-1.87-3.25-1.87-5.71v-16.92c0-2.46.62-4.37,1.87-5.71,1.24-1.35,3.05-2.03,5.42-2.03s4.18.68,5.42,2.03c1.25,1.35,1.87,3.26,1.87,5.71v3.33h-4.68v-3.65c0-1.95-.83-2.93-2.47-2.93s-2.47.98-2.47,2.93v17.59c0,1.92.82,2.88,2.47,2.88s2.47-.96,2.47-2.88v-4.81h4.68v4.46c0,2.46-.62,4.37-1.87,5.71-1.25,1.35-3.05,2.03-5.42,2.03s-4.18-.68-5.42-2.03Z"/>
        <path class="cls-3" d="M1430.23,315.56h4.95v31.5h-4.95v-31.5Z"/>
        <path class="cls-3" d="M1442.74,320.06h-5.17v-4.5h15.3v4.5h-5.17v27h-4.95v-27Z"/>
        <path class="cls-3" d="M1455.25,315.56h13.5v4.5h-8.55v8.33h6.79v4.5h-6.79v9.67h8.55v4.5h-13.5v-31.5ZM1462.45,308.27h5.4l-4.82,5.17h-3.74l3.15-5.17Z"/>
        <path class="cls-3" d="M1471.81,342.29h4.77v4.77h-4.77v-4.77Z"/>
        <path class="cls-1" d="M1487.47,315.56h4.95v27h8.15v4.5h-13.1v-31.5Z"/>
        <path class="cls-1" d="M1502.95,315.56h13.5v4.5h-8.55v8.33h6.79v4.5h-6.79v9.67h8.55v4.5h-13.5v-31.5Z"/>
        <path class="cls-1" d="M1526.48,315.56h7.07l3.15,22.54h.09l3.15-22.54h7.07v31.5h-4.68v-23.85h-.09l-3.6,23.85h-4.14l-3.6-23.85h-.09v23.85h-4.32v-31.5Z"/>
        <path class="cls-1" d="M1552.27,345.44c-1.29-1.38-1.93-3.33-1.93-5.85v-16.56c0-2.52.64-4.47,1.93-5.85s3.15-2.07,5.58-2.07,4.29.69,5.58,2.07c1.29,1.38,1.93,3.33,1.93,5.85v16.56c0,2.52-.65,4.47-1.93,5.85-1.29,1.38-3.15,2.07-5.58,2.07s-4.29-.69-5.58-2.07ZM1560.41,339.9v-17.19c0-2.07-.86-3.1-2.57-3.1s-2.57,1.04-2.57,3.1v17.19c0,2.07.86,3.1,2.57,3.1s2.57-1.04,2.57-3.1Z"/>
        <path class="cls-1" d="M1568.69,315.56h4.95v31.5h-4.95v-31.5Z"/>
        <path class="cls-1" d="M1577.33,315.56h6.21l4.82,18.85h.09v-18.85h4.41v31.5h-5.08l-5.94-23h-.09v23h-4.41v-31.5Z"/>
        <path class="cls-1" d="M1597.54,345.46c-1.23-1.36-1.84-3.32-1.84-5.87v-1.8h4.68v2.16c0,2.04.86,3.06,2.57,3.06.84,0,1.48-.25,1.91-.74.43-.5.65-1.3.65-2.41,0-1.32-.3-2.48-.9-3.49-.6-1-1.71-2.21-3.33-3.62-2.04-1.8-3.46-3.43-4.28-4.88-.81-1.46-1.21-3.1-1.21-4.93,0-2.49.63-4.42,1.89-5.78,1.26-1.36,3.09-2.05,5.49-2.05s4.16.68,5.38,2.05c1.21,1.37,1.82,3.32,1.82,5.87v1.3h-4.68v-1.62c0-1.08-.21-1.87-.63-2.36s-1.03-.74-1.84-.74c-1.65,0-2.47,1.01-2.47,3.02,0,1.14.31,2.21.92,3.19.62.99,1.73,2.19,3.35,3.6,2.07,1.8,3.5,3.44,4.28,4.91.78,1.47,1.17,3.19,1.17,5.17,0,2.58-.64,4.56-1.91,5.94-1.28,1.38-3.13,2.07-5.56,2.07s-4.22-.68-5.45-2.05Z"/>
        <path class="cls-1" d="M1620.49,315.56h7.56c2.46,0,4.3.66,5.54,1.98,1.23,1.32,1.84,3.26,1.84,5.81v15.93c0,2.55-.62,4.49-1.84,5.81-1.23,1.32-3.08,1.98-5.54,1.98h-7.56v-31.5ZM1627.96,342.56c.81,0,1.43-.24,1.87-.72.43-.48.65-1.26.65-2.34v-16.38c0-1.08-.22-1.86-.65-2.34-.44-.48-1.06-.72-1.87-.72h-2.52v22.5h2.52Z"/>
        <path class="cls-1" d="M1638.75,315.56h13.5v4.5h-8.55v8.33h6.79v4.5h-6.79v9.67h8.55v4.5h-13.5v-31.5Z"/>
        <path class="cls-1" d="M1663.84,345.48c-1.25-1.35-1.87-3.25-1.87-5.71v-16.92c0-2.46.62-4.37,1.87-5.71,1.24-1.35,3.05-2.03,5.42-2.03s4.18.68,5.42,2.03c1.25,1.35,1.87,3.26,1.87,5.71v3.33h-4.68v-3.65c0-1.95-.83-2.93-2.47-2.93s-2.47.98-2.47,2.93v17.59c0,1.92.82,2.88,2.47,2.88s2.47-.96,2.47-2.88v-4.81h4.68v4.46c0,2.46-.62,4.37-1.87,5.71-1.25,1.35-3.05,2.03-5.42,2.03s-4.18-.68-5.42-2.03Z"/>
        <path class="cls-1" d="M1679.52,315.56h4.95v27h8.15v4.5h-13.1v-31.5Z"/>
        <path class="cls-1" d="M1695,315.56h4.95v31.5h-4.95v-31.5Z"/>
        <path class="cls-1" d="M1705.2,345.48c-1.25-1.35-1.87-3.25-1.87-5.71v-16.92c0-2.46.62-4.37,1.87-5.71,1.24-1.35,3.05-2.03,5.42-2.03s4.18.68,5.42,2.03c1.25,1.35,1.87,3.26,1.87,5.71v3.33h-4.68v-3.65c0-1.95-.83-2.93-2.47-2.93s-2.47.98-2.47,2.93v17.59c0,1.92.82,2.88,2.47,2.88s2.47-.96,2.47-2.88v-4.81h4.68v4.46c0,2.46-.62,4.37-1.87,5.71-1.25,1.35-3.05,2.03-5.42,2.03s-4.18-.68-5.42-2.03Z"/>
        <path class="cls-1" d="M1721.96,345.46c-1.23-1.36-1.84-3.32-1.84-5.87v-1.8h4.68v2.16c0,2.04.86,3.06,2.57,3.06.84,0,1.48-.25,1.91-.74.43-.5.65-1.3.65-2.41,0-1.32-.3-2.48-.9-3.49-.6-1-1.71-2.21-3.33-3.62-2.04-1.8-3.46-3.43-4.28-4.88-.81-1.46-1.21-3.1-1.21-4.93,0-2.49.63-4.42,1.89-5.78,1.26-1.36,3.09-2.05,5.49-2.05s4.16.68,5.38,2.05c1.21,1.37,1.82,3.32,1.82,5.87v1.3h-4.68v-1.62c0-1.08-.21-1.87-.63-2.36s-1.03-.74-1.84-.74c-1.65,0-2.47,1.01-2.47,3.02,0,1.14.31,2.21.92,3.19.62.99,1.73,2.19,3.35,3.6,2.07,1.8,3.5,3.44,4.28,4.91.78,1.47,1.17,3.19,1.17,5.17,0,2.58-.64,4.56-1.91,5.94-1.28,1.38-3.13,2.07-5.56,2.07s-4.22-.68-5.45-2.05Z"/>
        <path class="cls-1" d="M1744.91,315.56h7.29c2.46,0,4.3.66,5.54,1.98,1.23,1.32,1.84,3.26,1.84,5.81v3.1c0,2.55-.62,4.48-1.84,5.8-1.23,1.32-3.08,1.98-5.54,1.98h-2.34v12.83h-4.95v-31.5ZM1752.2,329.73c.81,0,1.42-.22,1.82-.67.41-.45.61-1.21.61-2.29v-3.73c0-1.08-.2-1.85-.61-2.3-.4-.45-1.01-.67-1.82-.67h-2.34v9.67h2.34Z"/>
        <path class="cls-1" d="M1763.85,345.44c-1.29-1.38-1.93-3.33-1.93-5.85v-16.56c0-2.52.64-4.47,1.93-5.85s3.15-2.07,5.58-2.07,4.29.69,5.58,2.07c1.29,1.38,1.93,3.33,1.93,5.85v16.56c0,2.52-.65,4.47-1.93,5.85-1.29,1.38-3.15,2.07-5.58,2.07s-4.29-.69-5.58-2.07ZM1772,339.9v-17.19c0-2.07-.86-3.1-2.57-3.1s-2.57,1.04-2.57,3.1v17.19c0,2.07.86,3.1,2.57,3.1s2.57-1.04,2.57-3.1Z"/>
        <path class="cls-1" d="M1781.27,345.46c-1.23-1.36-1.84-3.32-1.84-5.87v-1.8h4.68v2.16c0,2.04.86,3.06,2.57,3.06.84,0,1.48-.25,1.91-.74.43-.5.65-1.3.65-2.41,0-1.32-.3-2.48-.9-3.49-.6-1-1.71-2.21-3.33-3.62-2.04-1.8-3.46-3.43-4.28-4.88-.81-1.46-1.21-3.1-1.21-4.93,0-2.49.63-4.42,1.89-5.78,1.26-1.36,3.09-2.05,5.49-2.05s4.16.68,5.38,2.05c1.21,1.37,1.82,3.32,1.82,5.87v1.3h-4.68v-1.62c0-1.08-.21-1.87-.63-2.36s-1.03-.74-1.84-.74c-1.65,0-2.47,1.01-2.47,3.02,0,1.14.31,2.21.92,3.19.62.99,1.73,2.19,3.35,3.6,2.07,1.8,3.5,3.44,4.28,4.91.78,1.47,1.17,3.19,1.17,5.17,0,2.58-.64,4.56-1.91,5.94-1.28,1.38-3.13,2.07-5.56,2.07s-4.22-.68-5.45-2.05Z"/>
        <path class="cls-1" d="M1798.01,345.46c-1.23-1.36-1.84-3.32-1.84-5.87v-1.8h4.68v2.16c0,2.04.86,3.06,2.57,3.06.84,0,1.48-.25,1.91-.74.43-.5.65-1.3.65-2.41,0-1.32-.3-2.48-.9-3.49-.6-1-1.71-2.21-3.33-3.62-2.04-1.8-3.46-3.43-4.28-4.88-.81-1.46-1.21-3.1-1.21-4.93,0-2.49.63-4.42,1.89-5.78,1.26-1.36,3.09-2.05,5.49-2.05s4.16.68,5.38,2.05c1.21,1.37,1.82,3.32,1.82,5.87v1.3h-4.68v-1.62c0-1.08-.21-1.87-.63-2.36s-1.03-.74-1.84-.74c-1.65,0-2.47,1.01-2.47,3.02,0,1.14.31,2.21.92,3.19.62.99,1.73,2.19,3.35,3.6,2.07,1.8,3.5,3.44,4.28,4.91.78,1.47,1.17,3.19,1.17,5.17,0,2.58-.64,4.56-1.91,5.94-1.28,1.38-3.13,2.07-5.56,2.07s-4.22-.68-5.45-2.05Z"/>
        <path class="cls-1" d="M1813.75,315.56h4.95v31.5h-4.95v-31.5Z"/>
        <path class="cls-1" d="M1822.39,315.56h7.47c2.55,0,4.41.59,5.58,1.78,1.17,1.19,1.76,3.01,1.76,5.47v1.26c0,1.62-.26,2.94-.79,3.96-.53,1.02-1.33,1.76-2.41,2.21v.09c2.46.84,3.69,3.03,3.69,6.57v2.7c0,2.43-.64,4.28-1.91,5.56-1.28,1.28-3.14,1.91-5.6,1.91h-7.79v-31.5ZM1829.28,328.38c.99,0,1.73-.25,2.23-.77.5-.51.74-1.36.74-2.56v-1.75c0-1.14-.2-1.96-.61-2.48-.41-.51-1.04-.77-1.91-.77h-2.38v8.33h1.94ZM1830.18,342.56c.87,0,1.51-.23,1.94-.7.42-.46.63-1.27.63-2.41v-2.75c0-1.44-.25-2.44-.74-2.99s-1.31-.83-2.45-.83h-2.21v9.67h2.83Z"/>
        <path class="cls-1" d="M1840.57,315.56h4.95v27h8.15v4.5h-13.1v-31.5Z"/>
        <path class="cls-1" d="M1856.05,315.56h13.5v4.5h-8.55v8.33h6.79v4.5h-6.79v9.67h8.55v4.5h-13.5v-31.5Z"/>
        <path class="cls-1" d="M1879.59,315.56h7.29c2.46,0,4.3.66,5.54,1.98,1.23,1.32,1.84,3.26,1.84,5.81v3.1c0,2.55-.62,4.48-1.84,5.8-1.23,1.32-3.08,1.98-5.54,1.98h-2.34v12.83h-4.95v-31.5ZM1886.88,329.73c.81,0,1.42-.22,1.82-.67.41-.45.61-1.21.61-2.29v-3.73c0-1.08-.2-1.85-.61-2.3-.4-.45-1.01-.67-1.82-.67h-2.34v9.67h2.34Z"/>
        <path class="cls-1" d="M1898.53,345.44c-1.29-1.38-1.93-3.33-1.93-5.85v-16.56c0-2.52.64-4.47,1.93-5.85s3.15-2.07,5.58-2.07,4.29.69,5.58,2.07c1.29,1.38,1.93,3.33,1.93,5.85v16.56c0,2.52-.65,4.47-1.93,5.85-1.29,1.38-3.15,2.07-5.58,2.07s-4.29-.69-5.58-2.07ZM1906.68,339.9v-17.19c0-2.07-.86-3.1-2.57-3.1s-2.57,1.04-2.57,3.1v17.19c0,2.07.86,3.1,2.57,3.1s2.57-1.04,2.57-3.1Z"/>
        <path class="cls-1" d="M1916.67,345.46c-1.26-1.36-1.89-3.32-1.89-5.87v-24.03h4.95v24.39c0,1.08.22,1.86.65,2.34.43.48,1.06.72,1.87.72s1.43-.24,1.87-.72c.43-.48.65-1.26.65-2.34v-24.39h4.77v24.03c0,2.55-.63,4.51-1.89,5.87-1.26,1.37-3.09,2.05-5.49,2.05s-4.23-.68-5.49-2.05Z"/>
        <path class="cls-1" d="M1933.05,315.56h7.33c2.55,0,4.41.59,5.58,1.78,1.17,1.19,1.75,3.01,1.75,5.47v1.94c0,3.27-1.08,5.34-3.24,6.21v.09c1.2.36,2.05,1.1,2.54,2.21.5,1.11.74,2.6.74,4.46v5.53c0,.9.03,1.63.09,2.18.06.56.21,1.1.45,1.64h-5.04c-.18-.51-.3-.99-.36-1.44-.06-.45-.09-1.26-.09-2.43v-5.76c0-1.44-.23-2.44-.7-3.02-.46-.57-1.27-.85-2.41-.85h-1.71v13.5h-4.95v-31.5ZM1939.8,329.06c.99,0,1.73-.25,2.23-.77.5-.51.74-1.36.74-2.56v-2.43c0-1.14-.2-1.96-.61-2.48-.4-.51-1.04-.77-1.91-.77h-2.25v9h1.8Z"/>
        <path class="cls-1" d="M1968.82,346.97c-.93.36-2.03.54-3.29.54-2.43,0-4.29-.69-5.58-2.07-1.29-1.38-1.93-3.33-1.93-5.85v-16.56c0-2.52.64-4.47,1.93-5.85s3.15-2.07,5.58-2.07,4.29.69,5.58,2.07c1.29,1.38,1.93,3.33,1.93,5.85v16.56c0,2.1-.46,3.83-1.39,5.18.18.3.41.5.67.58.27.09.66.13,1.17.13h.77v4.5h-1.31c-2.25,0-3.63-1.01-4.14-3.01ZM1968.1,339.9v-17.19c0-2.07-.86-3.1-2.57-3.1s-2.57,1.04-2.57,3.1v17.19c0,2.07.86,3.1,2.57,3.1s2.57-1.04,2.57-3.1Z"/>
        <path class="cls-1" d="M1978.09,345.46c-1.26-1.36-1.89-3.32-1.89-5.87v-24.03h4.95v24.39c0,1.08.22,1.86.65,2.34.43.48,1.06.72,1.87.72s1.43-.24,1.87-.72c.43-.48.65-1.26.65-2.34v-24.39h4.77v24.03c0,2.55-.63,4.51-1.89,5.87-1.26,1.37-3.09,2.05-5.49,2.05s-4.23-.68-5.49-2.05Z"/>
        <path class="cls-1" d="M1994.47,315.56h13.5v4.5h-8.55v8.33h6.79v4.5h-6.79v9.67h8.55v4.5h-13.5v-31.5Z"/>
        <path class="cls-1" d="M2021.88,320.06h-5.17v-4.5h15.3v4.5h-5.17v27h-4.95v-27Z"/>
        <path class="cls-1" d="M2036.09,345.46c-1.26-1.36-1.89-3.32-1.89-5.87v-24.03h4.95v24.39c0,1.08.22,1.86.65,2.34.43.48,1.06.72,1.87.72s1.43-.24,1.87-.72c.43-.48.65-1.26.65-2.34v-24.39h4.77v24.03c0,2.55-.63,4.51-1.89,5.87-1.26,1.37-3.09,2.05-5.49,2.05s-4.23-.68-5.49-2.05Z"/>
        <path class="cls-1" d="M2059.67,315.56h7.29c2.46,0,4.3.66,5.54,1.98,1.23,1.32,1.84,3.26,1.84,5.81v3.1c0,2.55-.62,4.48-1.84,5.8-1.23,1.32-3.08,1.98-5.54,1.98h-2.34v12.83h-4.95v-31.5ZM2066.96,329.73c.81,0,1.42-.22,1.82-.67.41-.45.61-1.21.61-2.29v-3.73c0-1.08-.2-1.85-.61-2.3-.4-.45-1.01-.67-1.82-.67h-2.34v9.67h2.34Z"/>
        <path class="cls-1" d="M2078.75,345.46c-1.26-1.36-1.89-3.32-1.89-5.87v-24.03h4.95v24.39c0,1.08.22,1.86.65,2.34.43.48,1.06.72,1.87.72s1.43-.24,1.87-.72c.43-.48.65-1.26.65-2.34v-24.39h4.77v24.03c0,2.55-.63,4.51-1.89,5.87-1.26,1.37-3.09,2.05-5.49,2.05s-4.23-.68-5.49-2.05Z"/>
        <path class="cls-1" d="M2095.13,315.56h4.95v31.5h-4.95v-31.5Z"/>
        <path class="cls-1" d="M2104.76,345.46c-1.23-1.36-1.84-3.32-1.84-5.87v-1.8h4.68v2.16c0,2.04.86,3.06,2.57,3.06.84,0,1.48-.25,1.91-.74.43-.5.65-1.3.65-2.41,0-1.32-.3-2.48-.9-3.49-.6-1-1.71-2.21-3.33-3.62-2.04-1.8-3.46-3.43-4.28-4.88-.81-1.46-1.21-3.1-1.21-4.93,0-2.49.63-4.42,1.89-5.78,1.26-1.36,3.09-2.05,5.49-2.05s4.16.68,5.38,2.05c1.21,1.37,1.82,3.32,1.82,5.87v1.3h-4.68v-1.62c0-1.08-.21-1.87-.63-2.36s-1.03-.74-1.84-.74c-1.65,0-2.47,1.01-2.47,3.02,0,1.14.31,2.21.92,3.19.62.99,1.73,2.19,3.35,3.6,2.07,1.8,3.5,3.44,4.28,4.91.78,1.47,1.17,3.19,1.17,5.17,0,2.58-.64,4.56-1.91,5.94-1.28,1.38-3.13,2.07-5.56,2.07s-4.22-.68-5.45-2.05Z"/>
        <path class="cls-1" d="M2121.5,345.46c-1.23-1.36-1.84-3.32-1.84-5.87v-1.8h4.68v2.16c0,2.04.86,3.06,2.57,3.06.84,0,1.48-.25,1.91-.74.43-.5.65-1.3.65-2.41,0-1.32-.3-2.48-.9-3.49-.6-1-1.71-2.21-3.33-3.62-2.04-1.8-3.46-3.43-4.28-4.88-.81-1.46-1.21-3.1-1.21-4.93,0-2.49.63-4.42,1.89-5.78,1.26-1.36,3.09-2.05,5.49-2.05s4.16.68,5.38,2.05c1.21,1.37,1.82,3.32,1.82,5.87v1.3h-4.68v-1.62c0-1.08-.21-1.87-.63-2.36s-1.03-.74-1.84-.74c-1.65,0-2.47,1.01-2.47,3.02,0,1.14.31,2.21.92,3.19.62.99,1.73,2.19,3.35,3.6,2.07,1.8,3.5,3.44,4.28,4.91.78,1.47,1.17,3.19,1.17,5.17,0,2.58-.64,4.56-1.91,5.94-1.28,1.38-3.13,2.07-5.56,2.07s-4.22-.68-5.45-2.05Z"/>
        <path class="cls-1" d="M2137.25,315.56h13.5v4.5h-8.55v8.33h6.79v4.5h-6.79v9.67h8.55v4.5h-13.5v-31.5Z"/>
        <path class="cls-1" d="M2154.67,345.46c-1.23-1.36-1.84-3.32-1.84-5.87v-1.8h4.68v2.16c0,2.04.86,3.06,2.57,3.06.84,0,1.48-.25,1.91-.74.43-.5.65-1.3.65-2.41,0-1.32-.3-2.48-.9-3.49-.6-1-1.71-2.21-3.33-3.62-2.04-1.8-3.46-3.43-4.28-4.88-.81-1.46-1.21-3.1-1.21-4.93,0-2.49.63-4.42,1.89-5.78,1.26-1.36,3.09-2.05,5.49-2.05s4.16.68,5.38,2.05c1.21,1.37,1.82,3.32,1.82,5.87v1.3h-4.68v-1.62c0-1.08-.21-1.87-.63-2.36s-1.03-.74-1.84-.74c-1.65,0-2.47,1.01-2.47,3.02,0,1.14.31,2.21.92,3.19.62.99,1.73,2.19,3.35,3.6,2.07,1.8,3.5,3.44,4.28,4.91.78,1.47,1.17,3.19,1.17,5.17,0,2.58-.64,4.56-1.91,5.94-1.28,1.38-3.13,2.07-5.56,2.07s-4.22-.68-5.45-2.05Z"/>
        <path class="cls-1" d="M2176.49,347.06v-4.5c.48.12,1.02.18,1.62.18.99,0,1.72-.25,2.21-.74.48-.5.72-1.25.72-2.27v-24.17h4.95v24.03c0,2.58-.59,4.5-1.78,5.76-1.19,1.26-2.99,1.89-5.42,1.89-.9,0-1.67-.06-2.29-.18Z"/>
        <path class="cls-1" d="M2191.12,345.44c-1.29-1.38-1.93-3.33-1.93-5.85v-16.56c0-2.52.64-4.47,1.93-5.85s3.15-2.07,5.58-2.07,4.29.69,5.58,2.07c1.29,1.38,1.93,3.33,1.93,5.85v16.56c0,2.52-.65,4.47-1.93,5.85-1.29,1.38-3.15,2.07-5.58,2.07s-4.29-.69-5.58-2.07ZM2199.26,339.9v-17.19c0-2.07-.86-3.1-2.57-3.1s-2.57,1.04-2.57,3.1v17.19c0,2.07.86,3.1,2.57,3.1s2.57-1.04,2.57-3.1Z"/>
        <path class="cls-1" d="M2209.25,345.46c-1.26-1.36-1.89-3.32-1.89-5.87v-24.03h4.95v24.39c0,1.08.22,1.86.65,2.34.43.48,1.06.72,1.87.72s1.43-.24,1.87-.72c.43-.48.65-1.26.65-2.34v-24.39h4.77v24.03c0,2.55-.63,4.51-1.89,5.87-1.26,1.37-3.09,2.05-5.49,2.05s-4.23-.68-5.49-2.05Z"/>
        <path class="cls-1" d="M2225.63,315.56h13.5v4.5h-8.55v8.33h6.79v4.5h-6.79v9.67h8.55v4.5h-13.5v-31.5Z"/>
        <path class="cls-1" d="M2241.96,315.56h7.33c2.55,0,4.41.59,5.58,1.78,1.17,1.19,1.75,3.01,1.75,5.47v1.94c0,3.27-1.08,5.34-3.24,6.21v.09c1.2.36,2.05,1.1,2.54,2.21.5,1.11.74,2.6.74,4.46v5.53c0,.9.03,1.63.09,2.18.06.56.21,1.1.45,1.64h-5.04c-.18-.51-.3-.99-.36-1.44-.06-.45-.09-1.26-.09-2.43v-5.76c0-1.44-.23-2.44-.7-3.02-.46-.57-1.27-.85-2.41-.85h-1.71v13.5h-4.95v-31.5ZM2248.71,329.06c.99,0,1.73-.25,2.23-.77.5-.51.74-1.36.74-2.56v-2.43c0-1.14-.2-1.96-.61-2.48-.4-.51-1.04-.77-1.91-.77h-2.25v9h1.8Z"/>
        <path class="cls-1" d="M2260.32,342.29h4.77v4.77h-4.77v-4.77Z"/>
      </g>
      <g>
        <path class="cls-3" d="M1281.02,155.22h4.95v27h8.15v4.5h-13.1v-31.5Z"/>
        <path class="cls-3" d="M1300.5,155.22h6.71l5.13,31.5h-4.95l-.9-6.25v.09h-5.62l-.9,6.17h-4.59l5.13-31.5ZM1305.9,176.28l-2.21-15.57h-.09l-2.16,15.57h4.46Z"/>
        <path class="cls-3" d="M1323.47,185.14c-1.25-1.35-1.87-3.25-1.87-5.71v-16.92c0-2.46.62-4.37,1.87-5.71,1.24-1.35,3.05-2.03,5.42-2.03s4.18.68,5.42,2.03c1.25,1.35,1.87,3.26,1.87,5.71v3.33h-4.68v-3.65c0-1.95-.83-2.93-2.47-2.93s-2.47.98-2.47,2.93v17.59c0,1.92.82,2.88,2.47,2.88s2.47-.96,2.47-2.88v-4.81h4.68v4.46c0,2.46-.62,4.37-1.87,5.71-1.25,1.35-3.05,2.03-5.42,2.03s-4.18-.68-5.42-2.03Z"/>
        <path class="cls-3" d="M1340.82,185.1c-1.29-1.38-1.93-3.33-1.93-5.85v-16.56c0-2.52.64-4.47,1.93-5.85s3.15-2.07,5.58-2.07,4.29.69,5.58,2.07c1.29,1.38,1.93,3.33,1.93,5.85v16.56c0,2.52-.65,4.47-1.93,5.85-1.29,1.38-3.15,2.07-5.58,2.07s-4.29-.69-5.58-2.07ZM1348.96,179.56v-17.19c0-2.07-.86-3.1-2.57-3.1s-2.57,1.04-2.57,3.1v17.19c0,2.07.86,3.1,2.57,3.1s2.57-1.04,2.57-3.1Z"/>
        <path class="cls-3" d="M1357.24,155.22h7.07l3.15,22.54h.09l3.15-22.54h7.07v31.5h-4.68v-23.85h-.09l-3.6,23.85h-4.14l-3.6-23.85h-.09v23.85h-4.32v-31.5Z"/>
        <path class="cls-3" d="M1381.45,155.22h7.07l3.15,22.54h.09l3.15-22.54h7.07v31.5h-4.68v-23.85h-.09l-3.6,23.85h-4.14l-3.6-23.85h-.09v23.85h-4.32v-31.5Z"/>
        <path class="cls-3" d="M1407.37,185.12c-1.26-1.36-1.89-3.32-1.89-5.87v-24.03h4.95v24.39c0,1.08.22,1.86.65,2.34.43.48,1.06.72,1.87.72s1.43-.24,1.87-.72c.43-.48.65-1.26.65-2.34v-24.39h4.77v24.03c0,2.55-.63,4.51-1.89,5.87-1.26,1.37-3.09,2.05-5.49,2.05s-4.23-.68-5.49-2.05Z"/>
        <path class="cls-3" d="M1423.75,155.22h6.21l4.82,18.85h.09v-18.85h4.41v31.5h-5.08l-5.94-23h-.09v23h-4.41v-31.5Z"/>
        <path class="cls-3" d="M1446.79,155.22h6.71l5.13,31.5h-4.95l-.9-6.25v.09h-5.62l-.9,6.17h-4.59l5.13-31.5ZM1452.19,176.28l-2.21-15.57h-.09l-2.16,15.57h4.46Z"/>
        <path class="cls-3" d="M1462.63,185.12c-1.26-1.36-1.89-3.32-1.89-5.87v-24.03h4.95v24.39c0,1.08.22,1.86.65,2.34.43.48,1.06.72,1.87.72s1.43-.24,1.87-.72c.43-.48.65-1.26.65-2.34v-24.39h4.77v24.03c0,2.55-.63,4.51-1.89,5.87-1.26,1.37-3.09,2.05-5.49,2.05s-4.23-.68-5.49-2.05Z"/>
        <path class="cls-3" d="M1482.88,159.72h-5.17v-4.5h15.3v4.5h-5.17v27h-4.95v-27Z"/>
        <path class="cls-3" d="M1495.39,155.22h13.5v4.5h-8.55v8.33h6.79v4.5h-6.79v9.67h8.55v4.5h-13.5v-31.5ZM1502.59,147.93h5.4l-4.82,5.17h-3.74l3.15-5.17Z"/>
        <path class="cls-3" d="M1511.95,181.95h4.77v4.77h-4.77v-4.77Z"/>
        <path class="cls-1" d="M1529.16,185.14c-1.25-1.35-1.87-3.25-1.87-5.71v-16.92c0-2.46.62-4.37,1.87-5.71,1.24-1.35,3.05-2.03,5.42-2.03s4.18.68,5.42,2.03c1.25,1.35,1.87,3.26,1.87,5.71v3.33h-4.68v-3.65c0-1.95-.83-2.93-2.47-2.93s-2.47.98-2.47,2.93v17.59c0,1.92.82,2.88,2.47,2.88s2.47-.96,2.47-2.88v-4.81h4.68v4.46c0,2.46-.62,4.37-1.87,5.71-1.25,1.35-3.05,2.03-5.42,2.03s-4.18-.68-5.42-2.03Z"/>
        <path class="cls-1" d="M1544.84,155.22h4.95v12.83h5.31v-12.83h4.95v31.5h-4.95v-14.17h-5.31v14.17h-4.95v-31.5Z"/>
        <path class="cls-1" d="M1567.57,155.22h6.71l5.13,31.5h-4.95l-.9-6.25v.09h-5.62l-.9,6.17h-4.59l5.13-31.5ZM1572.97,176.28l-2.21-15.57h-.09l-2.16,15.57h4.46Z"/>
        <path class="cls-1" d="M1592.14,186.63c-.93.36-2.03.54-3.29.54-2.43,0-4.29-.69-5.58-2.07-1.29-1.38-1.93-3.33-1.93-5.85v-16.56c0-2.52.64-4.47,1.93-5.85s3.15-2.07,5.58-2.07,4.29.69,5.58,2.07c1.29,1.38,1.93,3.33,1.93,5.85v16.56c0,2.1-.46,3.83-1.39,5.18.18.3.41.5.67.58.27.09.66.13,1.17.13h.77v4.5h-1.31c-2.25,0-3.63-1.01-4.14-3.01ZM1591.42,179.56v-17.19c0-2.07-.86-3.1-2.57-3.1s-2.57,1.04-2.57,3.1v17.19c0,2.07.86,3.1,2.57,3.1s2.57-1.04,2.57-3.1Z"/>
        <path class="cls-1" d="M1601.41,185.12c-1.26-1.36-1.89-3.32-1.89-5.87v-24.03h4.95v24.39c0,1.08.22,1.86.65,2.34.43.48,1.06.72,1.87.72s1.43-.24,1.87-.72c.43-.48.65-1.26.65-2.34v-24.39h4.77v24.03c0,2.55-.63,4.51-1.89,5.87-1.26,1.37-3.09,2.05-5.49,2.05s-4.23-.68-5.49-2.05Z"/>
        <path class="cls-1" d="M1617.79,155.22h13.5v4.5h-8.55v8.33h6.79v4.5h-6.79v9.67h8.55v4.5h-13.5v-31.5Z"/>
        <path class="cls-1" d="M1640.2,186.72v-4.5c.48.12,1.02.18,1.62.18.99,0,1.72-.25,2.21-.74.48-.5.72-1.25.72-2.27v-24.17h4.95v24.03c0,2.58-.59,4.5-1.78,5.76-1.19,1.26-2.99,1.89-5.42,1.89-.9,0-1.67-.06-2.29-.18Z"/>
        <path class="cls-1" d="M1654.82,185.1c-1.29-1.38-1.93-3.33-1.93-5.85v-16.56c0-2.52.64-4.47,1.93-5.85s3.15-2.07,5.58-2.07,4.29.69,5.58,2.07c1.29,1.38,1.93,3.33,1.93,5.85v16.56c0,2.52-.65,4.47-1.93,5.85-1.29,1.38-3.15,2.07-5.58,2.07s-4.29-.69-5.58-2.07ZM1662.97,179.56v-17.19c0-2.07-.86-3.1-2.57-3.1s-2.57,1.04-2.57,3.1v17.19c0,2.07.86,3.1,2.57,3.1s2.57-1.04,2.57-3.1Z"/>
        <path class="cls-1" d="M1672.96,185.12c-1.26-1.36-1.89-3.32-1.89-5.87v-24.03h4.95v24.39c0,1.08.22,1.86.65,2.34.43.48,1.06.72,1.87.72s1.43-.24,1.87-.72c.43-.48.65-1.26.65-2.34v-24.39h4.77v24.03c0,2.55-.63,4.51-1.89,5.87-1.26,1.37-3.09,2.05-5.49,2.05s-4.23-.68-5.49-2.05Z"/>
        <path class="cls-1" d="M1689.34,155.22h13.5v4.5h-8.55v8.33h6.79v4.5h-6.79v9.67h8.55v4.5h-13.5v-31.5Z"/>
        <path class="cls-1" d="M1707.38,185.12c-1.26-1.36-1.89-3.32-1.89-5.87v-24.03h4.95v24.39c0,1.08.22,1.86.65,2.34.43.48,1.06.72,1.87.72s1.43-.24,1.87-.72c.43-.48.65-1.26.65-2.34v-24.39h4.77v24.03c0,2.55-.63,4.51-1.89,5.87-1.26,1.37-3.09,2.05-5.49,2.05s-4.23-.68-5.49-2.05Z"/>
        <path class="cls-1" d="M1723.76,155.22h7.33c2.55,0,4.41.59,5.58,1.78,1.17,1.19,1.75,3.01,1.75,5.47v1.94c0,3.27-1.08,5.34-3.24,6.21v.09c1.2.36,2.05,1.1,2.54,2.21.5,1.11.74,2.6.74,4.46v5.53c0,.9.03,1.63.09,2.18.06.56.21,1.1.45,1.64h-5.04c-.18-.51-.3-.99-.36-1.44-.06-.45-.09-1.26-.09-2.43v-5.76c0-1.44-.23-2.44-.7-3.02-.46-.57-1.27-.85-2.41-.85h-1.71v13.5h-4.95v-31.5ZM1730.51,168.72c.99,0,1.73-.25,2.23-.77.5-.51.74-1.36.74-2.56v-2.43c0-1.14-.2-1.96-.61-2.48-.4-.51-1.04-.77-1.91-.77h-2.25v9h1.8Z"/>
        <path class="cls-1" d="M1749.09,155.22h4.95v31.5h-4.95v-31.5Z"/>
        <path class="cls-1" d="M1757.73,155.22h6.21l4.82,18.85h.09v-18.85h4.41v31.5h-5.08l-5.94-23h-.09v23h-4.41v-31.5Z"/>
        <path class="cls-1" d="M1777.94,185.12c-1.23-1.36-1.84-3.32-1.84-5.87v-1.8h4.68v2.16c0,2.04.86,3.06,2.57,3.06.84,0,1.48-.25,1.91-.74.43-.5.65-1.3.65-2.41,0-1.32-.3-2.48-.9-3.49-.6-1-1.71-2.21-3.33-3.62-2.04-1.8-3.46-3.43-4.28-4.88-.81-1.46-1.21-3.1-1.21-4.93,0-2.49.63-4.42,1.89-5.78,1.26-1.36,3.09-2.05,5.49-2.05s4.16.68,5.38,2.05c1.21,1.37,1.82,3.32,1.82,5.87v1.3h-4.68v-1.62c0-1.08-.21-1.87-.63-2.36s-1.03-.74-1.84-.74c-1.65,0-2.47,1.01-2.47,3.02,0,1.14.31,2.21.92,3.19.62.99,1.73,2.19,3.35,3.6,2.07,1.8,3.5,3.44,4.28,4.91.78,1.47,1.17,3.19,1.17,5.17,0,2.58-.64,4.56-1.91,5.94-1.28,1.38-3.13,2.07-5.56,2.07s-4.22-.68-5.45-2.05Z"/>
        <path class="cls-1" d="M1795.24,185.14c-1.25-1.35-1.87-3.25-1.87-5.71v-16.92c0-2.46.62-4.37,1.87-5.71,1.24-1.35,3.05-2.03,5.42-2.03s4.18.68,5.42,2.03c1.25,1.35,1.87,3.26,1.87,5.71v3.33h-4.68v-3.65c0-1.95-.83-2.93-2.47-2.93s-2.47.98-2.47,2.93v17.59c0,1.92.82,2.88,2.47,2.88s2.47-.96,2.47-2.88v-4.81h4.68v4.46c0,2.46-.62,4.37-1.87,5.71-1.25,1.35-3.05,2.03-5.42,2.03s-4.18-.68-5.42-2.03Z"/>
        <path class="cls-1" d="M1810.92,155.22h7.33c2.55,0,4.41.59,5.58,1.78,1.17,1.19,1.75,3.01,1.75,5.47v1.94c0,3.27-1.08,5.34-3.24,6.21v.09c1.2.36,2.05,1.1,2.54,2.21.5,1.11.74,2.6.74,4.46v5.53c0,.9.03,1.63.09,2.18.06.56.21,1.1.45,1.64h-5.04c-.18-.51-.3-.99-.36-1.44-.06-.45-.09-1.26-.09-2.43v-5.76c0-1.44-.23-2.44-.7-3.02-.46-.57-1.27-.85-2.41-.85h-1.71v13.5h-4.95v-31.5ZM1817.67,168.72c.99,0,1.73-.25,2.23-.77.5-.51.74-1.36.74-2.56v-2.43c0-1.14-.2-1.96-.61-2.48-.4-.51-1.04-.77-1.91-.77h-2.25v9h1.8Z"/>
        <path class="cls-1" d="M1829.06,155.22h4.95v31.5h-4.95v-31.5Z"/>
        <path class="cls-1" d="M1841.57,159.72h-5.17v-4.5h15.3v4.5h-5.17v27h-4.95v-27Z"/>
        <path class="cls-1" d="M1861.28,155.22h7.33c2.55,0,4.41.59,5.58,1.78,1.17,1.19,1.75,3.01,1.75,5.47v1.94c0,3.27-1.08,5.34-3.24,6.21v.09c1.2.36,2.05,1.1,2.54,2.21.5,1.11.74,2.6.74,4.46v5.53c0,.9.03,1.63.09,2.18.06.56.21,1.1.45,1.64h-5.04c-.18-.51-.3-.99-.36-1.44-.06-.45-.09-1.26-.09-2.43v-5.76c0-1.44-.23-2.44-.7-3.02-.46-.57-1.27-.85-2.41-.85h-1.71v13.5h-4.95v-31.5ZM1868.03,168.72c.99,0,1.73-.25,2.23-.77.5-.51.74-1.36.74-2.56v-2.43c0-1.14-.2-1.96-.61-2.48-.4-.51-1.04-.77-1.91-.77h-2.25v9h1.8Z"/>
        <path class="cls-1" d="M1879.41,155.22h13.5v4.5h-8.55v8.33h6.79v4.5h-6.79v9.67h8.55v4.5h-13.5v-31.5Z"/>
        <path class="cls-1" d="M1895.75,155.22h6.21l4.82,18.85h.09v-18.85h4.41v31.5h-5.08l-5.94-23h-.09v23h-4.41v-31.5Z"/>
        <path class="cls-1" d="M1914.96,155.22h13.1v4.5h-8.15v8.77h6.39v4.5h-6.39v13.73h-4.95v-31.5Z"/>
        <path class="cls-1" d="M1932.02,185.1c-1.29-1.38-1.93-3.33-1.93-5.85v-16.56c0-2.52.64-4.47,1.93-5.85s3.15-2.07,5.58-2.07,4.29.69,5.58,2.07c1.29,1.38,1.93,3.33,1.93,5.85v16.56c0,2.52-.65,4.47-1.93,5.85-1.29,1.38-3.15,2.07-5.58,2.07s-4.29-.69-5.58-2.07ZM1940.16,179.56v-17.19c0-2.07-.86-3.1-2.57-3.1s-2.57,1.04-2.57,3.1v17.19c0,2.07.86,3.1,2.57,3.1s2.57-1.04,2.57-3.1Z"/>
        <path class="cls-1" d="M1948.44,155.22h7.33c2.55,0,4.41.59,5.58,1.78,1.17,1.19,1.75,3.01,1.75,5.47v1.94c0,3.27-1.08,5.34-3.24,6.21v.09c1.2.36,2.05,1.1,2.54,2.21.5,1.11.74,2.6.74,4.46v5.53c0,.9.03,1.63.09,2.18.06.56.21,1.1.45,1.64h-5.04c-.18-.51-.3-.99-.36-1.44-.06-.45-.09-1.26-.09-2.43v-5.76c0-1.44-.23-2.44-.7-3.02-.46-.57-1.27-.85-2.41-.85h-1.71v13.5h-4.95v-31.5ZM1955.19,168.72c.99,0,1.73-.25,2.23-.77.5-.51.74-1.36.74-2.56v-2.43c0-1.14-.2-1.96-.61-2.48-.4-.51-1.04-.77-1.91-.77h-2.25v9h1.8Z"/>
        <path class="cls-1" d="M1968.13,185.14c-1.25-1.35-1.87-3.25-1.87-5.71v-16.92c0-2.46.62-4.37,1.87-5.71,1.24-1.35,3.05-2.03,5.42-2.03s4.18.68,5.42,2.03c1.25,1.35,1.87,3.26,1.87,5.71v3.33h-4.68v-3.65c0-1.95-.83-2.93-2.47-2.93s-2.47.98-2.47,2.93v17.59c0,1.92.82,2.88,2.47,2.88s2.47-.96,2.47-2.88v-4.81h4.68v4.46c0,2.46-.62,4.37-1.87,5.71-1.25,1.35-3.05,2.03-5.42,2.03s-4.18-.68-5.42-2.03Z"/>
        <path class="cls-1" d="M1983.81,155.22h13.5v4.5h-8.55v8.33h6.79v4.5h-6.79v9.67h8.55v4.5h-13.5v-31.5Z"/>
        <path class="cls-1" d="M2007.34,155.22h4.95v27h8.15v4.5h-13.1v-31.5Z"/>
        <path class="cls-1" d="M2022.82,155.22h13.5v4.5h-8.55v8.33h6.79v4.5h-6.79v9.67h8.55v4.5h-13.5v-31.5Z"/>
        <path class="cls-1" d="M2046.36,155.22h7.33c2.55,0,4.41.59,5.58,1.78,1.17,1.19,1.75,3.01,1.75,5.47v1.94c0,3.27-1.08,5.34-3.24,6.21v.09c1.2.36,2.05,1.1,2.54,2.21.5,1.11.74,2.6.74,4.46v5.53c0,.9.03,1.63.09,2.18.06.56.21,1.1.45,1.64h-5.04c-.18-.51-.3-.99-.36-1.44-.06-.45-.09-1.26-.09-2.43v-5.76c0-1.44-.23-2.44-.7-3.02-.46-.57-1.27-.85-2.41-.85h-1.71v13.5h-4.95v-31.5ZM2053.11,168.72c.99,0,1.73-.25,2.23-.77.5-.51.74-1.36.74-2.56v-2.43c0-1.14-.2-1.96-.61-2.48-.4-.51-1.04-.77-1.91-.77h-2.25v9h1.8Z"/>
        <path class="cls-1" d="M2064.49,155.22h13.5v4.5h-8.55v8.33h6.79v4.5h-6.79v9.67h8.55v4.5h-13.5v-31.5ZM2071.69,147.93h5.4l-4.82,5.17h-3.74l3.15-5.17Z"/>
        <path class="cls-1" d="M2081.91,185.12c-1.23-1.36-1.84-3.32-1.84-5.87v-1.8h4.68v2.16c0,2.04.86,3.06,2.57,3.06.84,0,1.48-.25,1.91-.74.43-.5.65-1.3.65-2.41,0-1.32-.3-2.48-.9-3.49-.6-1-1.71-2.21-3.33-3.62-2.04-1.8-3.46-3.43-4.28-4.88-.81-1.46-1.21-3.1-1.21-4.93,0-2.49.63-4.42,1.89-5.78,1.26-1.36,3.09-2.05,5.49-2.05s4.16.68,5.38,2.05c1.21,1.37,1.82,3.32,1.82,5.87v1.3h-4.68v-1.62c0-1.08-.21-1.87-.63-2.36s-1.03-.74-1.84-.74c-1.65,0-2.47,1.01-2.47,3.02,0,1.14.31,2.21.92,3.19.62.99,1.73,2.19,3.35,3.6,2.07,1.8,3.5,3.44,4.28,4.91.78,1.47,1.17,3.19,1.17,5.17,0,2.58-.64,4.56-1.91,5.94-1.28,1.38-3.13,2.07-5.56,2.07s-4.22-.68-5.45-2.05Z"/>
        <path class="cls-1" d="M2097.66,155.22h13.5v4.5h-8.55v8.33h6.79v4.5h-6.79v9.67h8.55v4.5h-13.5v-31.5Z"/>
        <path class="cls-1" d="M2117.82,155.22h6.71l5.13,31.5h-4.95l-.9-6.25v.09h-5.62l-.9,6.17h-4.59l5.13-31.5ZM2123.22,176.28l-2.21-15.57h-.09l-2.16,15.57h4.46Z"/>
        <path class="cls-1" d="M2133.66,185.12c-1.26-1.36-1.89-3.32-1.89-5.87v-24.03h4.95v24.39c0,1.08.22,1.86.65,2.34.43.48,1.06.72,1.87.72s1.43-.24,1.87-.72c.43-.48.65-1.26.65-2.34v-24.39h4.77v24.03c0,2.55-.63,4.51-1.89,5.87-1.26,1.37-3.09,2.05-5.49,2.05s-4.23-.68-5.49-2.05Z"/>
        <path class="cls-1" d="M2157.24,155.22h7.29c2.46,0,4.3.66,5.54,1.98,1.23,1.32,1.84,3.26,1.84,5.81v3.1c0,2.55-.62,4.48-1.84,5.8-1.23,1.32-3.08,1.98-5.54,1.98h-2.34v12.83h-4.95v-31.5ZM2164.53,169.39c.81,0,1.42-.22,1.82-.67.41-.45.61-1.21.61-2.29v-3.73c0-1.08-.2-1.85-.61-2.3-.4-.45-1.01-.67-1.82-.67h-2.34v9.67h2.34Z"/>
        <path class="cls-1" d="M2176.18,185.1c-1.29-1.38-1.93-3.33-1.93-5.85v-16.56c0-2.52.64-4.47,1.93-5.85s3.15-2.07,5.58-2.07,4.29.69,5.58,2.07c1.29,1.38,1.93,3.33,1.93,5.85v16.56c0,2.52-.65,4.47-1.93,5.85-1.29,1.38-3.15,2.07-5.58,2.07s-4.29-.69-5.58-2.07ZM2184.33,179.56v-17.19c0-2.07-.86-3.1-2.57-3.1s-2.57,1.04-2.57,3.1v17.19c0,2.07.86,3.1,2.57,3.1s2.57-1.04,2.57-3.1Z"/>
        <path class="cls-1" d="M2194.31,185.12c-1.26-1.36-1.89-3.32-1.89-5.87v-24.03h4.95v24.39c0,1.08.22,1.86.65,2.34.43.48,1.06.72,1.87.72s1.43-.24,1.87-.72c.43-.48.65-1.26.65-2.34v-24.39h4.77v24.03c0,2.55-.63,4.51-1.89,5.87-1.26,1.37-3.09,2.05-5.49,2.05s-4.23-.68-5.49-2.05Z"/>
        <path class="cls-1" d="M2210.69,155.22h7.33c2.55,0,4.41.59,5.58,1.78,1.17,1.19,1.75,3.01,1.75,5.47v1.94c0,3.27-1.08,5.34-3.24,6.21v.09c1.2.36,2.05,1.1,2.54,2.21.5,1.11.74,2.6.74,4.46v5.53c0,.9.03,1.63.09,2.18.06.56.21,1.1.45,1.64h-5.04c-.18-.51-.3-.99-.36-1.44-.06-.45-.09-1.26-.09-2.43v-5.76c0-1.44-.23-2.44-.7-3.02-.46-.57-1.27-.85-2.41-.85h-1.71v13.5h-4.95v-31.5ZM2217.44,168.72c.99,0,1.73-.25,2.23-.77.5-.51.74-1.36.74-2.56v-2.43c0-1.14-.2-1.96-.61-2.48-.4-.51-1.04-.77-1.91-.77h-2.25v9h1.8Z"/>
        <path class="cls-1" d="M2239.9,159.72h-5.17v-4.5h15.3v4.5h-5.17v27h-4.95v-27Z"/>
        <path class="cls-1" d="M2253.8,185.1c-1.29-1.38-1.93-3.33-1.93-5.85v-16.56c0-2.52.64-4.47,1.93-5.85s3.15-2.07,5.58-2.07,4.29.69,5.58,2.07c1.29,1.38,1.93,3.33,1.93,5.85v16.56c0,2.52-.65,4.47-1.93,5.85-1.29,1.38-3.15,2.07-5.58,2.07s-4.29-.69-5.58-2.07ZM2261.95,179.56v-17.19c0-2.07-.86-3.1-2.57-3.1s-2.57,1.04-2.57,3.1v17.19c0,2.07.86,3.1,2.57,3.1s2.57-1.04,2.57-3.1Z"/>
        <path class="cls-1" d="M2271.94,185.12c-1.26-1.36-1.89-3.32-1.89-5.87v-24.03h4.95v24.39c0,1.08.22,1.86.65,2.34.43.48,1.06.72,1.87.72s1.43-.24,1.87-.72c.43-.48.65-1.26.65-2.34v-24.39h4.77v24.03c0,2.55-.63,4.51-1.89,5.87-1.26,1.37-3.09,2.05-5.49,2.05s-4.23-.68-5.49-2.05Z"/>
        <path class="cls-1" d="M2292.19,159.72h-5.17v-4.5h15.3v4.5h-5.17v27h-4.95v-27Z"/>
        <path class="cls-1" d="M2311.9,155.22h4.95v27h8.15v4.5h-13.1v-31.5Z"/>
        <path class="cls-1" d="M2327.38,155.22h13.5v4.5h-8.55v8.33h6.79v4.5h-6.79v9.67h8.55v4.5h-13.5v-31.5Z"/>
        <path class="cls-1" d="M2350.91,155.22h7.07l3.15,22.54h.09l3.15-22.54h7.07v31.5h-4.68v-23.85h-.09l-3.6,23.85h-4.14l-3.6-23.85h-.09v23.85h-4.32v-31.5Z"/>
        <path class="cls-1" d="M2376.7,185.1c-1.29-1.38-1.93-3.33-1.93-5.85v-16.56c0-2.52.64-4.47,1.93-5.85s3.15-2.07,5.58-2.07,4.29.69,5.58,2.07c1.29,1.38,1.93,3.33,1.93,5.85v16.56c0,2.52-.65,4.47-1.93,5.85-1.29,1.38-3.15,2.07-5.58,2.07s-4.29-.69-5.58-2.07ZM2384.84,179.56v-17.19c0-2.07-.86-3.1-2.57-3.1s-2.57,1.04-2.57,3.1v17.19c0,2.07.86,3.1,2.57,3.1s2.57-1.04,2.57-3.1Z"/>
        <path class="cls-1" d="M2393.12,155.22h6.21l4.82,18.85h.09v-18.85h4.41v31.5h-5.08l-5.94-23h-.09v23h-4.41v-31.5Z"/>
        <path class="cls-1" d="M2412.33,155.22h7.56c2.46,0,4.3.66,5.54,1.98,1.23,1.32,1.84,3.26,1.84,5.81v15.93c0,2.55-.62,4.49-1.84,5.81-1.23,1.32-3.08,1.98-5.54,1.98h-7.56v-31.5ZM2419.81,182.22c.81,0,1.43-.24,1.87-.72.43-.48.65-1.26.65-2.34v-16.38c0-1.08-.22-1.86-.65-2.34-.44-.48-1.06-.72-1.87-.72h-2.52v22.5h2.52Z"/>
        <path class="cls-1" d="M2430.6,155.22h13.5v4.5h-8.55v8.33h6.79v4.5h-6.79v9.67h8.55v4.5h-13.5v-31.5Z"/>
        <path class="cls-1" d="M2447.16,181.95h4.77v4.77h-4.77v-4.77Z"/>
      </g>
    </g>
  </g>
</svg>