<?xml version="1.0" encoding="UTF-8"?>
<svg id="Calque_1" data-name="Calque 1" xmlns="http://www.w3.org/2000/svg" viewBox="0 0 554.89 550">
  <defs>
    <style>
      .cls-1 {
        fill: #fff;
      }
    </style>
  </defs>
  <g id="xBbnet.tif">
    <g>
      <path class="cls-1" d="M554.89,111.18c-11.63,157.66-83.91,279.04-197.03,385.17-20.85-13.2-43.74-40.84-58.6-60.78-31.29-41.93-58.22-86.24-81.49-133.16-6.65-13.44-11.73-25.64-17.38-40.89l-14.25-44.88,14.96.76c7.84.66,23.08,1.95,30.82,3.56l22.56,4.89,13.65,3.08h0c1.57,15.76,5.93,31.11,12.88,45.35l5.11,10.46c15.48,34.48,34.19,65.87,58.12,95.21,60.12-61.69,110.74-139.09,130.45-222.67l27.16-12.73c19-8.93,35.95-19.94,53.04-33.38Z"/>
      <path class="cls-1" d="M454.64,32.07c-3.28,39.04-23.89,83.58-40.46,117.77l-9.45,18.9c-2.99,5.65-6.03,11.3-9.17,16.95t-.05.09l-38.99,64.58c-8.26,12.16-17.05,23.93-26.4,35.09l.81-19.46c.52-12.5-7.74-23.68-19.85-26.84h0c-24.57-5.99-43.08-10.28-56.15-13.21-27.86-6.25-56.29-9.81-84.84-9.44-20.09.26-40.15,2.17-60.07,5.8,26.55,84.81,70.42,169.1,134.44,229.79l-1.19,31.63c-.85,21.18,1.66,41.46,4.99,63.21C115.77,455.23,43.83,327.87,3.08,174.96c12.82-6.79,25.55-10.87,39.56-14.1,32.15-7.46,64.68-10.54,97.06-12.3l9.02-.57c25.6-.85,50.76-.76,76.5.24,17.76,1.33,34.24,2.71,52,6.32,0,0,22.94,3.37,52.71,10.64,11.87-19.94,22.18-41.03,30.53-63.16-83.34-21.37-176.56-26.31-258.1-1.71l-28.83-19.94c-15.86-11.02-32.72-18.9-51.24-26.45C164.73-14.66,305.91-13.09,454.64,32.07Z"/>
      <path class="cls-1" d="M102.64,133.76c-33.91,1.89-65.31,6.74-97.56,16.3L0,86.86c21.8,2.61,41.61,9.82,60.87,19.81,14.41,8.16,27.71,16.57,41.77,27.09Z"/>
      <path class="cls-1" d="M492.22,116.69c-15.17,9.21-29.56,16.81-46.39,23.98,14.74-29.79,26.62-59.36,34.42-92.48l57.51,27.12c-13.1,16.93-27.89,29.95-45.54,41.38Z"/>
      <path class="cls-1" d="M275.28,513.77c3.25,12.39,6.55,23.85,11.92,36.23l49.19-37.44c-25.32-24.1-45.75-49.71-64.66-78.01-1.43,19.59-1.33,38.18.38,57.25l3.17,21.97Z"/>
    </g>
  </g>
</svg>