<?xml version="1.0" encoding="UTF-8"?>
<svg id="Calque_2" data-name="Calque 2" xmlns="http://www.w3.org/2000/svg" viewBox="0 0 116.85 115.82">
  <defs>
    <style>
      .cls-1 {
        fill: #fff;
      }
    </style>
  </defs>
  <g id="Calque_1-2" data-name="Calque 1">
    <g id="xBbnet.tif">
      <g>
        <path class="cls-1" d="M103.65,24.57c3.72-2.41,6.83-5.15,9.59-8.71l-12.11-5.71c-1.64,6.97-4.14,13.2-7.25,19.47,3.54-1.51,6.57-3.11,9.77-5.05ZM21.61,28.17c-2.96-2.22-5.76-3.99-8.8-5.71-4.06-2.1-8.23-3.62-12.82-4.17l1.07,13.31c6.79-2.01,13.4-3.03,20.54-3.43ZM50.46,56.32l-2.36-.43c-1.98-.36-3.77-.65-5.9-.82,1.19,3.21,2.25,5.78,3.66,8.62,4.89,9.88,10.57,19.2,17.16,28.03,3.13,4.2,7.95,10.02,12.34,12.8,23.82-22.35,39.04-47.91,41.49-81.11-3.6,2.82-7.17,5.14-11.18,7.03l-5.71,2.68c-4.15,17.6-14.82,33.9-27.48,46.89-5.04-6.18-8.98-12.79-12.24-20.05M29.42,31.28c-6.81.38-13.66,1.03-20.44,2.59-2.95.68-5.62,1.54-8.33,2.97,8.58,32.2,23.73,59.03,51.63,78.33-.7-4.58-1.23-8.85-1.06-13.3l.26-6.67c-13.48-12.78-22.73-30.52-28.31-48.39,8.39-1.53,16.9-1.61,25.33-.34l9.88-13.92c-3.74-.76-7.21-1.05-10.95-1.33-5.42-.21-10.72-.23-16.11-.05"/>
        <path class="cls-1" d="M31.32,31.16c5.39-.18,10.69-.16,16.11.05,3.74.28,7.21.57,10.95,1.33l-9.88,13.92c-8.43-1.27-16.94-1.19-25.33.34,5.58,17.87,14.83,35.61,28.31,48.39l-.26,6.67c-.17,4.45.36,8.72,1.06,13.3C24.38,95.87,9.23,69.04.65,36.84c2.71-1.43,5.38-2.28,8.33-2.97,6.78-1.57,13.63-2.22,20.44-2.59l1.91-.11Z"/>
        <path class="cls-1" d="M85.23,35.53c-4.52,8.5-9.52,17.17-15.72,24.58l-2.56-6.08-3.88-9.85c5.31-6.87,9.71-14.42,12.84-22.69-17.55-4.5-37.18-5.54-54.35-.36l-6.07-4.2c-3.34-2.32-6.89-3.98-10.8-5.57C34.69-3.09,64.42-2.76,95.74,6.75c-.69,8.22-5.03,17.6-8.52,24.8l-1.99,3.97Z"/>
        <path class="cls-1" d="M60.25,59.96c3.26,7.26,7.19,13.87,12.24,20.05,12.66-12.99,23.33-29.29,27.48-46.89l5.71-2.68c4.01-1.88,7.58-4.2,11.18-7.03-2.45,33.2-17.68,58.76-41.49,81.11-4.39-2.78-9.21-8.6-12.34-12.8-6.59-8.83-12.26-18.16-17.16-28.03-1.41-2.84-2.47-5.4-3.66-8.62,2.13.17,3.92.46,5.9.82l2.36.43,9.26,1.9.54,1.74Z"/>
        <path class="cls-1" d="M21.61,28.17c-7.14.4-13.75,1.42-20.54,3.43l-1.07-13.31c4.59.55,8.76,2.07,12.82,4.17,3.04,1.72,5.83,3.49,8.8,5.71Z"/>
        <path class="cls-1" d="M103.65,24.57c-3.2,1.94-6.22,3.54-9.77,5.05,3.1-6.27,5.61-12.5,7.25-19.47l12.11,5.71c-2.76,3.57-5.87,6.31-9.59,8.71Z"/>
        <path class="cls-1" d="M57.97,108.19c.68,2.61,1.38,5.02,2.51,7.63l10.36-7.88c-5.33-5.07-9.63-10.47-13.62-16.43-.3,4.12-.28,8.04.08,12.06l.67,4.63Z"/>
      </g>
    </g>
  </g>
</svg>