<?xml version="1.0" encoding="UTF-8"?>
<svg id="Calque_2" data-name="Calque 2" xmlns="http://www.w3.org/2000/svg" viewBox="0 0 717.51 77.39">
  <defs>
    <style>
      .cls-1 {
        fill: #fff;
      }
    </style>
  </defs>
  <g id="Calque_1-2" data-name="Calque 1">
    <path class="cls-1" d="M706.89,2.24c-4.24-1.27-8.83-2.2-13.43-2.2l-88.02-.04-7.28,40.77c-1.05,5.96-5.38,9.94-11.02,11.9-7.56,2.22-15.71,2.52-23.23.26-5.32-1.57-8.31-6.13-7.36-11.54L563.87.02h-26.17l-7.73,44c-2.58,14.83,4.18,27.25,19.31,30.82,15.33,3.62,31.3,3.4,46.39-.8,14.23-3.96,24.84-14.47,27.64-28.8l4.54-23.4,61.52.11c1.01.15,1.7,3.53.99,4.2-.62.56-1.98,2.04-2.93,2.04l-55.19.06-8.46,48.02,26.13-.06,4.54-25.96,27.77-.11c10.4-.04,22.9-1.96,28.87-10.59,7.08-10.27,11.45-32.63-4.2-37.32ZM356.57.02l-39.15,52.89L297.67.02h-26.26l-13.52,76.13,26.02.19,5.32-28.91,10.72,28.78,29.38.09,25.06-33.64-.69,5.25h26.11L388.27.02h-31.71ZM417.8,21.78l26.69.13,2.07,3.21,25.08-.06c1.55-6.46.58-12.53-3.44-17.39-3.42-4.13-8.87-7.51-15.11-7.53l-35.93-.04c-12.01-.02-23.46,7.45-27.88,18.47-2.35,5.88-2.71,12.68.26,18.12,2.76,5.04,8.76,7.88,14.57,8.37l33.43,2.84c1.55.13,3.7,1.33,3.51,2.65-.15.97-1.18,2.67-2.17,3.92l-86.32.06-3.94,21.74,86.29.02c9.99,0,19.39-2.65,26.22-10.55,5.94-6.89,7.99-17.26,4.05-25.31-2.76-5.6-9.26-8.65-15.33-9.23l-35-3.36c-1.08-.09-1.29-3.51-.54-4.24.69-.65,2.54-1.81,3.49-1.81ZM229.95.02l-31.79.04-51.45,75.85c11.13.5,20.28.41,30.31.26l33.95-49.83,16.57,50.11,26.99-.37L229.95.02ZM3.81.04L0,21.78l33.86.13-9.62,54.35,26.2-.15,9.66-54.24,33.79-.09,3.81-21.78L3.81.04ZM160.06,47.94l13.26-19.54-76.29-.15-8.5,48.04,52.63-.04,14.47-21.68-37.41-.09,1.85-6.59,39.99.04ZM102.01.02l-3.79,21.81h79.73L192.65.02h-90.64ZM473.68,28.24l-3.47,19.67,54.7-.02,3.19-19.65h-54.42Z"/>
  </g>
</svg>