<?xml version="1.0" encoding="UTF-8"?>
<svg id="Calque_1" data-name="Calque 1" xmlns="http://www.w3.org/2000/svg" viewBox="0 0 265.82 265.55">
  <defs>
    <style>
      .cls-1 {
        fill: #9797d1;
      }

      .cls-2 {
        fill: #1c2f4e;
      }

      .cls-3 {
        fill: #cd9970;
      }

      .cls-4 {
        fill: #ddb469;
      }

      .cls-5 {
        fill: #deb56b;
      }

      .cls-6 {
        fill: #dbb368;
      }

      .cls-7 {
        fill: #dcb469;
      }

      .cls-8 {
        fill: #dfb86e;
      }

      .cls-9 {
        fill: #dcb56a;
      }

      .cls-10 {
        fill: #dbb568;
      }

      .cls-11 {
        fill: #213555;
      }

      .cls-12 {
        fill: #ebebff;
      }

      .cls-13 {
        fill: #c08b64;
      }

      .cls-14 {
        fill: #c9c5ff;
      }

      .cls-15 {
        fill: #e5b589;
      }

      .cls-16 {
        fill: #d7a87f;
      }

      .cls-17 {
        fill: #dfb66c;
      }

      .cls-18 {
        fill: #f4f7f8;
      }

      .cls-19 {
        fill: #cd996e;
      }

      .cls-20 {
        fill: #1c2f4d;
      }

      .cls-21 {
        fill: #e4b58a;
      }

      .cls-22 {
        fill: #eef3f6;
      }

      .cls-23 {
        fill: #b3883f;
      }

      .cls-24 {
        fill: #daad85;
      }

      .cls-25 {
        fill: #fdfdfd;
      }
    </style>
  </defs>
  <g>
    <path class="cls-25" d="M266.2,132.77c0,73.34-59.45,132.78-132.77,132.78S.65,206.11.65,132.77,60.09,0,133.43,0s132.77,59.45,132.77,132.77Z"/>
    <g>
      <path class="cls-11" d="M266.2,132.77c0,73.34-59.45,132.78-132.77,132.78S.65,206.11.65,132.77,60.09,0,133.43,0s132.77,59.45,132.77,132.77Z"/>
      <g>
        <path class="cls-12" d="M228.73,183.89l-1.11-.62c-5.52-10.24-15.87-14.63-26.26-18.09l-5.04-2.3-35.26-19.43-.69-1.02-.74-18.21c1.04-1.66,2-3.37,2.48-5.29.45-3.36,1-6.67,1.67-9.94,6.51-1.11,7.89-7.76,8.98-13.28.8-4.05,2.11-11.18-3.39-12.18l-.44-.7c-.73.26-1.08.18-1.05-.24,1.31-7.72,1.92-15.38,1.83-22.98.32-1.5,1.34-1.01,2.31-.37.1-4.37-1.39-8.41-4.83-11.24.14-3.75-.43-7.49-3.08-10.32-.62,3.84-3.31,2.31-5.08.19-1.58-3.22-3.78-5.59-6.6-7.09.23,2.63-3.02,2.19-4.9,1.75-2.26-.53-5.6-1.82-2.46-3.79-5.2-1.76-10.49.2-15.26,2.37-1.57-.04-.99-1.66-.33-2.62l1.19-1.74c-8.29.83-16.43,4.29-21.13,11.45-1.7.89-1.71-.89-1.64-2.19.81-3.11.05-2.41-1.74-.2-2.29,2.84-2.85,5.76-3.31,9.28-2.93.1-5.24,1.14-6.91,3.13,1.49-.13,4.24.35,3.29,2.27-2.09,1.54-3.41,3.53-3.99,6.04-.14.62-.6,4-.1,3.71,1.09-.62,1.59-.71,1.76.97.21,7.01,1.08,13.97,2.22,20.88.05.79-.26,1.08-.98.73l-.39.65c-1.4.06-2.98.95-3.55,2.27-2.1,4.81.23,12.24,1.79,17.06,1.13,3.5,3.45,5.38,6.99,6.18.8,3.46,1.41,6.99,1.83,10.59l2.27,4.81c-.12,6.22-.35,12.44-.7,18.64-13.47,7.66-27.44,15.45-41.31,22.47-8.48,2.58-16.71,6.09-22.62,13-7.33,8.56-9.24,19.21-10.17,30.11l-.77,1.16c-5.13-5.75-8.97-12.6-12.57-19.72-6.96-13.78-11.33-28.79-12.86-44.17-3.17-31.97,5.58-63.52,24.49-89.35C73.53-2.18,157.81-12.31,214.24,33.26c52.91,43.71,63.05,121.5,21.23,176.75-1.86-11.21-1.18-16.29-6.74-26.12Z"/>
        <g>
          <g>
            <g>
              <path class="cls-23" d="M168.93,82.82c-2.03.8-2.39,2.08-1.98,4.18.2.4.41.84.38,1.3-.09,1.61-.46,4.37-.81,5.93-.1.46-.46.81-.78,1.13,0-.18,0-.37-.15-.65l-2.95-.06c-.27-.06-.58-.2-.59-.44.4-5.31.01-10.48-1.15-15.51-3.14-3.09-3.12-6.21-2.93-10.32-.05-2.39-.88-5.01-3.1-6.21.57,1.4,1.44,5.63.45,6.74-.5.56-.87.42-1.4-.09-1.14-1.84-2.53-3.45-4.16-4.83,1.27,2.36,2.29,5.16,1.88,7.88-.84,5.61-2.51,1.36-3.64-1.54-3.12-5.92-8.26-8.51-14.66-6.94-5.04-.24-10.02-1.27-14.94-3.11-7.61-.97-10.6,5.76-9.56,12.25l-.3,2.08c-.87,1.8-1.86,3.54-2.98,5.19-.52,4.53-.92,9.07-1.21,13.61l-.45.92-2.89.32c-.26-.03-.65-.08-.69-.27-.18-.73-1.12-6.59-1-6.91.1-.26.33-.43.57-.55.54-2.22.16-3.21-1.75-4.13.21-.05.41-.31.34-.69-1.21-7.31-2.1-14.46-2.25-22-.77.54-1.08,1.24-1.88,1.95-.36-4.64.16-9.09,4.72-12.25-1.18-1.33-2.61-.88-4.27-.96,1.45-2.94,4.35-4.27,7.67-4.14-.06-4.94,2.25-9.72,6.66-12.26-.16,2.2-1.05,3.72-.35,5.76,4.99-7.98,13.88-11.59,23.44-12.26-1.36,1.64-2.56,2.95-2.96,4.73,6.4-2.91,10.49-4.36,17.19-2.32-.69.96-1.71,1.03-2.24,2.06,2.28,1.39,4.9,2.09,7.46,1.55.2-.69.02-1.25.13-2.06,5.12,1.19,6.19,6.36,8.69,8.6.66.59,1.8,1.23,2.5.54s.33-1.76.51-2.86c3.4,2.85,4.65,7.14,4.23,11.56,4.08,3.11,5.19,8.03,4.87,12.91-.72-.42-1.17-1.13-2.14-1.57-.38,1.32.07,2.56.02,3.96-.23,6.61-1.09,12.98-2.02,19.44-.03.24.38.31.46.33Z"/>
              <g>
                <path class="cls-10" d="M127.44,51.64c-1.6-2.06-.48-6.65.47-9.4-4.63,1.52-7.82,5.03-8.92,9.94-1.59-4.63.58-9.51,4.61-12.17,5.21-3.44,8.18-2.54,13.05-5.93,0,2.28-1.15,3.78-2.09,5.6,2.57.02,4.69-.92,7.07-2.17.64,2.6-4.64,5.35-6.76,6.06-3.84,1.04-6.32,3.88-7.43,8.08Z"/>
                <path class="cls-6" d="M139.72,49.18c-2.09.7-3.73,1.71-5.31,3.15,2.03-8.64,9.64-3.94,13.9-12.78,1.41,3.4-.58,6.96-3.82,8.04l-4.77,1.6Z"/>
                <path class="cls-9" d="M147.19,54.29c1.03-5.02,7.12-3.54,7.88-11.41,1.79,3.04,1.34,7.3-1.85,8.94-1.94,1-4.05,1.32-6.03,2.47Z"/>
                <path class="cls-4" d="M102.76,59.76c.45-2.07,2.52-2.81,4.41-3.72-1.28-1.58-3.33-1.91-5.54-2.15,3.86-1.87,6.98-.82,9.1,2.99-2.85.6-5.32,1.17-7.97,2.88Z"/>
                <path class="cls-5" d="M154.77,55.72c3.06-2.94,5.06-2.79,6.85-7.61.88,2.26.79,5.08-1.23,6.72-1.53,1.24-3.71,1.32-5.62.89Z"/>
                <path class="cls-7" d="M111.27,50.15c-.99-2.86-.84-5.65.51-8.05.98-1.74,2.69-3,4.8-2.63-2.83,3.22-4.87,6.61-5.31,10.68Z"/>
                <path class="cls-8" d="M160.07,58.58c1.9-2.01,3.68-3.66,5.95-5.01.18,3.34-2.77,5.57-5.95,5.01Z"/>
                <path class="cls-17" d="M117.95,42.55c-1.21-2.45.05-7.4,3.17-8.24-1.27,2.77-2.14,5.33-3.17,8.24Z"/>
              </g>
            </g>
            <g>
              <path class="cls-15" d="M162.65,94.64l-.75,5.31c-.19,1.37-.25,2.57-.41,3.81l-.76.14c-2.18,2.83-4.22,5.73-6.11,8.71-2.35,6.34-4.54,12.74-6.56,19.2-.4.38-.59.8-.57,1.25-1.25,1.11-4.03,5.64-9.06,6.12-2.88.27-5.7.15-8.6.11-6.03-.08-8.71-4.63-10.42-6.11-2.4-6.62-4.72-13.38-6.97-20.27-2.27-3.27-4.5-6.58-6.69-9.92l-.5-.19-1.32-8.46c.08-4.96.3-9.68.99-14.48.18-1.25,1.28-2.28,1.95-3.19,3.67-4.91-2.3-11.28,6.25-16.17,1.95-1.12,3.9-1.39,6.04-.65,3.06,1.06,6.21,1.8,9.39,2.46,8.65,1.79,8.52-2.51,15.63,2.49,3.35,2.35,4.95,5.92,6.18,9.64,1.67-4.29.24-8.43-2.49-12.09,3.35,1.02,5,3.99,6.91,6.54.86-2.85-.08-5.38-1.09-8.15,7.1,3.03,4.15,10.06,5.19,13.72.5,1.76,2.3,2.94,2.96,4.67.72,1.87,1.23,13.14.81,15.51Z"/>
              <path class="cls-3" d="M161.5,103.76l-1.54,12.31c-.39,3.11-1.64,5.74-3.71,7.99l-6.03,6.57-2.73,2.43c-.06-.24-.28-.06-.34-.16-.15-.22.04-.51.12-.74l5.35-16.22c2.59-7.85,4.74-7.1,8.4-13.83.42.72-.1,1.44.49,1.64Z"/>
              <path class="cls-19" d="M119.41,133.17c-2.93-2.55-5.28-5.37-7.92-8.17-2.12-2.25-3.95-4.72-4.37-7.92l-1.87-14.29c.39-.11.35-.47.47-.98,1.41,2.68,3.16,5.15,5.2,7.53,1.37,1.6,2.24,3.29,2.89,5.3l5.76,17.76c.12.38.17.64-.17.76Z"/>
              <g>
                <path class="cls-2" d="M98.15,82.79c1.93-1.24,3.84,3.46,1.75,4.13l-.7.34c-.74-.38-1.74-.83-2.2.08-1.27,2.5,1.24,12.3,2.43,15,.14.32,1.95,3.29,1.97,2.57l-.97-9.71.59-.54c.03-1,2.54-1.25,2.89-.32.28-.03.49.08.7.26.27.24,1.19,6.83,1.12,7.19-.25.21-.42.55-.5,1.01.46-.05.71.25.77.88l1.79,13.65.84,2.67c3.03,4.43,6.55,8.58,10.57,12.46l.2.73c.23-.19.58-.34.77-.17,2.45,2.79,5.03,5.36,9.01,5.61,7.3.46,13.07.71,17.48-5.64l.82.09c-.15-.35.03-.8.55-1.36,3.86-3.44,7.23-7.31,10.11-11.6l1.11-3.72,1.55-12.33.69-.3c-.3-1.25-.3-2.24-.29-3.48s.43-4.05.74-5.27l.7-.36c.5-1.14,3.6-.95,3.1.71l.61.36-1.04,9.26c.64-.38,1.4-1.03,1.7-1.73,1.53-3.64,3.96-11.46,2.95-15.34-.38-1.46-1.07-1.4-2.19-.59l-.82-.31c-.83.02-.93-1.08-.78-1.74.36-1.51,1.27-3.35,2.76-2.44,8.84.69,4.09,14.93,2.43,20.39-1.03,3.38-3.69,5.62-7.2,6.19l-1.03,7.32c-.25,2.87-1.32,5.36-2.92,7.68l.8,18.29,33.73,18.62c10.57,5.84,15.66,4.99,24.75,11.71,4.08,3.02,6.87,6.7,9.23,10.87.05.3-.18.52-.45.22-.53-.59-1.45-.7-1.9-.03-.26.39-.3.82-.51,1.11l-1.2-.73c-5.39-8.93-14.7-13.03-24.26-16.09-9.87-4.86-19.5-9.96-28.9-15.32l-.03-.75c-.98.53-2.06-.13-2.15-1.22l-3.33-1.75c-3.8,13.95-20.01,24.74-32.52,30.28-12.61-5.38-29.17-16.57-32.68-30.35l-3.31,1.69c-.34,1.39-1.68,1.85-2.92,1.64.1.24.2.62.05.71-9.37,5.43-19,10.56-28.94,15.32-16.44,4.67-24.74,12.9-28.61,29.41l-1.89,13.34-.7.38c-.59-.43-.07-1.26-.68-1.94-.52.38-.94.83-1.62.89-.37.03-.79-.09-.83-.41-.02-.16.11-.35.18-.55,1.13-11.27,2.24-21.37,9.66-30.73,4.49-5.67,10.52-9.34,17.2-11.93,3.18-1.23,6.37-1.87,9.41-3.54l38.06-20.78.6-18.28c-.63-1.88-2.37-3.66-2.44-5.86l-1.38-9.21c-3.36-.46-5.85-2.62-7.03-5.78-1.33-3.56-2.12-7.28-2.74-11.08-.36-2.21-.26-4.43.48-6.5s2.69-3.3,4.79-3.25Z"/>
                <path class="cls-21" d="M157.21,134.91l.58,9.67,5.32,3.16c-2.92,12.71-18.5,23.39-29.72,28.44-11.1-5.13-27.09-15.95-29.61-28.53l5.2-3.03.52-8.52c.04-1.27.39-1.7,1.05-1.29,2.81,3.16,5.2,6.59,7.17,10.29,2.24,6.86,4.83,13.62,7.56,20.3.19.46,1.07.77,1.37.3l-5.57-16.29c-.27-2.05,1.13-1.83,4.2.64,6.88,3.99,13.29,2.73,19.38-2.12.74-.36,1.02.04,1.29.75-1.86,5.64-3.84,11.32-5.93,17.03.75.42,1.12.42,1.53-.34l9-23.35c1.7-2.5,3.61-4.83,5.74-6.99l.89-.1Z"/>
                <path class="cls-13" d="M157.21,134.91c-2.07,2.81-5.32,5.19-6.62,8.61l-8.32,21.86c-.29.77-.59,1.17-1.32,1.23-.5.04-1.74-.25-1.5-1.09,1.14-3.97,2.81-7.63,4.09-11.51l1.93-5.89c-8.11,6.5-15.78,6.73-23.88.08.02,1.01.42,1.87.76,2.87l5.06,14.77c.17.5-.97.75-1.34.73-.45-.03-1.15-.4-1.44-1.08-2.71-6.41-5.03-12.87-7.25-19.49-.74-2.2-1.77-3.76-3.17-5.54l-4.33-5.48c-.06.25-.23.75-.36,1.12l.31-7.89c3.45,3.57,6.49,7.07,10.09,10.34,2.85,2.59,6.34,4.02,10.22,4.06,6.65.07,11.54.74,16.72-4.04,3.56-3.29,6.69-6.77,10.03-10.37.53,2.48.2,4.62.32,6.73Z"/>
                <path class="cls-24" d="M165.75,95.35c.32-2.8.56-5.63,1.2-8.36.43-.16.83-.47,1.33-.73.88-.45,1.78-.03,2.13.92.57,1.51.6,3.18.3,4.83-.65,3.61-1.47,7.12-2.69,10.56-.56,1.59-1.65,2.91-3.49,3.43l1.21-10.64Z"/>
                <path class="cls-16" d="M99.91,86.92l1.12,7.73,1.18,11.28c-1.63-.49-2.69-1.58-3.24-3.03-1.03-2.73-6.65-20.59.95-15.99Z"/>
              </g>
            </g>
          </g>
          <g>
            <path class="cls-14" d="M229.6,217.15c-5.78,6.76-12.46,12.91-19.64,18.13l-.68-.04-3.16-11.63,4.9-10.31c.03-1.69-1.23-.7-3.76,2.97-.99,1.54-1.94,1.96-2.84,1.28-1.44-4.38-2.4-8.8-2.87-13.27-.28-.1-.28-.21,0-.32l-.69-1.24c-.49-9.82-5.16-19.48-12.62-25.92-6.31-5.45-13.39-9.94-20.64-14.05-.35-.25-.68-.51-.99-.81-.4-.38,2.38-5.11,2.84-5.75l.79-.08.57-.42c9.38,5.4,19.02,10.5,28.93,15.31,14.54,4.46,24.2,12.02,27.58,27.46.73,5.8,1.58,11.58,2.57,17.33l-.29,1.36Z"/>
            <path class="cls-14" d="M65.5,203.29c.04.61-.58,1.28-.32,1.93-.67,4.01-1.59,7.99-2.75,11.92-.79,1.18-1.33.82-2.2-.05-.17-.36-5.63-7.09-4.57-3.85l5.03,10.41-3.3,11.44c-.15.26-.47.21-.94-.13-6.94-5.19-13.58-11.12-19.09-17.81l-.34-1.29c.92-6.97,2.01-13.9,3.27-20.79,4.07-13.94,14.33-20.14,27.42-24.32,9.57-4.73,18.95-9.73,28.15-15.01l.65.38c2.03,1.07,2.94,3.68,3.64,5.84-15.87,9.15-33.62,20.21-34.05,40.29l-.6,1.03Z"/>
            <path class="cls-1" d="M96.51,156.13l-22.44,12.35c-6.79,3.74-12.34,4.76-18.29,7.98-8.13,4.39-13.47,12.1-15.44,21.07-1.31,5.99-1.29,13.43-2.98,19.64-.95-1.15-2.28-2.1-3.04-3.56.02-.64.09-1.3.16-1.87l1.38-10.33c2.23-16.6,10.13-27,26.2-32.18,4.63-1.49,8.68-3.52,12.95-5.87l19.56-10.77c.75-.35,1.19-.51,1.5.33.84,1.34.98,2.41.42,3.22Z"/>
            <path class="cls-1" d="M225.87,185.18c2.65,4.54,4.13,9.76,4.88,15.07l1.88,13.36c-.94,1.42-2.05,2.39-3.02,3.53-1.08-3.56-1.54-7.32-1.87-11.28-.6-7.18-2.26-14.12-6.37-20.1-4.89-7.12-11.06-10.19-18.95-13.05-4.23-1.53-8.02-3.32-11.96-5.48l-20.22-11.13c-.59-.77.13-3.88,1.25-3.82l20.46,11.22c4.27,2.34,8.32,4.32,12.93,5.82,9.04,2.94,16.21,7.68,20.98,15.86Z"/>
            <path class="cls-11" d="M190.89,247.11c-3.55,2.19-7.53,3.45-11.33,5.01-.04-1.08.45-2.11.65-3.27l1.03-5.79c-10.8,2.33-20.23-.26-30.43-3.49-.78-.25-.7-1.28-.53-1.73.25-.66,1.08-.81,1.87-.67,11.4,2.16,23.15,2.67,32.92-4.45,3.5-2.55,6.11-5.79,8.47-9.38.28-.42.5-.77.88-.92l.58.47c-.9,6.33-1.91,12.67-3.03,19.01l-.28,4.17-.79,1.03Z"/>
            <path class="cls-11" d="M87.16,252.07c-3.66-1.53-7.64-2.59-11.03-5.03l-3.17-20.84c-.2-1.3-.27-2.73-.68-3.82.52.29.86.82,1.24,1.41,2.54,3.89,5.55,7.32,9.52,9.82,10.05,6.33,20.68,5.49,31.92,3.57.79-.13,1.48.14,1.53.88.03.45,0,1.31-.73,1.53-10.43,3.15-18.88,5.87-30.31,3.43.58,3.24,1.49,6.08,1.71,9.06Z"/>
            <path class="cls-1" d="M56.45,234.97c.29-.04.52-.27.63-.65l3-10.6-5.02-10.25c-.26-.53-.02-1.23.25-1.48,1.69-1.59,3.94,4.01,6.38,5.44l2.96-11.43c.1-.37.37-.6.53-.78.75,5.68,1.6,11.35,3.47,16.92.61,1.44,1.04,2.85.79,4.48-.8,5.12-1.95,10.12-3.2,15.19-3.7-2.09-6.7-4.53-9.79-6.84Z"/>
            <path class="cls-1" d="M209.97,235.28c-3.01,2.19-5.88,4.57-9.39,6.53-.16-.55-.46-1.21-.55-1.66-1.84-5.14-3.88-11.11-3.08-16.52,1.96-6.04,3.33-12.24,4.11-18.59l.5-.77,3.55,13.32c1.72-1.59,2.93-3.38,4.33-5.08.54-.66.97-.91,1.68-.57.6.28.83.93.45,1.71l-4.84,9.97,3.23,11.66Z"/>
            <path class="cls-20" d="M201.55,203.95c0,.11.02.22,0,.32-.54,6.2-1.57,12.37-3.64,18.39-.45,1.32-.77,2.5-.58,3.94.63,4.68,1.79,9.09,2.68,13.55-.16.14-.12.39-.42.57,0-1.4-2.66-7.42-4.06-6.39-.89.66,2.75,4.51,1.14,5.5-.62.26-.75-.05-.84-.62l-.63,4.4-.74,1.07c-1.09.1.82-6.76.12-7.94-2.01,1.73-2.84,6.65-2.18,8.67.37,1.14-.95,1.35-1.53,1.7l2.4-17.55,1.13-7.13c2.18-5.31,3.12-11.04,3.82-16.89.12-1.03.14-1.96.84-2.61.64-1.33,2.37-.43,2.47,1.02Z"/>
            <path class="cls-22" d="M196.69,239.82c.35,1.25.75,2.54.78,3.87l-2.86,1.57c-.14-.28-.1-.45-.12-.58.22-2.87.62-5.45,1.33-8.04l.88,3.18Z"/>
            <path class="cls-18" d="M72.35,245.06c-1.12-.04-1.87-.89-3.07-1.45l1.73-7.14,1.34,8.6Z"/>
            <g>
              <path class="cls-14" d="M169.34,151.07c.11.2.21.41.27.62.06.2.1.4.05.56-1.89,7.16-8.43,13.91-13.98,18.51-.66.45.25,1.09.52.9,3.57-2.51,6.28-5.37,9.26-8.54,15.34,7.73,33.26,19.63,34.17,38.5.01.21-.07.42-.16.65-.1.23-.24.45-.39.66.21.5.18,1.05-.07,1.63-.59,5.73-1.58,11.33-3.48,16.81-.07.21-.25.39-.45.57s-.42.34-.66.49c-7.72,16.45-26.53,19.1-42.67,15.34-1.12-.14-1.14,1.05-.69,1.2,9.44,3.12,19.51,5.62,29.45,3.58.9-.2,1.06.25,1.31.97.15.43-1.22,8.06-2.25,8.59-18.19,7.44-38.35,9.97-58.12,8.1-11.93-1.13-23.5-3.65-34.29-8.15l-.73-.82-1.44-7.16c-.08-1.06-.05-1.75,1.06-1.56,10.01,2.07,19.98-.43,29.47-3.55.43-.14.65-1.3-.29-1.19-16.27,3.66-35.13,1.11-42.95-15.41-1.97-5.31-3.08-10.84-3.69-16.63-.11-1.09-.11-2.18-.92-2.83-.15-.22-.29-.45-.38-.69s-.17-.46-.16-.68c1.15-19.06,18.73-30.57,34.09-38.37,1.51,1.26,2.91,2.67,4.2,4.23,2.55,3.45,10.26,6.95,2.07.3-3.39-3.24-9.92-11.02-10.41-15.72-.04-.37.2-.73.41-1.05-.27-1.18,2.5-2.08,3.59-2.07,4.18,12.4,14.83,20.81,25.98,26.92.95.52,5.98,3.21,6.41,3.21.45,0,5.54-2.79,6.52-3.34,11.04-6.16,21.44-14.4,25.71-26.68,1.13-.16,3.66.88,3.63,2.09Z"/>
              <g>
                <path class="cls-1" d="M67.68,202.92c-.75-.11-1.52,0-2.18.37-.34-5.08,1.18-10.21,3.45-14.98,2.74-5.75,6.86-10.4,11.84-14.34,5.92-4.68,12.17-8.53,18.87-12.19-1-1.99-2.01-3.87-3.15-5.65-.19-.58-1.05-4.27-1.92-3.55,1-.55,1.91-1.12,2.92-1.64.83,3.83,2.98,7.24,5.31,10.58,2.34,3.36,5.33,6,8.46,8.61.53.44.77,1,.5,1.48-1.53,2.76-9-6.1-10.53-7.91-9.39,5.19-22.05,12.6-27.9,21.83-3.36,5.31-5.29,11.27-5.67,17.38Z"/>
                <path class="cls-1" d="M171.49,152.28c-.52,1.17-.62,2.72-1.25,3.82l-3.2,5.58c7.28,4.11,14.25,8.41,20.66,13.78,8.6,7.21,13.68,17.44,13.85,28.48-.55-.85-1.5-1.06-2.47-1.02-.54-9.6-4.86-18.48-12.26-24.98-6.46-5.68-13.74-10.12-21.3-14.28-2.73,3.41-5.5,6.27-8.95,8.53-.5.32-1.27-.06-1.54-.37-.34-.39-.26-1.12.26-1.57,2.68-2.29,5.3-4.53,7.53-7.3,2.9-3.6,5.35-7.56,6.51-11.89.76.4,1.42.82,2.15,1.22Z"/>
              </g>
            </g>
          </g>
        </g>
      </g>
    </g>
  </g>
  <g id="xBbnet.tif">
    <g>
      <path class="cls-1" d="M184.56,205.65c-.42,5.67-3.02,10.04-7.09,13.86-.75-.48-1.57-1.47-2.11-2.19-1.13-1.51-2.1-3.1-2.93-4.79-.24-.48-.42-.92-.63-1.47l-.51-1.61.54.03c.28.02.83.07,1.11.13l.81.18.49.11h0c.06.57.21,1.12.46,1.63l.18.38c.56,1.24,1.23,2.37,2.09,3.43,2.16-2.22,3.99-5.01,4.69-8.01l.98-.46c.68-.32,1.29-.72,1.91-1.2Z"/>
      <path class="cls-1" d="M180.95,202.81c-.12,1.4-.86,3.01-1.46,4.24l-.34.68c-.11.2-.22.41-.33.61t0,0l-1.4,2.32c-.3.44-.61.86-.95,1.26l.03-.7c.02-.45-.28-.85-.71-.97h0c-.88-.22-1.55-.37-2.02-.48-1-.23-2.03-.35-3.05-.34-.72,0-1.44.08-2.16.21.96,3.05,2.53,6.09,4.84,8.27l-.04,1.14c-.03.76.06,1.49.18,2.27-4.77-3.3-7.36-7.88-8.82-13.39.46-.24.92-.39,1.42-.51,1.16-.27,2.33-.38,3.49-.44l.32-.02c.92-.03,1.83-.03,2.75,0,.64.05,1.23.1,1.87.23,0,0,.83.12,1.9.38.43-.72.8-1.48,1.1-2.27-3-.77-6.35-.95-9.29-.06l-1.04-.72c-.57-.4-1.18-.68-1.84-.95,5.12-2.47,10.21-2.41,15.56-.79Z"/>
      <path class="cls-1" d="M168.28,206.47c-1.22.07-2.35.24-3.51.59l-.18-2.27c.78.09,1.5.35,2.19.71.52.29,1,.6,1.5.97Z"/>
      <path class="cls-1" d="M182.3,205.85c-.55.33-1.06.61-1.67.86.53-1.07.96-2.14,1.24-3.33l2.07.98c-.47.61-1,1.08-1.64,1.49Z"/>
      <path class="cls-1" d="M174.49,220.14c.12.45.24.86.43,1.3l1.77-1.35c-.91-.87-1.65-1.79-2.33-2.81-.05.7-.05,1.37.01,2.06l.11.79Z"/>
    </g>
  </g>
</svg>