<?xml version="1.0" encoding="UTF-8"?>
<svg id="Calque_1" data-name="Calque 1" xmlns="http://www.w3.org/2000/svg" viewBox="0 0 265.82 265.55">
  <defs>
    <style>
      .cls-1 {
        fill: #554033;
      }

      .cls-2 {
        fill: #6f7f8c;
      }

      .cls-3 {
        fill: #80492b;
      }

      .cls-4 {
        fill: #4ec67f;
      }

      .cls-5 {
        fill: #5c4539;
      }

      .cls-6 {
        fill: #243652;
      }

      .cls-7 {
        fill: #544034;
      }

      .cls-8 {
        fill: #544036;
      }

      .cls-9 {
        fill: #683a23;
      }

      .cls-10 {
        fill: #59443a;
      }

      .cls-11 {
        fill: #ccf2db;
      }

      .cls-12 {
        fill: #39261f;
      }

      .cls-13 {
        fill: #524035;
      }

      .cls-14 {
        fill: #523e34;
      }

      .cls-15 {
        fill: #1d3355;
      }

      .cls-16 {
        fill: #35241c;
      }

      .cls-17 {
        fill: #78ffaf;
      }
    </style>
  </defs>
  <g>
    <path class="cls-11" d="M226.41,216.22c.82-10.74.25-22.12-3.57-32.74-2.21-6.16-6.17-11.34-11.72-14.73-9.5-5.81-18.76-5.15-27-9.21-.95-.47-1.7-1.16-2.72-1.56-1.64-.64-8.71-3.35-9.1-4.5-.26-.27-.5-.54-.71-.84s-.4-.59-.49-.91c-3.85-12.69-4.61-27.98-3.92-41.2.02-.33.13-.66.26-1s.29-.67.47-.99c.11-2.37,2.32-1.73,3.55-5.71,1.53-4.96,6.14-18.18-.37-20.45l-.43-1.28c3.94-16.33.21-35.56-13.99-45.76-1.81-12.88-8.9-22.18-22.8-22.16-13.07.01-19.88,8.53-21.95,20.62-15.91,9.32-20.86,29.1-16.91,46.3l-.25,1.59c.05.42-.13.79-.61,1.02-3.24,1.55-3.11,7.12-2.45,10.22.75,3.52,1.66,6.92,2.89,10.31,1.04,2.86,3.52,4.75,6.45,5.64l1.98,8.28c.89,3.73,3,6.73,5.57,9.71.34,4.64.24,9.32-.19,13.98-.36,3.92-2.28,6.79-5.37,8.98-1.38.97-2.72,1.27-4.23,1.94l-15.64,6.9c-1.13.5-1.97,1.32-3.2,1.74-8.5,2.9-15.38,3.36-22.89,7.08-12,5.94-15.88,18.04-17.26,30.3-.38,1.49-.32,3-.32,4.53-.28,4.02-.27,8.25,0,12.29,0,1.76-.02,3.51-.14,5.53C-2.98,174.68-6.6,106.27,30.18,56.24c17.19-23.38,42.06-40.19,70.28-47.42,15.11-3.87,30.77-5.08,46.34-3.38,25.3,2.77,49.18,12.73,68.45,29.02,37.48,31.68,53.79,82.23,41.78,129.86-5.26,20.84-15.78,40.02-30.45,55.76-.41-1.46-.02-2.67-.16-3.86Z"/>
    <path class="cls-6" d="M39.46,214.61c-.25.02-.22-1.69-.19-2.39l-.14-9.26c0-.34.08-.66.33-.64v12.29Z"/>
    <g>
      <path class="cls-15" d="M263.03,106.39c-5.26-26.17-18.41-50.44-37.5-69.08C186.17-1.11,126.3-10.65,76.55,12.38,33.26,32.43,4.49,74.65.57,122.16c-3.08,37.47,10.19,75.44,36.37,102.16,1.07,1.09,1.8,2.37,3.17,3.2.95.58,1.94,2.51,3.07,2.88.2.16.58.53.77.72,2.38,2.46,7.56,6.5,10.58,8.63l3.38,2.38c1.5,1.06,3.36,2.89,5.21,3.39.33.39,1.07.69,1.51.97,17.91,11.2,38.82,17.47,60.17,18.79,26,1.61,52.54-4.43,74.67-17.79,1.17-.7,2.64-1.04,3.56-2.13l5.86-3.87c.43-.04.75-.55,1.07-.76,21.47-14.71,38.04-36.66,47.23-61.12,8.82-23.47,10.76-48.65,5.83-73.23ZM193.65,236.25l-.76.25-3.32,10.43.27.66-1.3.16c-5.68,2.44-11.45,4.63-17.32,6.57-.81.3-1.51.81-2.18,1.34l-2.62.1c-21.85,5.91-45,5.87-66.86,0l-3.84-.41-.84-.7c-6.35-2.2-12.55-4.78-18.59-7.75-.18-1.24-.69-1.98-1.52-2.21l.33-1.23c-2.55-8.19-4.4-16.44-2.88-25.04,0,0-.16-.42-.48-1.24,1.2-3.61,2.32-7.24,3.39-10.91,4.48-12.43,8.61-25.33,9.67-38.68.06-.73-.16-1.46-.38-2.15l.7-.75c-.36-2.26.26-3.47,1.85-3.62v-.76c.84.4,2.28.11,2.27-.93,1.05.52,3.38-.64,3.84-1.67.27.48.51.37.71-.33.7.44,1.59.34,1.57-.62.63.21,1.28.06,1.94-.45.16,22.48,10.77,42.6,35.77,42.69,24.79.08,35.33-20.59,35.54-42.67.83.58,1.46.65,1.89.22.1.9,1.13,1.78,1.81.92.42,1.31,3.04,2.36,4.33,1.97.17,1.11,1.28,1.4,2.09.89l.15.79c1.62.07,2.26,1.31,1.92,3.72l.64.57c-.22.69-.45,1.41-.39,2.14.62,8.23,2.78,17.6,5.21,25.5,3.06,8.51,5.8,17.3,8.09,25.85l-.48,1.16.39,4.26c-.22,1.79-.09,3.41.4,4.86.64.33.21,1.23.3,1.93.23,1.88.42,4.32-1.3,5.16ZM227.17,214.65c1.08-20.73-2.12-44.84-25.42-50.63-4.8-1.12-9.56-2.38-14.27-3.76-4.96-2.19-9.8-4.51-14.53-6.94l-.65.17-.38-.5-7.78-2.97c-4.63-2.5-5.69-6.24-6.23-11.15-.25-2.27-.46-9.77-.1-11.84,2.32-2.57,4.42-5.45,5.37-8.84l2.25-8.79c.47-.4,1.11-.54,1.91-.42l.56-.42c1.44-1.31,2.92-2.69,3.83-4.58,1.72-3.54,3.62-12.2,3.35-16.07-.1-1.51-.44-3.13-1.37-4.36-.59-.78-1.81-2.07-2.63-1.15-.73-.26-1.23.34-1.49.97-.1.25-.2,1.92.13,1.91,1.32,1.72,1.16,3.42.93,5.5-.43,3.98-2.07,10.39-4.24,13.03l.93-5.2-.59-.39c.13-1.48.17-2.95.11-4.42-1.78-.8-2.69.11-2.75,2.72l-.24.08c-.74,1.54-1.11,2.32-1.11,2.32l-2.18,10.87c-1.13,11.26-9.49,19.57-18.06,26.25-4.85,3.78-14.14,3.72-19.08.12-6.96-5.06-15.18-13.24-17.24-21.79l-3.59-16.97-.69-.16s-.03,0-.05.02c.02.18.01.31-.01.39-.14.53-.45-.23.01-.39-.1-1.43-1.29-5.56-2.97-3.16.06,1.28.09,2.55.1,3.79l-.56.57c.39,1.87.68,3.65.86,5.32-2.85-4.66-4.64-11.59-4.02-17.08.38-.55.41-1.03.1-1.42,1.89.09.9-3.89-.66-3.59-1.8.63-2.91,1.92-3.55,3.75-1.74,5.05,1.22,14.4,3.16,18.94.98,2.31,3.83,4.45,6.24,4.92.47,2.66,1.06,5.33,1.77,8.02.91,3.7,3.03,7,5.61,9.76.65,4.06.17,11-.46,15.15-.5,3.26-3.24,6.3-6.09,7.76-7.34,2.94-14.51,6.19-21.52,9.73-5,1.53-10.05,2.91-15.14,4.14-16.98,5.19-23.47,15.57-25.5,32.78l-.13,1.32c0,1.15,0,2.6,0,4.35-.28,4.04.33,8.45.33,12.29,0,1.34-.17,2.08-.7,3.57-.1.34-2.43-2.35-3.13-3.17C-9.67,161.94-2.81,81.25,49.91,35.89,100.45-7.6,177.6-4.33,224.11,43.63c46.79,48.25,48.48,125.31,2.92,175"/>
      <path class="cls-15" d="M193.65,236.25c.99-2.2,1.32-4.56,1-7.09.64.33.21,1.23.3,1.93.23,1.88.42,4.32-1.3,5.16Z"/>
      <g>
        <path class="cls-12" d="M171.07,82.39c-.08.5-1.11.93-.91,1.54.26.82-.27.92-.45,1.35l.38.71c-1.58,2.78-2.31,5.86-2.18,9.23.05,1.43-.33,2.43-1.16,2.99-.72-1,.15-2.26-.02-3.59-.08-.62-1.59-.57-1.9-.07-.53.87-.32,1.88-.72,2.68-.27-.32-.18-.53-.24-.63.89-4.37.68-10,.22-14.67-.49-4.96-2.71-5.97-3.85-11.7-.82-4.11-3.13-7.55-6.39-10.07-4.03-3.12-8.79-4.1-13.79-2.95-13.84,3.18-17.67-3.99-26.98,2.12-3.79,2.48-6.53,6.12-7.46,10.64-1.19,5.75-3.54,7.27-3.97,12.49-.39,4.73-.75,9.97.27,14.8l-.26.64c-.48-.97-.06-4.26-2.07-3.71-1.28.35.34,3.25-.59,3.72l-.79-.84-.55-6.15c-.65-1.94-1.4-3.81-2.27-5.61,1.07-1.99-.38-2.61-.66-3.59-2.29-8.1-2.18-16.45-.23-24.79,2.32-9.94,8.11-18.29,16.9-23.45,1.66-8.79,5.11-16.23,13.95-19.42,5.52-1.99,11.46-1.95,17.01-.06,9.67,3.29,13.31,11.7,14.82,21.08,2.38,2.05,4.8,3.79,6.77,6.23,6.46,8,9.4,20.27,8.78,30.42-.23,3.74-1.08,7.19-1.66,10.69Z"/>
        <g>
          <path class="cls-1" d="M126.87,51.76c-1.3-3.28-.54-6.37.53-9.61-4.59,1.54-7.84,5.02-8.91,9.86-1.26-3.62,0-7.89,2.84-10.62,4.91-4.74,10.16-3.84,14.78-7.49.14,2.4-1.14,3.82-2.01,5.65,2.53.06,4.64-.86,7.09-2.14.17,1.68-1.11,2.85-2.36,3.76-4.78,3.46-9.21,1.63-11.95,10.58Z"/>
          <path class="cls-2" d="M142.83,28.7c-6.43-1.37-12.41-1.27-18.81-.24,1.83-5.14,9-5.61,13.26-4.45,2.41.66,4.47,2.3,5.55,4.69Z"/>
          <path class="cls-14" d="M144.22,47.41c-3.97,1.54-6.84,1.7-10.23,4.78,2.04-8.54,9.73-4.03,13.81-12.73,1.38,3.3-.45,6.73-3.57,7.94Z"/>
          <path class="cls-7" d="M146.81,54.25c-.18-1.4.76-2.15,1.65-2.88l4.26-3.48c1.41-1.15,1.35-3.15,1.96-5.03,1.5,2.62,1.36,6.11-.93,8.28-1.4,1.32-5.1,1.66-6.93,3.1Z"/>
          <path class="cls-8" d="M102.19,59.78c.6-2.25,2.71-2.92,4.54-3.84-1.39-1.66-3.32-1.67-5.22-2.17,3.62-2.05,6.92-.08,8.92,3.03-3.17.65-5.77,1.13-8.24,2.99Z"/>
          <path class="cls-5" d="M154.2,55.63c3.46-3.17,5.12-2.81,6.99-7.56.8,2.48.71,5.29-1.41,6.84-1.58,1.16-3.74,1.04-5.58.72Z"/>
          <path class="cls-13" d="M110.8,50.08c-1-2.83-.76-5.45.38-7.91.88-1.89,2.76-3.14,4.97-2.85-2.95,3.3-4.93,6.67-5.35,10.77Z"/>
          <path class="cls-10" d="M120.58,34.6c-1.55,2.61-2.02,5.17-3.18,7.92-1.06-3.07.02-6.27,2.48-8.11.32-.24.67-.35.71.19Z"/>
        </g>
      </g>
      <g>
        <path class="cls-6" d="M101.86,97.65c-.14.53-.45-.23.01-.39.02.18.01.31-.01.39Z"/>
        <g>
          <path class="cls-15" d="M208.9,241.5c-.37.63-5.15,3.84-5.86,3.87.61-.72,5.02-3.86,5.86-3.87Z"/>
          <g>
            <g>
              <path class="cls-3" d="M204.09,239.17c-.53.29-.85.19-.88-.39-.93-11.43-1.74-22.83-2.43-34.21.13-1.28.5-2.28.21-3.48-.36-.57-2.08-.76-2.29.06l-2.6,10.31c-1.28-4.58-2.61-8.92-4.24-13.49-4.04-11.3-6.56-22.72-7.51-34.89,7.59,3.01,14.57,3.21,21.72,6.52,6.68,2.9,11.3,8.07,13.87,14.94,2.64,7.46,3.82,15.26,3.66,23.26l-.33,15.66c-5.95,5.97-12.28,11.24-19.16,15.7Z"/>
              <path class="cls-3" d="M64.99,204.89c-.45,11.46-1.26,22.91-2.41,34.36-.28.23-.56.18-.84-.08-6.86-4.66-13.14-9.71-19.04-15.64l-.35-14.43c-.19-7.91.71-15.53,3.1-23.05,1.76-5.54,4.92-10.32,9.57-13.78,8.74-6.07,17.19-5.38,26.54-9.37-.98,10.07-2.53,19.61-5.57,29.1l-6.22,19.43c-1.07-3.34-1.65-6.68-2.47-10.12-.15-.62-1.05-.69-1.44-.65-.32.03-1.11.2-1.07.78.08,1.11-.05,2.46.22,3.45Z"/>
              <path class="cls-9" d="M204.09,239.17c-3.32,2.15-6.27,4.34-9.88,6.17.32-1.78.84-3.35,1.33-5,2.2-7.37,2.84-14.81,1.82-22.49l3.41-13.27c.45.1.57.76.62,1.36l2.46,32.83c.02.25.16.35.24.41Z"/>
              <path class="cls-9" d="M61.74,239.17c.12.05.31-.06.34-.36l2.45-32.41c.05-.64.3-1.07.47-1.51l3.57,13.26c-.85,6.35-.7,12.49.81,18.62.72,2.92,1.73,5.55,2.26,8.49-3.65-2.02-6.86-3.89-9.9-6.09Z"/>
            </g>
            <g>
              <g>
                <path class="cls-17" d="M181.44,165.39l-2.62-1.16c-.09-1.23-.45-2.44-.3-3.87,0-.12.09-.11.22-.06.56.47,2,.2,2.36,1.19.45,1.24.21,2.67.35,3.89Z"/>
                <path class="cls-17" d="M87.04,164.22c-.97.15-1.74.82-2.63,1.2.16-1.26-.11-2.71.44-4.04.34-.83,1.64-.62,2.12-1.09.9-.46.08,3.78.08,3.93Z"/>
              </g>
              <g>
                <path class="cls-3" d="M164.14,164.81c-.28.16-.6.14-.95-.06l-13.9,2.05c-3.74.06-6.54,1.37-8.39,3.91,1.25-.57,2.52-1.11,3.85-1.5,1.76-.53,17.91-3.04,18.73-2.57.23.13.22.49.15.79-1.37,9.12-6.26,18.86-14.25,23.54-7.66,4.49-16.54,5.31-25.09,3.2-7.41-1.83-13.39-6.33-17.22-12.93-2.52-4.34-4.18-9.01-4.93-13.84l.16-.87c6.61.52,13.15,1.46,19.64,2.8,4.52,2.48,3.52,1.34.44-1.16-6.59-1.64-13.27-2.79-20.05-3.44l-.68-.5c-.52-3.38-.66-6.44-.74-9.81,9.05-4.17,10.82-9.28,10.96-18.7,1.01-.38,1.28.28.81,1.97,3.92,6.33,10.71,13.42,18.41,14.26,9.76,1.07,16.64-6.58,22.02-13.88-.18-.76-.51-5.99.34-5.85.17.03.32.14.47.27.04,10.63.47,17.14,10.94,21.86.13,3.53-.09,7.07-.73,10.47Z"/>
                <path class="cls-9" d="M153.93,132.48c-.65-.63-.23,5.17-.25,5.83-2.75,3.5-5.47,6.75-8.77,9.72-6.86,6.17-16.86,6.22-23.87.14-3.4-2.95-6.3-6.39-8.88-10.14-.41-.59.63-2.08-.28-2.32l.08-4.88c6.81,6.63,10.97,11.87,21.26,11.79,9.39-.07,13.2-4.72,19.51-10.65.29-.27.71-.5.88-.33.27.27.33.54.33.83Z"/>
                <path class="cls-9" d="M102.14,167.4l-.49-3.17c.91-.33,1.87-.04,2.94.13,5.64.88,11.18,1.39,16.75,2.73,2.22.53,3.89,2.49,4.79,4.5-1.73.67-2.19-1.73-7.93-2.47l-15.13-1.95c-.43-.06-.8-.11-.93.23Z"/>
                <path class="cls-9" d="M164.14,164.81c-.19,1.04.08,1.96-.52,2.62-.14-.23-.38-.19-.72-.15l-13.84,1.68c-3.41.41-6.23,1.43-9.42,3.11.61-2.2,2.2-3.99,4.17-4.72,3.81-1.41,15.43-2.27,19.97-3.39.14.42.23.64.37.86Z"/>
                <path class="cls-9" d="M99,97.89l1.31,7.25c-1.7-.63-2.57-2.09-3.07-3.6-1.17-3.52-4.53-13.66-1.85-16.25.9-.79,2.98,5.43,3.01,5.92.13,2.35.21,4.5.61,6.69Z"/>
                <path class="cls-9" d="M166.75,98.21c.2-1.09.45-2.19.55-3.42l.34-4.29c.15-1.9,1.35-3.56,2.07-5.22,3.04.08,1.28,7.87.69,9.98-.82,2.95-1.91,9.42-4.88,9.87l1.24-6.92Z"/>
              </g>
            </g>
          </g>
        </g>
      </g>
      <g>
        <path class="cls-3" d="M163.88,96.59c-1.22,6.12-2.29,12.1-3.76,18.16-.74,3.04-1.83,5.76-3.75,8.24-3.76,4.87-8,9.22-12.79,13.05-3.32,2.66-7.11,3.52-11.25,3.43-3.71-.08-6.94-1.01-9.95-3.3-4.34-3.3-7.96-7.24-11.56-11.37-2.64-3.04-4.41-6.34-5.25-10.3l-3.65-17.26c-.57-1.61-1.07-3.2-1.26-4.89-.72-6.6.48-13.64,3.47-19.44,1.3-6,3.1-10.2,8.23-13.89,3.64-2.61,6.74-3.14,11.04-2.74,6.5,1.42,12.74,1.41,19.31-.15,10.28-.77,17.48,7.28,18.95,16.86,3.04,5.65,3.82,11.45,3.45,18.02-.11,2.03-.35,3.76-1.24,5.58Z"/>
        <path class="cls-16" d="M167.89,108.56c-.69,15.03-.16,30.51,4.4,44.93-.17.21-.56.14-.89,0-4.9-2.16-7.98-2.06-10.9-5.59-1.23-1.5-2.38-3.07-2.68-5.1-.26-1.8-.65-3.59-.65-5.43l-.02-10.62c2.5-2.69,4.59-5.57,5.5-9.14l2.11-8.29c.26-1.01,1.78-1.13,2.57-.86.12-.41,0-.75.44-.91.04.4.03.7.11,1.01Z"/>
        <g>
          <path class="cls-17" d="M170.5,156.53c.1,13.63-4.26,30.13-16.3,38.34-9.38,6.4-21.07,7.88-31.93,4.87-5.62-1.56-10.52-4.01-14.61-8.1-9.14-9.14-12.17-22.53-12.31-34.9.72-.51,1.47-1.13,2.62-1.29.08,17.49,5.87,35.95,24.34,41.31,10.18,2.95,21.1,1.82,30.03-4.05,11.65-7.66,15.54-24.01,15.63-37.19.95.05,1.76.61,2.53,1Z"/>
          <path class="cls-17" d="M176.64,159.41l.11,3.51c-.12.23-.29.43-.53.54-.18.08-3.24-1.34-3.55-1.53l-.28-.69-.08-3.8c1.42.72,2.96,1.16,4.33,1.97Z"/>
          <path class="cls-17" d="M93.08,157.69c.61-.41.38,2.95.3,3.45-1.51.52-2.73,1.46-4.15,1.75.15-1.16.05-2.38.01-3.54,1.24-.64,2.47-1.35,3.84-1.67Z"/>
          <path class="cls-17" d="M169.03,255.66c-24.1,7.08-49.27,6.83-73.32-.31,5.9-.23,11.71-1.12,17.67-2.65,15.25-3.9,24.88-3.42,40.01.17,4.83,1.15,9.45,2.1,14.42,2.43.52.04,1.04-.09,1.21.36Z"/>
          <g>
            <path class="cls-4" d="M172.31,157.44c.94.62,1.12,3.3.08,3.8.14.29.26.58.35.88s.15.58.12.86c-.38,4.85-1.72,9.76-3.06,14.42l8.73,4.35c-1.01-5.61-1.74-11.27-2.24-16.95-.03-.3.05-.61.12-.93s.2-.64.34-.95c-.98-.41-1.11-3.12-.11-3.51.64.38,1.46.37,2.09.89.51.83,1.05,3.38.09,3.92.9,2.77,1.41,5.7,1.53,8.79,2.11,14.42,6.51,26.99,12.39,40.2.62,2.3,1.15,4.19,1.6,5.66.56,3.38.79,6.86.31,10.28.33,2.55,0,4.91-1,7.09l-3.2,10.1c-.16.51-.26.97-.61,1.24-6.69,3.3-13.65,5.96-20.8,8.07-.9-.09-1.84-.04-2.83.15-5.89-.74-11.71-1.85-17.47-3.33-13.51-3.34-26.86-1.74-40.16,1.97-4.3,1.1-8.59,1.4-12.86.89-6.8-2.02-13.4-4.59-19.85-8.01-.35-.93-.86-1.82-1.1-2.65-3.01-10.79-4.8-15.74-3.03-27.52.39-.19.19.6.19.56.13-1.81.88-4.22,1.56-5.94,7.1-14.66,11.72-30.14,12.87-46.41l.7-1.15-.58-.46c.09-1.19.26-2.35.5-3.46.64-.64,1.52-.55,2.27-.94,1.03.61,1.08,2.98-.01,3.54.12.36.23.73.3,1.1s.13.73.09,1.07c-.68,5.58-1.4,11.16-2.24,16.72l8.74-4.32c-1.71-5.05-2.82-10.32-3.01-15.67l.46-.75c-.05-1.25.03-2.48.24-3.68.32-.54,1.13-.39,1.57-.63l.67,1.24c.34,23.15,12.2,42.68,37.26,42.61,24.69-.07,36.47-20.5,36.56-42.94l.65-1.12,1.81.92Z"/>
            <g>
              <path class="cls-17" d="M181.44,165.39c1.2,10.32,2.91,20.48,6.43,30.44,2,5.67,3.87,11.09,5.41,16.88.57,2.15.72,4.16,1.06,6.17-.15.51-.5,0-.29-.35-4.14-11.54-9.2-21.12-12.11-33.23-1.69-7.03-2.62-14.03-3.13-21.06.66-.88,2.48.17,2.62,1.16Z"/>
              <path class="cls-17" d="M93.79,157.36c-.41,6.86.75,13.71,3.12,20.42l-10.53,5.21c1.33-6.9,2.01-13.47,2.84-20.09l.26-.73,3.29-1.52c-.08-1.09.02-2.08.3-2.95.21-.05.48-.33.71-.33Z"/>
              <path class="cls-17" d="M87.04,164.22c-.08,3.18-.6,6.31-1.06,9.66-1.97,14.61-5.53,23.98-11.51,37.25-1.03,2.29-1.96,4.41-2.47,6.69-.32-.33-.21-.54-.27-.66,1.45-9.64,5.73-18.37,8.42-28.11,2.17-7.87,3.27-15.7,4.26-23.63.19-1.04,2.01-2.33,2.63-1.2Z"/>
              <path class="cls-15" d="M193.65,236.25l1-7.09c.64.33.21,1.23.3,1.93.23,1.88.42,4.32-1.3,5.16Z"/>
              <path class="cls-17" d="M176.75,162.92c.67,6.63,1.24,13.22,2.75,20.03l-10.51-5.24c1.83-5.49,2.89-10.92,3.4-16.47,1.64.15,2.98,1.43,4.36,1.68Z"/>
              <path class="cls-17" d="M168.16,246.76c-15.32,1.76-24.83-7.78-49.82-2.45-3.96.84-7.6,1.8-11.63,2.32-7.2.93-14.36,0-20.59-3.64-7.31-4.27-12.18-11.12-14.35-19.21,2.29-6.79,5.07-12.95,7.76-19.5,2.57-6.13,4.8-12.06,6.35-18.64l11.82-6.02c5.18,12.99,14.42,20.38,28.08,22.79,10.26,1.81,20.82-.03,29.46-5.88,6.14-4.16,10.26-10.12,13.07-16.9l11.69,6.1,3.17,10.35,3.58,9.29c2.46,6.37,5.2,12.39,7.36,18.87-3.94,12.19-12.92,21.04-25.94,22.53Z"/>
            </g>
          </g>
        </g>
      </g>
    </g>
  </g>
  <g id="xBbnet.tif">
    <g>
      <path class="cls-4" d="M184.56,205.65c-.42,5.67-3.02,10.04-7.09,13.86-.75-.48-1.57-1.47-2.11-2.19-1.13-1.51-2.1-3.1-2.93-4.79-.24-.48-.42-.92-.63-1.47l-.51-1.61.54.03c.28.02.83.07,1.11.13l.81.18.49.11h0c.06.57.21,1.12.46,1.63l.18.38c.56,1.24,1.23,2.37,2.09,3.43,2.16-2.22,3.99-5.01,4.69-8.01l.98-.46c.68-.32,1.29-.72,1.91-1.2Z"/>
      <path class="cls-4" d="M180.95,202.81c-.12,1.4-.86,3.01-1.46,4.24l-.34.68c-.11.2-.22.41-.33.61t0,0l-1.4,2.32c-.3.44-.61.86-.95,1.26l.03-.7c.02-.45-.28-.85-.71-.97h0c-.88-.22-1.55-.37-2.02-.48-1-.23-2.03-.35-3.05-.34-.72,0-1.44.08-2.16.21.96,3.05,2.53,6.09,4.84,8.27l-.04,1.14c-.03.76.06,1.49.18,2.27-4.77-3.3-7.36-7.88-8.82-13.39.46-.24.92-.39,1.42-.51,1.16-.27,2.33-.38,3.49-.44l.32-.02c.92-.03,1.83-.03,2.75,0,.64.05,1.23.1,1.87.23,0,0,.83.12,1.9.38.43-.72.8-1.48,1.1-2.27-3-.77-6.35-.95-9.29-.06l-1.04-.72c-.57-.4-1.18-.68-1.84-.95,5.12-2.47,10.21-2.41,15.56-.79Z"/>
      <path class="cls-4" d="M168.28,206.47c-1.22.07-2.35.24-3.51.59l-.18-2.27c.78.09,1.5.35,2.19.71.52.29,1,.6,1.5.97Z"/>
      <path class="cls-4" d="M182.3,205.85c-.55.33-1.06.61-1.67.86.53-1.07.96-2.14,1.24-3.33l2.07.98c-.47.61-1,1.08-1.64,1.49Z"/>
      <path class="cls-4" d="M174.49,220.14c.12.45.24.86.43,1.3l1.77-1.35c-.91-.87-1.65-1.79-2.33-2.81-.05.7-.05,1.37.01,2.06l.11.79Z"/>
    </g>
  </g>
</svg>