<?xml version="1.0" encoding="UTF-8"?>
<svg id="Calque_1" data-name="Calque 1" xmlns="http://www.w3.org/2000/svg" viewBox="0 0 265.82 265.55">
  <defs>
    <style>
      .cls-1 {
        fill: #741f12;
      }

      .cls-2 {
        fill: #722015;
      }

      .cls-3 {
        fill: #c05d34;
      }

      .cls-4 {
        fill: #6d2211;
      }

      .cls-5 {
        fill: #213655;
      }

      .cls-6 {
        fill: #be5e35;
      }

      .cls-7 {
        fill: #bf5a2e;
      }

      .cls-8 {
        fill: #bd5a30;
      }

      .cls-9 {
        fill: #93290c;
      }

      .cls-10 {
        fill: #be5c32;
      }

      .cls-11 {
        fill: #c25f34;
      }

      .cls-12 {
        fill: #be5c33;
      }

      .cls-13 {
        fill: #935e3a;
      }

      .cls-14 {
        fill: #764421;
      }

      .cls-15 {
        fill: #9f3c24;
      }

      .cls-16 {
        fill: #9e4632;
      }

      .cls-17 {
        fill: #1c3256;
      }

      .cls-18 {
        fill: #ba5a33;
      }

      .cls-19 {
        fill: #bd5c34;
      }

      .cls-20 {
        fill: #bb5932;
      }

      .cls-21 {
        fill: #263450;
      }

      .cls-22 {
        fill: #d6ecf9;
      }

      .cls-23 {
        fill: #6a201a;
      }

      .cls-24 {
        fill: #be5b31;
      }

      .cls-25 {
        fill: #ed9885;
      }

      .cls-26 {
        fill: #63391d;
      }

      .cls-27 {
        fill: #9f3c23;
      }

      .cls-28 {
        fill: #ffdfd7;
      }

      .cls-29 {
        fill: #9c3b24;
      }
    </style>
  </defs>
  <g>
    <path class="cls-22" d="M85.9,161.43c-.1,2.18-.79,3.65-1.07,5.3-1.72,10.35-4.55,20.51-8.59,30.34l-5.54,13.51c-1.87-3.95-2.82-7.87-3.73-11.99-.1-.45-.85-.38-1.11-.27-1.27.55-.9,3.93-.64,4.89.98,3.74,1.98,7.46,3.29,11.26,1.83,5.28-3.45,9.66,2.71,27.35l1.35,3.87c-4.12-2.04-7.52-4.25-10.93-6.55-5.51-3.71-10.71-7.79-15.65-12.41-.9-.85-1.81-1.5-2.3-2.52-1.05-.18-1.2-1.14-1.24-2.21l-.49-12.61c-.32-8.34.59-16.5,3.42-24.32,4.03-11.15,12.56-16.34,23.8-18.58,5.78-1.15,11.21-2.71,16.7-5.06Z"/>
    <path class="cls-22" d="M188.67,248.06c-6.02,3.04-12.11,5.27-18.33,7.17-25.33,7.75-50.7,7.32-76-.25-5.82-1.74-11.42-4.16-17.01-6.82-5.28-9.95-7.56-20.42-5.02-31.32.86-3.69,2.11-7.14,3.6-10.62,3.79-8.89,7.21-17.81,9.54-27.38,1.56-6.39,2.77-12.51,3.96-18.96l7.1-3.29c.29,1.24-.18,2.16-.19,3.08-.18,10.25.17,21.14,5.09,30.69,3.42,6.63,8.63,11.82,15.46,14.94,8.1,3.71,17.06,4.42,25.7,2.3,10.32-2.54,18.46-9.39,22.76-19.08,2.3-5.18,3.36-10.49,3.88-16.15.39-4.31.24-8.48.27-12.66.01-.98-.44-1.91-.18-3.11l7.15,3.38c1.61,8.51,3.2,16.6,5.53,24.82,1.99,7.05,4.81,13.51,7.42,20.15,2.16,3.61,3.25,8.17,4.22,12.2,2.47,10.25,0,21.53-4.94,30.93Z"/>
    <path class="cls-22" d="M223.78,213.02l-.42,10.2-2.28,2.04c-4.96,5.26-10.99,9.88-17.06,13.82-3.45,2.23-6.73,4.68-10.75,6.6,3.6-8.8,5.32-17.17,3.83-26.56-.39-1.79-.21-3.5.35-5.24,1.43-4.41,3.73-10.56,3.2-14.82-.18-.23-.39-.64-.67-.72-.25-.07-.92-.16-1.03.27-1.03,4.18-1.92,8.23-3.67,12.19l-7.31-17.76c-3.59-8.72-5.6-17.83-7.19-26.95-.25-1.45-.93-2.79-.79-4.63,5.58,2.46,11.14,3.97,16.99,5.13,8.59,1.7,16.5,5.52,21.05,13.21,5.6,9.47,6.19,22.48,5.75,33.21Z"/>
    <path class="cls-22" d="M252.06,180c-5.76,14.72-14.81,27.92-25.29,39.87l.25-14.37c.13-7.36-1.08-14.5-3.58-21.43-4.33-12.03-13.28-17.87-25.49-20.37-6.47-1.33-12.5-3.07-18.57-5.78-4.11-1.84-8.17-3.47-11.82-5.61-.67.55-2.76,2.05-2.52,2.65.38.21,1.02.46,1.08,1.1.29,3.1.33,6.06.31,9l-.03,5.53c0,.22-.08.39-.25.35-.66,13.04-5.89,25.84-18.59,31.64-3.14,1.44-6.35,2.17-9.59,2.7-.14.02-.27.04-.4.06h0c-1.9.28-3.76.32-5.67.27h-.06c-8.09-.23-15.99-3.02-21.96-8.8-7.39-7.15-10.1-18.29-10.38-28.05-.04-1.36-.74-7.59-.03-8.48-.02-.81-.1-5.24,1.02-5.24.21-1.29-1.24-1.75-1.99-2.52l-11.54,5.22c-12.42,5.61-17.73,4.7-27.82,8.7-7.4,2.93-12.96,8.56-16.02,15.97-2.58,6.25-4.09,12.78-4.07,19.56l.05,18.03c-8.3-9.49-15.73-19.28-21.07-30.28C-3.05,146.27,1.31,95.57,29.98,56.4c15.61-21.31,37.67-37.26,62.85-45.4C125.54.45,161.19,3.16,191.76,18.92c8.29,4.27,16.02,9.31,23.16,15.31,27.44,23.08,44.33,57.23,45.74,93.14.71,18.06-2.05,35.91-8.59,52.64Z"/>
    <path class="cls-22" d="M265.43,137.64c.06-2.9-.3-5.83,0-8.73,0,.07,0,.18.01.33.1,1.62.58,7.53-.02,8.4Z"/>
    <g>
      <path class="cls-28" d="M252.06,180c-5.76,14.72-14.81,27.92-25.29,39.87l.25-14.37c.13-7.36-1.08-14.5-3.58-21.43-4.33-12.03-13.28-17.87-25.49-20.37-6.47-1.33-12.5-3.07-18.57-5.78-4.11-1.84-8.17-3.47-11.82-5.61.21-1.04.85-2.01,1.91-2.91.98-1.57,2.12-2.88,3.43-3.95l.53.42c2.18,4.43,5.89,7.72,10.81,8.64-1.6-2.53-4.7-10.16-3.55-12.87.38-.9.76-.71,1.58-.21,2.65,2.31,5.98,4.12,9.58,3.91-4.85-4.95-5.33-10.51-4.57-16.99.16-1.38,1.37-10.2,1.66-10.65.46-.71.85-.37,1.38.26.35,1.87.51,3.75.5,5.66,7.43-12.84,2.04-26.76-3.53-38.69-2.41-7.46-4.56-15.03-6.43-22.71-4.11-13.75-9.41-23.78-21.84-31.92-9.69-6.34-22.95-9.78-34.36-7.05-6.8,1.63-9.8,4.28-14.27,9.09-16.05,2.99-22.16,19.17-25.96,33.41-2.57,11.81-5.27,23.13-10.71,33.87-3.14,8.22-4.03,17.31.78,25.01.54-4.49.81-6.74.81-6.74.42-1.31,1.08-3.37,2.04-1.68.47,4.99,1.15,9.95,2.03,14.85.37,5.37-1.21,10.23-4.85,14.23,3.74.1,6.94-1.45,9.73-3.83.59-.37.79-.15,1.05.46,1.15,2.68-1.83,9.93-3.25,12.51,4.41-1.09,8.18-3.87,10.12-8.03l.95-.93c1.72,1.89,3.42,3.84,5.1,5.84l.26,1.2-11.54,5.22c-12.42,5.61-17.73,4.7-27.82,8.7-7.4,2.93-12.96,8.56-16.02,15.97-2.58,6.25-4.09,12.78-4.07,19.56l.05,18.03c-8.3-9.49-15.73-19.28-21.07-30.28C-3.05,146.27,1.31,95.57,29.98,56.4c15.61-21.31,37.67-37.26,62.85-45.4C125.54.45,161.19,3.16,191.76,18.92c8.29,4.27,16.02,9.31,23.16,15.31,27.44,23.08,44.33,57.23,45.74,93.14.71,18.06-2.05,35.91-8.59,52.64Z"/>
      <g>
        <path class="cls-21" d="M265.35,125.35c.35-.64-.08-1.61-.21-2.3-.03-.1-.04-.2-.05-.29-.67-12.65-4.37-28.77-9.55-40.39l-.62-1.4c-7.72-17.32-18.52-33.76-32.65-46.63C182.7-1.73,124.65-10.01,76.28,12.47c-27.35,12.71-49.21,34.49-62.49,61.45-17.78,36.12-18.34,78.85-1.19,115.06,6.78,14.31,15.87,27.45,27.3,38.62,22.91,22.41,52.9,35.67,84.64,37.69,57.51,3.66,112.59-30,131.78-83.66l1.31-3.65c2.34-6.58,4.32-13.07,5.54-19.99,1.21-6.88,2.13-13.56,2.27-20.34.06-2.9-.3-5.83,0-8.73l-.09-3.55ZM61.66,239.14c-5.51-3.71-10.71-7.79-15.65-12.41-.9-.85-1.81-1.5-2.3-2.52-1.05-.18-1.2-1.14-1.24-2.21l-.49-12.61c-.32-8.34.59-16.5,3.42-24.32,4.03-11.15,12.56-16.34,23.8-18.58,5.78-1.15,11.21-2.71,16.7-5.06-.1,2.18-.79,3.65-1.07,5.3-1.72,10.35-4.55,20.51-8.59,30.34l-5.54,13.51c-1.87-3.95-2.82-7.87-3.73-11.99-.1-.45-.85-.38-1.11-.27-1.27.55-.9,3.93-.64,4.89.98,3.74,1.98,7.46,3.29,11.26,1.83,5.28-3.45,9.66,2.71,27.35l1.35,3.87c-4.12-2.04-7.52-4.25-10.93-6.55ZM170.34,255.23c-25.33,7.75-50.7,7.32-76-.25-5.82-1.74-11.42-4.16-17.01-6.82-5.28-9.95-7.56-20.42-5.02-31.32.86-3.69,2.11-7.14,3.6-10.62,3.79-8.89,7.21-17.81,9.54-27.38,1.56-6.39,2.77-12.51,3.96-18.96l7.1-3.29c.29,1.24-.18,2.16-.19,3.08-.18,10.25.17,21.14,5.09,30.69,3.42,6.63,8.63,11.82,15.46,14.94,8.1,3.71,17.06,4.42,25.7,2.3,10.32-2.54,18.46-9.39,22.76-19.08,2.3-5.18,3.36-10.49,3.88-16.15.39-4.31.24-8.48.27-12.66.01-.98-.44-1.91-.18-3.11l7.15,3.38c1.61,8.51,3.2,16.6,5.53,24.82,1.99,7.05,4.81,13.51,7.42,20.15,2.16,3.61,3.25,8.17,4.22,12.2,2.47,10.25,0,21.53-4.94,30.93-6.02,3.04-12.11,5.27-18.33,7.17ZM223.78,213.02l-.42,10.2-2.28,2.04c-4.96,5.26-10.99,9.88-17.06,13.82-3.45,2.23-6.73,4.68-10.75,6.6,3.6-8.8,5.32-17.17,3.83-26.56-.39-1.79-.21-3.5.35-5.24,1.43-4.41,3.73-10.56,3.2-14.82-.18-.23-.39-.64-.67-.72-.25-.07-.92-.16-1.03.27-1.03,4.18-1.92,8.23-3.67,12.19l-7.31-17.76c-3.59-8.72-5.6-17.83-7.19-26.95-.25-1.45-.93-2.79-.79-4.63,5.58,2.46,11.14,3.97,16.99,5.13,8.59,1.7,16.5,5.52,21.05,13.21,5.6,9.47,6.19,22.48,5.75,33.21ZM252.06,180c-5.76,14.72-14.81,27.92-25.29,39.87l.25-14.37c.13-7.36-1.08-14.5-3.58-21.43-4.33-12.03-13.28-17.87-25.49-20.37-6.47-1.33-12.5-3.07-18.57-5.78-4.11-1.84-8.17-3.47-11.82-5.61-.67.55-2.76,2.05-2.52,2.65.38.21,1.02.46,1.08,1.1.29,3.1.33,6.06.31,9l-.03,5.53c0,.22-.08.39-.25.35-.66,13.04-5.89,25.84-18.59,31.64-3.14,1.44-6.35,2.17-9.59,2.7-.14.03-.27.05-.4.06h0c-1.9.28-3.76.32-5.67.27h-.06c-8.09-.23-15.99-3.02-21.96-8.8-7.39-7.15-10.1-18.29-10.38-28.05-.04-1.36-.74-7.59-.03-8.48-.02-.81-.1-5.24,1.02-5.24.21-1.29-1.24-1.75-1.99-2.52l-11.54,5.22c-12.42,5.61-17.73,4.7-27.82,8.7-7.4,2.93-12.96,8.56-16.02,15.97-2.58,6.25-4.09,12.78-4.07,19.56l.05,18.03c-8.3-9.49-15.73-19.28-21.07-30.28C-3.05,146.27,1.31,95.57,29.98,56.4c15.61-21.31,37.67-37.26,62.85-45.4C125.54.45,161.19,3.16,191.76,18.92c8.29,4.27,16.02,9.31,23.16,15.31,27.44,23.08,44.33,57.23,45.74,93.14.71,18.06-2.05,35.91-8.59,52.64Z"/>
        <path class="cls-17" d="M259.35,147.33c5.52-51.08-19.41-101.29-64.69-126.14C152.42-1.99,100.19.32,60.5,27.65,18.71,56.45-1.93,107.97,7.95,157.75c2.13,10.72,5.52,19.37,9.58,29.4.33.81.43,1.7.5,2.56C-3.05,146.27,1.31,95.57,29.98,56.4c15.61-21.31,37.67-37.26,62.85-45.4C125.54.45,161.19,3.16,191.76,18.92c8.29,4.27,16.02,9.31,23.16,15.31,27.44,23.08,44.33,57.23,45.74,93.14.71,18.06-2.05,35.91-8.59,52.64,0-.86.03-1.74.28-2.57,3.23-10.36,5.83-19.2,7.01-30.11Z"/>
        <path class="cls-17" d="M265.43,137.64c.06-2.9-.3-5.83,0-8.73,0,.07,0,.18.01.33.11,2.81.1,5.61-.02,8.4Z"/>
        <path class="cls-5" d="M265.43,137.64c.06-2.9-.3-5.83,0-8.73,0,.07,0,.18.01.33.1,1.62.58,7.53-.02,8.4Z"/>
      </g>
      <g>
        <g>
          <g>
            <path class="cls-5" d="M85.9,161.43c-.1,2.18-.79,3.65-1.07,5.3-1.72,10.35-4.55,20.51-8.59,30.34l-5.54,13.51c-1.87-3.95-2.82-7.87-3.73-11.99-.1-.45-.85-.38-1.11-.27-1.27.55-.9,3.93-.64,4.89.98,3.74,1.98,7.46,3.29,11.26,1.83,5.28-3.45,9.66,2.71,27.35l1.35,3.87c-4.12-2.04-7.52-4.25-10.93-6.55-5.51-3.71-10.71-7.79-15.65-12.41-.9-.85-1.81-1.5-2.3-2.52-1.05-.18-1.2-1.14-1.24-2.21l-.49-12.61c-.32-8.34.59-16.5,3.42-24.32,4.03-11.15,12.56-16.34,23.8-18.58,5.78-1.15,11.21-2.71,16.7-5.06Z"/>
            <path class="cls-5" d="M98.49,152.5l-11.54,5.22c-12.42,5.61-17.73,4.7-27.82,8.7-7.4,2.93-12.96,8.56-16.02,15.97-2.58,6.25-4.09,12.78-4.07,19.56l.05,18.03c-8.3-9.49-15.73-19.28-21.07-30.28l1.54,1.63c5.02,9.84,11.81,18.59,18.88,27.03v-18.7c1.75-17.26,7.91-31.31,25.93-35.72,11.7-2.27,22.83-6.71,33.32-11.79l.8.34Z"/>
            <path class="cls-5" d="M99.49,168.74c-.04-1.36-.74-7.59-.03-8.48-.02.18-.05.61-.08,1.13-.03.38-.05.77-.05,1.16,0,.06,0,.13,0,.19-.01.77,0,1.55.04,2.32.04.03.08.07.11.11.03.02.05.05.07.08.09.12.17.26.25.42.45,1.02.5,2.73-.29,3.06Z"/>
            <path class="cls-5" d="M100.48,155.02c-.21,1.59-.33,3.21-.38,4.87l-.64.38c-.02-.81-.1-5.24,1.02-5.24Z"/>
            <path class="cls-5" d="M100.63,154.93c-.05.03-.1.05-.16.09.21-1.29-1.24-1.75-1.99-2.52,1.1-.62,3.37,1.59,2.15,2.43Z"/>
            <path class="cls-5" d="M131.84,205.6c-8.09-.23-15.99-3.02-21.96-8.8-7.39-7.15-10.1-18.29-10.38-28.05l.68,1.06c.27,18.21,11.18,34.32,30.52,35.1l1.14.7Z"/>
            <path class="cls-5" d="M137.57,205.33c-1.9.28-3.76.32-5.67.27h-.06c.3-.13.61-.24.92-.33h0c.23-.08.46-.14.71-.18.85-.19,1.77-.27,2.74-.25.05,0,.1,0,.16,0,.08.1.16.18.25.25.13.1.25.17.41.21h.02c.16.04.33.05.51.04Z"/>
            <path class="cls-5" d="M166.16,170.93c-.66,13.04-5.89,25.84-18.59,31.64-3.14,1.44-6.35,2.17-9.59,2.7l.96-.82c16.45-2.24,25.76-16.71,26.51-32.43l.71-1.09Z"/>
            <path class="cls-5" d="M166.44,165.05l-.03,5.53c0,.22-.08.39-.25.35.1-.37.18-.9.14-1.36v-.07c-.03-.29-.11-.53-.25-.72t0-.01c-.05-.07-.1-.12-.17-.16h0s-.06-.05-.1-.07c-.02-.14-.03-.31-.05-.51-.08-.98-.06-2.47.53-2.9.06-.03.12-.05.18-.08Z"/>
            <path class="cls-5" d="M166.44,165.05l-.42-.74c-.02-3.34-.34-6.47-.96-9.36.38.21,1.02.46,1.08,1.1.29,3.1.33,6.06.31,9Z"/>
            <path class="cls-5" d="M165.05,154.96c-1.48-.53,1.59-3.42,2.52-2.65-.67.55-2.76,2.05-2.52,2.65Z"/>
            <path class="cls-5" d="M188.67,248.06c-6.02,3.04-12.11,5.27-18.33,7.17-25.33,7.75-50.7,7.32-76-.25-5.82-1.74-11.42-4.16-17.01-6.82-5.28-9.95-7.56-20.42-5.02-31.32.86-3.69,2.11-7.14,3.6-10.62,3.79-8.89,7.21-17.81,9.54-27.38,1.56-6.39,2.77-12.51,3.96-18.96l7.1-3.29c.29,1.24-.18,2.16-.19,3.08-.18,10.25.17,21.14,5.09,30.69,3.42,6.63,8.63,11.82,15.46,14.94,8.1,3.71,17.06,4.42,25.7,2.3,10.32-2.54,18.46-9.39,22.76-19.08,2.3-5.18,3.36-10.49,3.88-16.15.39-4.31.24-8.48.27-12.66.01-.98-.44-1.91-.18-3.11l7.15,3.38c1.61,8.51,3.2,16.6,5.53,24.82,1.99,7.05,4.81,13.51,7.42,20.15,2.16,3.61,3.25,8.17,4.22,12.2,2.47,10.25,0,21.53-4.94,30.93Z"/>
            <path class="cls-5" d="M223.78,213.02l-.42,10.2-2.28,2.04c-4.96,5.26-10.99,9.88-17.06,13.82-3.45,2.23-6.73,4.68-10.75,6.6,3.6-8.8,5.32-17.17,3.83-26.56-.39-1.79-.21-3.5.35-5.24,1.43-4.41,3.73-10.56,3.2-14.82-.18-.23-.39-.64-.67-.72-.25-.07-.92-.16-1.03.27-1.03,4.18-1.92,8.23-3.67,12.19l-7.31-17.76c-3.59-8.72-5.6-17.83-7.19-26.95-.25-1.45-.93-2.79-.79-4.63,5.58,2.46,11.14,3.97,16.99,5.13,8.59,1.7,16.5,5.52,21.05,13.21,5.6,9.47,6.19,22.48,5.75,33.21Z"/>
            <path class="cls-5" d="M226.77,219.88l.25-14.37c.13-7.36-1.08-14.5-3.58-21.43-4.33-12.03-13.28-17.87-25.49-20.37-6.47-1.33-12.5-3.07-18.57-5.78-4.11-1.84-8.17-3.47-11.82-5.61l1.54.13c10.3,5.41,21.15,9.31,32.59,11.5,19.17,5.28,24.46,19.5,25.94,38.16l-.18,16.01c9.78-11.14,17.8-23.69,23.8-37.23l.81-.88c-5.76,14.72-14.81,27.92-25.29,39.87Z"/>
            <g>
              <g>
                <path class="cls-14" d="M84.84,166.73c-1.72,10.35-4.55,20.51-8.59,30.34l-5.54,13.51c-1.87-3.95-2.82-7.87-3.73-11.99-.1-.45-.85-.38-1.11-.27-1.27.55-.9,3.93-.64,4.89-.1.92-.06,1.88.12,2.88-.75,10.79-1.6,21.53-2.54,32.2-.09.84-.32,1.37-1.16.85-5.51-3.71-10.71-7.79-15.65-12.41-.9-.85-1.81-1.5-2.3-2.52-.21-.09-.34-.26-.41-.47-.54-1.78-.14-9.49-.01-11.72,1.09-18.18,2.67-35.25,22.91-41.52,5.81-1.39,11.52-3.11,17.12-5.17,1.16-.62,1.66-.16,1.51,1.39Z"/>
                <path class="cls-14" d="M221.08,225.26c-4.96,5.26-10.99,9.88-17.06,13.82l-.66-.17-2.71-33.19c.25-2.3.25-4.53,0-6.67-.18-.23-.39-.64-.67-.72-.25-.07-.92-.16-1.03.27-1.03,4.18-1.92,8.23-3.67,12.19l-7.31-17.76c-3.59-8.72-5.6-17.83-7.19-26.95-.22-1.08.11-1.47.98-1.19,5.74,2.26,11.64,4.07,17.7,5.43,22.58,6.92,23.3,29.42,23.2,49.66.33,2.33.26,3.6-1.58,5.28Z"/>
                <path class="cls-13" d="M85.9,161.43c-.1,2.18-.79,3.65-1.07,5.3-.16-.31-.16-.67-.52-1.09-5.33,2.15-10.57,3.58-16.12,4.99-21.59,5.46-23.97,24.36-24.31,43.61l-.18,9.97c-1.05-.18-1.2-1.14-1.24-2.21l-.49-12.61c-.32-8.34.59-16.5,3.42-24.32,4.03-11.15,12.56-16.34,23.8-18.58,5.78-1.15,11.21-2.71,16.7-5.06Z"/>
                <path class="cls-13" d="M223.78,213.02l-.42,10.2-2.28,2.04c1.95-3.43.9-.99.92-6.17.04-11.3-.1-21.81-4.48-32.29-3.92-9.37-10.86-14.07-20.47-16.46-5.18-1.29-10.17-2.54-15.08-4.66-.33-.14-.73-.35-.98-.08-.11.11-.15.29-.22.49-.25-1.45-.93-2.79-.79-4.63,5.58,2.46,11.14,3.97,16.99,5.13,8.59,1.7,16.5,5.52,21.05,13.21,5.6,9.47,6.19,22.48,5.75,33.21Z"/>
                <path class="cls-26" d="M193.27,245.68c3.6-8.8,5.32-17.17,3.83-26.56-.39-1.79-.21-3.5.35-5.24,1.43-4.41,3.73-10.56,3.2-14.82.16.22.5.42.44.93-.31,2.46.15,4.66.35,7.11l2.58,31.99c-3.45,2.23-6.73,4.68-10.75,6.6Z"/>
                <path class="cls-26" d="M72.59,245.69c-4.12-2.04-7.52-4.25-10.93-6.55.59-.26.49-.93.55-1.61l.94-10.5,1.74-23.43c.02-.33.05-.59.35-.4.98,3.74,1.98,7.46,3.29,11.26,1.83,5.28-3.45,9.66,2.71,27.35l1.35,3.87Z"/>
              </g>
              <g>
                <path class="cls-4" d="M188.67,248.06c-6.02,3.04-12.11,5.27-18.33,7.17-4.22.34-8.45.01-12.69-.98-13.32-3.4-26.68-5.09-40.18-1.91-6.32,1.65-12.71,2.71-19.2,3.15-1.38-.3-2.69-.46-3.93-.51-5.82-1.74-11.42-4.16-17.01-6.82-5.28-9.95-7.56-20.42-5.02-31.32.25,8.02,4.4,16.91,11.22,21.83,11.87,8.57,25.59,5.67,38.96,2.74,16.07-3.51,23.55,1.76,38.1,2.84,15.04,1.13,27.67-6.02,31.85-20.7.64-2.24,1.24-4.27,1.17-6.42,2.47,10.25,0,21.53-4.94,30.93Z"/>
                <path class="cls-9" d="M170.34,255.23c-25.33,7.75-50.7,7.32-76-.25.26-.73,1.08-.1,1.7-.09,5.69.07,11.13-.92,16.7-2.2,15.4-3.54,24.97-3.73,40.46-.03,5.83,1.39,11.46,2.05,17.14,2.58Z"/>
                <g>
                  <path class="cls-9" d="M185.37,236.91c-8.79,8.52-19.89,8.88-31.32,7.21-5.96-1.32-11.96-2.37-17.99-3.14-6.88-.18-13.73.66-20.53,2.54-12.45,2.17-24.74,2.97-34.75-6.28-5.26-4.86-9.43-13.17-8.48-20.41.86-3.69,2.11-7.14,3.6-10.62,2.67-5.28,5.33-10.97,8.01-17.06,3.06-8.98,5.26-18.18,6.62-27.62l2.88-1.5c1.17-.79,2.13-.92,2.89-.39-.18,10.25.17,21.14,5.09,30.69,3.42,6.63,8.63,11.82,15.46,14.94,8.1,3.71,17.06,4.42,25.7,2.3,10.32-2.54,18.46-9.39,22.76-19.08,2.3-5.18,3.36-10.49,3.88-16.15.39-4.31.24-8.48.27-12.66.16-.21.4-.51.59-.45.93.27,4.72,1.86,5.13,2.46l2.99,15c2.43,9.87,6.17,19.28,11.21,28.23,2.16,3.61,3.25,8.17,4.22,12.2.85,6.97-3.27,14.96-8.24,19.78Z"/>
                  <g>
                    <path class="cls-16" d="M96.31,159.65c-1.82.43-3.39,1.44-5.28,2.21-1.81,11.19-3.96,23.45-9.18,33.49l-5.52,10.6c-.08.16-.08.42-.25.53-.08.05-.21-.12-.18-.27,3.79-8.89,7.21-17.81,9.54-27.38,1.56-6.39,2.77-12.51,3.96-18.96l7.1-3.29c.29,1.24-.18,2.16-.19,3.08Z"/>
                    <path class="cls-16" d="M189.38,204.93c-2.67-4.45-5.47-9.02-7.54-14.17-2.42-6.01-4.03-12.06-5.24-18.4l-2-10.51-5.14-2.16c.01-.98-.44-1.91-.18-3.11l7.15,3.38c1.61,8.51,3.2,16.6,5.53,24.82,1.99,7.05,4.81,13.51,7.42,20.15Z"/>
                  </g>
                </g>
              </g>
            </g>
          </g>
          <g>
            <path class="cls-14" d="M162.27,101.11c.11.29.21.58.27.87s.11.57.06.83c-.84,4.87-1.81,10.3-3.63,14.84-2.43,6.05-12.43,15.2-17.98,18.58-7.75,4.73-14.79,1.55-21.21-3.75-4.9-4.05-12.04-10.64-13.72-16.86-2.19-8.11-3.95-16.47-4.94-24.82l.2-1.4c-.17-1.02-.16-2.09.12-2.81,2.65-5.1,4.97-10.41,6.96-15.92,4.19-9.35,9.52-16.68,20.73-15,15.33,2.29,21.56,16.73,26.66,29.67,2.35,4.33,4.5,8.68,6.45,13.05l.03,2.7Z"/>
            <path class="cls-21" d="M101.33,89.41c1.41,8.39,2.89,16.76,5.1,25.12.92,3.51,2.53,6.35,5,8.95,4.24,4.46,8.46,8.82,13.73,12.14,5.5,3.46,12.51,2.65,17.53-1.29,4.73-3.71,8.91-7.61,12.79-12.15,1.84-2.14,2.98-4.54,3.78-7.25,1.35-4.54,2.11-9.04,3.02-13.82-.07-2.73.19-5.93.85-8.59.11-.45.44-.81.76-1.14,1.17-.98,2.79,1.96,2.63,3.59.14.22.27.44.36.68s.17.46.14.65c-.44,2.77-.91,5.53-1.56,8.26,1.33-.67,2.03-2.15,2.47-3.51l.74-.24c.57-.08,1.26.08,1.46.86.23.94.48,2.22-.05,3.14-2.12,3.68-5.86,3.62-6.24,4.94-.91,3.13-1.57,6.24-2.74,9.35-1,2.68-3.05,4.57-4.57,6.98-1.28,2.04-.78,12.16-.35,15.13.19,1.3,2.4,7.28-.67,6.54-2.14-2.1-2.84-8.55-2.89-11.41l-.65-.74-.02-4.4c-2.84,2.68-5.86,5.13-9.04,7.35-10.75,6.86-21.26.79-29.09-7.54v4.75s-.66.9-.66.9c-.11,3.66-.62,8.48-2.99,11.34-.94.16-1.96-1.2-1.61-2.33,1.28-4.12,1.88-8.18,1.67-12.57-.12-2.5.14-4.98-.8-7.31-4.75-5.26-5.54-8.72-7.1-15.49-.27-1.17-1.14-1.42-2.17-1.8-2.47-.92-4.54-3.05-5.21-5.62-.15-.56.08-3.93,1.67-3.38l.72.14c.58,1.81,1.35,3.73,2.94,4.88l-1.63-9.74.43-1.74c-.08-.68,1.2-4.87,2.28-3.65Z"/>
            <path class="cls-26" d="M163.88,91.37c-.27,3.47-1.01,6.6-1.61,9.73.1-1.77-3.11-7.87-4.19-9.83-2.36-4.29-4.29-8.57-6.15-13.11s-3.8-8.56-6.8-12.31c-1.09-1.36-2.35-2.4-3.64-3.55-2.91-2.61-6.21-4.46-10.06-5.45-3.18-.82-6.59-1.33-9.79-.24-3.94,1.34-6.91,4.29-9.17,7.69-4.45,6.68-5.37,13.66-10.03,21.37-.29.47-.45.94-1,.93,1.28-3.3,2.25-6.36,2.92-9.73,1.95-9.9,4.82-19.13,15.53-22.49,4.82,1.08,9.44.92,14.21-.19,3.37-.79,6.7-.96,9.99.06,4.44,1.34,6,4.24,7.52,8.6l4.27,12.31c1.68,4.85,3.96,9.22,6.98,13.38.66.9,1.16,1.78,1.02,2.83Z"/>
            <path class="cls-26" d="M99.05,93.05c.48,4.15,1.27,8.19,2.16,12.6-2.7-.63-4.02-4.07-4.62-6.15-.46-1.6,1.52-5.45,2.46-6.45Z"/>
            <path class="cls-26" d="M168.66,100.81c-.55,2.12-1.76,4.24-4.12,4.93.79-3.76,1.63-7.23,1.97-10.77.25-.21.12-.51.41-1.01l1.5,2.26c.78,1.18.6,3.2.24,4.6Z"/>
            <path class="cls-26" d="M152.6,136.34c-2.63,4.35-5.76,8.58-9.86,11.76-5,3.87-11.28,4.03-16.49.59-5.76-3.81-8.13-7.98-12.61-12.49-.16.28-.35.37-.51.47.07-2.3.07-4.52-.04-7.19,2.9,2.7,5.58,5.19,8.68,7.53,6.48,4.89,14.87,5.11,21.57.46,3.29-2.28,6.07-4.97,9.17-7.64.26,2.36.04,4.43.07,6.51Z"/>
            <g>
              <path class="cls-14" d="M145.65,170.78c6.46-.83,12.96-1.74,19.49-2.71.21-.02.41-.03.58-.03.27,0,.46.03.51.14.08.17.1.75.07,1.33v.07c-.02.55-.08,1.12-.14,1.36-.66,13.04-5.89,25.84-18.59,31.64-3.14,1.44-6.35,2.17-9.59,2.7l-.92.02h-.85c0-.14,0-.3.01-.46.09-2.59.83-5.11,2.23-7.55-2.2,2.15-4.01,4.9-4.97,7.8-.03.08-.05.16-.08.23l-1.56.29c-8.09-.23-15.99-3.02-21.96-8.8-7.39-7.15-10.1-18.29-10.38-28.05l1.24-.49c6.49.81,12.96,1.64,19.39,2.48l2.95,1.2c-.93-1.46-2.76-2.84-4.49-3.13-6.04-.72-12.08-1.63-18.11-2.71-.25-.1-.47-.24-.7-.4-.14-.1-.28-.2-.42-.31-.11-.09-.1-1.36-.05-2.62,0-.06,0-.13,0-.19.01-.4.03-.8.05-1.16.03-.53.05-.95.08-1.13-.02-.81-.1-5.24,1.02-5.24.05-.03.1-.06.16-.09.53-.24,1.09-.03,1.67.34,4.22,2.77,9.02,4.19,14.04,4.79-1.34-1.84-7.14-10.91-6.19-12.05l-.14-.87c1.92-2.91,2.3-6.49,2.47-9.88l.67-.59c.16-.66.27-1.01.67-.91.14.03.33.12.57.29l7.3,8.06c12.27,11.84,21.54,5.91,29.76-7.1l1.16-.66.66.36c-.03,3.75.79,7.2,2.47,10.34l-.23.7c1.37,1.35-4.63,10.43-6,12.12,5.99.01,10.61-2.88,15.56-4.92.38.21,1.02.46,1.08,1.1.29,3.1.33,6.06.31,9-.06.03-.12.05-.18.08-2.84,1.35-5.94,2.14-9.31,2.37-3.86.2-7.49.8-10.9,1.8-2.02,1.07-4.53,3.36-.39,1.46Z"/>
              <path class="cls-26" d="M124.46,173.39c-2.37-1.18-4.51-2.39-7.08-2.57-6.83-.49-11.4-1.24-17.88-2.08-.04-1.36-.74-7.59-.03-8.48.04,1.55.11,3.07.01,4.92v.07s.05,0,.07.01c5.9,1.07,11.71,2.04,17.77,2.66,3.35.33,6.16,2.28,7.14,5.48Z"/>
              <path class="cls-26" d="M166.44,165.05l-.03,5.53c0,.22-.08.39-.25.35.03-.64-.05-1.31-.11-2.15t0-.01c0-.06,0-.13-.01-.19-.05,0-.1.01-.16.03h0c-5.62.84-10.94,1.88-16.57,2.17-2.82.15-5.33,1.11-7.57,2.52,1.22-3.68,4.23-5.17,7.76-5.52,5.8-.57,11.42-1.47,16.95-2.73Z"/>
              <path class="cls-26" d="M136.62,205.08c.58.22.99.14,1.35.19-.14.02-.27.04-.4.06h0c-1.9.28-3.76.32-5.67.27.23,0,.47-.03.68-.12.01,0,.02-.01.03-.02.08-.04.12-.11.14-.19h0c.05-.18,0-.43.1-.66,1.72-4.03,4.22-7.64,7.69-9.97-1.93,3.58-3.53,6.71-3.93,10.44Z"/>
              <path class="cls-26" d="M134.56,176.5c-2.76,1.46-4.55-.89-5.93-3.06,3.92.56,4.3,1.76,8.65-.56-.32,1.62-1.38,2.91-2.71,3.62Z"/>
            </g>
          </g>
        </g>
        <g>
          <path class="cls-23" d="M193.3,145.89c-4.61.66-8.47-1.24-12.04-4.5-.33,4.95,1.57,9.69,4.27,13.98-5.73-.66-10.39-4.08-12.67-9.49-1.74,2.39-3.2,4.7-5.3,6.43-.67.55-2.76,2.05-2.52,2.65l-.51.92c-2.54,1.44-12.17,5.41-14.67,4.62-.79-.25-.8-.58-.63-1.36,2.68-3.36,4.61-6.99,5.8-10.91l.44-.47c.63-.42.95-.93.97-1.55-1.06-5.16-1.67-10.28-1.37-15.61.25-4.22,1.2-5.91,4.03-9.2,1.9-3.75,3.29-7.79,4.19-12.09.87-.87,1.93-1.52,3.21-1.98,2.64-1.37,4.5-4.16,2.13-6.51l-.55-.49c.52-2.02.15-4.18-1.6-5.36l-.64-.31c-.1-1.46-.84-2.5-2-3.28-.5-.27-.83-.81-1-1.62-3-4.19-5.64-8.76-7.37-13.68l-4.98-14.29c-2.73-6.2-6.32-8.29-13.42-7.47-2.86.63-5.77,1.11-8.68,1.27h-.01c-1.48.09-2.98.09-4.46-.01h-.01c-1.34-.1-2.69-.27-4.02-.56-7.95,2.48-11.59,8.87-13.66,16.46l-2.41,10.15c-.04.12-.08.23-.12.35,0,0,0,.02,0,.03-.57,1.65-1.33,3.19-2.28,4.6.74.38.65,2.47-.12,2.81-.4.33-.7.73-.92,1.22-.24,1.18-.69,1.99-1.36,2.42-.38,1.53-.92,3.03-1.62,4.48-.08.87-.36,1.53-.84,1.97-2.52,3.1-.04,6.19,2.88,7.99,1.74.43,2.89,1.31,3.45,2.63,1.11,5.71,2.85,11.09,7.03,15.33,1.76,6.62,1.04,14.16-.83,20.75.28.63.62,1.23,1.03,1.8l.53.4c1.44,3.86,3.42,7.49,5.92,10.9.11.87.09,1.17-.82,1.31-1.32.21-5.71-1.1-7.23-1.62-2.88-.98-5.56-2.49-8.07-3.99.21-1.29-1.24-1.75-1.99-2.52-1.97-1.98-3.77-4.07-5.37-6.61-2.38,5.66-7.07,8.51-12.41,9.49,2.6-4.37,4.37-8.77,4.04-13.73-3.14,3.32-7.42,4.68-11.83,4.19,5.67-5.1,6.71-11.67,5.27-18.59-.81-3.94-1.44-7.76-1.47-11.6-1.5,3.59-1.5,7.17-1.66,11.19-2.61-3.41-3.91-7.43-4.4-11.8-.98-8.69,2.06-15.11,5.53-22.65,2.09-4.53,3.49-9.05,4.57-13.95,1.52-6.91,3.04-13.55,5.22-20.27,1.83-5.65,4.23-10.85,7.66-15.62,4.43-6.19,9.47-9.25,16.49-10.79,2.43-1.92,4.07-4.89,7.09-6.44,4.96-2.54,10.05-3.66,15.72-3.64,9.94.05,19.48,3.24,27.69,8.9,7.95,5.48,13.79,12.77,17.54,21.68,4.35,10.35,6.84,25.61,9.88,32.76l4.05,9.5c3.98,9.33,4.49,22.26-1.66,30.97-.58-2.84,0-5.3-.9-7.97-.8,10.43-5.64,19.28,3.78,28.36Z"/>
          <path class="cls-29" d="M167.31,137.3c.42.67.35,1.29.04,1.96,1.65-2.59,3.14-5.28,4.47-8.05l1.07-.68c-.02-.45-.54,8.66-.67,9.08-2.39,7.72-8.67,13.73-16.5,16.2,1.74-3.64,3.49-6.8,4.86-10.42,2.29-6.05,4.21-12.1,5.94-18.39.18-.65-.46-1.5.54-1.66.22,4.6-.41,8.95-1.22,13.24.41-.29.42-.88.74-1.22.17-.18.37-.4.72-.06Z"/>
          <path class="cls-18" d="M174.78,113.07c-.04,3.2.79,5.86.35,9.04-.4,2.88-1.39,5.49-2.23,8.09-.03.09,0,.23,0,.32-2.25,4.39-4.3,8.85-7.73,12.59.77-2.05,1.57-3.87,2.15-5.82.53-1.78,1.45-3.46,2.23-5.26.8-1.86,1.21-3.74,1.83-5.69,1.71-5.34,2.46-10.76,2.31-16.22.56,1.02,1.12,1.99,1.11,2.93Z"/>
          <g>
            <path class="cls-15" d="M154.81,30.63c.73.56,1.12,1.09,1.16,1.59.99.76,1.87,1.63,2.67,2.59.41.72.91,1.67-.23,1.84-2.96-1.29-6.02-2.13-9.18-2.54,3.96,2.27,7.77,4.89,10.84,8.31.52,1.02.1,1.09-1.02,1.21-2.55-1.1-5.05-1.84-7.5-2.19.84.9,4.15,4.58,3.99,5.6-.14.88-.25,1.4-1.14,1.03-3.16-2.17-6.49-4.18-10.26-5.05,6.11,3.74,9.89,9.76,12.58,16.23-.37-1.91-.89-3.79-1.58-5.63-.21-2.52,1.83-.96,3.04.25l2.18,2.17c-.56-3.43-1.82-6.67-3.79-9.71-.17-.34.12-.58.46-.79l.72-.23c3.57,4.39,6.59,9.21,9.04,14.46-1.2-4.61-3.34-8.47-6.17-12.17l.3-.81,1-.19,3.83,2.76c-1.31-3.62-3.27-6.9-5.89-9.85-.05-.79-.04-1.19.79-1.22,2.21-.1,8.01,5.13,9.52,7.01.87,1.33,1.67,2.24,2.42,2.74,1.58,2.96,3.28,5.81,4.37,9.32,2.13,6.85,4.07,13.62,5.51,20.45-4.4-4.83-6.62-10.11-9.84-15.66.27,6.71,7.12,17.2,10.86,22.45,1,1.41,1.91,2.69,2.35,4.23-1.43-.1-2.74-.87-3.94-2.31l-3.21-3.13c7.59,8.61,14.57,17.68,12.94,30-1.61-3.44-2.95-7.17-6.74-9.44,1.83,4.71,2.53,9.42,1.68,14.37l-1.65,9.64c-.82,4.81-.21,9.31,1.47,13.94-3.98-2.28-5.48-6.18-6.71-10.34-1.94,5.97-2.09,12.22,0,18.37-5.49-2.92-6.52-13.69-6.48-19.08,0-.36-.05-.67-.31-.65l-.33-1.07c2.22-5.1,2.24-9.96,1.64-15.31-.01-.31.29-.56.57-.74,2.46,4.16,2.46,12.1,1.99,17.11-.03.28-.02.57.14.65.68.32.3-2.1.84-3.75,3.06-9.41,1.37-16.55-1.38-26.06l6.82,3.61c-2.68-3.16-5.69-5.76-8.92-8.45-12.27-10.17-14.47-18.63-19.38-33.02-1.25-3.67-2.78-7.05-5-10.16-5.33-7.99-14.92-11.92-23.89-6.8,1.69-3.41,5.13-4.83,8.61-5.94-7.4-.52-14.06,3.21-16.05,10.97-2.9-9.75,2.48-17.77,12.01-20.04-.44-.59-1.1-.02-1.76.07-7.84.99-12.97,5.49-13.92,13.66-1.62-2.99-2.65-6.43-1.87-9.9.76-3.38,3.41-5.85,6.48-7.37,11.12-5.5,24.98-2.64,35.31,2.97Z"/>
            <g>
              <path class="cls-7" d="M172.6,48.04c.03.35-.25.45-.52.18-3.73-3.68-5.95-7.29-11.96-9.47l3.61,4.82c1.62,2.17,2.48,4.76,3.2,7.58-2.06-1.52-3.81-3.25-5.99-4.36l-.68.36-2.99-2.26-.22.65c.13.71.46,1.51.95,2.21,2.06,3,3.03,6.36,3.15,10.01-1.83-1.71-3.34-3.75-5.65-5.2,1.23,3.84,2.51,7.19,2.41,11.07-3.49-8.2-6.11-14.98-14.13-20.09-.59-.38-1.02-.88-1.06-1.52,4.66.83,8.44,2.93,12.39,5.78-.81-2.98-3.22-4.8-5.24-7.36,3.56.08,6.6,1.75,10.13,2.8-3.76-4.1-8.03-7.08-13.04-9.51,3.17-1.05,8.38,1.01,11.72,2.45-.84-1.95-2.52-2.74-3.73-4.08.32-.13.85-.32.7-.5-.19-.22-1.91-.95-.84-.98,7.47,4.06,13.77,9.91,17.79,17.41Z"/>
              <path class="cls-19" d="M185.85,88.83c4.55,7.33,6.74,15.74,6.03,24.63.21.71-.34.66-.24-.07.34-5.18-.82-10.21-2.97-15.09-3.45-7.85-9.42-11.29-12.88-18.53,3.61,3.11,6.23,6.52,10.06,9.06Z"/>
              <path class="cls-11" d="M179.47,95.44c-1.21-.29-2.31-.91-3.4-1.8-6.16-5.03-10.07-12.29-11.14-20.09,3.22,5.58,5.76,11.05,9.66,15.86l4.88,6.03Z"/>
              <path class="cls-2" d="M160.94,46.79c.95,1.96,3.05,3.97,4.04,6.27,1.64,3.81,3.11,7.65,3.65,11.93-1.99-4.44-8.37-16.81-11.58-19.46-.65-.53-.73-1.75-1.63-2.21,2.23.55,3.91,2.64,5.53,3.46Z"/>
              <path class="cls-10" d="M182.28,133.75c-.61-2.49-.44-4.91-.27-7.45.34-5.06.29-9.75-1.08-14.86,3.91,5.2,4.69,11.96,2.66,18.06-.46,1.44-.4,2.84-1.3,4.25Z"/>
              <path class="cls-20" d="M127.26,27.81c-3.96,1.87-7.46,4.36-10.69,7.79,1.14-4.85,5.52-8.26,10.69-7.79Z"/>
            </g>
          </g>
          <g>
            <path class="cls-27" d="M93.7,126.96l.86.97c.72,3.27,1.92,6.42,3.62,9.29-1.56-4.15-2.53-8.38-2.89-12.71l.34-.78c.25.04.62.04.62-.19.02-2.73-1.07-.6.29-5.27.21-.73-.98-1.98.4-2.32-.31,4.96,2.11,10.91,3.92,15.49l3.62,11.95c1.29,4.27,3.6,7.85,5.43,12.17-4.98-1.31-8.82-4.5-12.08-8.2-3-3.4-4.08-7.64-5.63-12.12-.34,5.57-.99,10.74-5.63,14.57,1.73-7.08,1.35-10.78-.13-17.69-1.5,3.82-2.73,7.55-6.68,9.64,3.28-7.31,1.65-12.61.43-20.02-1.31-8.01.16-15.9,3.48-23.22.45-1,1.06-1.8,1.09-2.79-1.71,1.78-2.53,3.93-3.91,5.82-2.6,3.55-4.42,7.35-6.24,11.19-.32,0-.56-.1-.58-.35-.21-4.19,1.3-7.67,3.1-11.39,2.14-3.86,4.15-7.82,6.05-11.89-1.03,1.72-1.84,2.17-2.42,1.37l4.72-8.87c1.61-3.03,2.87-6.01,3.52-9.42.13-.71.85-1.35.3-2.19-1.26,3.53-2.92,6.85-5.59,9.83.51-4.59,1.85-8.62,2.87-12.73,2.24-4.09,5.1-7.57,8.59-10.45.8-.24,1.02-.19.93.72-1.37,5.43-2.35,10.93-2.69,16.51.87-3.49,2.05-6.9,3.55-10.22,2.26-4.33,3.71-3.07,1.94.64.29.65.57,1.3.84,1.93.28.82.78.36,1.52-1.38,1.89-2.66,2.83-3.99,2.83-3.99,2.61-2.53,2.29-2.62-.97-.28l-.62-.54c-.27-1.03.08-2.06,1.04-3.1,3.55-4.09,2.12-3.6-1.24-1.01-1.67,1.29-3.07,2.88-4.35,4.55-.35.17-.98.44-1.23.36-.82-.25,1.12-5.51,1.53-6.57,2.01-4.06,1.66-3.8-1.35-1.29-.99.82-1.88,1.74-2.77,2.66-.38.15-.99.38-1.28.28-.98-.35,2.61-7.01,3.23-7.97-1.42,1.4-2.45,3.12-3.42,4.85-.5.54-.91.54-1.23-.15,1.89-4.01,3.91-7.96,7.13-11.33,2.98-3.13,6.49-5.65,10.96-6.1.07,1.48.09,2.85,0,4.31-4.52.47-8.2,3.19-10.07,7.27,3.13-2.46,6.27-4.62,10.41-4.85.81,1.87,1.4,3.72,2,5.75-2.06.07-7.22,2.93-7.28,4.97l4.88-1.98c2.34-.95,5.04-.25,6.54,1.95-4.99,2.17-8.47,5.79-10.73,10.64-4.19,8.97-2.54,14.78-9.31,28.12-.88,1.73-1.5,3.38-2.27,5.21-4.22,10.02-4.53,21.15-.75,31.36.63-.21.69-.67.75-1.02Z"/>
            <g>
              <path class="cls-8" d="M102.52,60.05l.32.82c-.96,1.56-1.74,3.21-2.33,4.93l-.75.43c-.71-.15-1.36-.86-1.47-1.66-.18-1.33,1.06-2.09.99-3.45-2.3,3.18-3.38,6.57-4.41,10.12l-1.83,6.3c-.12.42.07,1.26-.56,1.16.47-8.13.89-13.8,3.23-21.94-3.24,2.71-5.46,6.01-7.87,9.35-.36.51-.62,1.07-1.24.99,1.24-4.99,2.67-9.8,4.86-14.45.26,0,.68-.05.86-.42,1.48-3,3.62-5.48,6.48-7.24-2.29,3.4-4.3,6.8-5.67,10.8,2.43-2.59,4.72-4.83,7.99-6.12-1.95,3.58-3.26,7.25-4.13,11.03,2.79-3.77,5.97-6.99,10.86-8.15-2.1,2.49-4.03,4.72-5.33,7.49Z"/>
              <path class="cls-12" d="M74.62,112.75c.05.95-.58,2.01-.84,2.94-.98-11,2.38-16.52,6.99-25.19.61.68,3.59-4.52,4.68-5.34-1.57,4.22-3.26,8.23-5.62,12.17-1.8,3.01-6.52,12.47-5.21,15.43Z"/>
              <path class="cls-6" d="M95.63,123.74c.68,6.31,2.62,11.94,4.97,17.94-3.6-4.11-5.91-9.33-6.9-14.71-.84-4.58.24-9.02.8-13.29l1.13,10.06Z"/>
              <path class="cls-24" d="M84.32,125.94c-.46-.76-1.13-1.29-1.28-2.28-.3-1.94-.87-3.97-.46-5.94l.87-4.18c.43-2.1.93-4.12,2.66-5.73-.38,4.55-1.25,8.81-.79,13.35l.81,8.05c-.82-1.09-1.15-2.22-1.79-3.27Z"/>
              <path class="cls-3" d="M86.06,101.61l3.55-8.14c1.91-4.38,3.5-8.73,5.76-13.08.27,3-.68,5.72-1.56,8.54-1.52,4.9-4.06,9.17-7.75,12.67Z"/>
              <path class="cls-1" d="M99.76,66.24c.38-2.29,1.8-4.15,2.76-6.19.55.03.94-.39,1.41-.77,1.38-1.11,3.03-1.42,4.51-1.99l-2.74,2.81c-3.41,3.5-5.5,7.83-7.32,12.29.08-2.27,1.05-4.13,1.39-6.15Z"/>
            </g>
          </g>
        </g>
      </g>
    </g>
  </g>
  <g id="xBbnet.tif">
    <g>
      <path class="cls-25" d="M184.56,205.65c-.42,5.67-3.02,10.04-7.09,13.86-.75-.48-1.57-1.47-2.11-2.19-1.13-1.51-2.1-3.1-2.93-4.79-.24-.48-.42-.92-.63-1.47l-.51-1.61.54.03c.28.02.83.07,1.11.13l.81.18.49.11h0c.06.57.21,1.12.46,1.63l.18.38c.56,1.24,1.23,2.37,2.09,3.43,2.16-2.22,3.99-5.01,4.69-8.01l.98-.46c.68-.32,1.29-.72,1.91-1.2Z"/>
      <path class="cls-25" d="M180.95,202.81c-.12,1.4-.86,3.01-1.46,4.24l-.34.68c-.11.2-.22.41-.33.61t0,0l-1.4,2.32c-.3.44-.61.86-.95,1.26l.03-.7c.02-.45-.28-.85-.71-.97h0c-.88-.22-1.55-.37-2.02-.48-1-.23-2.03-.35-3.05-.34-.72,0-1.44.08-2.16.21.96,3.05,2.53,6.09,4.84,8.27l-.04,1.14c-.03.76.06,1.49.18,2.27-4.77-3.3-7.36-7.88-8.82-13.39.46-.24.92-.39,1.42-.51,1.16-.27,2.33-.38,3.49-.44l.32-.02c.92-.03,1.83-.03,2.75,0,.64.05,1.23.1,1.87.23,0,0,.83.12,1.9.38.43-.72.8-1.48,1.1-2.27-3-.77-6.35-.95-9.29-.06l-1.04-.72c-.57-.4-1.18-.68-1.84-.95,5.12-2.47,10.21-2.41,15.56-.79Z"/>
      <path class="cls-25" d="M168.28,206.47c-1.22.07-2.35.24-3.51.59l-.18-2.27c.78.09,1.5.35,2.19.71.52.29,1,.6,1.5.97Z"/>
      <path class="cls-25" d="M182.3,205.85c-.55.33-1.06.61-1.67.86.53-1.07.96-2.14,1.24-3.33l2.07.98c-.47.61-1,1.08-1.64,1.49Z"/>
      <path class="cls-25" d="M174.49,220.14c.12.45.24.86.43,1.3l1.77-1.35c-.91-.87-1.65-1.79-2.33-2.81-.05.7-.05,1.37.01,2.06l.11.79Z"/>
    </g>
  </g>
</svg>