<?xml version="1.0" encoding="UTF-8"?>
<svg id="Calque_1" data-name="Calque 1" xmlns="http://www.w3.org/2000/svg" viewBox="0 0 265.82 265.55">
  <defs>
    <style>
      .cls-1 {
        fill: #e0b38e;
      }

      .cls-2 {
        fill: #bc975e;
      }

      .cls-3 {
        fill: #e8cc8e;
      }

      .cls-4 {
        fill: #d4d4f9;
      }

      .cls-5 {
        fill: #bb965f;
      }

      .cls-6 {
        fill: #9797d1;
      }

      .cls-7 {
        fill: #ba9761;
      }

      .cls-8 {
        fill: #bc9862;
      }

      .cls-9 {
        fill: #c4906b;
      }

      .cls-10 {
        fill: #c38d68;
      }

      .cls-11 {
        fill: #b99358;
      }

      .cls-12 {
        fill: #273651;
      }

      .cls-13 {
        fill: #bb935a;
      }

      .cls-14 {
        fill: #bb9861;
      }

      .cls-15 {
        fill: #243757;
      }

      .cls-16 {
        fill: #ebebff;
      }

      .cls-17 {
        fill: #6e7d8c;
      }

      .cls-18 {
        fill: #bd945b;
      }

      .cls-19 {
        fill: #e4b38a;
      }

      .cls-20 {
        fill: #c9c5ff;
      }

      .cls-21 {
        fill: #f5e8e6;
      }

      .cls-22 {
        fill: #e3b289;
      }

      .cls-23 {
        fill: #cccad4;
      }

      .cls-24 {
        fill: #f7e3b2;
      }

      .cls-25 {
        fill: #b8935a;
      }

      .cls-26 {
        fill: #e7cd90;
      }

      .cls-27 {
        fill: #b89359;
      }

      .cls-28 {
        fill: #bc955a;
      }

      .cls-29 {
        fill: #deb48f;
      }

      .cls-30 {
        fill: #e8cb8d;
      }

      .cls-31 {
        fill: #e0b58d;
      }

      .cls-32 {
        fill: #b99158;
      }

      .cls-33 {
        fill: #c28c66;
      }

      .cls-34 {
        fill: #ba945b;
      }

      .cls-35 {
        fill: #e7cc93;
      }

      .cls-36 {
        fill: #f6e2b0;
      }

      .cls-37 {
        fill: #b79359;
      }
    </style>
  </defs>
  <g>
    <path class="cls-21" d="M266.77,132.77c0,73.33-59.45,132.78-132.78,132.78S1.21,206.11,1.21,132.77,60.66,0,133.99,0s132.78,59.45,132.78,132.77Z"/>
    <g>
      <path class="cls-15" d="M266.77,132.77c0,73.33-59.45,132.78-132.78,132.78S1.21,206.11,1.21,132.77,60.66,0,133.99,0s132.78,59.45,132.78,132.77Z"/>
      <g>
        <path class="cls-16" d="M188.95,158.66c-1.87-2.86-3.5-5.85-4.87-8.98l.03-1.96c-.95-2.58-1.86-5.08-2.4-7.79-1.84-9.2-1.65-19.31-1.35-28.68l1.3-28.19c.65-28.22-4.66-64.96-38.65-69.18-11.39-1.42-25.26,5.59-24.83,18.5-19.98,8.07-26.73,30.28-21.88,50.19-5.13,3.57-3.14,10.58-1.65,15.63,1.38,4.71,2.72,8.45,7.96,10.04.74,2.47,1.36,5.01,1.85,7.6.92,3.84,2.85,7.21,5.52,10.11.55,5.05.47,10.28-.41,15.27-.45,2.52-1.98,5.36-4.34,6.42-3.26,1.91-6.71,3.29-10.28,4.98-8.04,3.81-16.14,6.6-24.83,8.52-8.03,1.77-15.17,4.72-20.45,11.2-9.77,11.98-8.36,29.8-12.12,44.52C6.75,181.66-2.05,133.06,13.7,89.2c4.08-11.37,9.8-21.93,16.76-31.68C50.02,30.12,79.8,11.94,112.95,6.52c36.45-5.96,73.79,3.77,102.37,27.25,12.69,10.42,23.06,23.3,30.96,37.78,9.47,17.37,14.68,36.55,15.47,56.32.5,12.51-.66,24.76-3.82,36.88-5.01,19.26-14.2,37.03-27.48,52.11-2.81-11.84-2.63-24.2-6.93-35.61-3.24-8.75-9.88-15.19-18.71-18.17-4.97-1.67-12.58-3.07-15.87-4.41Z"/>
        <g>
          <g>
            <path class="cls-12" d="M184.11,147.72q-.94.37,0,0c1.04,3.81,3.47,7.25,4.84,10.94-.65-.27-.9-.6-1.23-1.41-.47-1.16-1.4-2.03-2.16-3.3-.69,1.49.5,2.46.18,3.8-.77.41-1.93.13-2.58.77-.7.69,2.2,1.34,1.23,1.79l-1.02.33c-2.38-.7-4.69-1.58-6.94-2.63l-.46-.99c-.3-.57-.05-.74.48-.87-.64-.67-4.45-2.7-5.3-2.59.28.62.17,1.03-.33,1.22-.47.83-1.4.45-1.29-.48-1.08-.4-2.09-1.07-3.41-1.66-5.2,12.42-20.11,22.31-32.21,27.94-10.91-5.06-26.82-15.66-31.3-26.83-.03-.3.24-.21.35.01.66,1.45,1.65,2.43,2.75,3.24.23-2.28-1.46-2.95-1.38-5.72.03-1.15,3.66-1.54,2.78-4.26-.76.15-1.42.33-1.9.61,2.02-2.15,3.49-4.53,3.9-7.66.6-4.6.73-9.16.28-13.8-3.1-3.21-4.88-6.9-5.8-11.16l-1.37-6.35c-3.39-.97-5.89-3.29-7-6.62-1.79-5.36-5.68-16.32.55-19.64-2.6-9.93-2.04-20.27,1.59-29.79s10.94-16.81,20.36-20.59c-.37-13.67,13.46-19.69,25.36-18.81,9.97,1.15,19.28,5.93,25.68,13.7,13.45,16.33,14.31,43.71,13.27,63.92-.53,10.37-1.23,20.29-1.19,30.68.03,9.01.96,17.68,3.28,26.18Z"/>
            <g>
              <path class="cls-15" d="M175.97,157.03c-1.15-.67-2.67-.88-3.87-1.55l-1.27-.7c-.02-.56-.62-1.02-.49-1.72.33-1.06,7.38,2.48,7.41,3.3l-1.78.67Z"/>
              <g>
                <path class="cls-22" d="M144.29,135.56c-5.93,4.86-15.26,4.63-21.1-.05-4.73-3.79-8.88-8.04-12.77-12.71-1.8-2.33-2.94-4.82-3.63-7.72-1.78-7.5-3.16-14.91-4.36-22.57l2-13.35c2.83-6.86,2.71-14.3,9.28-18.9,3.9-2.73,8.65-3.25,13.25-2.21s9.34.95,14.14-.09c5.71-1.25,11.65.37,15.35,4.88,2.37,2.89,3.46,6.33,4.37,9.87l2.13,6.91,2.08,12.88c-1.3,7.55-2.55,14.85-4.26,22.25-.81,3.51-2.25,6.43-4.55,9.1-3.66,4.26-7.49,8.09-11.92,11.72Z"/>
                <path class="cls-19" d="M112.77,135.79l1.18.31c3.08,3.53,6.37,6.85,9.86,9.98,12.2,9.73,23.37-.37,30.58-11.01-.23-.81-.14-1.9.88-1.25.43,7.22.55,13.69,8.17,17.57-4.84,11.36-18.57,20.55-29.51,25.98-7.59-3.76-14.35-8.35-20.51-13.97-3.78-3.45-6.67-7.41-8.86-12.03,6.92-3.65,7.38-8.85,8.21-15.58Z"/>
                <path class="cls-3" d="M155.91,20.39c12.96,6.4,18.89,20.8,21.37,34.24,1.93,10.42,2.46,20.73,1.93,31.35l-1.06,21.34c-.84,16.92-.9,35.05,7,50.32-2.01-.87-4.71-1.46-5.94-2.5l-1.27-.93c-5.24-8.07-7.32-17.78-7.67-27.28-.62,7.1-.02,14.18,1.79,21.25-.03.89-.27.92-.98.41-1.28-.92-2.83-4.89-3.43-6.56-3.54-9.79-2.3-23.65.06-33.7l.84-1.01c2.32-1.97,3.59-4.44,4.33-7.3,1.36-5.21,3.61-11,.85-16.05l-.47-1.48c1.99-16.35-.22-42.87-14.05-53.7-4.49-3.51-10.32-5.22-15.5-2.23l-.66-.06c-1.23-.82-2.73-1.17-3.88-1.59-.93-.36-.6-.82-.06-1.48,3.54-4.27,11.87-4.95,16.79-3.03Z"/>
                <path class="cls-28" d="M179.22,155.13c-5.22-1.81-9.95-4.19-14.72-6.56-3.16-1.57-4.89-4.49-5.47-7.89-.86-5.03-.89-10.02-.44-15.05,4.6-5.16,5.11-10.44,6.58-16.82l3.39-1.48c-2.52,13.69-5.1,28.99,3.15,41.35-2.02-8.46-3.61-16.88-1.33-25.4.45.28.48.93.49,1.52.12,10.9,2.38,21.39,8.35,30.35Z"/>
                <path class="cls-33" d="M155.27,133.82c-.75.03,0,1.27-.3,1.66-2.96,3.84-6,7.5-9.57,10.69-6.56,5.86-15.78,5.84-22.36.11-4.15-3.62-6.63-6.65-10.27-10.48l-.07-5.86c2.85,2.88,5.67,5.63,8.89,8.15,6.81,5.32,17.48,5.43,24.37-.01,3.32-2.63,6.23-5.51,9.24-8.54l.08,4.29Z"/>
                <path class="cls-18" d="M173.74,83.97c-.76-.55-1.41-.9-2.14-1.63,5.18-21.47-2.74-45.11-25.74-51.61-.86-1.45-1.42-3.32-2.81-4.24.03-.26.24-.46.55-.63,7.39-4.03,15.81.67,20.49,7.07,10.28,14.07,11.75,34.44,9.64,51.04Z"/>
                <path class="cls-26" d="M151.39,18.23c.33.86-.6,1.05-2.76.55-4.4-.07-8.44,1.41-10.56,5.48l-1.22.07c-2.43-.32-4.6-.05-6.74.23-1.09-.9-.03-3.31.6-4.44.92-1.64,2.18-2.56,3.9-3.29,5.74-1.43,11.46-.57,16.78,1.39Z"/>
                <path class="cls-31" d="M169.16,101.64c-.69,1.55-1.54,2.95-3.27,3.49.83-4.83,1.83-9.16,2.13-13.76l2.56-5.71c.31-.34,1.04.55,1.16,1.01,1.12,4.49-1.1,10.4-2.57,14.97Z"/>
                <path class="cls-29" d="M101.53,105.03c-1.49-.42-2.61-1.86-3.19-3.42-1.07-2.9-5.07-14.31-1.56-16.04l2.71,5.92c.24,4.48,1.2,8.72,2.04,13.54Z"/>
                <path class="cls-35" d="M130.59,18.2l.06.88c-1.35,1.51-1.94,3.47-1.68,5.48l-.54.69c-2.45.96-4.01,2.67-5.07,4.91-.68.52-1.95.77-2.69.68.22-6.09,4.51-10.89,9.92-12.64Z"/>
                <path class="cls-5" d="M151.39,18.23c1.73.64,3.09,1.46,4.52,2.16-1.06.11-2.13-.1-3.31-.25-4.39-.55-9.56.29-12.83,3.53-.38.38-.66.76-.6,1.23-.81-.29-1.7-.48-2.33-.56.6.02.71-.56,1.02-1.05,2.72-4.44,8.28-5.9,13.16-4.84.19.03.43-.06.36-.22Z"/>
                <path class="cls-17" d="M141.93,29.79c-5.02-.76-9.78-.65-14.92-.21,2.95-3.42,12.57-3.37,14.92.21Z"/>
                <path class="cls-7" d="M134.61,16.84c-2.83,2.65-4.05,3.57-4.5,7.73-.57.07-1.3.53-1.68.68-.53-2.66.23-5.15,2.16-7.05,1.29-.95,2.75-.95,4.02-1.36Z"/>
                <path class="cls-15" d="M184.11,147.72c-.61.94-.08,1.68-.53,2.13-1.91-1.8-2.83-4.13-1.18-6.16,1.2,1.48.63,3.51,1.71,4.03Z"/>
                <g>
                  <path class="cls-30" d="M147.52,54.61l-.1-.92c2.57-3.47,3.66-8.13,2.05-12.24.21,3.94-.63,9.45-2.96,12.73l-.96.44c-6.02-.2-8.76,2.43-16.83.77-2.08-.43-4.11-.78-6.09-.79l-1.34-.19c-2.92-3.49-3.67-8.71-3.38-13.22-1.61,4.09-.64,9.2,1.99,12.67l-.17.78c-5.57,1.06-10.18,4.15-12.98,9.05-1.66,2.91-2.5,6.01-3.34,9.26-.54,2.1-1.47,4-1.9,6.13-.49,2.44-.61,4.73-1.29,7.34-7.29-18.94-1.72-44.21,19.17-51.8,17.46-6.34,39.08-.96,47.05,17.27,4.79,10.96,4.96,23.44.61,34.58-.58-4.85-1.53-9.04-3-13.45-1.2-3.61-1.9-7.24-4.14-10.41-2.81-4.5-7.42-6.89-12.41-7.98Z"/>
                  <g>
                    <path class="cls-32" d="M122.63,54.59c-1.14,0-2.02.14-2.9.03-3.36-3.43-4.86-12.43-.81-16.02-1.09,5.46-.21,10.8,2.62,15.56.17.29.98.1,1.08.43Z"/>
                    <path class="cls-13" d="M147.52,54.61c-.73-.16-1.48.01-1.97,0,3.16-5.96,3.81-9.04,2.93-16.18,3.87,4.98,2.7,11.69-.96,16.18Z"/>
                    <path class="cls-2" d="M140.27,51.86c1.03-6.22.55-11.75-1.19-17.79,4.93,4.66,5.07,12.41,1.19,17.79Z"/>
                    <path class="cls-34" d="M127.28,51.95c-3.82-3.82-3.47-15.01,1.42-17.62-2.19,5.8-2.32,11.36-1.42,17.62Z"/>
                    <path class="cls-8" d="M153.57,54.7c2.56-3.92,3.49-7.73,3.06-12.49,3.43,3.96,1.78,10.3-3.06,12.49Z"/>
                    <path class="cls-14" d="M110.97,42.88c-.75,4.35.44,7.93,2.88,11.71-4.61-1.74-5.97-7.62-3.72-11.69.12-.22.35-.26.37-.36.05-.23.53-.06.47.34Z"/>
                    <path class="cls-11" d="M159.24,60.15c1.92-3.67,3.16-7.1,3.04-11.4,2.69,3.59,1.47,9.46-3.04,11.4Z"/>
                    <path class="cls-25" d="M108.1,59.96c-4.32-1.42-5.85-7.5-3.05-11.31.16,4.02.74,7.46,3.05,11.31Z"/>
                    <path class="cls-27" d="M103.66,69.42c-2.78,1.87-5.17-6.64-3.64-8.87.98,3.15,1.77,5.91,3.64,8.87Z"/>
                    <path class="cls-37" d="M167.37,60.38c1.2,1.94-.24,10.04-3.71,9.16,1.57-3.03,2.74-5.78,3.71-9.16Z"/>
                    <path class="cls-24" d="M121.85,48.97c-2.59-1.74-2.11-8.89.52-10.18-.82,3.43-.65,6.5-.52,10.18Z"/>
                    <path class="cls-36" d="M145.1,38.52c3.44,3.34.73,10.63.37,8.95.02.07-.39-7.53-.37-8.95Z"/>
                  </g>
                </g>
              </g>
            </g>
          </g>
          <g>
            <path class="cls-20" d="M225.13,221.01c-5.63,3.29-11.9,5.69-18.25,7.18-.25-.28-.48-.57-.67-.89s-.38-.61-.46-.94c-2.36-9.34-3.59-18.4-4.71-27.51-2.31-17.6-17.35-27.95-31.99-35.54-1.45-.79-1.58-1.09-.9-2.56.53-1.16,1.35-2.82,2.61-3.03h1.03c6.55,2.92,13.26,5.45,20.11,7.6,16.06,2.96,24.43,10.14,28.82,25.7,1.85,9.83,3.52,19.66,5,29.5l-.58.49Z"/>
            <path class="cls-20" d="M60.88,228.24c-6.35-1.82-12.7-4.12-18.37-7.49l-.39-.7c1.51-8.04,2.92-16.2,4.24-24.48,3.02-14.47,7.63-23.36,22.37-28.15,9.75-2.45,19.41-5.85,28.36-10.36l.85.34c1.01,1.55,1.79,3.17,2.34,4.84-16.74,9.39-30.46,18.02-33.51,38.08-1.12,9.48-2.67,18.77-4.65,27.86-.39.13-.81.15-1.24.05Z"/>
            <path class="cls-6" d="M87,251.73l-6.83-2.66c-1.71-.67-2.39-1.45-3.28-3.02-4.43-7.87-5.74-17.02-3.41-25.58.22.16.38.41.46.81,1.04,5.13,2.69,10.01,5.79,14.29,4.86,6.71,12.37,10.37,20.65,10.94,5.51.38,10.78-.71,16.05-2.25.7-.21,1.27,0,1.51.43.37.68.07,1.41-.7,1.76-9.68,4.49-18.76,6.96-29.45,4.5-.32-.07-.6.03-.69.15-.11.14-.17.5-.1.64Z"/>
            <path class="cls-6" d="M181.19,251.76c.03-.21-.2-.91-.61-.8-10.63,2.68-20.06-.31-29.72-4.48-.73-.31-1.09-.87-.88-1.53.19-.6.85-.98,1.62-.76,4.54,1.3,8.91,2.31,13.7,2.34,16.84.1,27.04-11.21,29.14-27.07,2.56,9.61,1.23,19.84-4.31,28.32-2.95,1.72-5.97,2.77-8.93,3.99Z"/>
            <path class="cls-6" d="M69.01,201.98c-.41,0-.85.05-1.19.33-1.3,1.09,1.99,13.3,3.1,15.6-1.04,4.06-1.66,7.97-1.64,12.11-3.01-.38-5.72-1.01-8.41-1.78.27.02.56-.05.67-.29.08-.18-.03-.41.03-.7l3.2-16.18c.64-3.22.88-6.2,1.19-9.45.94-9.84,5.16-18.73,12.51-25.35,6.42-5.78,13.6-10.26,21.34-14.24-1-1.83-2.07-3.29-2.74-4.96-.9.03-1.24-.84-.89-1.59.83-.36,1.59-.85,2.44-1.26,1.56,3.96,3.93,7.65,6.82,10.97,1.95,2.23,4.16,4,6.29,6.02.51.48.02,1.16-.26,1.42-.53.49-1.14.34-1.72-.13-3.12-2.58-6.03-5.35-8.56-8.57-6.38,3.15-12.12,6.9-17.76,11.19-8.48,6.46-14.05,15.67-14.93,26.37-.02.19.46.36.48.49Z"/>
            <path class="cls-6" d="M170.83,154.78c.5-.81,1.51-.18,1.27.7l-.63,2.03-.73.21c-.9,1.29-1.67,2.72-2.58,4.27,1.67,1.19,3.46,1.83,5.22,2.86,4.87,2.86,9.38,5.92,13.84,9.41,7.98,6.25,13.21,15.09,14.53,25.13l1.52,11.53c.78,5.93,2.14,11.64,3.6,17.26-2.57.6-5.05,1.71-8.1,1.65,0-4.11-.62-8.01-1.57-11.95.58-1.94,5.54-16.45,2.1-16-.15-8.9-4.56-17.45-11.23-23.68-6.35-5.92-13.74-10.28-21.31-14.32-2.74,3.4-5.55,6.22-8.79,8.85-.55.45-1.37.28-1.75-.25-.3-.41-.27-1.11.26-1.59l5.08-4.62c3.66-3.33,5.9-7.65,7.97-11.99l1.29.48Z"/>
            <path class="cls-4" d="M172.1,155.48c.9-.58,3.93.34,3.87,1.55,2.63,1.53,5.6,2.28,8.41,3.29,7.7,2.76,12.15,3.23,19.7,5.73,13.57,4.5,17.89,16.37,19.85,29.38,1.22,8.07,2.18,15.98,3.9,24.01-.78.99-1.88,1.08-2.71,1.57l-4.11-25.31c-1.45-8.93-5.5-18.81-13.33-23.84-4.07-2.62-8.49-4.07-13.21-5.2-8.41-2.01-16.08-5.36-23.74-8.94.12-.18.43-2.67,1.36-2.24Z"/>
            <path class="cls-4" d="M96.2,155.48c.53.33.66,1.02.89,1.59.11.56-.28.82-.84,1.09-7,3.36-13.96,6.3-21.51,8.26-5.01,1.3-9.88,2.57-14.25,5.41-5.73,3.73-9.49,9.47-11.59,15.94-1.57,4.83-2.18,9.63-3.03,14.64l-2.3,13.57c-.29,1.69-.35,3.35-1.07,4.77-.57-.34-1.86-.45-2.22-1.31l3.62-22.5c.83-5.14,1.7-9.97,3.59-14.77,4.42-11.22,12.49-15.78,23.84-18.24,8.76-1.9,16.82-4.95,24.87-8.45Z"/>
            <path class="cls-10" d="M60.58,237.55c-.25-.64-.26-5.65-.04-5.85s.48-.23.75-.2l8.29,1.52c.54,4.39,1.78,8.3,3.44,12.36-4.53-2.52-8.68-4.87-12.44-7.84Z"/>
            <path class="cls-9" d="M207.01,231.42l.65.36.05,5.13-.64.91c-3.6,2.52-6.97,4.93-10.69,6.76-.59.33-.72-.05-.4-1.14,1.07-3.55,2.03-6.8,2.54-10.37l8.49-1.65Z"/>
            <path class="cls-1" d="M61.29,231.51c-.63,1.16.31,5.94-.71,6.04-4.86-3.4-9.37-6.86-13.6-11.06,4.93,2.04,9.51,3.67,14.31,5.02Z"/>
            <path class="cls-1" d="M207.07,237.82l-.06-6.4c4.72-1.15,9-2.79,13.62-4.54-4.23,4.25-8.86,7.65-13.56,10.94Z"/>
            <path class="cls-23" d="M196.38,244.57c-.53.26-.74.7-1.18.64.02-.78.61-1.21.78-1.78l.4,1.14Z"/>
            <path class="cls-20" d="M102.62,153.76c6.11,10.04,15.17,17.19,25.27,22.98.88.51,5.68,3.24,6.02,3.24.42,0,5.55-2.9,6.54-3.47,10-5.7,19.89-13.08,24.92-23.69.78-1.33,3.92.21,4.16,1.48l.15,1.18c-2.47,6.62-7.77,11.57-12.8,15.94-.61,2.16,1.7.08,2.65-.84,2.45-2.35,4.79-4.76,7.14-7.22,14.79,7.03,32.66,19.35,33.23,37.39,0,.18-.08.37-.19.57s-.26.39-.42.58c-.77.11-1.43.6-1.56,1.53-.49,3.27-1.07,6.41-1.97,9.52l-3.05-6.35c-.37-.77-1.32-.85-1.92-.59-.65.29-.91,1.23-.51,1.96,2.02,3.74,3.11,7.62,4.14,11.5.39,8.23-4.63,17.29-11.16,22.19-9.3,6.97-21.26,6.5-31.91,3.15-.79-.18-1.14.69-.41,1.01,9.4,4.2,19.48,7.15,29.75,4.52.91.21,1.43.95.49,1.43-20.29,8.36-42.77,10.83-64.67,7.82-10.28-1.41-20.12-4.19-29.52-7.85-1.12-.49-.43-1.38.63-1.46,10.17,2.49,20.35,0,29.55-4.54.48-.23.36-1.08-.39-.91-19.79,7.31-41.37-2.07-43.31-24.37,1.13-4.16,2-8.39,4.23-12.38.41-.74.24-1.78-.31-2.07-.79-.42-1.73-.16-2.11.65l-2.87,6.07c-1.13-3.31-1.66-6.43-2.22-9.69-.12-.68-.65-1-1.18-1.05-.75.08-1.11-.04-1.07-.35,1.03-19.01,17.41-30.71,33.36-38.25,2.48,2.7,5.08,5.27,7.8,7.7,1.2,1.35,1.94,1.54,2.23.57-3.35-2.9-6.52-5.86-9.1-9.53-1.13-1.61-3.27-4.75-3.71-6.52-.11-.46-.03-.93.12-1.38l3.03-1.45c.39.24.62.71.94,1Z"/>
          </g>
        </g>
      </g>
    </g>
  </g>
  <g id="xBbnet.tif">
    <g>
      <path class="cls-6" d="M184.56,205.65c-.42,5.67-3.02,10.04-7.09,13.86-.75-.48-1.57-1.47-2.11-2.19-1.13-1.51-2.1-3.1-2.93-4.79-.24-.48-.42-.92-.63-1.47l-.51-1.61.54.03c.28.02.83.07,1.11.13l.81.18.49.11h0c.06.57.21,1.12.46,1.63l.18.38c.56,1.24,1.23,2.37,2.09,3.43,2.16-2.22,3.99-5.01,4.69-8.01l.98-.46c.68-.32,1.29-.72,1.91-1.2Z"/>
      <path class="cls-6" d="M180.95,202.81c-.12,1.4-.86,3.01-1.46,4.24l-.34.68c-.11.2-.22.41-.33.61t0,0l-1.4,2.32c-.3.44-.61.86-.95,1.26l.03-.7c.02-.45-.28-.85-.71-.97h0c-.88-.22-1.55-.37-2.02-.48-1-.23-2.03-.35-3.05-.34-.72,0-1.44.08-2.16.21.96,3.05,2.53,6.09,4.84,8.27l-.04,1.14c-.03.76.06,1.49.18,2.27-4.77-3.3-7.36-7.88-8.82-13.39.46-.24.92-.39,1.42-.51,1.16-.27,2.33-.38,3.49-.44l.32-.02c.92-.03,1.83-.03,2.75,0,.64.05,1.23.1,1.87.23,0,0,.83.12,1.9.38.43-.72.8-1.48,1.1-2.27-3-.77-6.35-.95-9.29-.06l-1.04-.72c-.57-.4-1.18-.68-1.84-.95,5.12-2.47,10.21-2.41,15.56-.79Z"/>
      <path class="cls-6" d="M168.28,206.47c-1.22.07-2.35.24-3.51.59l-.18-2.27c.78.09,1.5.35,2.19.71.52.29,1,.6,1.5.97Z"/>
      <path class="cls-6" d="M182.3,205.85c-.55.33-1.06.61-1.67.86.53-1.07.96-2.14,1.24-3.33l2.07.98c-.47.61-1,1.08-1.64,1.49Z"/>
      <path class="cls-6" d="M174.49,220.14c.12.45.24.86.43,1.3l1.77-1.35c-.91-.87-1.65-1.79-2.33-2.81-.05.7-.05,1.37.01,2.06l.11.79Z"/>
    </g>
  </g>
</svg>