<?xml version="1.0" encoding="UTF-8"?>
<svg id="Calque_1" data-name="Calque 1" xmlns="http://www.w3.org/2000/svg" viewBox="0 0 265.82 265.55">
  <defs>
    <style>
      .cls-1 {
        fill: #e7eff7;
      }

      .cls-2 {
        fill: #728393;
      }

      .cls-3 {
        fill: #546778;
      }

      .cls-4 {
        fill: #1e3252;
      }

      .cls-5 {
        fill: #556877;
      }

      .cls-6 {
        fill: #92a4b2;
      }

      .cls-7 {
        fill: #5a4237;
      }

      .cls-8 {
        fill: #594137;
      }

      .cls-9 {
        fill: #574035;
      }

      .cls-10 {
        fill: #623a17;
      }

      .cls-11 {
        fill: #cee5f2;
      }

      .cls-12 {
        fill: #553e35;
      }

      .cls-13 {
        fill: #90a2b1;
      }

      .cls-14 {
        fill: #546878;
      }

      .cls-15 {
        fill: #738495;
      }

      .cls-16 {
        fill: #d7ecfa;
      }

      .cls-17 {
        fill: #cfe9f7;
      }

      .cls-18 {
        fill: #594238;
      }

      .cls-19 {
        fill: #39261f;
      }

      .cls-20 {
        fill: #546677;
      }

      .cls-21 {
        fill: #526576;
      }

      .cls-22 {
        fill: #38200e;
      }

      .cls-23 {
        fill: #564036;
      }

      .cls-24 {
        fill: #1e3458;
      }

      .cls-25 {
        fill: #553f35;
      }
    </style>
  </defs>
  <g>
    <g>
      <path class="cls-16" d="M240.71,210.44c-1.27,1.77-2.59,3.5-3.95,5.2-25.35,31.71-63.82,50.1-104.45,49.92-40.62-.18-78.93-18.91-103.99-50.85-1.25-1.59-2.46-3.21-3.64-4.86C-14.68,154.68-6.15,78.76,44.46,33.68c50.61-45.09,127.08-44.88,177.45.49,50.36,45.36,58.47,121.32,18.81,176.27Z"/>
      <g>
        <g>
          <g>
            <path class="cls-6" d="M95.99,156.14c.1.24.2.62.05.71-11.71,6.78-23.99,13.59-36.83,18.39-10.97,4.94-17.3,12.67-19.26,24.68-.45,5.61-1.31,11.13-2.57,16.54l-.61.74c-.95-1.16-2.39-2.07-3.03-3.61-.09-.53-.03-1.37.07-1.86,1.66-8.39,1.08-15,5.08-23.71,4.67-10.15,12.64-15.57,23.08-18.95,4.39-1.42,8.21-3.37,12.26-5.6l19.8-10.89c.51-.2.75-.27,1.27-.12.19.06,1.61,3.5.68,3.67Z"/>
            <path class="cls-13" d="M232.14,213.65c-.85,1.29-1.94,2.4-2.95,3.56-.85-.62-1.31-1.55-1.38-2.79l-.7-4.24c-.77-15.7-5.25-28.18-20.41-34.91-12.91-4.85-25.2-11.59-36.91-18.38l-.03-.75c-.59-.79.13-3.9,1.26-3.85l20.67,11.33c4.06,2.23,7.91,4.11,12.31,5.56,3.29,1.08,6.38,2.35,9.42,4.07,10.3,5.83,15.48,16.05,17.01,27.55l1.71,12.85Z"/>
            <path class="cls-2" d="M229.19,217.21c-5.84,6.7-12.44,12.89-19.64,18.07l-.68-.04-3.18-11.58,4.9-10.3c1.13-3.03-4.03,2.67-4.09,3.35-.87,1.26-1.71,1.52-2.52.8-1.44-4.36-2.41-8.77-2.89-13.23,0-.1,0-.2,0-.3-.13-11.1-5.32-21.47-14-28.66-6.39-5.3-13.3-9.53-20.53-13.64l3.21-5.55,21.1,11.57c3.67,2.02,7.17,3.63,11.11,5.04,3.21,1.15,6.28,2.33,9.23,4.05,9.58,5.59,14.5,15.04,15.74,25.9.57,5,.83,9.88,2.23,14.52Z"/>
            <path class="cls-2" d="M64.95,203.28c-.4.53-.09,1.4-.33,1.93-.61,4.06-1.54,8.07-2.78,12.01-.87.94-1.84.63-2.92-.93-7.75-10.14-1.43,2.14.34,5.22.32.68.61,1.39.68,2.15.15,1.68-2.31,9.77-3.24,11.36-.11.19-.54.08-.81-.06-6.95-5.17-13.6-11.09-19.1-17.77,1.08-4.7,1.64-9.46,2.14-14.41,1.09-10.89,5.87-20.24,15.46-25.87,6.04-3.54,11.62-4.35,19.11-8.45l22.5-12.34c.69,1.94,2.16,3.64,3.16,5.58-7.45,4.21-14.45,8.44-20.83,13.87-7.89,6.72-12.73,15.89-13.57,26.17-.05.59.11,1.12.2,1.52Z"/>
            <path class="cls-21" d="M179.12,252.1l1.71-9.03c-10.46,2.3-20.69-.31-30.49-3.54-.75-.25-.74-1.24-.54-1.67.29-.63,1.08-.81,1.85-.67,6.12,1.12,12.09,1.85,18.22,1.15,9.48-1.09,17.51-5.96,22.51-14.03.47-.75.96-1.47,1.61-1.87l-.88,5.17-2.84,19.59c-3.51,2.23-7.45,3.39-11.15,4.91Z"/>
            <path class="cls-21" d="M86.63,252.1c-3.61-1.51-7.51-2.61-11-4.94l-2.42-15c-.53-3.3-.43-6.74-1.5-9.77.55.26.81.85,1.2,1.42,2.69,3.99,5.81,7.52,9.95,10.05,10.19,6.22,20.45,5.12,31.58,3.33.81-.13,1.44.15,1.56.85.09.54-.05,1.34-.8,1.57-10.82,3.32-18.85,5.6-30.27,3.49l1.7,8.99Z"/>
            <path class="cls-14" d="M55.88,234.97c.75-.06,3.49-10.15,3.41-11.27-.04-2.31-6.42-10.81-4.35-11.78,1.93-.9,3.5,3.79,6.16,5.53,1.47-4.24,1.82-8.47,3.52-12.24.77,5.52,1.49,11.06,3.32,16.49.93,1.96,1.21,3.92.79,6.06-.91,4.71-1.82,9.4-3.04,14-3.74-2-6.73-4.49-9.82-6.79Z"/>
            <path class="cls-5" d="M209.55,235.28c-3.01,2.17-5.89,4.57-9.47,6.57-1.26-5.06-2.41-10.1-3.18-15.23-.21-1.42.1-2.71.61-3.97,2.06-6.02,3.07-12.17,3.59-18.37l3.57,13.28c2.4-1.6,4.43-6.93,6.32-5.48.35.27.51.91.21,1.53l-4.88,10.08,3.25,11.59Z"/>
            <g>
              <path class="cls-24" d="M236.76,215.64c-25.35,31.71-63.82,50.1-104.45,49.92-40.62-.18-78.93-18.91-103.99-50.85,1.11-.54.77-2.01,1.13-3.03.71-.39,2.06-.68,2.93-1.08.83-.38,1.17.66,1.44,1.14l.57.56c-.03,1.45.72,2.74,2.26,3.87l.12,1.04,1.78,1.11c5.16,5.7,10.76,10.94,16.78,15.72l.54.94.79.09.49.06c2.49,2,5.09,3.83,7.82,5.5.64,1.1.79,1.04.43-.18,1-4.35,1.96-8.73,2.75-13.12.21-1.16.15-2.45-.16-3.59-1.64-4.98-3.47-10.97-3.67-16.27l.29-2.24c-.81-.36-.8-1.81.04-1.93.09-.02.18-.01.29,0-.17-.89,1.18-1.3,1.84-.89.18.12.32.3.34.55.87-.52,1.16.35,1.37,1.19.5,5.57,1.48,11.14,3.29,16.47l-.07,1.78c.08.17.16.34.25.51,1.24,2.64,1.84,5.56,1.82,8.77l2.42,15c2.87,1.77,6.06,3.23,9.57,4.39.07.03.15.05.22.07l.63.95,2.25.21c19.42,7.28,41.06,9.52,61.65,6.71,9.47-1.29,17.18-3.72,26.16-6.65.78-.25,1.61-.27,2.43-.27l.7-.97c.06-.02.13-.04.19-.06,3.35-1.14,6.58-2.56,9.67-4.26l3.29-22.19,1.02-2.17-.11-1.5c1.8-5.54,2.97-11.21,3.51-17.02.23-.87.57-1.52,1.47-1.02.93-1.31,2.06-.33,2.24,1.08.29.05.28.16,0,.3.37,4.33-.09,8.67-1.36,12.99-.93,2.82-1.68,5.59-2.26,8.32.67,5,1.64,9.97,2.9,14.92-.36,1.26-.22,1.32.42.17,2.57-1.63,5.07-3.39,7.47-5.27l1.28-.14c1.49-1.93,3.32-3.62,5.49-5.08,4.57-3.97,8.94-8.13,13.13-12.48l1.03-.51c.03-1.41,1.57-3.29,2.95-3.56.92-1.39-.3-1.66,1.1-3.12,2.78,2.14.77,3.12,3.52,5.1Z"/>
              <path class="cls-17" d="M71.85,245.16c-1.24-.21-1.93-.95-3.13-1.57.53-2.43.94-4.67,1.75-7.14l1.39,8.71Z"/>
              <path class="cls-11" d="M197.14,243.53c-1.09.76-1.95,1.31-3.16,1.76l1.3-8.71,1.86,6.95Z"/>
            </g>
            <g>
              <path class="cls-15" d="M168.94,151.09c.16.44.32.93.2,1.39-1.73,6.92-8.7,13.86-13.93,18.33-.64,2.81,4.96-2.75,5.6-3.38,1.3-1.55,2.71-2.97,4.23-4.26,16.21,8.27,32.18,18.89,34.3,38.3.02.22-.05.46-.13.7s-.21.49-.36.72c-.72.38-.88,1.12-.99,2.03-.7,6.07-1.64,12-3.87,17.51-7.68,16.3-26.44,19.18-42.66,15.36-.82-.37-1.33.93-.85,1.1,9.36,3.29,19.7,5.59,29.59,3.67.85-.18,1.06.23,1.33.9.15.37-1.29,7.49-1.48,7.83l-.81.79c-19.32,7.91-40.82,10.28-61.72,7.75-10.72-1.29-21.07-3.7-30.76-7.76l-.81-.79-1.44-7.63c.12-.81.36-1.27,1.26-1.1,9.94,1.93,19.9-.48,29.33-3.57.58-.19.65-1.31-.24-1.21-16.35,3.62-35.12,1.18-43.02-15.42-1.95-5.5-3.25-11.16-3.72-17.19-.07-.9-.24-1.75-.86-2.26-.15-.21-.29-.42-.39-.66s-.18-.44-.17-.64c1.27-19.17,18.34-30.55,34.18-38.45,2.81,3.12,5.87,5.93,9.17,8.46.73.07.96-.53.39-1.06-3.88-3.02-7.07-6.43-9.81-10.49-1.19-1.77-3.81-6.11-3.93-8.09-.02-.39.19-.75.41-1.06l3.3-1.67c3.64,13.92,20.11,24.84,32.63,30.35,12.64-5.57,28.74-16.24,32.64-30.32,1.35.48,2.29,1.3,3.4,1.78Z"/>
              <g>
                <path class="cls-3" d="M171.03,152.28c-.54,1.18-.62,2.73-1.26,3.85l.38.64-2.69,4.66c7.51,4.34,15,8.91,21.51,14.67,4.02,3.55,7.41,8.33,9.57,13.23,1.4,3.17,3.57,10.05,3.16,13.38-.06.49-.31.91-.61,1.28-.48-.8-1.32-1.19-2.24-1.08-1.01-10.07-5.38-19.07-13.35-25.72-6.32-5.26-13.19-9.58-20.46-13.48-1.44,1.72-9.32,10.96-10.6,7.96-.19-.43-.06-.97.4-1.37l2.76-2.44c5.21-4.6,9.25-10.28,11.35-16.77.75.32,1.39.81,2.09,1.19Z"/>
                <path class="cls-20" d="M67.13,202.95c-.74-.12-1.5.02-2.18.33-.9.12-.88-.76-.84-1.55,1.04-19.88,18.28-31.95,34.59-40.25l-.42-.03c-.27-.2-2.67-4.23-2.65-4.49.02-.32.14-.6.36-.83l-1.11-3.13c-.14-.39-.49-.48-.84-.41l2.93-1.64c.84,3.9,3,7.39,5.42,10.74s5.16,5.78,8.21,8.29c.56.46.86,1.17.56,1.72-.19.35-1.01.86-1.55.5-3.38-2.29-6.16-5.14-8.91-8.46-6.85,3.55-13.14,7.65-19.22,12.39-8.49,6.61-13.78,16.21-14.35,26.82Z"/>
              </g>
            </g>
          </g>
          <path class="cls-4" d="M240.71,210.44c-1.27,1.77-2.59,3.5-3.95,5.2-.83.42-1.54-.07-2.11-1.48-.18-1.04-.6-1.93-1.26-2.64-.11,1.44-.52,2.15-1.26,2.14l-.67-.13c-.69-6.17-1.63-12.36-2.84-18.57-4.02-14.86-13.74-22.26-28.24-26.4-10.01-4.87-19.79-10.04-29.33-15.51l-.03-.75c-.16.13-.34.2-.53.22-.5.05-1.06-.26-1.35-.69-.15-.21-.23-.46-.21-.72l-.71.38-2.25-1.27c-3.74,11.22-13.38,19.21-23.25,25.11-1.61.96-8.56,4.96-9.83,4.93-1.47-.03-8.35-4.05-10.08-5.09-9.76-5.89-19.31-13.8-23.02-24.91-1.14.87-2.08,1.1-2.83.71,0,.38-.16.71-.41.97-.3.31-.73.53-1.17.65-.26.07-.52.11-.76.11-.21,0-.42-.03-.59-.09.1.24.2.62.05.71-9.25,5.35-18.74,10.37-28.51,15.15-14.23,4.12-24.07,11.21-28.28,25.83-1.14,5.47-2.02,10.99-2.66,16.56l-.83.91c-.47.12-.84-.08-1.13-.6l-2.68.97c-.05,2.06-.62,2.93-1.69,2.59-1.25-1.59-2.46-3.21-3.64-4.86l4.14,1.29c.03-3.18-1.98-1.37-1.04-4.94l.73-.13,1.81,2.18,1.33-9.68c2.37-17.87,15.04-29.85,32.05-34.22l4.49-2.03,36.48-19.97c.47-5.64.65-11.55.52-17.73-2.65-4.5-3.12-9.78-3.43-14.83-3.32.02-6.35-3.03-7.37-6.14-1.51-4.62-5.3-16.27-.5-20.23,1.06-.87,2.75-1.53,4.05-.97,1.01-.81,1.74,1.35,1.87,2.28.16,1.09.05,2.6-1.15,1.68l-.45.47c-.67-.12-1.28-.22-1.7.4-1.44,2.15,1.24,12.6,2.37,15.15.44.99.99,1.98,1.97,2.53l-.9-9.06.59-.54c-.11-1.15,1.98-1.49,2.95-1.26l.69.84,1.03,6.84s-.17.35-.5,1.06h.43s.01.08.02.12c.83,5.24,1.64,10.52,2.45,15.82,1.33,3.17,3.41,6,6.26,8.5,2,1.77,3.61,3.72,4.82,5.86l.81-.12c4.27,5.16,7.38,5.77,14.01,5.73,5.72-.04,9.12-.95,12.66-5.64l.84-.07c.05-.28.15-.56.29-.82.27-.5.71-.95,1.31-1.36l7.3-8c1.49-1.81,2.44-4,2.82-6.31l1.5-12.37.7-.39c.03-.8-.1-1.38-.4-1.76-.06-.71,1-7.24,1.3-7.48.12-.09.28-.13.46-.15.15-.3.4-.46.69-.52.92-.19,2.26.69,2.19,1.75v.08s.6.36.6.36l-.99,8.74c.31.24.91-.43,1.21-.77,1.81-2.08,4.59-14,3.34-16.43-.38-.73-.9-.75-1.64-.51l-.57-.48c-.73.42-.83.36-1.05-.38-.24-.79.53-4.09,1.77-3.43.29-1.03,1.58-.6,2.41-.29,2.33.86,3.47,2.94,3.88,5.31.8,4.59-1.48,13.67-3.54,17.65-1.27,2.45-3.78,3.89-6.35,4.6l-1.04,6.7c-.21,2.63-1.07,5.19-2.59,7.65l.49,17.9c13.23,7.46,26.59,14.7,40.07,21.71,15.71,4.26,28.78,13.99,32.08,30.75.04.22,0,.46-.07.7-.06.26-.17.5-.3.74.07.71.04,1.17-.45,1.11-.13-.02-.28-.07-.48-.16-.59.87-.37,9.4.85,5.68-.13-1.42.2-1.91.98-1.46l.83,1.62.89,5.33c.68-1.23,1.43-1.8,2.26-1.73.47,1.6,1.2,3.1,2.92,3.83Z"/>
        </g>
        <g>
          <path class="cls-24" d="M240.71,210.44c-1.46,1.01-3.9-2.44-2.92-3.83l.67-1.88c18.04-25.14,24.94-59.43,20.52-90.01-8.15-56.44-52.08-100.52-108.94-108.12C96.58-.56,45.02,25.87,20.08,73.57-.88,113.63-.07,167.33,27.01,204.18l.77,2.01c.31,1.3.47,1.95.47,1.95,3.34,4.15-.93,4.24-3.56,1.7C-14.68,154.68-6.15,78.76,44.46,33.68c50.61-45.09,127.08-44.88,177.45.49,50.36,45.36,58.47,121.32,18.81,176.27Z"/>
          <path class="cls-1" d="M237.79,206.6l-2.71,3.3c-.54-2.9-.99-5.68-1.27-8.53-.82-1.07-1.27-2.44-1.35-4.11l.46-1.06c-1.16-6.35-3.85-12.42-8.04-17.56-4.75-5.81-11.04-9.54-18.09-11.99-3.33-1.16-6.45-2.07-9.57-3.79l-36.72-20.17-.48-18.41c.77-2.39,2.9-4.74,2.58-7.57l1.13-7.34c3.37-.49,6-2.68,7.07-5.91s1.97-6.76,2.63-10.27c.45-2.39.45-4.76-.36-6.98s-2.89-3.58-5.2-3.43l-.45-1.41c1.33-7.16,1.93-14.36,1.79-21.61.18-1.4,1.22-1.37,2.17-.57.54-3.96-1.35-8.57-4.72-11.17.2-3.75-.32-7.5-3.01-10.32-.54,3.55-3.01,2.48-4.9.43-1.65-3.24-3.88-5.69-6.69-7.33.14,2.67-3.06,2.23-4.95,1.76-2.24-.55-5.75-1.88-2.5-3.9-5.36-1.6-10.41.26-15.3,2.43-2.34.13.05-3.55.95-4.34-8.29.74-16.68,4.34-21.26,11.57-.24.23-.46.41-.65.37-1.61-.31-.84-3.64-.56-4.79-3.75,2.46-5.05,6.83-5.43,11.12-1.8.32-6.23,1.19-6.97,3.09,1.93-.1,3.17.5,3.73,1.81-3.27,2.68-5.12,6.21-4.69,10.52.98-.87,1.69-.8,1.95.63.39,6.84,1.02,13.64,1.87,20.41l-.31.94c-.04.22-.27.42-.65.43-5.04.03-5.56,6.17-4.91,9.97s1.39,7.16,2.62,10.59c1.15,3.23,3.64,5.5,7.16,5.97,1.13,6.88.41,8.87,3.64,15.06.47,6.16-.33,12.19-.48,18.26l-33.46,18.38c-3.63,1.99-7,3.68-10.92,4.92-9.69,3.06-18.03,8.22-23.21,17.16-2.94,5.07-4.75,10.42-5.55,16.21l-1.43,10.46-2.98-3.66c-15.22-18.68-21.81-43.08-22.84-67.48-1.17-27.78,6.49-54.97,22.06-78,14.2-21.02,34.36-37.37,57.97-46.74C119.6.22,158.71,1.97,191.87,19.02c7.53,3.87,14.62,8.4,21.07,13.6,39.17,31.55,56.44,83.26,44.08,131.99-3.84,15.16-9.38,29.99-19.23,41.99Z"/>
        </g>
      </g>
    </g>
    <g id="xBbnet.tif">
      <g>
        <path class="cls-1" d="M184.56,205.65c-.42,5.67-3.02,10.04-7.09,13.86-.75-.48-1.57-1.47-2.11-2.19-1.13-1.51-2.1-3.1-2.93-4.79-.24-.48-.42-.92-.63-1.47l-.51-1.61.54.03c.28.02.83.07,1.11.13l.81.18.49.11h0c.06.57.21,1.12.46,1.63l.18.38c.56,1.24,1.23,2.37,2.09,3.43,2.16-2.22,3.99-5.01,4.69-8.01l.98-.46c.68-.32,1.29-.72,1.91-1.2Z"/>
        <path class="cls-1" d="M180.95,202.81c-.12,1.4-.86,3.01-1.46,4.24l-.34.68c-.11.2-.22.41-.33.61t0,0l-1.4,2.32c-.3.44-.61.86-.95,1.26l.03-.7c.02-.45-.28-.85-.71-.97h0c-.88-.22-1.55-.37-2.02-.48-1-.23-2.03-.35-3.05-.34-.72,0-1.44.08-2.16.21.96,3.05,2.53,6.09,4.84,8.27l-.04,1.14c-.03.76.06,1.49.18,2.27-4.77-3.3-7.36-7.88-8.82-13.39.46-.24.92-.39,1.42-.51,1.16-.27,2.33-.38,3.49-.44l.32-.02c.92-.03,1.83-.03,2.75,0,.64.05,1.23.1,1.87.23,0,0,.83.12,1.9.38.43-.72.8-1.48,1.1-2.27-3-.77-6.35-.95-9.29-.06l-1.04-.72c-.57-.4-1.18-.68-1.84-.95,5.12-2.47,10.21-2.41,15.56-.79Z"/>
        <path class="cls-1" d="M168.28,206.47c-1.22.07-2.35.24-3.51.59l-.18-2.27c.78.09,1.5.35,2.19.71.52.29,1,.6,1.5.97Z"/>
        <path class="cls-1" d="M182.3,205.85c-.55.33-1.06.61-1.67.86.53-1.07.96-2.14,1.24-3.33l2.07.98c-.47.61-1,1.08-1.64,1.49Z"/>
        <path class="cls-1" d="M174.49,220.14c.12.45.24.86.43,1.3l1.77-1.35c-.91-.87-1.65-1.79-2.33-2.81-.05.7-.05,1.37.01,2.06l.11.79Z"/>
      </g>
    </g>
  </g>
  <g>
    <g>
      <path class="cls-6" d="M95.91,156.39c.1.24.2.62.05.71-11.69,6.77-23.94,13.56-36.75,18.35-10.94,4.93-17.27,12.64-19.22,24.62-.45,5.6-1.3,11.1-2.56,16.51l-.61.74c-.95-1.15-2.38-2.07-3.02-3.6-.09-.53-.03-1.37.07-1.85,1.65-8.37,1.07-14.97,5.07-23.66,4.66-10.13,12.61-15.54,23.03-18.91,4.38-1.42,8.19-3.37,12.23-5.59l19.76-10.86c.5-.2.75-.27,1.26-.12.19.06,1.6,3.49.68,3.66Z"/>
      <path class="cls-13" d="M231.76,213.77c-.85,1.29-1.94,2.39-2.95,3.55-.85-.61-1.31-1.54-1.37-2.79l-.69-4.23c-.77-15.67-5.24-28.12-20.37-34.83-12.88-4.84-25.14-11.57-36.82-18.34l-.03-.75c-.59-.79.13-3.89,1.26-3.84l20.62,11.31c4.05,2.22,7.89,4.1,12.28,5.55,3.28,1.08,6.37,2.35,9.4,4.07,10.28,5.82,15.44,16.01,16.97,27.49l1.7,12.82Z"/>
      <path class="cls-2" d="M228.82,217.32c-5.83,6.68-12.42,12.86-19.6,18.03l-.68-.04-3.18-11.55,4.89-10.28c1.13-3.02-4.02,2.66-4.08,3.34-.86,1.25-1.7,1.52-2.52.8-1.44-4.35-2.4-8.76-2.88-13.2,0-.1,0-.2,0-.3-.13-11.08-5.31-21.42-13.97-28.6-6.37-5.28-13.27-9.51-20.48-13.61l3.2-5.54,21.05,11.55c3.67,2.01,7.16,3.62,11.09,5.03,3.21,1.15,6.27,2.33,9.21,4.04,9.56,5.58,14.47,15.01,15.71,25.84.57,4.99.82,9.86,2.23,14.49Z"/>
      <path class="cls-2" d="M64.94,203.43c-.4.53-.09,1.4-.33,1.93-.61,4.05-1.53,8.05-2.77,11.99-.87.94-1.84.63-2.91-.93-7.73-10.11-1.43,2.13.34,5.21.32.68.61,1.38.67,2.15.15,1.68-2.3,9.75-3.24,11.34-.11.19-.54.08-.81-.06-6.93-5.16-13.57-11.06-19.06-17.73,1.08-4.69,1.64-9.44,2.13-14.38,1.09-10.86,5.85-20.2,15.42-25.81,6.02-3.53,11.59-4.34,19.07-8.44l22.45-12.31c.68,1.93,2.16,3.63,3.15,5.57-7.43,4.2-14.42,8.42-20.79,13.84-7.87,6.7-12.7,15.85-13.54,26.12-.05.59.11,1.12.2,1.52Z"/>
      <path class="cls-21" d="M178.86,252.14l1.7-9.01c-10.43,2.29-20.64-.31-30.42-3.54-.75-.25-.74-1.24-.54-1.66.29-.63,1.08-.81,1.84-.67,6.11,1.12,12.06,1.85,18.18,1.15,9.46-1.09,17.47-5.95,22.47-14,.47-.75.96-1.47,1.61-1.87l-.87,5.16-2.83,19.54c-3.5,2.22-7.43,3.38-11.13,4.9Z"/>
      <path class="cls-21" d="M86.57,252.14c-3.6-1.51-7.49-2.61-10.98-4.92l-2.41-14.97c-.53-3.29-.43-6.73-1.49-9.75.55.26.81.85,1.19,1.42,2.68,3.98,5.79,7.5,9.93,10.03,10.17,6.21,20.4,5.1,31.51,3.32.81-.13,1.44.15,1.56.85.09.54-.05,1.34-.8,1.57-10.79,3.31-18.81,5.59-30.2,3.48l1.7,8.97Z"/>
      <path class="cls-14" d="M55.89,235.05c.75-.06,3.48-10.13,3.41-11.24-.04-2.31-6.41-10.78-4.34-11.75,1.92-.9,3.49,3.78,6.14,5.51,1.46-4.23,1.82-8.45,3.51-12.21.77,5.51,1.49,11.03,3.31,16.45.93,1.96,1.21,3.91.79,6.04-.91,4.69-1.82,9.38-3.03,13.97-3.73-1.99-6.71-4.48-9.79-6.77Z"/>
      <path class="cls-5" d="M209.22,235.36c-3.01,2.17-5.88,4.56-9.45,6.56-1.26-5.05-2.41-10.08-3.18-15.2-.21-1.42.1-2.7.61-3.96,2.05-6.01,3.07-12.15,3.58-18.33l3.56,13.25c2.39-1.6,4.42-6.91,6.31-5.47.35.27.51.91.21,1.53l-4.87,10.06,3.24,11.56Z"/>
      <g>
        <path class="cls-17" d="M71.82,245.22c-1.23-.21-1.92-.94-3.13-1.57.53-2.42.94-4.66,1.75-7.13l1.38,8.69Z"/>
        <path class="cls-11" d="M196.84,243.59c-1.08.76-1.94,1.31-3.15,1.76l1.3-8.69,1.86,6.93Z"/>
      </g>
      <g>
        <path class="cls-15" d="M168.7,151.35c.15.44.32.92.2,1.39-1.73,6.9-8.68,13.83-13.9,18.29-.64,2.8,4.95-2.74,5.59-3.38,1.3-1.55,2.71-2.96,4.22-4.25,16.17,8.25,32.11,18.85,34.22,38.22.02.22-.05.45-.13.7s-.21.49-.35.72c-.72.38-.88,1.12-.98,2.03-.7,6.06-1.64,11.97-3.87,17.47-7.66,16.26-26.38,19.14-42.56,15.33-.82-.37-1.33.93-.85,1.1,9.34,3.28,19.66,5.58,29.53,3.66.85-.18,1.06.22,1.33.9.15.37-1.28,7.47-1.48,7.82l-.81.79c-19.28,7.89-40.73,10.25-61.59,7.73-10.69-1.29-21.02-3.69-30.69-7.74l-.81-.79-1.44-7.61c.12-.8.36-1.27,1.25-1.09,9.92,1.92,19.85-.48,29.27-3.56.58-.19.65-1.31-.24-1.2-16.31,3.61-35.05,1.18-42.92-15.39-1.94-5.49-3.24-11.13-3.71-17.15-.07-.9-.24-1.74-.86-2.25-.15-.21-.29-.42-.39-.66s-.18-.44-.16-.64c1.27-19.12,18.3-30.48,34.1-38.37,2.81,3.11,5.86,5.92,9.15,8.44.73.07.96-.53.39-1.06-3.87-3.01-7.06-6.41-9.79-10.47-1.19-1.76-3.8-6.1-3.92-8.07-.02-.39.19-.75.41-1.06l3.29-1.67c3.63,13.89,20.07,24.78,32.56,30.29,12.61-5.56,28.67-16.2,32.57-30.25,1.34.48,2.28,1.29,3.39,1.77Z"/>
        <g>
          <path class="cls-3" d="M170.79,152.54c-.54,1.18-.62,2.73-1.26,3.84l.38.64-2.69,4.65c7.49,4.33,14.97,8.89,21.46,14.63,4.01,3.55,7.39,8.31,9.55,13.2,1.4,3.16,3.56,10.02,3.15,13.35-.06.48-.3.9-.61,1.28-.48-.8-1.31-1.19-2.23-1.08-1.01-10.05-5.37-19.03-13.32-25.66-6.3-5.25-13.16-9.56-20.42-13.45-1.44,1.72-9.3,10.94-10.58,7.94-.18-.43-.06-.97.4-1.37l2.75-2.43c5.2-4.59,9.23-10.25,11.33-16.73.75.32,1.39.81,2.08,1.19Z"/>
          <path class="cls-20" d="M67.12,203.1c-.74-.12-1.5.02-2.18.33-.9.12-.88-.76-.84-1.55,1.04-19.83,18.24-31.88,34.51-40.16l-.42-.03c-.26-.2-2.66-4.22-2.64-4.48.02-.32.14-.59.36-.83l-1.11-3.13c-.14-.39-.49-.48-.83-.41l2.93-1.63c.84,3.89,3,7.37,5.41,10.72,2.31,3.22,5.15,5.77,8.19,8.27.56.46.86,1.17.56,1.72-.19.35-1.01.86-1.55.5-3.37-2.28-6.15-5.13-8.89-8.44-6.83,3.55-13.11,7.64-19.18,12.36-8.48,6.6-13.75,16.18-14.31,26.76Z"/>
        </g>
      </g>
    </g>
    <g>
      <g>
        <path class="cls-19" d="M167.62,83.2c-.41.05-1.87,3.7-.72,3.8.15.43.02.93-.4,1.48l-.85,7.22-.69.38c-.66-.93-1.76-1.23-2.87-1.31.27-1.85-.22-13.9-.88-14.99l-3.06-5.07c-1.13-1.87,2.4-10.22-5.19-13.56.97,2.8,1.97,5.26,1.06,8.09-1.97-2.9-3.87-5.55-7.14-6.67,2.92,3.39,4.3,7.86,2.79,12.02-1.36-3.09-2.21-5.83-4.62-8.01-7.93-7.15-9.25-1.51-19.02-4.14l-8.88-2.4c-2.1-.57-3.98.55-5.65,1.58-6.45,3.97-3.03,11.32-4.22,13.33l-2.97,5.03c-2.29,3.87-1.01,9.52-.91,14.5-.7.88-2.02.67-2.94,1.26l-.69-.29-.88-7.07c-.41-.56-.52-1.08-.32-1.56,1.3-.04.17-3.45-.72-3.95-.96-7.33-2.21-14.6-2.2-22.13-.91.42-1.11,1.17-1.81,1.72-.69-4.29.35-9.49,4.73-12.14-1.41-1.33-3.01-.8-4.62-.84,1.69-3.05,4.72-4.31,7.92-4.28-.15-5.05,2.38-9.62,6.74-12.35-.21,2.08-1.15,3.9-.47,6.02,4.72-8.09,14.58-11.89,23.32-12.31-1.2,1.76-2.51,2.76-2.84,4.65,6.41-2.75,10.17-4.38,17.39-2.24-.94.75-1.9.91-2.5,2.03,2.27,1.22,4.8,2.23,7.31,1.6.6-.15.24-1.45.28-2.11,6.12,1.15,7.07,10.02,10.82,9.34,1.11-.2.66-2.16.91-3.02,3.43,2.79,4.65,7.17,4.14,11.49,4.14,2.89,5.3,8.32,4.93,13.02-.88-.73-1.22-1.53-2.35-1.69.64,7.62-.86,16.22-1.92,23.59Z"/>
        <g>
          <path class="cls-9" d="M126.71,52.05c-1.29-2.85-.64-5.85.48-9.18-4.51,1.14-7.6,5.03-8.95,9.82-1.41-4.69.75-9.33,4.51-12.01,4.74-3.37,8.47-2.78,13.21-6.04.05,2.23-1.13,3.71-2.15,5.45,2.6.34,4.96-.82,7.28-2.1-.14,1.73-1.22,2.96-2.58,3.89-5.08,3.48-8.82,1.61-11.81,10.18Z"/>
          <path class="cls-12" d="M144.44,47.84c-3.6,1.75-6.75,1.39-10.61,4.89,2.08-8.45,9.49-3.98,13.82-12.59,1.25,3.11-.37,6.32-3.21,7.7Z"/>
          <path class="cls-7" d="M151.28,52.84l-4.78,1.8c1.48-4.87,6.86-3.45,7.91-10.88,1.4,2.3,1.3,5.12-.28,7.29-.63.86-1.72,1.37-2.85,1.79Z"/>
          <path class="cls-12" d="M101.84,60.35c.89-1.95,2.55-3.05,4.63-3.86-1.35-1.61-3.16-1.66-5.13-2.1,3.23-2.03,7.24-.44,8.71,3.1-3.05.24-5.34,1.39-8.21,2.86Z"/>
          <path class="cls-8" d="M154.18,56.26c2.8-3.1,4.45-2.09,6.68-7.31,1.1,2.2.57,4.97-1.4,6.43-1.47,1.09-3.35,1.25-5.28.88Z"/>
          <path class="cls-23" d="M110.62,50.52c-.91-2.26-.8-4.91.17-7.34.9-2.07,2.8-3.49,5.07-3.12-2.74,3.03-4.66,6.16-5.24,10.46Z"/>
          <path class="cls-25" d="M159.53,59.06c1.48-2.19,3.62-3.46,5.73-4.93.19,3.08-2.47,5.41-5.73,4.93Z"/>
          <path class="cls-18" d="M117.25,42.81c-1.14-1.81-.02-7.34,3.29-7.86-1.44,2.45-1.98,4.92-3.29,7.86Z"/>
        </g>
      </g>
      <g>
        <path class="cls-10" d="M162.09,94.77l-1.36,9.37-.82.35c-2.14,2.76-4.17,5.59-6.08,8.47-2.23,6.84-4.56,13.63-7,20.36-2.03,2.97-5.77,5.9-9.35,6.19-2.99.24-5.94.17-8.93.04-4.91-.22-7.41-3.65-9.98-6.12l-6.98-20.63c-2.35-3.07-4.52-6.23-6.51-9.48l-.47-.12c-.39-3.06-1.16-5.93-1.21-8.72l-.67-.66c-.81-4.76-.58-9.29.71-13.59l3.38-5.84c-.76-7.29.83-14.06,9.28-15.15,4.27,1.04,8.55,2.09,12.85,3.14,2.89.17,5.76.09,8.64-.24,5.62.47,10.04,5.28,11.95,10.37.55-3.54-.97-6.67-2.96-9.5-.17-.57.04-.73.58-.82,1.84-.34,5.51,3.89,6.54,5.4.02-1.94-.37-3.83-1.17-5.67-.09-.75,0-1.15.77-1.18,2.5-.09,5.72,5.47,5.33,7.94v5.54s3.15,5.3,3.15,5.3c.86,4.92,1.19,9.89.99,14.93l-.68.36Z"/>
        <path class="cls-22" d="M160.74,104.14l-1.44,12.01c-.37,3.09-1.52,5.77-3.62,8.06l-6.77,7.38c-.64.7-1.41,1.26-2.07,1.72-.35-.52-.17-1.05.05-1.72l6.25-18.63c.73-2.18,6.01-7.72,7.15-10.48.45.74-.09,1.4.44,1.66Z"/>
        <path class="cls-22" d="M118.57,133.42c-3.47-3.34-6.56-6.74-9.64-10.33-1.54-1.8-2.28-4.09-2.58-6.44l-1.73-13.45c.25-.16.21-.44.53-.99.7,2.51,6.53,8.8,7.07,10.43l6.57,19.61c.16.47-.1.92-.22,1.18Z"/>
        <g>
          <path class="cls-24" d="M232.53,196.36c.32,1.73.72,3.39.89,5.16-.81.28.27.9-.83,2.81-.18.32-1.27.63-1.45.07-.74-2.2-.9-9.94,1.16-7.39.27-.1.12-.43.23-.64Z"/>
          <g>
            <path class="cls-10" d="M108.88,136.38c.15-2,1-1.73,2.56.8,1.56,1.58,2.96,3.28,4.2,5.11l9.1,23.43c.5.79,1.62.64,1.24-.46l-4.93-13.87c-1.17-2.88-.83-3.83,1.02-2.85,6.82,5.71,15.28,5.32,21.95-.4.7-.33,1.02.03,1.31.68l-5.7,16.17c-.86,1.28.94,1.53,1.21.87,3.07-7.47,5.8-15.07,8.4-22.72l6.5-7.99.8.04.51,9.65,5.39,3.13c-3.16,12.94-18.35,23.19-29.69,28.41-11.04-5.08-27.16-16.03-29.61-28.51l5.24-2.99.51-8.51Z"/>
            <path class="cls-22" d="M156.53,135.21l-6.72,8.22c-2.65,7.69-5.21,15.15-8.33,22.59-.35.84-1.47.95-2.1.69-.77-.31-.59-1.29-.3-2.11l5.74-16.27c-8.09,6.55-15.76,6.8-23.99.05,1.6,5.7,3.74,10.97,5.7,16.49.32.89.19,1.82-.73,1.94-.64.09-1.37-.12-1.67-.91l-8.52-22.19c-1.26-3.28-4.65-5.33-6.2-8.37-.45.56-.24.82-.52,1.04l.32-7.87,9.56,9.87c4.99,5.15,11.84,4.79,18.8,4.38,3.2-.19,6.08-1.67,8.44-3.78,3.68-3.29,6.78-6.86,10.21-10.47.46,2.44.2,4.58.32,6.69Z"/>
            <path class="cls-10" d="M164.96,96.08l.87-7.46c.09-.79.52-1.3,1.07-1.62,6.47-2.66,1.25,13.59.41,15.94-.59,1.65-1.77,3.02-3.52,3.35l1.16-10.21Z"/>
            <path class="cls-10" d="M98.58,86.8c.44.4.89.98.96,1.51l.92,7.42,1.16,10.56c-1.86-.35-2.94-1.91-3.57-3.66-.91-2.52-4.75-15.38-1.17-16.04.41-.08,1.37-.09,1.7.21Z"/>
          </g>
        </g>
      </g>
    </g>
  </g>
  <g id="xBbnet.tif-2" data-name="xBbnet.tif">
    <g>
      <path class="cls-1" d="M184.56,205.65c-.42,5.67-3.02,10.04-7.09,13.86-.75-.48-1.57-1.47-2.11-2.19-1.13-1.51-2.1-3.1-2.93-4.79-.24-.48-.42-.92-.63-1.47l-.51-1.61.54.03c.28.02.83.07,1.11.13l.81.18.49.11h0c.06.57.21,1.12.46,1.63l.18.38c.56,1.24,1.23,2.37,2.09,3.43,2.16-2.22,3.99-5.01,4.69-8.01l.98-.46c.68-.32,1.29-.72,1.91-1.2Z"/>
      <path class="cls-1" d="M180.95,202.81c-.12,1.4-.86,3.01-1.46,4.24l-.34.68c-.11.2-.22.41-.33.61t0,0l-1.4,2.32c-.3.44-.61.86-.95,1.26l.03-.7c.02-.45-.28-.85-.71-.97h0c-.88-.22-1.55-.37-2.02-.48-1-.23-2.03-.35-3.05-.34-.72,0-1.44.08-2.16.21.96,3.05,2.53,6.09,4.84,8.27l-.04,1.14c-.03.76.06,1.49.18,2.27-4.77-3.3-7.36-7.88-8.82-13.39.46-.24.92-.39,1.42-.51,1.16-.27,2.33-.38,3.49-.44l.32-.02c.92-.03,1.83-.03,2.75,0,.64.05,1.23.1,1.87.23,0,0,.83.12,1.9.38.43-.72.8-1.48,1.1-2.27-3-.77-6.35-.95-9.29-.06l-1.04-.72c-.57-.4-1.18-.68-1.84-.95,5.12-2.47,10.21-2.41,15.56-.79Z"/>
      <path class="cls-1" d="M168.28,206.47c-1.22.07-2.35.24-3.51.59l-.18-2.27c.78.09,1.5.35,2.19.71.52.29,1,.6,1.5.97Z"/>
      <path class="cls-1" d="M182.3,205.85c-.55.33-1.06.61-1.67.86.53-1.07.96-2.14,1.24-3.33l2.07.98c-.47.61-1,1.08-1.64,1.49Z"/>
      <path class="cls-1" d="M174.49,220.14c.12.45.24.86.43,1.3l1.77-1.35c-.91-.87-1.65-1.79-2.33-2.81-.05.7-.05,1.37.01,2.06l.11.79Z"/>
    </g>
  </g>
</svg>