<?xml version="1.0" encoding="UTF-8"?>
<svg id="Calque_1" data-name="Calque 1" xmlns="http://www.w3.org/2000/svg" viewBox="0 0 265.82 265.55">
  <defs>
    <style>
      .cls-1 {
        fill: #b26949;
      }

      .cls-2 {
        fill: #a1432c;
      }

      .cls-3 {
        fill: #b35234;
      }

      .cls-4 {
        fill: #b25233;
      }

      .cls-5 {
        fill: #d87171;
      }

      .cls-6 {
        fill: #7d2a18;
      }

      .cls-7 {
        fill: #7c2b19;
      }

      .cls-8 {
        fill: #d6aeae;
      }

      .cls-9 {
        fill: #23395a;
      }

      .cls-10 {
        fill: #973921;
      }

      .cls-11 {
        fill: #910034;
      }

      .cls-12 {
        fill: #b85535;
      }

      .cls-13 {
        fill: #89503b;
      }

      .cls-14 {
        fill: #631b0e;
      }

      .cls-15 {
        fill: #5c190e;
      }

      .cls-16 {
        fill: #ffd9d9;
      }

      .cls-17 {
        fill: #d8ecf6;
      }

      .cls-18 {
        fill: #b55435;
      }

      .cls-19 {
        fill: #712314;
      }

      .cls-20 {
        fill: #b75638;
      }

      .cls-21 {
        fill: #d1ecf6;
      }

      .cls-22 {
        fill: #87311d;
      }

      .cls-23 {
        fill: #b85635;
      }

      .cls-24 {
        fill: #cfe6f2;
      }

      .cls-25 {
        fill: #782819;
      }

      .cls-26 {
        fill: #963a22;
      }

      .cls-27 {
        fill: #b15033;
      }

      .cls-28 {
        fill: #691e11;
      }

      .cls-29 {
        fill: #7c2a19;
      }

      .cls-30 {
        fill: #273652;
      }

      .cls-31 {
        fill: #b45433;
      }

      .cls-32 {
        fill: #8c3521;
      }
    </style>
  </defs>
  <g>
    <path class="cls-17" d="M265.29,132.78c0,73.33-59.39,132.77-132.65,132.77S0,206.12,0,132.78,59.39,0,132.65,0s132.65,59.45,132.65,132.78Z"/>
    <g>
      <path class="cls-9" d="M265.29,132.78c0,73.33-59.39,132.77-132.65,132.77S0,206.12,0,132.78,59.39,0,132.65,0s132.65,59.45,132.65,132.78Z"/>
      <g>
        <path class="cls-16" d="M167.54,146.83c-.58.73-1.42.15-1.43-.71-1.1.29-2.82-.7-3.05-1.83-.92.55-2.7-.38-2.74-1.41-1.09-.27-1.26-2.42-.44-2.93l.13-2.96c-.39-.52-.16-.68.36-.25l.16-.83c2.16-1.39,3.23-3.85,3.79-6.28.26-.74.46-1.02,1.21-.81,2.39,1.76,5.1,2.99,8.11,2.24-2.39-1.51-4.72-7.91-3.79-10.38.18-.46.32-.73.86-.62,3.29,1.28,6.75.64,8.96-2.21-4.58-.15-7.11-4.61-5.05-8.63,2.18-2.88,4.06-5.94,4.37-9.63.11-.22.24-.41.42-.5,1.52-.74,2.01,3.69,1.86,4.63,3.9-4.91,3.79-11.17,2.36-16.97,1.09-.51,2.31-.84,3.65-.98-2.37-1.42-4.74-3.23-5.95-5.8-.43-.91-2.19-10.1-1.84-10.58s.79-.44,1.32-.27l1.65,3.24c.27-3.67.03-7.42-.78-11.03-1.85-8.25-5.66-12-11.64-17.35-7.36-12.06-20.33-21.93-34.77-15.76-9.22-5.74-17.73-3.28-25.88,3.06l-10.46,6.17c-7.02,4.37-9.97,11.76-10.8,19.64-.88,2.81-2.46,5.38-4.76,7.7-2.26,2.97-2.32,6.18-1.73,9.68-.21,3.35-2.95,4.8-6,5.08.3,2.31,3.26,3.72,5.55,3.82.72.22,1.18.47.9,1.22-3.27,6.56-2.69,14.53,2.45,19.95-.24-1.4-.6-7.02.32-7.85.68-.61,1.06-.92,1.46-.07.53,4.62,2.05,8.97,4.56,13.04,1.59,4.39-.94,7.56-5.27,8.22,2.47,3.23,5.92,3.05,9.48,2.25,1.19,3.75-.61,8.18-3.35,10.91,2.69.76,5.48-.35,7.56-2.08.67-.38,1-.46,1.43.18.73,2.8,1.82,5.58,4.43,7.09l.21.83.61.55c.1,1.23.04,4.36-.56,5.34-.5.82-1.07,1.42-1.82.72-.77.35-2.09.9-3.01,1.41l-26.79,14.85c-4.61,2.55-8.95,4.82-13.97,6.4-8.96,2.82-16.86,8.12-21.83,16.21-3.17,5.16-5.13,10.76-5.91,16.77l-1.37,10.49c-1.53-1.96-2.81-3.53-4.15-5.53C-3.07,160.02-2.31,102.5,28.3,58.83c11.8-16.84,27.32-30.54,45.62-39.91C108.33,1.31,148.89.09,184.32,15.61c10.85,4.75,21.12,11.02,30.25,18.71,21.82,18.4,37,43.76,42.99,71.63,7.81,36.34-.44,74.14-22.76,103.74-.16.17-.21.18-.26.13-.13-.14-.12-.46-.15-.68l-1.33-10.08c-2.07-15.7-11.84-27.65-26.97-32.48-4.46-1.42-8.3-3.13-12.41-5.39l-26.14-14.35Z"/>
        <g>
          <g>
            <path class="cls-11" d="M228.73,217.16c-5.8,6.75-12.42,12.94-19.63,18.13-.24.07-.63.11-.68-.04-.45-1.34-3.23-10.74-3.09-11.31,1.55-3.74,3.16-7.41,4.85-11.01l-.3-.43c-1.67,1.51-3.21,3.22-4.63,5.13-.32.23-1,.48-1.28.37-1.14-.42-3.1-10.96-3.22-13.11.05-.4,0-.84-.02-1.24l-.74-1.36c-.9-19.74-17.23-30.7-33.13-39.5-1.08-.35-1.11-.87-.98-1.73.04-.28,2.49-4.41,2.82-4.86l.79-.08.5-.46c9.29,5.27,18.76,10.29,28.4,15.08,8.42,3,16.72,6.39,22.1,13.91,5.65,7.9,6.81,16.82,7.65,26.23l.91,4.88-.3,1.37Z"/>
            <path class="cls-11" d="M95.78,156.13c.25-.06.63-.15.74,0,.47.66,3.13,5.43,2.78,5.8-.27.29-.59.54-.92.78-15.53,8.74-32.51,19.83-32.92,39.39l-.65,1.15c.01.67-.39,1.3-.28,2.03-.69,4.22-1.52,8.63-3.22,12.61-.86.11-1.57-.27-2.14-1.14l-3.13-3.91c-.83-.8-1.01-.54-1.07.51,1.89,3.38,3.55,6.87,4.99,10.47-.91,3.9-2.04,7.71-3.4,11.43l-.78-.29c-7.08-5.24-13.79-11.22-19.3-18.09l-.33-1.15c1.13-5.15,1.91-10.36,2.36-15.63,2.96-15.83,12.15-24.49,27.44-28.86l4.24-1.88c8.39-4.52,16.68-9.04,24.87-13.56l.72.34Z"/>
            <path class="cls-5" d="M171.33,152.49c.1.05.26,0,.36.03l20.41,11.51c8.72,4.92,11.05,4.37,18.75,8.1,11.49,5.57,17.35,16.04,19.06,28.44l1.8,13.03c-.96,1.39-2.02,2.42-2.99,3.55-1.4-4.86-1.62-9.89-2.3-15.09s-2.43-10.49-5.2-15.08c-3.62-6-9.23-10.06-15.63-12.72-4.28-1.78-8.43-3.03-12.52-5.26l-23.6-12.87-.51-.52c.15-1.13.98-4.06,2.38-3.12Z"/>
            <path class="cls-5" d="M94.17,152.56c1.16-.78,1.97,2.02,2.09,3l-.48.57-8.38,4.55-12.04,6.7c-3.99,2.22-7.83,4.07-12.15,5.56-3.95,1.36-7.78,2.94-11.13,5.35-5.08,3.65-8.66,8.45-10.87,14.25-3.6,9.43-1.93,15.48-4.74,24.33-.82-1.03-2.1-1.76-2.8-3.24.74-5.47,1.19-10.82,2.25-16.26,2.88-14.74,11.34-23.37,25.3-28.05,4.95-1.66,9.18-3.8,13.74-6.29l19.2-10.47Z"/>
            <path class="cls-8" d="M178.81,252.05l1.69-8.91c-5.45,1.06-10.7,1.2-16.16.15-4.83-.93-9.46-2.09-14.04-3.68-.73-.25-.96-1.11-.89-1.57.11-.68.81-1.09,1.63-.92,17.26,3.54,31.87,1.71,41.78-13.98.24-.38.51-.59.82-.69-.87,2.44-2.72,20.74-3.87,24.73-3.47,2.34-7.37,3.37-10.96,4.86Z"/>
            <path class="cls-8" d="M86.43,252.05c-3.6-1.52-7.47-2.65-10.9-4.88-1.28-4.47-2.99-22.11-3.86-24.75.68.31.95,1.02,1.43,1.7,2.05,2.96,4.26,5.78,7.16,7.98,10.28,7.82,21.84,7.35,33.96,5.07.75-.14,1.39.31,1.55.92.13.46-.08,1.29-.79,1.53-9.97,3.29-19.53,5.74-30.24,3.37l1.69,9.06Z"/>
            <path class="cls-8" d="M55.78,234.96c.6-.09.64-.8.81-1.4l2.76-9.65c-1.38-3.55-3.16-6.81-4.93-10.22-.27-.52.06-1.49.37-1.76,1.56-1.36,4.11,4.42,6.24,5.66,1.04-3.91,2.1-7.67,2.92-11.62.08-.37.42-.56.58-.68.71,4.95,1.28,9.92,2.78,14.85.56,2.02,1.66,3.94,1.42,6.12-.58,5.31-1.97,10.4-3.17,15.5-3.73-2.06-6.69-4.5-9.79-6.79Z"/>
            <path class="cls-8" d="M209.1,235.28c-3,2.16-5.82,4.6-9.36,6.48-1.36-5.05-2.46-10.05-3.22-15.18-.25-1.71.4-3.33.94-4.9,1.92-5.53,2.53-11.15,3.28-16.79.2-.14.27.09.32.33.93,4.2,1.91,8.22,3.15,12.43,1.98-1.4,4.44-6.36,5.92-5.74.55.23.9,1.08.59,1.75-1.6,3.49-3.54,6.67-4.78,10.32l3.15,11.3Z"/>
            <path class="cls-21" d="M71.64,245.03c-1.09-.05-1.89-.84-3.05-1.45l1.73-7.1,1.31,8.54Z"/>
            <path class="cls-24" d="M196.74,243.45c-.87.86-1.9,1.28-3.09,1.82l1.28-8.57,1.81,6.75Z"/>
            <g>
              <path class="cls-11" d="M101.28,152.27l.79.51,1,2.48c.96,1.21,1.56,2.47,1.82,3.75.83-.62,2.77,1.73,2.22,2.55l.65.18c3.05,2.83,6.06,5.71,9.03,8.63.24.4.44.42.83-.02.17-.01,2.74,1.71,2.11,2.18l2.26.73c3.47,2.11,7.03,4.05,10.69,5.81,9.13-4.39,18.12-9.82,24.88-17.53,3.36-3.84,5.56-7.9,7.53-12.52,1.23-.12,3.2.78,3.46,2.07.1.23.19.47.23.71.59,3.35-7.54,13.66-10.46,16.03-3.28,2.36-4.27,3.66-2.96,3.89,3.35-2.51,6.43-5.35,9.24-8.52,16.95,8.64,31.88,18.57,34.33,38.55l-.45,1.18c-.53.32-.94.89-1,1.66-.5,6.27-1.78,12.18-3.82,17.87-8.03,16.38-26.58,19.28-42.88,15.28-.96-.14-.82,1.08-.35,1.23,9.54,3.07,19.33,5.73,29.33,3.66.87-.18,1.08.23,1.34.92.14.37-1.29,7.34-1.46,7.69l-.81.81c-18.22,7.58-38.6,10.11-58.42,8.16-11.83-1.16-23.28-3.67-33.96-8.16l-.81-.8-1.43-7.68c.13-.81.38-1.27,1.28-1.07,9.81,1.99,20.16-.17,29.42-3.54.45-.16.32-1.26-.43-1.16-16.17,3.82-35.02,1-42.79-15.38-1.83-5.56-3.4-11.15-3.77-17.23-.05-.88-.32-1.71-.86-2.23-.15-.23-.28-.46-.38-.72-.09-.24-.16-.47-.15-.69,1.14-19.2,18.54-30.41,33.98-38.31,2.28,2.28,4.62,4.51,7,6.69,2.24,2.1,3.2,2.4,2.88.92-5.66-4.63-12.07-11.25-13.74-18.62-.04-.17.01-.36.07-.56.07-.21.18-.42.29-.61,1.07-.46,1.82-1.55,3.24-1.66-.11,1.15.86,2.06,1.03,2.86Z"/>
              <g>
                <path class="cls-8" d="M67.03,202.97c-.75-.08-1.5.04-2.21.29-.19-10.29,4.81-20.15,12.65-27.05,6.54-5.76,13.8-10.14,21.39-14.51l-3.08-5.57c-.18-.32-1.04-3.92-1.61-3.57.93-.51,1.83-1.06,2.83-1.49,1.08,4.7,3.67,9,6.87,12.8,2.06,2.45,4.48,4.31,6.84,6.42.48.43.55,1.07.27,1.54-.2.34-.86.87-1.4.5-3.5-2.4-6.34-5.35-9.19-8.55-16.72,9.65-31.86,18.13-33.37,39.18Z"/>
                <path class="cls-8" d="M171.33,152.49c-.56,0-.83.38-1,.93l-.87,2.72-3.23,5.58c6.68,3.77,13.05,7.68,19.05,12.42,9.83,7.76,14.77,17.17,15.42,29.52-.58-.6-1.43-.77-2.25-.74-.77-4.48-1.48-8.91-3.52-13.15-3.01-6.25-7.47-11.06-13.01-15.18-5.5-4.09-11.19-7.59-17.29-10.86-2.69,3.27-5.44,6.2-8.88,8.48-.61.4-1.34-.05-1.61-.56-.24-.45-.02-1.06.52-1.51,6.3-5.14,11.55-11.32,13.88-19.07l2.79,1.42Z"/>
              </g>
            </g>
          </g>
          <g>
            <path class="cls-15" d="M160.38,136.74c-.38-.09-.65-.44-.64-.97l.02-2.64c.69-.6.29-.14.31-.17,1.62-3.81,2.45-6.5,2.56-10.72.28-.83.75-1.29,1.45-.69.99,1.76,2.06,3.55,3.65,4.82-.44-2.37-1.35-8.86-.53-10.92.31-.78.66-.75,1.44-.48,1.47,1.54,3.12,2.54,4.93,3.01-3.96-4.17-2.83-9.14.83-13.06,2.14-3.51,4.24-9.88-.86-11.64l-.24-.84c-1.02-.55-1.81-1.68-3.14-1.27-1.07-.21-2.15-.68-3.25-1.4-.55,1.86-.97,3.82-1.27,5.88l-.72.34c-1.46-.69-.41,1.1-3.26,1.59-.87-.4-.92-1.51,0-1.87l-.6-10.34c-4.15-3.56-6.89-8.58-8.02-13.91-.61-3.96-1.34-7.88-2.18-11.76-.93-1.69-2.63-2.51-5.08-2.45l-.28-.7c-.67-.29-.62-.65-.04-1.06l3.1-1.06c-.83-1.61-.52-3.39,1.52-2.36.37-.06.72,0,1.05.17,1.67.85,3.84,6.76,4.18,8.77.54,4.35,1.45,8.58,2.73,12.71-.17-.71-.16-1.31.39-1.84.31-1.07.82-.72,1.43-.02,1.03,3.3,2.36,6.46,4,9.5l1.33,1.59c3.42,2.87,7.2,5.27,11.36,7.21,1.7,1.17,3.2,3.29,4.13,5.11l.87.57c.6-3.48.07-7.06-1.88-10.04-.24-1.45.9-1.47,1.69-.46.22-.71-.14-1.38-1.08-2-.85-.93-1.13-1.75-.85-2.48-1.19-1.61-2.12-3.41-2.78-5.41-1.82-3.46-4.27-6.51-7.35-9.17-3.03-3.94-5.17-8.38-6.43-13.33-1.11-3.28-3.02-6.13-5.47-8.59-.31-.6-.12-.74.47-.88,2.66-.63,6.17,4.76,7.18,6.87,2.53,7.31,5.34,13.78,11.5,18.88,0-5.1-2.64-9.43-5.77-13.27-.29-.66-.09-.8.58-.84,2.05-.12,6.21,4.43,7.43,6.18-.92-5.56-4.58-10.14-8.99-13.48-3.23-2.33-6.31-4.83-9.24-7.5-.06-1.36.91-1.5,2.91-.41-8.21-11.66-27.74-16.72-33.64-.36l-.44.21.41.87c-.65,2.28-.95,4.73-.45,7.07.16-2.5,5.75-9.36,7.82-9.24.32.02.6.15.83.37l.6-.86c2.03-.75,9.09-1,10.48.41.65.65.11.93-.77,1.13-7.67-.62-15.37,3.89-16.09,12.05l-.7.75c-.21.55-.73.81-1.57.76-1.4.75-2.25.63-2.53-.35l-.83-.76c-1.16-10.13-7.58-16.2-17.71-13.01-2.16-1.28,1.67-2.63,3.17-3.07,5.31-1.57,10.99-.04,13.92,4.82.87-4.15,3.14-7.75,5.83-10.96-5.47-3.12-10.24-2.47-15.51.43-4.54,3.06-9.22,5.89-14.06,8.49-2.8,1.72-5.41,3.84-7.33,6.54-.91,1.28-3.94,7.32-3.32,8.43.22.4,5.09-6.62,5.55-7.29.8-.84,1.3-1.24,1.52-.11.36,1.87-2.51,6.88-3.64,8.65-2.28,3.57-5.4,7.06-8.55,9.73l.19.77c-1.29,1.51-2.66,3.27-2.62,5.33.29-.56,1.77-2.89,2.08-2.82.28.06.52.12.7.38l.35.75c-.92,3.68-2.35,7.02-4.28,10.01-2.56,1.89-2.58,2.21.52,1.42,1.28-.33,2.5-.9,3.66-1.51l.62.39.23.94c-2.41,3.44-4.07,7.1-4.99,10.99l-.07,3.04c2.27-3.39,5.14-6.31,8.63-8.77,3.76-3.34,5.43-8.03,7-12.67-.99-.88.63-1.73.76-.39.81.27.82,2.42.71,3.22-.1.73-.29,1.88-.9,2.21l.34,1.1c-.73,3.01-2.86,6.15-4.87,8.46,7.55-5.17,9.34-13.39,9.55-21.97.95-6.66,3.23-11.75,10.56-12.71-2.51-1.33-5.6-1.61-8.09-.08l-.84-.22c-2.8,3.02-5.19,6.17-5.69,10.61l-.7.67-.24,3.12c-.81.69-1.01.42-1.37-.45-1.22-2.96.78-10.6,2.6-13.26,2.81-4.1,7.62-6.11,12.49-4.98,1.63.38,3.46.99,4.25,2.56.61-.41,1.26-.17,1.95.71.92,1.89,2.66,2.19,4.6,2.42-2.57-3.83-5.91-6.14-10.07-7.95-.33.06-.44-.06-.32-.38,1.22-1.16,4.41-.15,5.96.49,1.42.59,4,1.77,3.81,3.4,1.87.49,4.07,3.03,4.2,4.96.38.32.53.86.42,1.63l.4.76,3.97-.3c2.8.59,5.84-.09,8.2-1.65,1.26-.38,3.72.28,3.06,1.76-1.1,1.08-2.61,1.52-4.53,1.31.12.24.18.61,0,.68-6.14,2.48-10.26,1.64-16.18-.64l-.26-.75-5.85-.34c-5.19.06-7.16,2.53-8.04,7.34-.22,5.29-1.08,10.45-2.58,15.46-1.17,2-1.75,4.11-1.75,6.34-.79,2.89-.98,5.91-.58,9.04.91.41,1.21,2.36.34,2.92-.36-.6-1.21-.62-1.79-1.09-.55-.45-1.05-1.18-1.64-.59l-.74-.98c-.2-2.05-.63-3.98-1.27-5.78-1.06.93-2.13,1.57-3.23,1.93-1.12-.67-1.94.68-2.91,1.08l-.12.72c-2.14.08-3.05.66-2.75,1.73l-.64.43c.52,4.48,2.3,8.21,4.29,12.22,1.29,3.53,1.99,8.22-2.06,10.03.26.8,1.08.75,2.44-.17l3.3-2.51,1.02-.05c1.24,3.63.59,7.89-.16,11.64,1.39-1.47,2.56-3.11,3.49-4.94.65-.49.94-.17,1.34.51l1.23,7.09c.65,1.56,1.26,3.1,1.84,4.64.13,1.08.02,2.13-.07,3.2-2.89-1.34-4.59-4.4-5.23-7.97-2.7,2.36-6,3.67-9.71,2.25,3.3-2.68,4.69-6.52,4.38-10.84-3.97,1.89-8.41.45-10.52-3.45,2.35.28,4.1-.42,5.32-1.86s1.49-3.66.56-5.48l-2.3-4.55c-1.43-2.83-2.1-5.78-2.19-8.85-1.4,3.26-.67,6.37-.29,9.96-6.55-5.6-7.68-14.79-3.71-22.24-3.44,0-6.35-1.83-7.14-5.04,2.12-.13,4.06-.46,5.45-2.01,2.82-3.14-1.93-5.81,3.01-12.85,3.23-4.6,3.93-2.78,5.02-10.44s5.01-13.57,11.43-17.34l9.17-5.39c3.09-1.82,5.78-4.04,9.15-5.35,6.63-2.59,11.32-1.32,17.49,2,10.47-4.71,21.72-.28,29.04,7.89,1.82,2.03,3.41,4.11,4.9,6.37,2.72,4.13,7.81,6.58,10.44,11.83,3.24,6.47,4.03,13.68,3.3,21.07l-2.85-5.62.92,7.47c.57,4.68,3.99,7.15,7.65,9.19-1.5.99-2.85.81-4.6,1.1,2.26,6.4,1.24,13.41-3.34,18.68-.29-2.42.22-4.48-1.11-6.25-.23,3.77-1.86,6.76-4.05,9.6-1.35,1.74-1.3,4.24-.26,5.89,1.14,1.83,3.09,2.54,5.65,2.22-2.07,3.79-6.51,5.43-10.55,3.43.11,5.03.64,7.74,4.6,10.8-3.55,1.42-7.11.32-9.92-2.14-.64,3.26-2.05,6.21-4.71,7.59Z"/>
            <path class="cls-6" d="M159.75,133.14c.02-3.02-.67-5.49-.28-8.9,2.78-3.62,3.28-8.75,3.66-13.14.29-3.33,4.44-.72,6.97-7.03,1.52-3.79,2.29-7.73,3.19-11.61,1.12.61,2.99,1.16,3.47,2.61,1.52,4.6-.54,8.86-3.33,12.24s-2.04,8.4,1.61,11.04c-3.16,1.3-5.41-2.13-7.26-3.14-.17,5.21-.5,8.13,1.22,13.32-2.38-1.99-4.33-4.14-5.6-6.97-1.05,4.85.28,6.7-3.19,11.89-.14-.05-.3-.23-.47-.31Z"/>
            <path class="cls-7" d="M92.24,92.53c0,1.58.48,3.14.9,4.8l1.11,4.47c1.75,7.02,8,7.26,7.96,8.76s.54,2.87.57,4.23c.09,3.68,1.48,6.62,2.82,9.88.6,1.46.09,11.06-.13,9.2-3.09-2.8-2.96-8.21-3.81-12.15-1.35,2.72-2.75,4.94-5.28,6.64,1.41-4.36,1.64-8.54,1.08-13.12l-3.55,2.69c-.97.74-2.28.77-3.67.73-.09-.59.43-.75.73-.99,3.77-1.59,4.19-7.62,2.58-11.03-2.26-3.58-3.87-7.32-4.81-11.22.08-.57-.39-1.54.34-2,.96-.6,2.23-.51,3.16-.88Z"/>
            <path class="cls-28" d="M150.09,52.07c-.32.18-1.23.11-1.33.61-.14.72.57,1.23.55,1.89-.95,1.37-3.73.76-3.81,1.98-.6-.1-1.66-.09-2.25.05-.34-.75-1.21-.99-1.85-1.24-.96-.38-1.47.67-2.29.91l-3.74,1.06c-1.07.3-2.54-.27-3.72-.18l-3.57.28c-1.1.08-1.47-2.27-.88-3.02.13.08.46.18.54-.07.21-.66-.18-1.14-.29-1.62,1,.83,1.23-.53,4.1-.42-.04.91.27,1.95.64,3,1.47-2.59,2.6-5.18,4.91-7.04,4.19-3.37,10.07-4.1,14.3-.83-3.3-.88-6.57-.79-9.49.68,3.33.62,6.03,1.84,8.17,3.98Z"/>
            <path class="cls-22" d="M98.53,72.84c-.05,2.86-1.17,5.49-2.63,8.12-4.08,7.53-10.48,7.82-13.34,15.67-1.47-8.02,1.97-11.25,5.17-17.32,3.45-2.55,6.05-6.07,7.28-10.44.19,4.01-.21,7.35-3.41,10.72,4.48-.96,6.02-6.05,6.94-6.76Z"/>
            <path class="cls-32" d="M99.1,77.89c.33-.11.45-.04.32.24l1.76-7.01c.39-4.41.87-8.8,1.44-13.16.58-2.13,1.62-3.95,3.13-5.48,3.42-2.5,8.07-1.57,11.13,1.01-4.61-.24-8.08,1.4-10.13,5.06-3.23,5.76-1.35,12.76-3.94,19.38-2.24,5.74-6.83,10.2-12.48,12.69.74-.96,1.65-1.6,2.53-2.4,3.12-2.81,5.09-6.38,6.23-10.32Z"/>
            <path class="cls-29" d="M171.43,83.77c-.31.29.01.56.31.85l6.07,5.85c1.44,1.39,2.63,2.94,2.89,4.79l-2.99-3.35c-2.78-3.12-12.46-4.85-15.83-12.82-.54-1.28-2.56-7.16-2.69-7.2-.24-.08-.5-.04-.73-.03-.4-2.54-.42-5.41.16-8.04,1.96-.69.76-1.8,2.12-4.03.5.09.74.56.73,1.4l.28,2.39c-.62,8.3,1.84,14.89,9.35,19.19l.33.98Z"/>
            <path class="cls-27" d="M99.1,77.89c.55-1.89.03-3.79.19-5.44.11-1.55.68-7.96.08-8.7.13-2.62,1.16-4.96,2.2-7.09s2.63-3.04,4.19-4.18c.32.06.31.28.08.55-1.9,2.31-2.89,5.15-3.11,8.16l-.47,6.41c-.3,4.05-1.2,7.9-3.09,11.3-.09-.44.27-.73-.07-1Z"/>
            <path class="cls-25" d="M137.72,35l.03,3.48c0,.25.06.43.28.34-3.12,1.08-5.69,4.07-7.18,6.82-.76,1.4-.73,2.69-1.75,3.88-1.03-3.49-.65-6.8.32-9.77.09.16.17.45.2.53,1.35-1.31,2.17-3.32,3.97-3.72.95-.9,2.81-2.16,4.13-1.56Z"/>
            <path class="cls-2" d="M90.96,117.66c2.02-1.63,2.84-4.37,2.27-7.12-1.15-5.57-5.41-8.93-4.5-15.13.75.25.67,1.18.96,1.92,1.09,2.75,2.38,5.27,3.84,7.83,2.08,3.65,2.25,8.06-.34,11.5-.48.64-1.65,1.53-2.22,1Z"/>
            <path class="cls-19" d="M117.09,50.74c.31.1.46-.17.09-.31-.88-1.83-2.24-3.23-3.61-4.5,5.5.75,8.37,4.64,11.7,9.02-8.54-1.66-4.12-1.61-8.18-4.21Z"/>
            <g>
              <path class="cls-10" d="M179.44,80.85l-.79.17c-2.63-1.7-5.27-3.47-7.61-5.62,1.75,3.98,5.32,6.31,9.22,7.82,1.03.76,1.4,1.46,1.12,2.11-.38,0-.71-.38-1.34-.12,2.68,3.76,2.89,8.4,1.76,12.77-.24-1.09-.98-1.87-1.1-2.72l-1.13-1.92c-2.7-2.95-5.54-5.79-8.5-8.5-.52-.59-.43-1.03.36-1.09.25-.6.58-.59,1.1-.38-8.33-5.44-10.34-14.64-11.42-23.86l-.38.28c.18,2.25-.37,3.72-1.65,4.39-.31,2.25-.35,4.5-.11,6.75l-.52.93c.25,1.6.44,3.23.51,5.06-5.1-7.71-1.79-17.77-8.87-24.86-.8.03-1.52-.29-2.15-.96-1.8-1.14-3.76-1.95-5.87-2.44-1.18-1.41,1.53-2.01,2.89-2.26,2.9-.12,3.06-.51.13-.46-5.88.09-9.69,3.97-11.99,9.06-1.39,1.91-2.99-2.05-1.53-2.71.43-9.35,8.79-14.31,17.61-13.37-3.51-1.21-7.71-1.28-11.13-.1-.26.07-.54.15-.81.07-.2-.06-.43-3.78.5-3.89.12-.38.25-.8.57-1.02,1.27-.87,4.02-1.49,5.6-1.8,1.15-.23,2.32-.34,3.49-.42-.58-.16-1.18-.28-1.78-.35-5.27-.58-7.81,1.5-10.99,4.56-.28.27-.61.57-1.03.59-.11.58-.55,1.1-1.32,1.55l-2.07,2.5c-.73.25-.98-.03-.77-.86.8-2.45,1.72-4.84,3.69-6.94,2.18-2.33,5.18-3.67,8.42-4.17,9.27-1.43,18.85,5.01,23.85,12.67l-4.64-1.78c4.18,4.44,10.67,7.67,14.77,12.89,2.68,3.4,4.05,7.53,4.44,11.66-2.37-3.68-4.89-6.86-8.93-8.69,4.06,4.41,6.6,9.49,6.22,15.58-1.54-1.86-2.96-3.23-4.51-4.76-8.35-8.22-5.82-19.14-15.12-22.44,8.65,7.83,4.87,15.61,14.45,24.4,4.23,3.88,5.65,7.58,7.38,12.69Z"/>
              <g>
                <path class="cls-3" d="M179.44,80.85c.54.51,2.09,3.92,3.58,4.38-.71.3-1.17.09-1.64.1-.31-1.03-1.4-1.61-2.49-2.03-4.73-1.83-8.36-5.49-9.38-10.58,1.98,2.38,4.23,4.26,6.82,6.02,1.07.73,2.25,1.31,3.12,2.12Z"/>
                <path class="cls-14" d="M171.43,83.77c-3.65-2.32-7.13-5.1-8.99-9.24-1.97-4.39-.84-11.34-1.71-14.72-.15-.59-.01-1.45.11-2.27,1.03,2.33,1.36,4.82,1.77,7.48.86,5.51,2.67,10.71,6.6,14.73,1.18,1.2,2.54,2.23,3.89,3.2l2.75,1.98-4.43-1.14Z"/>
                <path class="cls-4" d="M137.72,35c-1.26.69-2.87,1.28-4.13,1.56.66.13.25-.76.44-1,3.95-4.91,10.89-6.38,16.48-3.23-4.71-.09-8.96.58-12.78,2.66Z"/>
                <path class="cls-20" d="M149.48,47.98c6.1-.28,9.39,8.59,8.83,13.88-2.19-7.61-3.19-8.59-8.83-13.88Z"/>
                <path class="cls-12" d="M158.97,50.11c-2.92-3.4-6.21-6.08-10.34-7.99,5.11-.71,9.65,2.75,10.34,7.99Z"/>
              </g>
            </g>
            <g>
              <path class="cls-26" d="M127.46,52.71c1.86.58.7,3.35-.25,1.69-1.24-1.77-2.75-3.35-4.2-4.96-.24-.65.07-.84.6-1.03-3.76-6.26-13.92-7.16-18.49-1.43,1.86-.97,5.22-2.41,7.3-2.08l.82.65c.1.13.2.27.32.38,1.43.04,4.72,3.91,4.25,4.82-.16.31-.48.26-.73,0-3.23-2.07-6.95-3-10.85-1.49-7.17,2.78-8.73,11.13-7.76,17.75.62-1.19.26-2.36.89-3.25.26-.05.68-.08.73.08.45,1.26.11,6.72-.14,8.23l-.68.39c-.17-.07-.3-.22-.4-.14-.17.12-.25.46-.36.54-.68,2.55-2.11,5.05-4.45,6.44-1.05.63-2.74,1.48-2.77-.23,1.61-1.9,2.75-4.04,2.98-6.54-1.23,2.24-3.24,5.39-5.44,6.74l-1.13.06c-2.18,1.24-6.23,3.01-8.57,1.44,6.08-2.43,5.32-7.79,7.7-12.49-.97-.7-.12-1.26.99-.97.23-.06,3.11-2.71,3.52-3.16,2.8-3.07,1.75-2.39-1.44-.33-1.19.89-2.33,1.16-3.42.81,1.23-1.39,2-3.33,3.78-4.5,3.57-4.21,6.79-8.71,8.05-14.28-2.47,3.41-4.55,6.83-7.55,9.72.56-9.64,6.4-15.26,14.45-19.25,9.16-4.54,15.58-13.8,27.7-6.67-3.66,3.81-6.03,8.14-6.65,13.2-1.41-3.26-3.54-5.51-6.82-6.42-3.81-1.04-7.95-.27-11.1,1.98l4.5-.76c5.67-.96,10.67,2.53,12.71,7.9.91,2.39,1.32,4.81,1.87,7.2Z"/>
              <path class="cls-31" d="M123.01,49.44c-2.59-2.88-6.16-3.76-9.76-3.89s-6.78,1.01-10.11,3.49c1.75-4.57,6.26-6.57,10.76-6.51,4.33.06,8.43,2.13,10.52,5.94-.42.68-1.03.64-1.41.97Z"/>
              <path class="cls-18" d="M86.85,68.26c-.85.04-2.75,3.7-3.17,4.56-1.06-3.49.86-5.98,2.83-8.21,3.09-1.09,5.77-2.83,8.37-5.13-2.31,5.64-3.79,5.39-7.57,9.24-.27-.48,0-.67,0-.92,0-.19-.34-.02-.36.13-.01.09-.05.25-.09.33Z"/>
              <path class="cls-23" d="M124.98,36.16c-2.39-3.05-6.01-4.26-10.16-4.17,2.91-1.71,6.68-2.8,9.12.35.51,1.2,1.18,2.21,1.04,3.82Z"/>
            </g>
            <g>
              <path class="cls-1" d="M122.29,57.2l7.2,2.12c2.01.59,4.09.29,6.04-.35l3.19-1.06c6.2-1.02,10.12,4.72,11.76,10.01l1.91,9.03c1.06,5.05,3.85,9.3,8.06,12.3l.78,1.07c.33,1.79.48,3.59.43,5.4-.02.51.09,1.37,0,1.87-.21,1.19-.62,2.44-.76,3.65-.65,2.01-1.63,3.84-2.93,5.5-1.65,1.83-3.09,3.78-4.32,5.85l-6.19,19.14-1.35,2.1c-5.15,6.39-10.15,5.81-18.21,5.34-3.49-.2-6.73-3.05-8.9-5.34l-1.07-2.04-6.28-18.97-1.01-1.86c-2.99-3.06-5.14-6.53-6.46-10.42l-.35-2.58c-.13-.97-.35-1.93-.34-2.92-.58-5.22-.16-9.24,3.36-13.38,1.63-4.75,2.71-9.72,3.23-14.89,1.52-6.05,5.62-10.44,12.21-9.57Z"/>
              <path class="cls-13" d="M160.9,101.24l-1.68,14.31c-.29,2.46-.96,4.93-2.55,6.91-3.28,4.09-6.75,7.94-10.55,11.37l5.63-17.69c.63-1.99,1.13-4.03,2.4-5.68,1.99-2.59,4.21-4.88,5.72-7.82.3-.58.36-1.38,1.03-1.41Z"/>
              <path class="cls-13" d="M119.01,133.83l-8.13-8.62c-1.9-2.01-3.72-4.2-4.25-7.04-1.11-5.93-1.66-11.8-2.45-17.63,1.83,3.13,3.64,6.24,6.18,9.03,1.35,1.48,2.06,3.24,2.67,5.1l5.55,17c.26.79.71,1.43.43,2.15Z"/>
              <path class="cls-13" d="M170.16,91.18c.05,1.1-.63,2.14-.79,3.14-.18,1-3.13,7.83-4.51,6.29-.11-.13-.19-.28-.26-.45.24-1.35.07-2.83.32-4.17l1.35-7.27,2.59,1.33c.59.3,1.17.53,1.3,1.12Z"/>
              <path class="cls-13" d="M100.4,96.28c.11,1.55.37,3.06.55,4.61-1.5.85-3.27-2.63-3.91-3.93-.53-1.08-.91-2.42-1.08-3.61l-.19.11c-.09-.65-.47-1.36-.61-2.01-.21-.62,2.82-2.32,3.75-3.11.67,2.72,1.31,5.32,1.49,7.94Z"/>
              <g>
                <path class="cls-30" d="M95.15,91.45c1.02.12,1.22.79.61,2.01.98,2.66,1.86,5.37,2.64,8.1.42,1.37,1.09,2.63,2.34,3.34l-.39-3.49.59-.52c-1.02-1.25-1.51-3.3-.55-4.61.22-1.92,3.17.6,3.44,1.69,1,0,1.26,2.23.35,2.58l1.04,3.01c.58,4.95,1.21,9.9,2.1,14.8.34,1.85,1.58,3.58,2.76,5.01l7.96,8.51c.46.61.78,1.26.97,1.95l.82-.07c3.95,4.65,8.14,5.1,13.93,5.04,4.61-.05,8.31-1,11.35-4.77l1-.19c1.61-2.37,3.49-4.57,5.65-6.59,3-2.69,5.11-5.76,6.34-9.2.76-4.76,1.38-9.54,1.86-14.34.21-.91.52-1.73.94-2.46-.92-.76-.32-3.22.76-3.65.04-.53.43-.89,1.15-1.09.68-.84,1.82-2.15,2.1-.5.85.78.79,3.63-.32,4.17l.49.86c-1.11,4.48-.73,5.15,1.14,2.01,1.07-2.92,2.12-5.82,3.14-8.71-.92-.4-.09-2.83.79-3.14.52-1.56,3.31-.03,3.14,1.27.21.43.39.89.35,1.37-.26,3.27-2.43,10.35-4.36,13.06-.62.88-1.5,1.55-2.45,2.05-1.26.33-2.24.87-2.93,1.64-.08,5.13-1.36,9.75-3.84,13.89.06,2.8.1,5.57.12,8.32l-.43.35.64.35-.02,3.25c-.12.06-.28.15-.36.25-.15,1.04-.19,2.1-.13,3.18-1.38.04-1.36,1.28-1.01,2.41.31.17.79.27,1.45.3.98.33,1.81.97,2.74,1.41.43.38.28.79-.46,1.23l1.03,1.3c.3,2.74.71,2.75,1.24.02.25-.68.5-1.08,1.24-.71.49.06,1,.47,1.43.71-.02.63-.38,1.26-.24,1.95l4.25,3.25c.23.19.65.51.14.5-.15.27-.27.26-.36-.03-.86.49-2.83-.19-2.79-1.42-1.07-.55-2.08-1.19-3.29-1.78-3.64,13.75-20.3,25.05-32.61,30.37-4.67-2.17-8.93-4.37-12.92-7.14,0-.89.59-1.04,1.76-.45-1.29-1.21-2.87-2.28-4.74-3.2.54.68,1.2,2.29.05,1.49-3.67-2.31-6.85-5.55-9.68-8.8-.01-.68.22-.94.86-.77-.22-.85-2.06-3.92-2.3-2.04l-.77.26c-1.66-1.91-3.07-4.22-3.61-6.74.32.16,1.56.6,1.7,0-1.23-7.23,1.01-5.02,1.59-7.16.2-.74-.61-1.06-.93-1.43,2.32-1.04,1.49-2.99,1.77-6.62-.84-.68-.81-2.58.07-3.2-.35-1.81-.42-3.71-.23-5.69.06-2.46-.54-4.86-1.81-7.19-.99-3.4-1.6-6.87-1.84-10.39-4.03-2.19-6.29-3.75-7.88-8.32-.43-1.25-2.24-8.34-2.09-9.12l.62-.64c-.35-1.2,2.81-2.86,2.91-1.08Z"/>
                <g>
                  <path class="cls-9" d="M166.11,146.12c-1.05.77-1.15,3.88-2.02,3.94s-.52-2-1.1-3.08c-.32-.59-1.3-1.02-.97-1.84.19-.47.91-.43,1.04-.86,1.08.51,2.13,1.09,3.05,1.83Z"/>
                  <g>
                    <path class="cls-9" d="M160.32,142.88c-.34.27-1.21,1.07-1.69.51-1-1.18-.7-3.27.5-4.22.16.24.17.73.58.82.16-1.15-.3-2.2.3-2.99.15,1.96-.16,3.97.31,5.89Z"/>
                    <path class="cls-9" d="M119.72,172.52c-.98-.68-2.24-1.17-2.94-2.17,1.33,1.89-2.54-4.11-1.13-2.13-.1-.14.24-.74.55-.52,1.52,1.06,2.87,2.04,4.62,2.76.76.31,1.88,1.72.99,2.19-.56.29-1.58-.71-2.09-.14Z"/>
                    <g>
                      <path class="cls-1" d="M156.35,134.8l.63,9.7,5.33,3.11c-2.02,11.09-16.44,22.22-26.05,26.76-1.16.55-2.28,1.63-3.62,1.66-1.07.02-2.03-.97-3-1.43-9.84-4.75-24.32-15.34-26.57-26.93,1.74-1.23,3.64-1.85,5.24-3.24l.47-8.01c.05-.52.22-.94.52-1.27-.57.08-.11-.24.54-.35.62-.1,7.14,9.31,7.13,10.24l7.37,19.98c.31.81,1.08,1.22,1.55.58l-5.61-16.8c.24-.86.65-1.12,1.23-.79,6.96,5.88,15.89,5.95,22.55-.43.69-.36,1.02-.01,1.32.64l-6.09,17.48c.59.37,1.23.44,1.55-.31,2.87-6.89,5.4-14.02,7.82-21.01,1-2.38,5.07-8.52,6.9-9.32.25-.11.52-.18.79-.23Z"/>
                      <path class="cls-13" d="M156.35,134.8c-2.06,2.23-3.9,4.7-5.8,7.25-1.08,1.44-1.5,3.28-2.13,4.99-2.28,6.2-4.26,12.32-6.89,18.36-.32.72-.75,1.17-1.36,1.19-.46.01-1.74-.29-1.46-1.12l6.15-17.76c-7.78,7.14-16.04,7.03-24.1.51l5.88,17.64c.16.49-1.23.72-1.65.67-.53-.07-1.05-.72-1.35-1.46-2.59-6.3-4.84-12.6-7.03-19.07-.71-2.09-1.64-3.78-2.99-5.45l-4.48-5.56c.58.5-.35.99-.38,1.43.1-2.57.12-5.15.51-7.95,3.54,3.71,6.65,7.14,10.26,10.39,2.64,2.37,5.93,3.64,9.5,3.75,7.36.24,12.12.58,17.37-4.33,3.43-3.21,6.41-6.64,9.65-10.04.48,2.45.14,4.52.28,6.57Z"/>
                      <path class="cls-1" d="M100.94,100.89l.59,5.03c-1.76-.5-2.88-1.8-3.49-3.46-1.1-2.99-1.85-5.97-2.28-9.01.07-.22-.06-.53.35-.7-.04,1.22.38,2.02.93,2.96l1.69,2.89c.58,1,1.27,1.8,2.21,2.28Z"/>
                      <path class="cls-1" d="M169.38,94.32c-.42,2.71-1.96,11.46-5.66,11.67.09-2.12.56-3.98.89-5.83,1.8.38,3.59-4.37,4.46-5.76.13-.27.35-.45.31-.08Z"/>
                    </g>
                    <path class="cls-9" d="M132.36,178.26c-1.3.4-2.08-.57-3.09-.95s-1.99-.62-2.14-1.79c.64-.62,5.54.81,5.23,2.74Z"/>
                    <path class="cls-9" d="M146.78,170c-.96,1.45-1.99,2.41-3.58,2.62.57-1.59,1.98-2.79,3.58-2.62Z"/>
                  </g>
                  <g>
                    <path class="cls-9" d="M107.11,161.55l-2.22-2.55c.3-.58.16-1.29.62-1.91,3.18,1.52,1.86,2.5,4.35,5.03.47.47.57,1.26,1.15,1.74-1.86-.02-2.38-3.25-3.91-2.31Z"/>
                    <path class="cls-9" d="M158.81,159.48c-.39.43-.54-.4-.57-.65-.05-.38.29-.67.68-.98s.5.12.49.37c-.01.38-.11.73-.6,1.26Z"/>
                  </g>
                </g>
              </g>
              <path class="cls-13" d="M143.25,56.6c.24-1.07,1.96-1.1,2.25-.05,1.63.27,3.71.26,5.06,1.51,1.09,1.01,1.34,2.96,1.59,4.42l1.31,7.76c.98,5.82,3.75,10.89,8.13,14.83.19,2.33.89,9.53.06,10.63-1.18-2.75.16-4.68-2.09-6.37-11.64-8.71-5.9-20.25-13.51-28.11-1.99-2.05-4.64-3.09-7.33-3.32,1.49-.49,3-.95,4.53-1.31Z"/>
              <path class="cls-13" d="M122.29,57.2c-5.24.54-9.27,2.52-11.12,8.01-1.46,4.33-1.41,13.19-4.05,17.26l-3.54,5.46-.09,7.11c-.65-3.93-.1-8,.15-12.24,2.46-4.41,3.38-9.21,3.68-14.26.31-5.35.91-11.51,7.56-12.25,2.65-.29,5.04.21,7.41.9Z"/>
            </g>
          </g>
        </g>
      </g>
    </g>
  </g>
  <g id="xBbnet.tif">
    <g>
      <path class="cls-8" d="M184.56,205.65c-.42,5.67-3.02,10.04-7.09,13.86-.75-.48-1.57-1.47-2.11-2.19-1.13-1.51-2.1-3.1-2.93-4.79-.24-.48-.42-.92-.63-1.47l-.51-1.61.54.03c.28.02.83.07,1.11.13l.81.18.49.11h0c.06.57.21,1.12.46,1.63l.18.38c.56,1.24,1.23,2.37,2.09,3.43,2.16-2.22,3.99-5.01,4.69-8.01l.98-.46c.68-.32,1.29-.72,1.91-1.2Z"/>
      <path class="cls-8" d="M180.95,202.81c-.12,1.4-.86,3.01-1.46,4.24l-.34.68c-.11.2-.22.41-.33.61t0,0l-1.4,2.32c-.3.44-.61.86-.95,1.26l.03-.7c.02-.45-.28-.85-.71-.97h0c-.88-.22-1.55-.37-2.02-.48-1-.23-2.03-.35-3.05-.34-.72,0-1.44.08-2.16.21.96,3.05,2.53,6.09,4.84,8.27l-.04,1.14c-.03.76.06,1.49.18,2.27-4.77-3.3-7.36-7.88-8.82-13.39.46-.24.92-.39,1.42-.51,1.16-.27,2.33-.38,3.49-.44l.32-.02c.92-.03,1.83-.03,2.75,0,.64.05,1.23.1,1.87.23,0,0,.83.12,1.9.38.43-.72.8-1.48,1.1-2.27-3-.77-6.35-.95-9.29-.06l-1.04-.72c-.57-.4-1.18-.68-1.84-.95,5.12-2.47,10.21-2.41,15.56-.79Z"/>
      <path class="cls-8" d="M168.28,206.47c-1.22.07-2.35.24-3.51.59l-.18-2.27c.78.09,1.5.35,2.19.71.52.29,1,.6,1.5.97Z"/>
      <path class="cls-8" d="M182.3,205.85c-.55.33-1.06.61-1.67.86.53-1.07.96-2.14,1.24-3.33l2.07.98c-.47.61-1,1.08-1.64,1.49Z"/>
      <path class="cls-8" d="M174.49,220.14c.12.45.24.86.43,1.3l1.77-1.35c-.91-.87-1.65-1.79-2.33-2.81-.05.7-.05,1.37.01,2.06l.11.79Z"/>
    </g>
  </g>
</svg>