<?xml version="1.0" encoding="UTF-8"?>
<svg id="Calque_2" data-name="Calque 2" xmlns="http://www.w3.org/2000/svg" xmlns:xlink="http://www.w3.org/1999/xlink" viewBox="0 0 125 125">
  <defs>
    <linearGradient id="Dégradé_sans_nom_117" data-name="Dégradé sans nom 117" x1="45.94" y1="67.72" x2="112.81" y2="67.72" gradientUnits="userSpaceOnUse">
      <stop offset="0" stop-color="#000"/>
      <stop offset=".25" stop-color="#003c25"/>
      <stop offset=".5" stop-color="#007347"/>
      <stop offset=".72" stop-color="#009c60"/>
      <stop offset=".89" stop-color="#00b46f"/>
      <stop offset="1" stop-color="#00be75"/>
    </linearGradient>
    <linearGradient id="Dégradé_sans_nom_40" data-name="Dégradé sans nom 40" x1="12.75" y1="62.22" x2="94.63" y2="62.22" gradientUnits="userSpaceOnUse">
      <stop offset="0" stop-color="#004800"/>
      <stop offset=".29" stop-color="#00742b"/>
      <stop offset=".6" stop-color="#009c53"/>
      <stop offset=".85" stop-color="#00b46b"/>
      <stop offset="1" stop-color="#00be75"/>
    </linearGradient>
    <linearGradient id="Dégradé_sans_nom_40-2" data-name="Dégradé sans nom 40" x1="12.19" y1="34.11" x2="30.8" y2="34.11" xlink:href="#Dégradé_sans_nom_40"/>
    <linearGradient id="Dégradé_sans_nom_40-3" data-name="Dégradé sans nom 40" x1="93.03" y1="29.75" x2="109.71" y2="29.75" xlink:href="#Dégradé_sans_nom_40"/>
    <linearGradient id="Dégradé_sans_nom_40-4" data-name="Dégradé sans nom 40" x1="61.28" y1="101.9" x2="73.19" y2="101.9" xlink:href="#Dégradé_sans_nom_40"/>
  </defs>
  <g id="pictos">
    <!-- Fond noir carré (requis pour maskable PWA icon) -->
    <rect width="125" height="125" fill="#000"/>

    <!--
      TAILLE DU PICTO : modifier scale(0.8) ci-dessous.
      - 1.0 = picto pleine taille (touches les bords)
      - 0.8 = 80% → marge ~12px de chaque côté (recommandé pour PWA)
      - 0.7 = 70% → marge ~19px (safe zone maskable Android/iOS)
      Le translate centre le picto automatiquement quelle que soit la valeur.
    -->
    <g id="xBbnet.tif" transform="translate(62.5, 62.5) scale(0.8) translate(-62.5, -63.5)">
      <g>
        <path d="M112.81,32.79c-2.11,28.59-15.22,50.6-35.73,69.85-3.78-2.39-7.93-7.41-10.63-11.02-5.67-7.6-10.56-15.64-14.78-24.15-1.21-2.44-2.13-4.65-3.15-7.41l-2.58-8.14,2.71.14c1.42.12,4.19.35,5.59.65l4.09.89,2.47.56h0c.28,2.86,1.08,5.64,2.33,8.22l.93,1.9c2.81,6.25,6.2,11.94,10.54,17.27,10.9-11.19,20.08-25.22,23.66-40.38l4.93-2.31c3.44-1.62,6.52-3.62,9.62-6.05Z" style="fill: url(#Dégradé_sans_nom_117);"/>
        <path d="M94.63,18.45c-.59,7.08-4.33,15.16-7.34,21.36l-1.71,3.43c-.54,1.02-1.09,2.05-1.66,3.07t0,.02l-7.07,11.71c-1.5,2.2-3.09,4.34-4.79,6.36l.15-3.53c.09-2.27-1.4-4.29-3.6-4.87h0c-4.46-1.09-7.81-1.86-10.18-2.4-5.05-1.13-10.21-1.78-15.39-1.71-3.64.05-7.28.39-10.89,1.05,4.81,15.38,12.77,30.67,24.38,41.67l-.22,5.74c-.15,3.84.3,7.52.9,11.46-24.03-16.63-37.07-39.72-44.46-67.45,2.33-1.23,4.63-1.97,7.17-2.56,5.83-1.35,11.73-1.91,17.6-2.23l1.64-.1c4.64-.15,9.21-.14,13.87.04,3.22.24,6.21.49,9.43,1.15,0,0,4.16.61,9.56,1.93,2.15-3.62,4.02-7.44,5.54-11.45-15.11-3.88-32.02-4.77-46.8-.31l-5.23-3.62c-2.88-2-5.93-3.43-9.29-4.8,25.83-12.43,51.43-12.15,78.4-3.96Z" style="fill: url(#Dégradé_sans_nom_40);"/>
        <path d="M30.8,36.89c-6.15.34-11.84,1.22-17.69,2.96l-.92-11.46c3.95.47,7.55,1.78,11.04,3.59,2.61,1.48,5.02,3,7.57,4.91Z" style="fill: url(#Dégradé_sans_nom_40-2);"/>
        <path d="M101.45,33.79c-2.75,1.67-5.36,3.05-8.41,4.35,2.67-5.4,4.83-10.77,6.24-16.77l10.43,4.92c-2.38,3.07-5.06,5.43-8.26,7.5Z" style="fill: url(#Dégradé_sans_nom_40-3);"/>
        <path d="M62.11,105.8c.59,2.25,1.19,4.33,2.16,6.57l8.92-6.79c-4.59-4.37-8.3-9.01-11.72-14.15-.26,3.55-.24,6.92.07,10.38l.57,3.98Z" style="fill: url(#Dégradé_sans_nom_40-4);"/>
      </g>
    </g>
  </g>
</svg>
