<?xml version="1.0" encoding="UTF-8"?>
<svg id="Calque_2" data-name="Calque 2" xmlns="http://www.w3.org/2000/svg" viewBox="0 0 924.95 279.4">
  <defs>
    <style>
      .cls-1 {
        fill: #75dfa0;
      }

      .cls-2 {
        fill: #fff;
      }
    </style>
  </defs>
  <g id="Calque_1-2" data-name="Calque 1">
    <g>
      <path class="cls-2" d="M5.59,116.02c-3.73-3.99-5.59-9.62-5.59-16.9v-47.84c0-7.28,1.86-12.91,5.59-16.9,3.73-3.99,9.1-5.98,16.12-5.98s12.39,1.99,16.12,5.98c3.73,3.99,5.59,9.62,5.59,16.9v47.84c0,7.28-1.86,12.92-5.59,16.9-3.73,3.99-9.1,5.98-16.12,5.98s-12.39-1.99-16.12-5.98ZM29.12,100.03v-49.66c0-5.98-2.47-8.97-7.41-8.97s-7.41,2.99-7.41,8.97v49.66c0,5.98,2.47,8.97,7.41,8.97s7.41-2.99,7.41-8.97Z"/>
      <path class="cls-2" d="M53.04,29.7h17.94l13.91,54.47h.26V29.7h12.74v91h-14.69l-17.16-66.43h-.26v66.43h-12.74V29.7Z"/>
      <path class="cls-2" d="M129.35,29.7h39v13h-24.7v24.05h19.63v13h-19.63v27.95h24.7v13h-39V29.7Z"/>
      <path class="cls-2" d="M179.65,116.08c-3.55-3.94-5.33-9.6-5.33-16.96v-5.2h13.52v6.24c0,5.89,2.47,8.84,7.41,8.84,2.43,0,4.27-.71,5.52-2.14,1.26-1.43,1.89-3.75,1.89-6.96,0-3.81-.87-7.17-2.6-10.08-1.73-2.9-4.94-6.39-9.62-10.46-5.89-5.2-10.01-9.9-12.35-14.11-2.34-4.2-3.51-8.95-3.51-14.23,0-7.19,1.82-12.76,5.46-16.71,3.64-3.94,8.93-5.92,15.86-5.92s12.02,1.97,15.54,5.92c3.51,3.94,5.27,9.6,5.27,16.96v3.77h-13.52v-4.68c0-3.12-.61-5.39-1.82-6.83-1.21-1.43-2.99-2.14-5.33-2.14-4.77,0-7.15,2.9-7.15,8.71,0,3.29.89,6.37,2.67,9.23,1.78,2.86,5,6.33,9.69,10.4,5.98,5.2,10.1,9.92,12.35,14.17,2.25,4.25,3.38,9.23,3.38,14.95,0,7.45-1.84,13.17-5.52,17.16-3.68,3.99-9.04,5.98-16.06,5.98s-12.18-1.97-15.73-5.92Z"/>
      <path class="cls-2" d="M236.33,42.7h-14.95v-13h44.2v13h-14.95v78h-14.3V42.7Z"/>
      <path class="cls-2" d="M293.27,29.7h21.84c7.11,0,12.44,1.91,15.99,5.72,3.55,3.82,5.33,9.41,5.33,16.77v46.02c0,7.37-1.78,12.96-5.33,16.77-3.55,3.81-8.88,5.72-15.99,5.72h-21.84V29.7ZM314.85,107.7c2.34,0,4.14-.69,5.4-2.08,1.26-1.38,1.88-3.64,1.88-6.76v-47.32c0-3.12-.63-5.37-1.88-6.76-1.26-1.39-3.06-2.08-5.4-2.08h-7.28v65h7.28Z"/>
      <path class="cls-2" d="M346.05,29.7h39v13h-24.7v24.05h19.63v13h-19.63v27.95h24.7v13h-39V29.7Z"/>
      <path class="cls-2" d="M396.36,116.08c-3.55-3.94-5.33-9.6-5.33-16.96v-5.2h13.52v6.24c0,5.89,2.47,8.84,7.41,8.84,2.43,0,4.27-.71,5.52-2.14,1.26-1.43,1.89-3.75,1.89-6.96,0-3.81-.87-7.17-2.6-10.08-1.73-2.9-4.94-6.39-9.62-10.46-5.89-5.2-10.01-9.9-12.35-14.11-2.34-4.2-3.51-8.95-3.51-14.23,0-7.19,1.82-12.76,5.46-16.71,3.64-3.94,8.93-5.92,15.86-5.92s12.02,1.97,15.54,5.92c3.51,3.94,5.27,9.6,5.27,16.96v3.77h-13.52v-4.68c0-3.12-.61-5.39-1.82-6.83-1.21-1.43-2.99-2.14-5.33-2.14-4.77,0-7.15,2.9-7.15,8.71,0,3.29.89,6.37,2.67,9.23,1.78,2.86,5,6.33,9.69,10.4,5.98,5.2,10.1,9.92,12.35,14.17,2.25,4.25,3.38,9.23,3.38,14.95,0,7.45-1.84,13.17-5.52,17.16-3.68,3.99-9.04,5.98-16.06,5.98s-12.18-1.97-15.73-5.92Z"/>
      <path class="cls-1" d="M460.05,120.7v-17c1.81.45,3.85.68,6.12.68,3.74,0,6.52-.93,8.33-2.8,1.81-1.87,2.72-4.73,2.72-8.58V1.7h18.7v90.78c0,9.75-2.24,17-6.71,21.76-4.48,4.76-11.31,7.14-20.48,7.14-3.4,0-6.29-.23-8.67-.68Z"/>
      <path class="cls-1" d="M515.3,114.58c-4.87-5.21-7.31-12.58-7.31-22.1V29.92c0-9.52,2.44-16.89,7.31-22.1,4.87-5.21,11.9-7.82,21.08-7.82s16.21,2.61,21.08,7.82c4.87,5.21,7.31,12.58,7.31,22.1v62.56c0,9.52-2.44,16.89-7.31,22.1-4.87,5.21-11.9,7.82-21.08,7.82s-16.21-2.61-21.08-7.82ZM546.07,93.67V28.73c0-7.82-3.23-11.73-9.69-11.73s-9.69,3.91-9.69,11.73v64.94c0,7.82,3.23,11.73,9.69,11.73s9.69-3.91,9.69-11.73Z"/>
      <path class="cls-1" d="M583.81,114.67c-4.76-5.16-7.14-12.55-7.14-22.18V1.7h18.7v92.14c0,4.08.82,7.03,2.46,8.84,1.64,1.81,4,2.72,7.05,2.72s5.41-.91,7.06-2.72c1.64-1.81,2.46-4.76,2.46-8.84V1.7h18.02v90.78c0,9.63-2.38,17.03-7.14,22.18-4.76,5.16-11.67,7.74-20.74,7.74s-15.98-2.58-20.74-7.74Z"/>
      <path class="cls-1" d="M645.69,1.7h51v17h-32.3v31.45h25.67v17h-25.67v36.55h32.3v17h-51V1.7Z"/>
      <path class="cls-1" d="M713.85,114.67c-4.76-5.16-7.14-12.55-7.14-22.18V1.7h18.7v92.14c0,4.08.82,7.03,2.46,8.84,1.64,1.81,4,2.72,7.05,2.72s5.41-.91,7.06-2.72c1.64-1.81,2.46-4.76,2.46-8.84V1.7h18.02v90.78c0,9.63-2.38,17.03-7.14,22.18-4.76,5.16-11.67,7.74-20.74,7.74s-15.98-2.58-20.74-7.74Z"/>
      <path class="cls-1" d="M775.73,1.7h27.71c9.63,0,16.66,2.24,21.08,6.71,4.42,4.48,6.63,11.36,6.63,20.66v7.31c0,12.35-4.08,20.17-12.24,23.46v.34c4.53,1.36,7.73,4.14,9.6,8.33,1.87,4.19,2.81,9.8,2.81,16.83v20.91c0,3.4.11,6.15.34,8.25.23,2.1.79,4.17,1.7,6.21h-19.04c-.68-1.93-1.13-3.74-1.36-5.44-.23-1.7-.34-4.76-.34-9.18v-21.76c0-5.44-.88-9.24-2.63-11.39-1.76-2.15-4.79-3.23-9.1-3.23h-6.46v51h-18.7V1.7ZM801.23,52.7c3.74,0,6.54-.96,8.41-2.89,1.87-1.93,2.81-5.16,2.81-9.69v-9.18c0-4.31-.77-7.42-2.29-9.35-1.53-1.93-3.94-2.89-7.23-2.89h-8.5v34h6.8Z"/>
      <path class="cls-1" d="M847.98,114.67c-4.65-5.16-6.97-12.55-6.97-22.18v-6.8h17.68v8.16c0,7.71,3.23,11.56,9.69,11.56,3.17,0,5.58-.94,7.22-2.81,1.64-1.87,2.46-4.9,2.46-9.09,0-4.99-1.13-9.38-3.4-13.17-2.27-3.8-6.46-8.36-12.58-13.68-7.71-6.8-13.09-12.95-16.15-18.45-3.06-5.5-4.59-11.7-4.59-18.62,0-9.41,2.38-16.69,7.14-21.84,4.76-5.16,11.67-7.74,20.74-7.74s15.73,2.58,20.32,7.74c4.59,5.16,6.88,12.55,6.88,22.18v4.93h-17.68v-6.12c0-4.08-.79-7.06-2.38-8.92-1.59-1.87-3.91-2.81-6.97-2.81-6.23,0-9.35,3.8-9.35,11.39,0,4.31,1.16,8.33,3.49,12.07,2.32,3.74,6.54,8.27,12.67,13.6,7.82,6.8,13.2,12.98,16.15,18.53,2.95,5.55,4.42,12.07,4.42,19.55,0,9.75-2.41,17.23-7.22,22.44-4.82,5.21-11.82,7.82-21,7.82s-15.92-2.58-20.57-7.74Z"/>
      <path class="cls-2" d="M910.52,120.7h-4.68v-13.78h13.78v12.35l-7.15,17.03h-6.63l4.68-15.6Z"/>
      <path class="cls-2" d="M.69,216.1h14.26c4.81,0,8.42,1.29,10.82,3.87,2.4,2.58,3.61,6.37,3.61,11.35v6.07c0,4.99-1.2,8.77-3.61,11.35-2.41,2.58-6.01,3.87-10.82,3.87h-4.58v25.08H.69v-61.6ZM14.95,243.82c1.58,0,2.77-.44,3.56-1.32s1.19-2.38,1.19-4.49v-7.3c0-2.11-.4-3.61-1.19-4.49-.79-.88-1.98-1.32-3.56-1.32h-4.58v18.92h4.58Z"/>
      <path class="cls-2" d="M39.06,216.1h13.11l10.03,61.6h-9.68l-1.76-12.23v.18h-11l-1.76,12.06h-8.98l10.03-61.6ZM49.62,257.28l-4.31-30.45h-.18l-4.22,30.45h8.71Z"/>
      <path class="cls-2" d="M68.54,274.58c-2.41-2.67-3.61-6.5-3.61-11.48v-3.52h9.15v4.22c0,3.99,1.67,5.98,5.02,5.98,1.64,0,2.89-.48,3.74-1.45.85-.97,1.28-2.54,1.28-4.71,0-2.58-.59-4.85-1.76-6.82-1.17-1.96-3.34-4.33-6.51-7.08-3.99-3.52-6.78-6.7-8.36-9.55-1.58-2.84-2.38-6.06-2.38-9.64,0-4.87,1.23-8.64,3.7-11.31,2.46-2.67,6.04-4,10.74-4s8.14,1.34,10.52,4c2.38,2.67,3.56,6.5,3.56,11.48v2.55h-9.15v-3.17c0-2.11-.41-3.65-1.23-4.62-.82-.97-2.02-1.45-3.61-1.45-3.23,0-4.84,1.97-4.84,5.9,0,2.23.6,4.31,1.8,6.25,1.2,1.94,3.39,4.28,6.56,7.04,4.05,3.52,6.83,6.72,8.36,9.59,1.52,2.88,2.29,6.25,2.29,10.12,0,5.05-1.25,8.92-3.74,11.62-2.49,2.7-6.12,4.05-10.87,4.05s-8.24-1.33-10.65-4Z"/>
      <path class="cls-2" d="M113.42,216.1h14.78c4.81,0,8.42,1.29,10.82,3.87,2.41,2.58,3.61,6.37,3.61,11.35v31.15c0,4.99-1.2,8.77-3.61,11.35-2.41,2.58-6.01,3.87-10.82,3.87h-14.78v-61.6ZM128.02,268.9c1.58,0,2.8-.47,3.65-1.41.85-.94,1.28-2.46,1.28-4.58v-32.03c0-2.11-.43-3.64-1.28-4.58-.85-.94-2.07-1.41-3.65-1.41h-4.93v44h4.93Z"/>
      <path class="cls-2" d="M149.14,216.1h26.4v8.8h-16.72v16.28h13.29v8.8h-13.29v18.92h16.72v8.8h-26.4v-61.6Z"/>
      <path class="cls-2" d="M183.2,274.58c-2.41-2.67-3.61-6.5-3.61-11.48v-3.52h9.15v4.22c0,3.99,1.67,5.98,5.02,5.98,1.64,0,2.89-.48,3.74-1.45.85-.97,1.28-2.54,1.28-4.71,0-2.58-.59-4.85-1.76-6.82-1.17-1.96-3.34-4.33-6.51-7.08-3.99-3.52-6.78-6.7-8.36-9.55-1.58-2.84-2.38-6.06-2.38-9.64,0-4.87,1.23-8.64,3.7-11.31,2.46-2.67,6.04-4,10.74-4s8.14,1.34,10.52,4c2.38,2.67,3.56,6.5,3.56,11.48v2.55h-9.15v-3.17c0-2.11-.41-3.65-1.23-4.62-.82-.97-2.02-1.45-3.61-1.45-3.23,0-4.84,1.97-4.84,5.9,0,2.23.6,4.31,1.8,6.25,1.2,1.94,3.39,4.28,6.56,7.04,4.05,3.52,6.83,6.72,8.36,9.59,1.52,2.88,2.29,6.25,2.29,10.12,0,5.05-1.25,8.92-3.74,11.62-2.49,2.7-6.12,4.05-10.87,4.05s-8.24-1.33-10.65-4Z"/>
      <path class="cls-1" d="M241.9,271.67c-4.65-5.16-6.97-12.55-6.97-22.18v-6.8h17.68v8.16c0,7.71,3.23,11.56,9.69,11.56,3.17,0,5.58-.94,7.23-2.81,1.64-1.87,2.46-4.9,2.46-9.09,0-4.99-1.13-9.38-3.4-13.17-2.27-3.8-6.46-8.36-12.58-13.68-7.71-6.8-13.09-12.95-16.15-18.45-3.06-5.5-4.59-11.7-4.59-18.62,0-9.41,2.38-16.69,7.14-21.84,4.76-5.16,11.67-7.74,20.74-7.74s15.73,2.58,20.31,7.74c4.59,5.16,6.89,12.55,6.89,22.18v4.93h-17.68v-6.12c0-4.08-.79-7.06-2.38-8.92-1.59-1.87-3.91-2.81-6.97-2.81-6.23,0-9.35,3.8-9.35,11.39,0,4.31,1.16,8.33,3.49,12.07,2.32,3.74,6.54,8.27,12.67,13.6,7.82,6.8,13.2,12.98,16.15,18.53,2.95,5.55,4.42,12.07,4.42,19.55,0,9.75-2.41,17.23-7.23,22.44-4.82,5.21-11.81,7.82-21,7.82s-15.92-2.58-20.57-7.74Z"/>
      <path class="cls-1" d="M301.4,158.7h27.54c9.29,0,16.26,2.49,20.91,7.48,4.65,4.99,6.97,12.3,6.97,21.93v11.73c0,9.63-2.32,16.94-6.97,21.93-4.65,4.99-11.62,7.48-20.91,7.48h-8.84v48.45h-18.7v-119ZM328.94,212.25c3.06,0,5.36-.85,6.89-2.55s2.29-4.59,2.29-8.67v-14.11c0-4.08-.77-6.97-2.29-8.67s-3.83-2.55-6.89-2.55h-8.84v36.55h8.84Z"/>
      <path class="cls-1" d="M367.02,158.7h51v17h-32.3v31.45h25.67v17h-25.67v36.55h32.3v17h-51v-119ZM394.22,131.16h20.4l-18.19,19.55h-14.11l11.9-19.55Z"/>
      <path class="cls-1" d="M434.59,271.75c-4.7-5.1-7.06-12.3-7.06-21.59v-63.92c0-9.29,2.35-16.49,7.06-21.59,4.7-5.1,11.53-7.65,20.48-7.65s15.78,2.55,20.49,7.65c4.7,5.1,7.05,12.3,7.05,21.59v12.58h-17.68v-13.77c0-7.37-3.12-11.05-9.35-11.05s-9.35,3.68-9.35,11.05v66.47c0,7.25,3.12,10.88,9.35,10.88s9.35-3.63,9.35-10.88v-18.19h17.68v16.83c0,9.29-2.35,16.49-7.05,21.59-4.7,5.1-11.53,7.65-20.49,7.65s-15.78-2.55-20.48-7.65Z"/>
      <path class="cls-1" d="M508.45,175.7h-19.55v-17h57.8v17h-19.55v102h-18.7v-102Z"/>
      <path class="cls-1" d="M562.34,158.7h25.33l19.38,119h-18.7l-3.4-23.63v.34h-21.25l-3.4,23.29h-17.34l19.38-119ZM582.74,238.26l-8.33-58.82h-.34l-8.16,58.82h16.83Z"/>
      <path class="cls-1" d="M622.86,175.7h-19.55v-17h57.8v17h-19.55v102h-18.7v-102Z"/>
      <path class="cls-1" d="M670.12,158.7h51v17h-32.3v31.45h25.67v17h-25.67v36.55h32.3v17h-51v-119Z"/>
      <path class="cls-1" d="M738.29,271.67c-4.76-5.16-7.14-12.55-7.14-22.18v-90.78h18.7v92.14c0,4.08.82,7.03,2.46,8.84,1.64,1.81,4,2.72,7.05,2.72s5.41-.91,7.06-2.72c1.64-1.81,2.46-4.76,2.46-8.84v-92.14h18.02v90.78c0,9.63-2.38,17.03-7.14,22.18-4.76,5.16-11.67,7.74-20.74,7.74s-15.98-2.58-20.74-7.74Z"/>
      <path class="cls-1" d="M800.17,158.7h27.71c9.63,0,16.66,2.24,21.08,6.71,4.42,4.48,6.63,11.36,6.63,20.66v7.31c0,12.35-4.08,20.17-12.24,23.46v.34c4.53,1.36,7.73,4.14,9.6,8.33,1.87,4.19,2.81,9.8,2.81,16.83v20.91c0,3.4.11,6.15.34,8.25.23,2.1.79,4.17,1.7,6.21h-19.04c-.68-1.93-1.13-3.74-1.36-5.44-.23-1.7-.34-4.76-.34-9.18v-21.76c0-5.44-.88-9.24-2.63-11.39-1.76-2.15-4.79-3.23-9.1-3.23h-6.46v51h-18.7v-119ZM825.67,209.7c3.74,0,6.54-.96,8.41-2.89,1.87-1.93,2.81-5.16,2.81-9.69v-9.18c0-4.31-.77-7.42-2.29-9.35-1.53-1.93-3.94-2.89-7.23-2.89h-8.5v34h6.8Z"/>
      <path class="cls-1" d="M872.42,271.67c-4.65-5.16-6.97-12.55-6.97-22.18v-6.8h17.68v8.16c0,7.71,3.23,11.56,9.69,11.56,3.17,0,5.58-.94,7.23-2.81,1.64-1.87,2.46-4.9,2.46-9.09,0-4.99-1.13-9.38-3.4-13.17-2.27-3.8-6.46-8.36-12.58-13.68-7.71-6.8-13.09-12.95-16.15-18.45-3.06-5.5-4.59-11.7-4.59-18.62,0-9.41,2.38-16.69,7.14-21.84,4.76-5.16,11.67-7.74,20.74-7.74s15.72,2.58,20.31,7.74c4.59,5.16,6.89,12.55,6.89,22.18v4.93h-17.68v-6.12c0-4.08-.79-7.06-2.38-8.92-1.59-1.87-3.91-2.81-6.97-2.81-6.23,0-9.35,3.8-9.35,11.39,0,4.31,1.16,8.33,3.49,12.07,2.32,3.74,6.54,8.27,12.67,13.6,7.82,6.8,13.2,12.98,16.15,18.53,2.95,5.55,4.42,12.07,4.42,19.55,0,9.75-2.41,17.23-7.23,22.44-4.82,5.21-11.81,7.82-21,7.82s-15.92-2.58-20.57-7.74Z"/>
      <path class="cls-1" d="M231.19,225v-13.6h693.76v13.6H231.19Z"/>
    </g>
  </g>
</svg>