<?xml version="1.0" encoding="UTF-8"?>
<svg id="Calque_2" data-name="Calque 2" xmlns="http://www.w3.org/2000/svg" xmlns:xlink="http://www.w3.org/1999/xlink" viewBox="0 0 811.02 77.5">
  <defs>
    <style>
      .cls-1 {
        fill: url(#Dégradé_sans_nom_33);
      }
    </style>
    <linearGradient id="Dégradé_sans_nom_33" data-name="Dégradé sans nom 33" x1="0" y1="38.75" x2="811.02" y2="38.75" gradientUnits="userSpaceOnUse">
      <stop offset="0" stop-color="#002400"/>
      <stop offset=".11" stop-color="#003a12"/>
      <stop offset=".41" stop-color="#00713f"/>
      <stop offset=".67" stop-color="#009a5f"/>
      <stop offset=".88" stop-color="#00b273"/>
      <stop offset="1" stop-color="#00bc7b"/>
    </linearGradient>
  </defs>
  <g id="Calque_1-2" data-name="Calque 1">
    <path class="cls-1" d="M68.35,16.2c2.45-1.59,4.51-3.39,6.32-5.75l-7.99-3.77c-1.08,4.6-2.73,8.71-4.78,12.84,2.34-.99,4.33-2.05,6.44-3.33ZM14.25,18.57c-1.95-1.46-3.8-2.63-5.8-3.76-2.67-1.39-5.43-2.39-8.45-2.75l.71,8.78c4.48-1.33,8.84-2,13.55-2.26ZM33.27,37.14l-1.55-.28c-1.3-.24-2.48-.43-3.89-.54.78,2.12,1.49,3.81,2.41,5.68,3.23,6.51,6.97,12.66,11.31,18.49,2.06,2.77,5.24,6.6,8.14,8.44,15.7-14.74,25.74-31.59,27.36-53.48-2.37,1.86-4.73,3.39-7.37,4.63l-3.77,1.77c-2.74,11.6-9.77,22.35-18.12,30.92-3.32-4.07-5.92-8.44-8.07-13.22M19.4,20.62c-4.49.25-9.01.68-13.48,1.71-1.94.45-3.71,1.02-5.49,1.96,5.66,21.23,15.65,38.92,34.05,51.65-.46-3.02-.81-5.84-.7-8.77l.17-4.4c-8.89-8.43-14.99-20.13-18.67-31.91,5.53-1.01,11.14-1.06,16.7-.23l6.52-9.18c-2.47-.5-4.75-.69-7.22-.88-3.57-.14-7.07-.15-10.62-.03M56.2,23.43c-2.98,5.6-6.27,11.32-10.36,16.21l-1.69-4.01-2.56-6.5c3.5-4.53,6.4-9.51,8.46-14.96-11.58-2.97-24.51-3.65-35.84-.24l-4-2.77c-2.2-1.53-4.54-2.63-7.12-3.67C22.88-2.03,42.48-1.82,63.13,4.45c-.45,5.42-3.32,11.6-5.62,16.35l-1.31,2.62ZM37.79,68.29c-.24-2.65-.25-5.23-.05-7.95,2.62,3.93,5.46,7.49,8.98,10.83l-6.83,5.2c-.75-1.72-1.2-3.31-1.66-5.03l-.44-3.05ZM800.4,2.35c-4.24-1.27-8.83-2.2-13.43-2.2l-88.02-.04-7.28,40.77c-1.05,5.96-5.38,9.94-11.02,11.9-7.56,2.22-15.71,2.52-23.23.26-5.32-1.57-8.31-6.13-7.36-11.54L657.38.13h-26.17l-7.73,44c-2.58,14.83,4.18,27.25,19.31,30.82,15.33,3.62,31.3,3.4,46.39-.8,14.23-3.96,24.84-14.47,27.64-28.8l4.54-23.4,61.52.11c1.01.15,1.7,3.53.99,4.2-.62.56-1.98,2.04-2.93,2.04l-55.19.06-8.46,48.02,26.13-.06,4.54-25.96,27.77-.11c10.4-.04,22.9-1.96,28.87-10.59,7.08-10.27,11.45-32.63-4.2-37.32ZM450.07.13l-39.15,52.89L391.18.13h-26.26l-13.52,76.13,26.02.19,5.32-28.91,10.72,28.78,29.38.09,25.06-33.64-.69,5.25h26.11L481.78.13h-31.71ZM511.31,21.89l26.69.13,2.07,3.21,25.08-.06c1.55-6.46.58-12.53-3.44-17.39-3.42-4.13-8.87-7.51-15.11-7.53l-35.93-.04c-12.01-.02-23.46,7.45-27.88,18.47-2.35,5.88-2.71,12.68.26,18.12,2.76,5.04,8.76,7.88,14.57,8.37l33.43,2.84c1.55.13,3.7,1.33,3.51,2.65-.15.97-1.18,2.67-2.17,3.92l-86.32.06-3.94,21.74,86.29.02c9.99,0,19.39-2.65,26.22-10.55,5.94-6.89,7.99-17.26,4.05-25.31-2.76-5.6-9.26-8.65-15.33-9.23l-35-3.36c-1.08-.09-1.29-3.51-.54-4.24.69-.65,2.54-1.81,3.49-1.81ZM323.46.13l-31.79.04-51.45,75.85c11.13.5,20.28.41,30.31.26l33.95-49.83,16.57,50.11,26.99-.37L323.46.13ZM97.32.15l-3.81,21.74,33.86.13-9.62,54.35,26.2-.15,9.66-54.24,33.79-.09L191.21.11l-93.89.04ZM253.57,48.04l13.26-19.54-76.29-.15-8.5,48.04,52.63-.04,14.47-21.68-37.41-.09,1.85-6.59,39.99.04ZM195.52.13l-3.79,21.81h79.73L286.16.13h-90.64ZM567.19,28.35l-3.47,19.67,54.7-.02,3.19-19.65h-54.42Z"/>
  </g>
</svg>