<?xml version="1.0" encoding="UTF-8"?>
<svg id="Calque_2" data-name="Calque 2" xmlns="http://www.w3.org/2000/svg" xmlns:xlink="http://www.w3.org/1999/xlink" viewBox="0 0 834.53 99.68">
  <defs>
    <style>
      .cls-1 {
        fill: url(#Dégradé_sans_nom_117);
      }

      .cls-2 {
        fill: url(#Dégradé_sans_nom_40);
      }

      .cls-3 {
        fill: url(#Dégradé_sans_nom_40-5);
      }

      .cls-4 {
        fill: url(#Dégradé_sans_nom_40-3);
      }

      .cls-5 {
        fill: url(#Dégradé_sans_nom_40-4);
      }

      .cls-6 {
        fill: url(#Dégradé_sans_nom_40-2);
      }
    </style>
    <linearGradient id="Dégradé_sans_nom_40" data-name="Dégradé sans nom 40" x1="117.02" y1="50.38" x2="834.53" y2="50.38" gradientUnits="userSpaceOnUse">
      <stop offset="0" stop-color="#004700"/>
      <stop offset=".31" stop-color="#007530"/>
      <stop offset=".62" stop-color="#009b59"/>
      <stop offset=".85" stop-color="#00b371"/>
      <stop offset="1" stop-color="#00bc7b"/>
    </linearGradient>
    <linearGradient id="Dégradé_sans_nom_117" data-name="Dégradé sans nom 117" x1="57.25" y1="55.05" x2="124.08" y2="55.05" gradientTransform="translate(124.08) rotate(-180) scale(1 -1)" gradientUnits="userSpaceOnUse">
      <stop offset="0" stop-color="#000"/>
      <stop offset=".24" stop-color="#003a26"/>
      <stop offset=".5" stop-color="#00714a"/>
      <stop offset=".72" stop-color="#009a64"/>
      <stop offset=".89" stop-color="#00b275"/>
      <stop offset="1" stop-color="#00bc7b"/>
    </linearGradient>
    <linearGradient id="Dégradé_sans_nom_40-2" data-name="Dégradé sans nom 40" x1="24.07" y1="49.56" x2="105.91" y2="49.56" gradientTransform="translate(124.08) rotate(-180) scale(1 -1)" xlink:href="#Dégradé_sans_nom_40"/>
    <linearGradient id="Dégradé_sans_nom_40-3" data-name="Dégradé sans nom 40" x1="23.51" y1="21.47" x2="42.12" y2="21.47" gradientTransform="translate(124.08) rotate(-180) scale(1 -1)" xlink:href="#Dégradé_sans_nom_40"/>
    <linearGradient id="Dégradé_sans_nom_40-4" data-name="Dégradé sans nom 40" x1="104.31" y1="17.11" x2="120.98" y2="17.11" gradientTransform="translate(124.08) rotate(-180) scale(1 -1)" xlink:href="#Dégradé_sans_nom_40"/>
    <linearGradient id="Dégradé_sans_nom_40-5" data-name="Dégradé sans nom 40" x1="72.58" y1="89.22" x2="84.48" y2="89.22" gradientTransform="translate(124.08) rotate(-180) scale(1 -1)" xlink:href="#Dégradé_sans_nom_40"/>
  </defs>
  <g id="Calque_1-2" data-name="Calque 1">
    <path class="cls-2" d="M823.91,13.93c-4.24-1.27-8.83-2.2-13.43-2.2l-88.02-.04-7.28,40.77c-1.05,5.96-5.38,9.94-11.02,11.9-7.56,2.22-15.71,2.52-23.23.26-5.32-1.57-8.31-6.13-7.36-11.54l7.32-41.37h-26.17l-7.73,44c-2.58,14.83,4.18,27.25,19.31,30.82,15.33,3.62,31.3,3.4,46.39-.8,14.23-3.96,24.84-14.47,27.64-28.8l4.54-23.4,61.52.11c1.01.15,1.7,3.53.99,4.2-.62.56-1.98,2.04-2.93,2.04l-55.19.06-8.46,48.02,26.13-.06,4.54-25.96,27.77-.11c10.4-.04,22.9-1.96,28.87-10.59,7.08-10.27,11.45-32.63-4.2-37.32ZM473.59,11.71l-39.15,52.89-19.74-52.89h-26.26l-13.52,76.13,26.02.19,5.32-28.91,10.72,28.78,29.38.09,25.06-33.64-.69,5.25h26.11l8.46-47.89h-31.71ZM534.83,33.47l26.69.13,2.07,3.21,25.08-.06c1.55-6.46.58-12.53-3.44-17.39-3.42-4.13-8.87-7.51-15.11-7.53l-35.93-.04c-12.01-.02-23.46,7.45-27.88,18.47-2.35,5.88-2.71,12.68.26,18.12,2.76,5.04,8.76,7.88,14.57,8.37l33.43,2.84c1.55.13,3.7,1.33,3.51,2.65-.15.97-1.18,2.67-2.17,3.92l-86.32.06-3.94,21.74,86.29.02c9.99,0,19.39-2.65,26.22-10.55,5.94-6.89,7.99-17.26,4.05-25.31-2.76-5.6-9.26-8.65-15.33-9.23l-35-3.36c-1.08-.09-1.29-3.51-.54-4.24.69-.65,2.54-1.81,3.49-1.81ZM346.98,11.71l-31.79.04-51.45,75.85c11.13.5,20.28.41,30.31.26l33.95-49.83,16.57,50.11,26.99-.37-24.58-76.07ZM120.83,11.73l-3.81,21.74,33.86.13-9.62,54.35,26.2-.15,9.66-54.24,33.79-.09,3.81-21.78-93.89.04ZM277.08,59.62l13.26-19.54-76.29-.15-8.5,48.04,52.63-.04,14.47-21.68-37.41-.09,1.85-6.59,39.99.04ZM219.03,11.71l-3.79,21.81h79.73l14.7-21.81h-90.64ZM590.71,39.93l-3.47,19.67,54.7-.02,3.19-19.65h-54.42Z"/>
    <g id="xBbnet.tif">
      <g>
        <path class="cls-1" d="M0,20.15c2.11,28.57,15.21,50.57,35.71,69.81,3.78-2.39,7.93-7.4,10.62-11.02,5.67-7.6,10.55-15.63,14.77-24.13,1.2-2.44,2.13-4.65,3.15-7.41l2.58-8.13-2.71.14c-1.42.12-4.18.35-5.59.65l-4.09.89-2.47.56h0c-.28,2.86-1.07,5.64-2.33,8.22l-.93,1.9c-2.81,6.25-6.2,11.94-10.53,17.26-10.9-11.18-20.07-25.21-23.64-40.36l-4.92-2.31c-3.44-1.62-6.52-3.61-9.61-6.05Z"/>
        <path class="cls-6" d="M18.17,5.81c.59,7.07,4.33,15.15,7.33,21.34l1.71,3.43c.54,1.02,1.09,2.05,1.66,3.07t0,.02l7.07,11.7c1.5,2.2,3.09,4.34,4.79,6.36l-.15-3.53c-.09-2.27,1.4-4.29,3.6-4.87h0c4.45-1.09,7.81-1.86,10.18-2.4,5.05-1.13,10.2-1.78,15.38-1.71,3.64.05,7.28.39,10.89,1.05-4.81,15.37-12.76,30.65-24.36,41.65l.22,5.73c.15,3.84-.3,7.51-.9,11.46,24.01-16.62,37.05-39.7,44.44-67.41-2.32-1.23-4.63-1.97-7.17-2.56-5.83-1.35-11.72-1.91-17.59-2.23l-1.64-.1c-4.64-.15-9.2-.14-13.87.04-3.22.24-6.21.49-9.42,1.14,0,0-4.16.61-9.55,1.93-2.15-3.61-4.02-7.44-5.53-11.45,15.1-3.87,32-4.77,46.78-.31l5.22-3.61c2.87-2,5.93-3.43,9.29-4.79C70.71-2.66,45.12-2.37,18.17,5.81Z"/>
        <path class="cls-4" d="M81.96,24.24c6.15.34,11.84,1.22,17.68,2.95l.92-11.45c-3.95.47-7.54,1.78-11.03,3.59-2.61,1.48-5.02,3-7.57,4.91Z"/>
        <path class="cls-5" d="M11.36,21.15c2.75,1.67,5.36,3.05,8.41,4.35-2.67-5.4-4.82-10.76-6.24-16.76L3.1,13.65c2.37,3.07,5.05,5.43,8.25,7.5Z"/>
        <path class="cls-3" d="M50.68,93.11c-.59,2.25-1.19,4.32-2.16,6.57l-8.92-6.79c4.59-4.37,8.29-9.01,11.72-14.14.26,3.55.24,6.92-.07,10.38l-.57,3.98Z"/>
      </g>
    </g>
  </g>
</svg>